<svg xmlns="http://www.w3.org/2000/svg" width="112" height="113" viewBox="0 0 112 113">
  <g id="Grupo_54409" data-name="Grupo 54409" transform="translate(-114.551 -151)">
    <ellipse id="Elipse_3989" data-name="Elipse 3989" cx="56" cy="56.5" rx="56" ry="56.5" transform="translate(114.551 151)" fill="#26c6da"/>
    <g id="description" transform="translate(141.077 178.525)">
      <path id="Trazado_101460" data-name="Trazado 101460" d="M64,264h59.129v4.548H64Zm0,0" transform="translate(-64 -211.466)" fill="#fff"/>
      <path id="Trazado_101464" data-name="Trazado 101464" d="M136.935,117.179V89.433L116.468,79.2,96,89.433v27.746l20.468,10.234ZM116.468,99.439l-5.685-3.411L124.427,88.3l5.686,2.729Zm2.956-13.645L106.462,93.3l-3.639-2.274L116.468,84.2Zm-18.875,9.1,13.645,8.415V116.5h4.548v-13.19l13.645-8.415v19.558l-15.919,7.96-15.919-7.96Zm0,0" transform="translate(-86.903 -79.199)" fill="#fff"/>
    </g>
  </g>
</svg>
