<svg xmlns="http://www.w3.org/2000/svg" width="112" height="113" viewBox="0 0 112 113">
  <g id="_105" data-name="105" transform="translate(-115 -359)">
    <ellipse id="Elipse_3990" data-name="Elipse 3990" cx="56" cy="56.5" rx="56" ry="56.5" transform="translate(115 359)" fill="#26c6da"/>
    <g id="miyagi-japan-flag-abstract-symbol" transform="translate(135.04 388.236)">
      <g id="Grupo_53854" data-name="Grupo 53854" transform="translate(0 0)">
        <path id="Trazado_101465" data-name="Trazado 101465" d="M61.549,32.382c-7.2,0-15.314,6.314-22.25,17.322l-.149.237-.261-.1c-.454-.182-.9-.378-1.33-.577l-.4-.186.288-.337c5.914-6.934,9.445-15.448,9.445-22.774,0-12.046-7.051-15.229-10.779-15.229-7.246,0-11.4,5.551-11.4,15.229,0,8.117,2.285,13.315,6.794,15.454.113-.145.226-.29.337-.436l3.936-6.407a2,2,0,0,1-1.547-.719c-1.291-1.336-2.562-4.657-2.453-7.9.169-5.093,1.749-8.014,4.333-8.014,2.324,0,4.077,3.45,4.077,8.025,0,5.046-3.871,12.953-9.2,18.8L30.772,45l-.246-.2c-1.393-1.117-2.707-2.271-3.978-3.388-4.916-4.319-9.56-8.4-17.279-8.721C4.262,32.48,0,37.011,0,42.391c0,5.552,8.268,16.17,21.23,16.17,3.36,0,6.9-1.434,10.239-4.144l.178-.145.2.114a33.956,33.956,0,0,0,3.477,1.721l.325.137-.154.319a58.105,58.105,0,0,0-4.173,11.215H39.17a49.292,49.292,0,0,1,3.166-9.292l.108-.239.259.047a44.356,44.356,0,0,0,7.945.684c12.918,0,20.823-10.6,20.823-16.379C71.472,39.946,69.65,32.382,61.549,32.382ZM24.852,49.9a11.149,11.149,0,0,1-5.518,1.7C13.119,51.6,7.3,45.756,7.3,43.1a2.979,2.979,0,0,1,2.815-3.156c4.537,0,7.893,3.1,11.779,6.694.958.885,1.949,1.8,3.008,2.722l.356.309Zm25.582,2.016a35.8,35.8,0,0,1-3.851-.2l-.547-.059.3-.46c4.782-7.271,10.21-11.442,14.893-11.442a2.983,2.983,0,0,1,3.114,3.051C64.345,46.553,56.154,51.919,50.434,51.919Z" transform="translate(0 -10.734)" fill="#fff"/>
      </g>
    </g>
  </g>
</svg>
