<svg xmlns="http://www.w3.org/2000/svg" width="112" height="113" viewBox="0 0 112 113">
  <g id="_106" data-name="106" transform="translate(-686 -359)">
    <ellipse id="Elipse_3991" data-name="Elipse 3991" cx="56" cy="56.5" rx="56" ry="56.5" transform="translate(686 359)" fill="#26c6da"/>
    <g id="feliz" transform="translate(708.214 381.214)">
      <g id="Grupo_53856" data-name="Grupo 53856" transform="translate(0 0)">
        <g id="Grupo_53855" data-name="Grupo 53855">
          <path id="Trazado_101466" data-name="Trazado 101466" d="M57.706,9.9a33.8,33.8,0,1,0-47.8,47.8,33.8,33.8,0,1,0,47.8-47.8ZM33.8,63.582A29.779,29.779,0,1,1,63.582,33.8,29.813,29.813,0,0,1,33.8,63.582Z" transform="translate(0 0)" fill="#fff"/>
        </g>
      </g>
      <g id="Grupo_53858" data-name="Grupo 53858" transform="translate(13.95 22.405)">
        <g id="Grupo_53857" data-name="Grupo 53857">
          <path id="Trazado_101467" data-name="Trazado 101467" d="M118.19,172.152a8.46,8.46,0,0,0-11.951,0A2.012,2.012,0,1,0,109.085,175a4.432,4.432,0,0,1,6.26,0,2.012,2.012,0,1,0,2.845-2.846Z" transform="translate(-105.65 -169.681)" fill="#fff"/>
        </g>
      </g>
      <g id="Grupo_53860" data-name="Grupo 53860" transform="translate(40.526 22.405)">
        <g id="Grupo_53859" data-name="Grupo 53859">
          <path id="Trazado_101468" data-name="Trazado 101468" d="M319.452,172.152a8.46,8.46,0,0,0-11.951,0A2.012,2.012,0,0,0,310.347,175a4.432,4.432,0,0,1,6.26,0,2.012,2.012,0,1,0,2.845-2.846Z" transform="translate(-306.912 -169.681)" fill="#fff"/>
        </g>
      </g>
      <g id="Grupo_53862" data-name="Grupo 53862" transform="translate(13.951 35.279)">
        <g id="Grupo_53861" data-name="Grupo 53861">
          <path id="Trazado_101469" data-name="Trazado 101469" d="M143.344,267.175H107.663a2.012,2.012,0,0,0-2.012,2.012,19.853,19.853,0,0,0,39.705,0A2.012,2.012,0,0,0,143.344,267.175ZM125.5,285.016A15.852,15.852,0,0,1,109.8,271.2h31.4A15.852,15.852,0,0,1,125.5,285.016Z" transform="translate(-105.651 -267.175)" fill="#fff"/>
        </g>
      </g>
    </g>
  </g>
</svg>
