<svg id="_111" data-name="111" xmlns="http://www.w3.org/2000/svg" width="440" height="311.827" viewBox="0 0 440 311.827">
  <path id="Trazado_101454" data-name="Trazado 101454" d="M639.58,554.544l-5.106-8.834c-.213-.371-.418-.748-.612-1.131q-.5-.968-.912-1.974a26.69,26.69,0,0,1-1.153-3.458c-.148-.576-.278-1.159-.387-1.743a26.559,26.559,0,0,1,.962-13.428,26.734,26.734,0,0,1,2.17-4.774,26.339,26.339,0,0,1,6.6-7.58,26.759,26.759,0,0,1,3.068-2.069l0,0,.02-.014c.069-.039.14-.081.211-.12.221-.124.444-.247.669-.365q.708-.373,1.437-.7a26.382,26.382,0,0,1,8.3-2.229c.559-.055,1.121-.093,1.684-.112.294-.01.588-.016.883-.016h.16c.266,0,.533.006.8.016q.8.026,1.593.1a26.47,26.47,0,0,1,18.959,10.8q.42.581.811,1.181.344.536.664,1.084l.042.069,90.7,157.1.531,1.084c.126.383.278.756.379,1.147a8.843,8.843,0,0,1-10.561,10.8,8.862,8.862,0,0,1-4.988-3.191c-.247-.318-.448-.667-.673-1C725.588,632.8,695.8,580.141,665.093,528.019a8.966,8.966,0,0,0-1.062-1.445,8.805,8.805,0,0,0-4.13-2.561,8.966,8.966,0,0,0-1.386-.276,8.72,8.72,0,0,0-4.379.6,8.937,8.937,0,0,0-2.93,1.953,8.753,8.753,0,0,0-1.605,2.225,8.9,8.9,0,0,0-.922,4.857,8.646,8.646,0,0,0,.425,1.976,9.138,9.138,0,0,0,.391.96c.093.2.2.393.3.584l.028.046L709.9,640.991l.032.067q2.553,4.419,5.108,8.838c.227.4.444.8.652,1.206q.568,1.117,1.029,2.287a26.43,26.43,0,0,1,.956,2.912q.148.557.272,1.121c.178.815.318,1.641.418,2.47a26.568,26.568,0,0,1-.636,9.756,26.764,26.764,0,0,1-1.583,4.486,26.446,26.446,0,0,1-7.848,9.906,26.748,26.748,0,0,1-7.349,4.03,26.484,26.484,0,0,1-12.356,1.317,26.621,26.621,0,0,1-9.106-2.93,26.4,26.4,0,0,1-8.143-6.773,27.03,27.03,0,0,1-1.662-2.318c-.15-.239-.3-.478-.442-.72-.055-.093-.111-.188-.164-.281L608.992,572.295a8.84,8.84,0,0,1,14.639-9.841c.247.318.448.667.673,1q30.032,52.019,60.066,104.039c.018.03.035.061.055.091a8.778,8.778,0,0,0,5.193,4.008,9.141,9.141,0,0,0,1.544.294,8.762,8.762,0,0,0,4.144-.583,9.088,9.088,0,0,0,1.151-.561,8.928,8.928,0,0,0,1.621-1.2,8.676,8.676,0,0,0,1.36-1.619,8.954,8.954,0,0,0,1.151-2.608c.047-.178.087-.357.122-.539.02-.1.04-.205.055-.31a9.63,9.63,0,0,0,.1-1.04,8.939,8.939,0,0,0-.043-1.281,8.548,8.548,0,0,0-.243-1.319c-.057-.217-.122-.432-.2-.644a9.07,9.07,0,0,0-.7-1.515L639.616,554.615l-.036-.071Z" transform="translate(-442.332 -505.994)" fill="#3a3a39" fill-rule="evenodd"/>
  <path id="Trazado_101455" data-name="Trazado 101455" d="M602,601.778c.18,0,.358,0,.535.01.4.014.8.037,1.2.071A22.152,22.152,0,0,1,610.6,603.6a22.261,22.261,0,0,1,6.593,4.409,21.961,21.961,0,0,1,3.457,4.318,22.2,22.2,0,0,1,2.437,5.582,22.5,22.5,0,0,1,.539,2.444,22.114,22.114,0,0,1,.257,4.652,22.078,22.078,0,0,1-1.737,7.535,22.349,22.349,0,0,1-2.375,4.222,22.012,22.012,0,0,1-9,7.319,22.1,22.1,0,0,1-30.817-16.943,22.038,22.038,0,0,1,.237-7.854,22.193,22.193,0,0,1,1.123-3.677,22.657,22.657,0,0,1,1.392-2.839,22.115,22.115,0,0,1,3.041-4.07,21.923,21.923,0,0,1,2.737-2.452,22.17,22.17,0,0,1,10.461-4.279c.657-.087,1.321-.142,1.984-.17.267-.012.533-.016.8-.018ZM624.415,550.8c.4.065.8.1,1.191.192a8.845,8.845,0,0,1,5.661,4.192l44.765,77.536a8.841,8.841,0,0,1-14.639,9.843c-.247-.318-.448-.667-.673-1l-44.765-77.536c-.178-.361-.379-.713-.531-1.084a8.841,8.841,0,0,1,6.587-12.031c.4-.073.8-.093,1.2-.138.4.01.8.02,1.206.028Z" transform="translate(-469.711 -462.36)" fill="#d8a450" fill-rule="evenodd"/>
  <path id="Trazado_101456" data-name="Trazado 101456" d="M546.142,663.486H524V620.674h20.918q7.831,0,12.019,3a9.483,9.483,0,0,1,4.19,8.133,10.291,10.291,0,0,1-5.688,9.42,11.285,11.285,0,0,1,5.75,3.884,10.705,10.705,0,0,1,2.079,6.7,9.892,9.892,0,0,1-4.374,8.654q-4.372,3.027-12.751,3.027Zm34.555,0h-9.908V620.674h18.532a23.8,23.8,0,0,1,9.878,1.9,14.166,14.166,0,0,1,8.715,13.64,13.951,13.951,0,0,1-8.808,13.518l9.6,13.76H598.068l-8.257-11.926H580.7v11.926Zm77.431,0h-10.4l-3.791-9.173H624.063l-3.793,9.173H610.117L629.2,620.674h9.786l19.142,42.812Zm14.252,0h-9.786V620.674h8.2l21.283,25.994V620.674h9.787v42.812h-8.135L672.38,637.493v25.994Zm59.082,0H712.013V620.674h19.449a27.345,27.345,0,0,1,12.325,2.66,19.928,19.928,0,0,1,8.318,7.493,22.835,22.835,0,0,1,0,22.507,19.928,19.928,0,0,1-8.318,7.493,27.345,27.345,0,0,1-12.325,2.66Zm54.8,0h-4.526V620.674h3.73l27.585,34.739V620.674h4.464v42.812h-3.732l-27.522-34.739v34.739Zm81.957,0h-4.77l-5.138-11.436H834.459l-5.138,11.436h-4.709l19.573-42.812h4.464l19.571,42.812Zm11.438,0h-4.344V620.674h3.732l18.594,31.743,18.41-31.743h3.73v42.812h-4.342V629.235l-16.821,28.807h-2.14l-16.819-28.624v34.067Zm83.426-38.9H938.251v15.229h22.142v3.854H938.251v15.9H964v3.913H933.725V620.674h29.358v3.913ZM545.407,656.025a10.988,10.988,0,0,0,5.9-1.283,4.4,4.4,0,0,0,1.988-3.977q0-5.319-7.89-5.321H533.849v10.581Zm185.565-27.216h-9.051v26.543h9.051q6.424,0,10.246-3.578t3.823-9.693q0-6.119-3.823-9.694t-10.246-3.578ZM856.662,648.38l-10.275-23-10.275,23ZM640.82,646.79,634.032,630.4l-6.79,16.392Zm-42.935-10.581a6.788,6.788,0,0,0-2.324-5.536q-2.325-1.925-6.79-1.925H580.7v14.923h8.073q4.466,0,6.79-1.957a6.806,6.806,0,0,0,2.324-5.505Zm-64.036-8.073v10.092H543.7a9.959,9.959,0,0,0,5.566-1.283,4.286,4.286,0,0,0,1.9-3.793,4.207,4.207,0,0,0-1.9-3.761,10.145,10.145,0,0,0-5.566-1.254Z" transform="translate(-524 -394.241)" fill="#3a3a39" fill-rule="evenodd"/>
  <path id="Trazado_101457" data-name="Trazado 101457" d="M630.905,663.786h2.122v7.985a10.217,10.217,0,0,1-3.469,1.973,12.9,12.9,0,0,1-4.215.687,11.581,11.581,0,0,1-5.653-1.374,10.164,10.164,0,0,1-3.947-3.813,11.093,11.093,0,0,1,0-10.915,10.153,10.153,0,0,1,3.947-3.813,11.646,11.646,0,0,1,5.682-1.376,12.237,12.237,0,0,1,4.4.764,8.705,8.705,0,0,1,3.378,2.257l-1.374,1.406a8.6,8.6,0,0,0-6.31-2.452,9.4,9.4,0,0,0-4.591,1.122,8.239,8.239,0,0,0-3.214,3.11,9.017,9.017,0,0,0,0,8.865,8.4,8.4,0,0,0,3.2,3.11,9.939,9.939,0,0,0,10.048-.478v-7.057ZM576.81,674.253H574.6V655.235H567.24V653.32h16.925v1.915H576.81v19.018Zm32,0h-2.334l-2.512-5.592H592.3l-2.513,5.592h-2.3l9.57-20.933h2.182l9.57,20.933Zm48.592,0H643.463V653.32h2.214v19.018H657.4v1.915Zm10.078,0h-2.213V653.32h2.213v20.933Zm13.217,0H678.48V653.32H680.3L693.79,670.3V653.32h2.184v20.933h-1.825l-13.456-16.986v16.986Zm40.639-19.018H709.191v7.446h10.824v1.884H709.191v7.773H721.78v1.915h-14.8V653.32h14.354v1.915ZM745.4,674.253h-2.214V653.32H745.4v9.329h13.1V653.32h2.182v20.933H758.5v-9.659H745.4v9.659Zm40.639-19.018H773.9v7.446h10.826v1.884H773.9v7.773H786.49v1.915h-14.8V653.32h14.355v1.915Zm12.05,19.018H795.88V653.32h7.835a9.447,9.447,0,0,1,6.279,1.915,6.512,6.512,0,0,1,2.273,5.262,6.808,6.808,0,0,1-1.242,4.142,6.886,6.886,0,0,1-3.542,2.437l5.114,7.177h-2.423l-4.784-6.729a15.307,15.307,0,0,1-1.674.089h-5.623v6.64Zm37.947-19.018H823.9v7.446h10.826v1.884H823.9v7.773h12.589v1.915h-14.8V653.32h14.352v1.915ZM603.154,666.866l-5.023-11.245-5.025,11.245Zm200.5-1.137a7.236,7.236,0,0,0,4.755-1.374,5.4,5.4,0,0,0,0-7.76,7.279,7.279,0,0,0-4.755-1.361h-5.562v10.495Z" transform="translate(-481.864 -362.604)" fill="#3a3a39" fill-rule="evenodd"/>
</svg>
