<svg xmlns="http://www.w3.org/2000/svg" width="295" height="177.245" viewBox="0 0 295 177.245">
  <g id="_117" data-name="117" transform="translate(-4311 5000.077)">
    <rect id="Rectángulo_36962" data-name="Rectángulo 36962" width="295" height="91" transform="translate(4311 -4949)" fill="#fff"/>
    <g id="paleta-de-color" transform="translate(4337.479 -5000.077)">
      <g id="Grupo_54329" data-name="Grupo 54329" transform="translate(71.648 49.594)">
        <g id="XMLID_233_">
          <g id="Grupo_54328" data-name="Grupo 54328">
            <path id="Trazado_103461" data-name="Trazado 103461" d="M160.624,288.315l-16.761-1.085-34.252,29.361,28.646,37.663L174.1,322l4.744-11.682Z" transform="translate(-109.611 -234.129)" fill="#01d0fb"/>
            <path id="Trazado_103462" data-name="Trazado 103462" d="M238.556,242.326l-13.127-3.086L205.411,256.4l30.237,34.767,20.269-18.242,1.7-9.521Z" transform="translate(-171.159 -203.297)" fill="#62dbfb"/>
            <path id="Trazado_103463" data-name="Trazado 103463" d="M298.444,190.292l-16.356-.652L261.4,207.374l30.487,33.684,20.347-18.313,5.635-11.335Z" transform="translate(-207.131 -171.431)" fill="#99e6fc"/>
            <path id="Trazado_103464" data-name="Trazado 103464" d="M360.946,162.146a12.979,12.979,0,0,1-.922,18.327l-10.615,9.55-30.148-33.1,21.245-18.209,9.174,10.98Z" transform="translate(-244.303 -138.71)" fill="#c8effe"/>
          </g>
        </g>
      </g>
      <path id="Trazado_103465" data-name="Trazado 103465" d="M122.956,239.321l-17.233,5.921L72.151,299.326,118.9,318.461,149.6,274.08l1.715-16.545Z" transform="translate(-13.896 -153.755)" fill="#05e39c"/>
      <g id="Grupo_54331" data-name="Grupo 54331" transform="translate(91.827 17.719)">
        <g id="XMLID_199_" transform="translate(0)">
          <g id="Grupo_54330" data-name="Grupo 54330">
            <path id="Trazado_103466" data-name="Trazado 103466" d="M201.761,174.686l-19.7,3.241-16.007,25.789,43.873,28.839,16.329-23.612,2.034-16.087Z" transform="translate(-166.051 -129.949)" fill="#00f2a6"/>
            <path id="Trazado_103467" data-name="Trazado 103467" d="M270.953,132.047,240.4,112.428l-14.754,1.61-14.827,23.891,44.2,31.016,16.84-24.352Z" transform="translate(-194.814 -89.95)" fill="#6cf5c2"/>
            <path id="Trazado_103468" data-name="Trazado 103468" d="M303.937,73.533a12.976,12.976,0,0,1,3.289,18.052L298.5,104.2,252.291,73.647,267.243,49.56,288.4,62.789Z" transform="translate(-221.457 -49.56)" fill="#9cf8d2"/>
          </g>
        </g>
      </g>
      <g id="XMLID_134_" transform="translate(50.521 0)">
        <path id="Trazado_103469" data-name="Trazado 103469" d="M76.744,213.827,52.772,273.206a29.926,29.926,0,0,0,55.5,22.405l23.7-58.714Z" transform="translate(-50.564 -137.376)" fill="#fed402"/>
        <g id="XMLID_186_" transform="translate(24.834 3.214)">
          <g id="Grupo_54332" data-name="Grupo 54332">
            <path id="Trazado_103470" data-name="Trazado 103470" d="M184.871,163.661l-40.788-19.083-12.151,3.675L119.98,177.06l54.25,21.11L185.506,170.2Z" transform="translate(-119.98 -96.1)" fill="#fee45a"/>
            <path id="Trazado_103471" data-name="Trazado 103471" d="M217.428,81.989,174.012,68.07l-9.017,4.094L153.8,99.143l53.451,21.9,11.37-28.167Z" transform="translate(-141.711 -46.946)" fill="#fee97d"/>
            <path id="Trazado_103472" data-name="Trazado 103472" d="M237.7,22.467a12.98,12.98,0,0,1,7.247,16.861l-6.214,15.585-53.63-20.709,9.714-23.415a12.952,12.952,0,0,1,11.395-.876Z" transform="translate(-161.822 -8.988)" fill="#fef0ae"/>
          </g>
        </g>
        <g id="Grupo_54333" data-name="Grupo 54333" transform="translate(0)">
          <path id="Trazado_103473" data-name="Trazado 103473" d="M50.521,120.286V12.975A12.974,12.974,0,0,1,63.5,0h33.9a12.975,12.975,0,0,1,12.979,12.975V147.319a29.926,29.926,0,0,1-59.852,0Z" transform="translate(-50.521 0)" fill="#f9f7f8"/>
        </g>
        <g id="Grupo_54335" data-name="Grupo 54335" transform="translate(0 0)">
          <g id="XMLID_173_">
            <g id="Grupo_54334" data-name="Grupo 54334">
              <path id="Trazado_103474" data-name="Trazado 103474" d="M110.373,12.975v16.6l-30.693,2.86-29.158-2.86v-16.6A12.974,12.974,0,0,1,63.5,0h33.9a12.975,12.975,0,0,1,12.979,12.975Z" transform="translate(-50.521 0)" fill="#f9b1b1"/>
              <path id="Trazado_103475" data-name="Trazado 103475" d="M110.373,82.73v30.237l-30.3,3.575-29.551-3.575V82.73Z" transform="translate(-50.521 -53.151)" fill="#f79595"/>
              <path id="Trazado_103476" data-name="Trazado 103476" d="M110.373,245.435v30.237H50.521V245.435l29.158-3.575Z" transform="translate(-50.521 -155.386)" fill="#ee6161"/>
              <path id="Trazado_103477" data-name="Trazado 103477" d="M50.521,167.3h59.852v30.233H50.521Z" transform="translate(-50.521 -107.484)" fill="#f47c7c"/>
            </g>
          </g>
        </g>
      </g>
      <circle id="Elipse_4093" data-name="Elipse 4093" cx="10.178" cy="10.178" r="10.178" transform="translate(69.66 137.241)" fill="#e5e1e5"/>
    </g>
  </g>
</svg>
