<svg xmlns="http://www.w3.org/2000/svg" width="295" height="190.453" viewBox="0 0 295 190.453">
  <g id="_120" data-name="120" transform="translate(-4311 3884)">
    <rect id="Rectángulo_36974" data-name="Rectángulo 36974" width="295" height="91" transform="translate(4311 -3834)" fill="#fff"/>
    <g id="lona" transform="translate(4322.018 -3884)">
      <path id="Trazado_103518" data-name="Trazado 103518" d="M131.453,410.91l-11.847,24.535a6.029,6.029,0,0,1-11.458-2.622V402.766h28.8Z" transform="translate(-25.388 -248.399)" fill="#e9b665"/>
      <path id="Trazado_103519" data-name="Trazado 103519" d="M342.455,407.439v21.914A6.029,6.029,0,0,1,331,431.975L319.15,407.439l-5.479-10.3h28.784v10.3Z" transform="translate(-152.141 -244.929)" fill="#e9b665"/>
      <path id="Trazado_103520" data-name="Trazado 103520" d="M206.458,40.023a5.608,5.608,0,0,1,5.608,5.608V181.3H92.57V45.631a5.608,5.608,0,0,1,5.608-5.608Z" transform="translate(-15.781 -24.684)" fill="#fdd79b"/>
      <path id="Trazado_103521" data-name="Trazado 103521" d="M121.1,166.354A10.224,10.224,0,0,1,110.88,156.13V45.631a5.608,5.608,0,0,1,5.608-5.608H98.177a5.608,5.608,0,0,0-5.608,5.608V175.964h14.466V181.3h105.03V166.354Z" transform="translate(-15.78 -24.684)" fill="#fccd7f"/>
      <path id="Trazado_103522" data-name="Trazado 103522" d="M200.1,386.64H92.079v.419H76.789v-.419H72.975a5.993,5.993,0,0,0-5.993,5.993v2.338a5.993,5.993,0,0,0,5.993,5.993H200.1a5.993,5.993,0,0,0,5.993-5.993v-2.338A5.993,5.993,0,0,0,200.1,386.64Z" transform="translate(0 -238.454)" fill="#fdd79b"/>
      <path id="Trazado_103523" data-name="Trazado 103523" d="M88.287,394.971v-2.338a5.993,5.993,0,0,1,5.993-5.993H72.975a5.993,5.993,0,0,0-5.993,5.993v2.338a5.993,5.993,0,0,0,5.993,5.993H94.281A5.993,5.993,0,0,1,88.287,394.971Z" transform="translate(0 -238.454)" fill="#fccd7f"/>
      <path id="Trazado_103524" data-name="Trazado 103524" d="M163.926,40.023h64.8v14.7h-64.8Z" transform="translate(-59.789 -24.684)" fill="#fccd7f"/>
      <path id="Trazado_103525" data-name="Trazado 103525" d="M216.143,70.02H125.5a2.926,2.926,0,0,0-2.926,2.926v96.612l14.886,3.347h76.979l4.634-12.174V72.946a2.926,2.926,0,0,0-2.926-2.926Z" transform="translate(-34.284 -43.184)" fill="#99e6fc"/>
      <path id="Trazado_103526" data-name="Trazado 103526" d="M163.926,70.02v5.415a9.42,9.42,0,0,0,9.409,9.41h45.98a9.42,9.42,0,0,0,9.409-9.41V70.02Z" transform="translate(-59.789 -43.184)" fill="#62dbfb"/>
      <path id="Trazado_103527" data-name="Trazado 103527" d="M129.383,70.02H125.5a2.926,2.926,0,0,0-2.926,2.926v96.612l6.812,1.532Z" transform="translate(-34.284 -43.184)" fill="#62dbfb"/>
      <g id="Grupo_54353" data-name="Grupo 54353" transform="translate(88.287 85.253)">
        <path id="Trazado_103528" data-name="Trazado 103528" d="M256.973,224.626a5.12,5.12,0,0,0-8.233-.222l-15.078,19.282-15.542,19.872,36.621,10.314h21.23A2.026,2.026,0,0,0,278,271.846V254.732Z" transform="translate(-181.5 -222.436)" fill="#57be92"/>
        <path id="Trazado_103529" data-name="Trazado 103529" d="M249.189,254.539a16.986,16.986,0,0,1,.546-20.189l6.592-8.43a5.133,5.133,0,0,1,.916-.909l-.269-.386a5.12,5.12,0,0,0-8.233-.222l-10.88,13.914-4.2,5.368-15.541,19.872,36.621,10.314h7.947Z" transform="translate(-181.5 -222.436)" fill="#22b27f"/>
        <path id="Trazado_103530" data-name="Trazado 103530" d="M174.734,243.686l21.08,30.186H124.6a2.026,2.026,0,0,1-2.026-2.026v-8.287L153.186,224.4a5.119,5.119,0,0,1,8.233.222Z" transform="translate(-122.571 -222.436)" fill="#09a76d"/>
      </g>
      <circle id="Elipse_4094" data-name="Elipse 4094" cx="6.836" cy="6.836" r="6.836" transform="translate(137.387 59.092)" fill="#fedf30"/>
      <path id="Trazado_103531" data-name="Trazado 103531" d="M226.3,7.927h-6.065a.716.716,0,0,1-.716-.716V3.922A3.922,3.922,0,0,0,215.6,0H198.022A3.922,3.922,0,0,0,194.1,3.922v3.4a.607.607,0,0,1-.607.607H187.32a6.393,6.393,0,0,0-6.393,6.393V32.252a2.894,2.894,0,0,0,2.894,2.894H229.8a2.894,2.894,0,0,0,2.894-2.894V14.32A6.394,6.394,0,0,0,226.3,7.927Z" transform="translate(-70.274 0)" fill="#fddeb0"/>
      <g id="Grupo_54354" data-name="Grupo 54354" transform="translate(110.653 0)">
        <path id="Trazado_103532" data-name="Trazado 103532" d="M187.983,20.836a6.393,6.393,0,0,1,6.393-6.393h2.775a4.005,4.005,0,0,0,4.005-4.005,3.922,3.922,0,0,1,3.922-3.922h14.442V3.922A3.921,3.921,0,0,0,215.6,0H198.022A3.922,3.922,0,0,0,194.1,3.922V7.2a.725.725,0,0,1-.725.725h-6.056a6.393,6.393,0,0,0-6.393,6.393V32.252a2.894,2.894,0,0,0,2.894,2.894h4.163Z" transform="translate(-180.926 0)" fill="#fdd79b"/>
      </g>
      <g id="Grupo_54355" data-name="Grupo 54355" transform="translate(129.199 17.621)">
        <path id="Trazado_103533" data-name="Trazado 103533" d="M241.863,51.726h-9.672a2.875,2.875,0,1,1,0-5.749h9.672a2.875,2.875,0,1,1,0,5.749Z" transform="translate(-229.316 -45.977)" fill="#fdd79b"/>
      </g>
      <path id="Trazado_103534" data-name="Trazado 103534" d="M190.943,266.9H148.812a8.506,8.506,0,0,1-6.683-13.767c9.583-12.178,19.093-24.175,19.093-24.175a5.076,5.076,0,0,1,2.113-1.588l-1.917-2.744a5.119,5.119,0,0,0-8.233-.222L122.57,263.557v8.287a2.02,2.02,0,0,0,1.425,1.925l0,0c.023.007.048.011.071.017.061.017.122.034.186.045a1.887,1.887,0,0,0,.347.035h71.216Z" transform="translate(-34.283 -137.183)" fill="#02905d"/>
    </g>
  </g>
</svg>
