<svg xmlns="http://www.w3.org/2000/svg" width="295" height="177.724" viewBox="0 0 295 177.724">
  <g id="_121" data-name="121" transform="translate(-4311 3515)">
    <rect id="Rectángulo_36978" data-name="Rectángulo 36978" width="295" height="91" transform="translate(4311 -3472)" fill="#fff"/>
    <g id="fuente" transform="translate(4364 -3529.2)">
      <g id="Grupo_54336" data-name="Grupo 54336" transform="translate(6.981 159.064)">
        <path id="Trazado_103478" data-name="Trazado 103478" d="M62.032,401.655H21.242a2.846,2.846,0,1,1,0-5.692h40.79a2.846,2.846,0,1,1,0,5.692Z" transform="translate(-18.396 -395.963)" fill="#c9bfc8"/>
      </g>
      <path id="Trazado_103479" data-name="Trazado 103479" d="M200.366,395.963h-22.54a2.846,2.846,0,0,0,0,5.692h22.54Z" transform="translate(-108.582 -236.899)" fill="#c9bfc8"/>
      <path id="Trazado_103480" data-name="Trazado 103480" d="M216.262,175.008h-9.115L174.218,18.234a4.93,4.93,0,0,0-4.819-3.882H148.882l-.025.095-.048-.247L138.564,25.963,105.551,164.846l-2.219,14.3-7.647,1.639-.119,11.141h46.523a2.4,2.4,0,0,0,2.4-2.4V177.41a2.4,2.4,0,0,0-2.4-2.4H132.47l4.417-26.945h32.952l4.417,26.945h-9.619a2.4,2.4,0,0,0-2.4,2.4v12.112a2.4,2.4,0,0,0,2.4,2.4h51.626a2.4,2.4,0,0,0,2.4-2.4V177.41A2.4,2.4,0,0,0,216.262,175.008Zm-74.147-53,9.953-49.6a1.319,1.319,0,0,1,2.588,0l9.953,49.6Z" transform="translate(-59.302)" fill="#fee45a"/>
      <path id="Trazado_103481" data-name="Trazado 103481" d="M89.461,186.006a2.4,2.4,0,0,1,2.4-2.4h5.808a4.074,4.074,0,0,0,3.987-3.236L133.9,26.83a4.942,4.942,0,0,1,.145-.515L136.534,14.6H125.062a4.93,4.93,0,0,0-4.819,3.882L87.313,175.256H78.2a2.4,2.4,0,0,0-2.4,2.4V189.77a2.4,2.4,0,0,0,2.4,2.4H89.461Z" transform="translate(-47.037 -0.248)" fill="#fed402"/>
      <g id="Grupo_54337" data-name="Grupo 54337" transform="translate(177.705 31.725)">
        <path id="Trazado_103482" data-name="Trazado 103482" d="M471.157,192.115a2.846,2.846,0,0,1-2.846-2.846V63.231a2.846,2.846,0,1,1,5.692,0V189.269A2.846,2.846,0,0,1,471.157,192.115Z" transform="translate(-468.311 -60.385)" fill="#c9bfc8"/>
      </g>
      <path id="Trazado_103483" data-name="Trazado 103483" d="M326.114,395.963H241.88v5.692h84.234a2.846,2.846,0,0,0,0-5.692Z" transform="translate(-150.096 -236.899)" fill="#c9bfc8"/>
      <g id="Grupo_54338" data-name="Grupo 54338" transform="translate(5.103 31.725)">
        <path id="Trazado_103484" data-name="Trazado 103484" d="M16.294,190.977a2.846,2.846,0,0,1-2.846-2.846V63.231a2.846,2.846,0,1,1,5.692,0v124.9A2.846,2.846,0,0,1,16.294,190.977Z" transform="translate(-13.448 -60.385)" fill="#c9bfc8"/>
      </g>
      <g id="Grupo_54339" data-name="Grupo 54339" transform="translate(5.842 31.365)">
        <path id="Trazado_103485" data-name="Trazado 103485" d="M189.746,65.128H18.242a2.846,2.846,0,1,1,0-5.692h171.5a2.846,2.846,0,1,1,0,5.692Z" transform="translate(-15.396 -59.436)" fill="#c9bfc8"/>
      </g>
      <g id="Grupo_54340" data-name="Grupo 54340" transform="translate(0 26.263)">
        <path id="Trazado_103486" data-name="Trazado 103486" d="M13.676,61.886H2.222A2.222,2.222,0,0,1,0,59.665V48.211a2.222,2.222,0,0,1,2.222-2.222H13.676A2.222,2.222,0,0,1,15.9,48.211V59.665A2.221,2.221,0,0,1,13.676,61.886Z" transform="translate(0 -45.989)" fill="#f47c7c"/>
        <path id="Trazado_103487" data-name="Trazado 103487" d="M13.676,393.933H2.222A2.222,2.222,0,0,1,0,391.712V380.258a2.222,2.222,0,0,1,2.222-2.222H13.676a2.222,2.222,0,0,1,2.222,2.222v11.454A2.221,2.221,0,0,1,13.676,393.933Z" transform="translate(0 -252.037)" fill="#f47c7c"/>
        <path id="Trazado_103488" data-name="Trazado 103488" d="M457.085,61.886h11.454a2.222,2.222,0,0,0,2.222-2.222V48.211a2.222,2.222,0,0,0-2.222-2.222H457.085a2.222,2.222,0,0,0-2.222,2.222V59.665A2.222,2.222,0,0,0,457.085,61.886Z" transform="translate(-282.26 -45.989)" fill="#f47c7c"/>
        <path id="Trazado_103489" data-name="Trazado 103489" d="M457.085,393.933h11.454a2.222,2.222,0,0,0,2.222-2.222V380.258a2.222,2.222,0,0,0-2.222-2.222H457.085a2.222,2.222,0,0,0-2.222,2.222v11.454A2.222,2.222,0,0,0,457.085,393.933Z" transform="translate(-282.26 -252.037)" fill="#f47c7c"/>
      </g>
    </g>
  </g>
</svg>
