<svg xmlns="http://www.w3.org/2000/svg" width="176.171" height="195" viewBox="0 0 176.171 195">
  <g id="_33" data-name="33" transform="translate(-603 -2318)">
    <g id="Grupo_56089" data-name="Grupo 56089" transform="translate(603 2318)">
      <path id="Trazado_106201" data-name="Trazado 106201" d="M637.235,105.628l8.12-1.458a32.074,32.074,0,0,0-9,7l14.443.675-7.689,7.137a7.127,7.127,0,0,1,5.105-.242,155.342,155.342,0,0,1-21.3,9.465c9.169-.015,18.241-1.718,27.251-3.414a64.463,64.463,0,0,1-12.808,7.065l2.022-1.317a50.84,50.84,0,0,0-9.77,5.664,33.553,33.553,0,0,0,9.108-4.542,35.4,35.4,0,0,1-5.42,8.343l8.947-2.57a45.629,45.629,0,0,1-8.52,9.187,17.668,17.668,0,0,1,8.773-2.675,1.366,1.366,0,0,1,1.089.3c.446.5,0,1.271-.453,1.76a24.2,24.2,0,0,1-7.066,5.228,48.144,48.144,0,0,0,6.345-24.845c-.779,16.721,2.928,33.44,1.812,50.142-.44,6.586-1.628,13.11-1.918,19.7-.5,11.278,1.641,22.566.914,33.832a6.9,6.9,0,0,1-.7,3.055c-1.77,3.051-6.6,2.11-9.426,4.217,1.179-12.092-1.151-24.21-2.161-36.318a167.731,167.731,0,0,1,3.943-52.567c-.863,11.349-.207,22.753.45,34.117l1.9,32.931a34.33,34.33,0,0,0,1.592,10.05,99.763,99.763,0,0,0,1.787-17.205q.671-14.725,1.342-29.451c.3-6.62.6-13.242.688-19.868.044-3.405-.03-7.025-1.88-9.883-3.6,18.852.271,38.527-3.289,57.387.731-22.65,1.452-45.474-2.245-67.833l-.121,43.367c-.04,14.16-.079,28.326-.78,42.468l.729-32.235c-.451,13.7.863,27.394,2.368,41.019,1.473-2.931,1.507-6.35,1.5-9.631q-.125-34.616-2.481-69.177a82.791,82.791,0,0,0-1.544-12.649c-1.154-5.1-3.237-9.992-3.957-15.174a29.733,29.733,0,0,1,4.8-20.572A3.618,3.618,0,0,1,640.758,105a3.866,3.866,0,0,1,2.154-.354l6.065.178a.969.969,0,0,1,.684.2c.257.265.131.7,0,1.044-4.861,12.422.294,26.3.254,39.638a130.958,130.958,0,0,1-8.494-35.4l.18,36.388" transform="translate(-519.067 -71.115)" fill="none" stroke="#29abe2" stroke-miterlimit="10" stroke-width="8"/>
      <path id="Trazado_106202" data-name="Trazado 106202" d="M699.34,98.636l1.891,44.677c.2,4.7.4,9.392.793,14.075.573,6.779,1.558,13.523,1.963,20.314.345,5.783.269,11.581.267,17.373q-.005,14.914.648,29.818c.066,1.5.608,3.484,2.112,3.462,1.653-.024,1.977-2.345,1.792-3.988-1.317-11.695-.793-23.506-.77-35.274.046-22.249-1.7-44.459-2.579-66.691-.315-7.951-.45-16.257,2.983-23.435.351-.733.717-1.671.188-2.288a2,2,0,0,0-1.777-.4,29.779,29.779,0,0,0-6.357,1.411,2.891,2.891,0,0,0-1.372.792,3.079,3.079,0,0,0-.37,2.259c1.2,12.916,1.213,25.911,1.15,38.882q-.216,44.562-1.543,89.108a1.725,1.725,0,0,0,.253,1.179c.393.47,1.126.385,1.725.258l5.031-1.065c-2.607-.592-3.181-3.995-3.206-6.667q-.275-29.981-.55-59.961c2.541,13.755,4.423,27.623,6.3,41.484,1.729-7.751,1.936-15.749,2.136-23.687q.456-18.067.911-36.133a278.645,278.645,0,0,0-.236-28.073,116.083,116.083,0,0,0-2.266-15.942,64.64,64.64,0,0,0-4.621,16.971l3.368-3.536a35.17,35.17,0,0,0-2.793,6.593,9.528,9.528,0,0,0,3.1.543,38.755,38.755,0,0,1-7.543,13.906l2.839-1.4a26.593,26.593,0,0,1-1.271,7.4l5.48-1.9a50.661,50.661,0,0,1-4.12,26.261" transform="translate(-556.492 -66.962)" fill="none" stroke="#29abe2" stroke-miterlimit="10" stroke-width="8"/>
      <path id="Trazado_106203" data-name="Trazado 106203" d="M502.1,112.6a78.639,78.639,0,0,0,19.5,1.571l-19.145,6.253q7.8-1.1,15.682-1.533A88.07,88.07,0,0,1,505,125.633a3.537,3.537,0,0,1,2.649-1.161c-5.835,2.817-1.811,2.643-7.646,5.46,6.3-1.367,2.916.829,9.348,1.3l-3.786,2.794a57.568,57.568,0,0,1,12.773-3.6l-15.662,6.487a29.941,29.941,0,0,1,11.239-1.21,44.031,44.031,0,0,1-12.868,6.715,20.133,20.133,0,0,1,5.946-3.724,72.341,72.341,0,0,0-6.309,5.787,24.333,24.333,0,0,1,7.781-1.783,1.339,1.339,0,0,1,1.115.284c.389.442.068,1.125-.259,1.615l-2.216,3.317a32.808,32.808,0,0,1,6.815-2.686l-7.793,5.483A38.656,38.656,0,0,1,519.3,149.8a35.188,35.188,0,0,1-12.225,10.722,70.678,70.678,0,0,1,7.176-1.668,60.4,60.4,0,0,1-13.414,5.378,27.143,27.143,0,0,1,9.059-2.709q-3.3,2.951-6.872,5.57l11.959-2.544a51.374,51.374,0,0,0-7.513,2.188,20.594,20.594,0,0,1,5.175-.115,12.785,12.785,0,0,1-4.226,3.056" transform="translate(-452.588 -75.53)" fill="none" stroke="#29abe2" stroke-miterlimit="10" stroke-width="8"/>
      <path id="Trazado_106204" data-name="Trazado 106204" d="M500.7,262.152c6.454-.245,12.991-.484,19.3.9a11.331,11.331,0,0,1-6.427,2.41l3.156.8-12.315,4.046a15.952,15.952,0,0,1,8.943-1.258,21.79,21.79,0,0,1-8.113,4.837l2.6-.453a93.267,93.267,0,0,0-8.924,5.074l11.15-.812c1.79-.13,3.713-.231,5.248.7a33.642,33.642,0,0,1-14.271,3.739,15.548,15.548,0,0,1,10.334-.9,66.546,66.546,0,0,1-11.945,5.661l18.593.095c-.366.918-1.434,1.3-2.382,1.575l-14.79,4.312,9.913.559c.523.03,1.177.162,1.3.672a1.2,1.2,0,0,1-.314.918,15.938,15.938,0,0,1-3.926,3.845,13.774,13.774,0,0,1,4.566-1.719l-10.734,5.028a116.2,116.2,0,0,1,12.417.7l-10.965,4.661,4.353-.657L505,309.813a57.123,57.123,0,0,1,11.207-.825,40.7,40.7,0,0,1-9.115,3.183,17.354,17.354,0,0,1,5.635-1.2,119,119,0,0,1-13.372,3.287l7.316-1.7-6.632,2.529a.626.626,0,0,1-.99-.7q.4-13.775.8-27.55-.128,10.4.016,20.792c1.467-.659,1.955-2.462,2.272-4.038q1.949-9.693,3.9-19.386a129.989,129.989,0,0,1-1.043,25.5,189.413,189.413,0,0,0,1.111-45.756,77,77,0,0,0-6.8,27.588c3.879-5.426,5.327-12.167,6.684-18.7.713-3.432,1.411-7.091.152-10.362a44.206,44.206,0,0,0-3.584,22.915" transform="translate(-452.026 -153.771)" fill="none" stroke="#29abe2" stroke-miterlimit="10" stroke-width="8"/>
      <g id="Grupo_56088" data-name="Grupo 56088" transform="translate(0 0)">
        <path id="Trazado_106205" data-name="Trazado 106205" d="M422.8,360.62a3.879,3.879,0,0,0-1.775-1.877c-.545-.22-1.195.184-1.637.482-.6.407-1.557,1.738-2.288,1.618-.527-.086.117-.8.278-1.128.187-.376.4-.741.6-1.109.166-.3.481-.62.4-.974-.4-1.7-2.982,1.465-4.03,2.759.3-1.707,2.265-5.252-.074-5.467-.984-.091-1.605,1.021-2,1.752-.528.969-.939,2.59-1.8,3.417-.129-1.757,1.37-3.449-.057-5.056a.244.244,0,0,0-.237-.062c-.824.208-1.417,1.6-1.769,2.25a9.164,9.164,0,0,0-.677,1.411c-.23.689.008,1.509-.235,2.189-.2-1.409-.429-3.982-2.257-3.048-1.225.626-1.2,2.46-1.032,3.9-.475-.459-1.151-.772-1.652-1.195-.414-.35-1.361-1.421-1.954-.69-.479.591.231,2.359.461,2.907a3.978,3.978,0,0,0,2,2.369c.126.045.216-.164.092-.218-1.337-.578-2.03-2.574-2.193-3.9-.07-.575-.249-1.227.9-.57a5.927,5.927,0,0,1,.6.56c.645.512,1.8.877,1.89,1.846,0,.019.006.041.009.06.031.229.428.177.407-.055a9.74,9.74,0,0,1,0-3.622c.1-.351.452-1,.872-1.066,1.059-.17,1.161,1.1,1.237,1.688a13.7,13.7,0,0,0,.267,1.75.236.236,0,0,0,.391.1c.811-.86.312-1.722.6-2.755a9.831,9.831,0,0,1,1.269-2.421c.228-.355.494-.948.845-.8.6.259.267,1.711.172,2.13a6.28,6.28,0,0,0-.369,2.811.243.243,0,0,0,.354.144c1.727-1.136,1.538-4,3.236-5.152.773-.523,1.3.155,1.254.946a7.159,7.159,0,0,1-.473,1.782,5.2,5.2,0,0,0-.555,2.782.238.238,0,0,0,.395.1c.757-.77,1.334-1.72,2.073-2.514a7.561,7.561,0,0,1,.667-.657c.249-.208.563-.54.717-.232.18.361-.593,1.34-.754,1.665a10.9,10.9,0,0,0-.647,1.6.237.237,0,0,0,.108.265c.735.38,1.447-.26,1.993-.71a10.058,10.058,0,0,1,1.554-1.221c.944-.507,2,.534,2.463,1.353C422.544,360.958,422.879,360.83,422.8,360.62Z" transform="translate(-400.433 -202.464)" fill="#1a1a1a"/>
        <path id="Trazado_106206" data-name="Trazado 106206" d="M471.25,349.84c-.2-.356-.469-1.214-.971-1.246-1.067-.067-1.507,2.436-1.64,3.131-.021.111-.005.393-.074.481-.3.4-.983,0-1.226-.183-.269-.2-.457-.508-.732-.715a2.878,2.878,0,0,0-1.814-.723c-.883.13-.984,1.2-.984,2.046a4.039,4.039,0,0,0-1.722-1.232c-.9-.232-1.457.574-2.311.51-.24-.018-.279.35-.056.413a1.953,1.953,0,0,0,1.336-.2c1.248-.415,1.978.6,2.839,1.34a.271.271,0,0,0,.457-.189c-.005-.483-.14-1.573.209-1.971.553-.629,1.726.377,2.116.747.458.433,1.269,1.5,2.044.917.543-.406.544-1.818.733-2.428a2.948,2.948,0,0,1,.4-1.05c.438-.43.586-.127.81.247a12.808,12.808,0,0,1,1.415,2.881c.025.082.166.072.157-.021A6.806,6.806,0,0,0,471.25,349.84Z" transform="translate(-431.411 -199.149)" fill="#1a1a1a"/>
        <path id="Trazado_106207" data-name="Trazado 106207" d="M754.6,354.9a10.428,10.428,0,0,1-2.219,1.129,9.372,9.372,0,0,1-2.109.856c.351-1.308,2.686-3.446,1.568-4.6-.6-.618-1.443.044-1.951.432s-.98.816-1.506,1.182a7.722,7.722,0,0,1-1.882,1.3c.6-2.129,2.786-3.9,2.175-6.263a.24.24,0,0,0-.35-.143,7.5,7.5,0,0,0-1.988,2.5c-.5.85-1.14,1.613-1.7,2.426a7.084,7.084,0,0,0,.771-2.975c-.061-.642-.43-1.36-1.2-1.126-.808.245-1.432,1.8-1.794,2.452a7.487,7.487,0,0,0-.77,2.01,4.937,4.937,0,0,1-.832,2.339.1.1,0,0,0,.148.148,3.652,3.652,0,0,0,.945-1.955,12.174,12.174,0,0,1,1.531-3.348c.08-.13.149-.265.228-.394.308-.5.23-.693.844-.367.508.269.482.243.457.742a3.777,3.777,0,0,1-.161.9,9.55,9.55,0,0,0-.858,2.795.233.233,0,0,0,.43.117,32.273,32.273,0,0,1,2.035-2.982,11.553,11.553,0,0,1,1.87-2.644c.267,2.153-1.953,3.945-2.341,6a.246.246,0,0,0,.235.308c.951-.051,1.725-.9,2.454-1.422.593-.425,2.105-2.055,2.717-1.615.9.643-1.612,3.43-1.627,4.463a.255.255,0,0,0,.252.252,6.674,6.674,0,0,0,2.309-.782,9.052,9.052,0,0,0,2.549-1.441C754.99,355.054,754.774,354.762,754.6,354.9Z" transform="translate(-578.716 -199.233)" fill="#1a1a1a"/>
        <path id="Trazado_106208" data-name="Trazado 106208" d="M651.03,427.022c-1.411-.637-2.466.919-3.655,1.478.031-.553.4-1.248.44-1.767a6.179,6.179,0,0,0-.126-2.073.277.277,0,0,0-.261-.2c-1.247-.063-1.908,1.027-2.458,2.082.138-.789.372-1.584.479-2.342.125-.884.377-2.245-.228-3.027-.653-.843-1.334.125-1.789.712a8.862,8.862,0,0,0-1.281,2.166c-.333.861-.434,1.774-.738,2.638-.242-1.2.375-2.437-.3-3.554a2.47,2.47,0,0,0,.259-.239c.09-.1-.052-.247-.15-.15a2.648,2.648,0,0,1-.243.193c-.036-.047-.07-.094-.11-.141a.241.241,0,0,0-.374.049,6.111,6.111,0,0,0-.37.588,22.709,22.709,0,0,1-3.683.786c-.956.212-1.888.52-2.852.7a8.4,8.4,0,0,0-2.851.617.164.164,0,0,0,.165.283c1.011-.566,2.464-.48,3.6-.743.934-.218,1.854-.475,2.794-.668a18.4,18.4,0,0,0,2.638-.61,21.147,21.147,0,0,0-.874,2.294c-.215.61-.5,1.163-.673,1.742-.222-.765-.582-1.487-1.168-1.168-.683.372-.634,1.62-.521,2.613a3.766,3.766,0,0,0-1.935-1.457c-.571-.15-2-.234-2.262.512-.193.544.443,1.389.688,1.845a3.82,3.82,0,0,0,1.886,1.809c.129.049.222-.168.095-.225A4.555,4.555,0,0,1,633,428.881c-.054-.118-.1-.239-.144-.361a1.257,1.257,0,0,1,.9-.344,2.592,2.592,0,0,1,.9.066,3.857,3.857,0,0,1,2.207,2.179c.086.2.431.1.413-.112a11.467,11.467,0,0,1-.1-2.409c.117-.908.494-.766.754.035a12.566,12.566,0,0,1,.325,1.363c.051.246.469.2.444-.06a6.826,6.826,0,0,1,.824-3.019,14.539,14.539,0,0,1,1.159-2.769l.058-.037c.743,1.206-.162,2.769.452,4.075a.24.24,0,0,0,.412,0c.64-1.283.668-2.753,1.375-4.009a6.765,6.765,0,0,1,1.261-1.773c.681-.59.783.023.83.717.122,1.834-.816,3.581-.739,5.387a.273.273,0,0,0,.505.137c.284-.452,1.651-3.506,2.4-2.885.351.289-.018,2.162-.112,2.495a2.543,2.543,0,0,0-.24,1.394.27.27,0,0,0,.328.186,8.265,8.265,0,0,0,2.094-1.295,2.8,2.8,0,0,1,.546-.314,1.326,1.326,0,0,1,1.647.706c.2.455-.193,1.263-.344,1.694-.057.163.186.255.272.115C652.07,428.986,652.422,427.65,651.03,427.022Z" transform="translate(-521.03 -236.996)" fill="#1a1a1a"/>
        <path id="Trazado_106209" data-name="Trazado 106209" d="M625.6,439.067c-.027-.138-.221-.122-.264-.009a4.268,4.268,0,0,0-1.241-.416,3.246,3.246,0,0,0-2.3-.188,2.39,2.39,0,0,0-.508.419c-.45.391-.463.516-1.006.32a11.728,11.728,0,0,1-1.393-.715c-.141-.075-.357.09-.241.241A3.444,3.444,0,0,0,620.7,439.9c.763-.018,1.01-1.01,1.822-1.108a6.651,6.651,0,0,1,2.894.727.163.163,0,0,0,.236-.181C625.635,439.249,625.618,439.158,625.6,439.067Z" transform="translate(-514.72 -246.136)" fill="#1a1a1a"/>
        <path id="Trazado_106210" data-name="Trazado 106210" d="M457.163,380.753a11.721,11.721,0,0,0-3.35.321c-1.452.246-2.933.368-4.4.506-1.322.125-2.638.276-3.955.45a23.83,23.83,0,0,1-3.534.655c-.092,0-.09.135,0,.141a18.307,18.307,0,0,0,3.534-.548c1.317-.165,2.632-.306,3.955-.421,1.25-.109,2.511-.214,3.755-.388a22.375,22.375,0,0,1,3.995-.52C457.292,380.955,457.285,380.767,457.163,380.753Z" transform="translate(-422.132 -215.976)" fill="#1a1a1a"/>
        <path id="Trazado_106211" data-name="Trazado 106211" d="M463.28,384.83a106.264,106.264,0,0,1-15.052,1.4.108.108,0,0,0,0,.216l.313,0a.091.091,0,0,0,.09-.076l.058.084.461,0a8.168,8.168,0,0,0,.923,0q1.038-.01,2.074-.054c1.3-.054,2.606-.135,3.9-.26a53.805,53.805,0,0,0,7.273-1.143C463.431,384.965,463.384,384.813,463.28,384.83Z" transform="translate(-425.414 -218.13)" fill="#1a1a1a"/>
        <path id="Trazado_106212" data-name="Trazado 106212" d="M463.409,389.75c-1.089.816-2.616.428-3.873.378a20.343,20.343,0,0,0-4.028.371c-1.653.269-3.289.615-4.946.87a11.852,11.852,0,0,0-2.436.532,6.251,6.251,0,0,1-2.272.676.138.138,0,0,0,0,.275,4.111,4.111,0,0,0,1.752-.375,11.666,11.666,0,0,1,2.608-.684c1.875-.288,3.734-.653,5.607-.94a24.563,24.563,0,0,1,4.886-.276,3.857,3.857,0,0,0,2.854-.631C463.664,389.853,463.524,389.664,463.409,389.75Z" transform="translate(-424.156 -220.697)" fill="#1a1a1a"/>
        <path id="Trazado_106213" data-name="Trazado 106213" d="M466.673,396.767a10.488,10.488,0,0,0-3.1.342c-1.408.265-2.843.278-4.263.436-2.128.236-4.629.5-6.5,1.592a.125.125,0,0,0,.126.215c2.044-1.144,4.924-1.351,7.215-1.537.988-.08,1.985-.122,2.964-.281a18.012,18.012,0,0,1,3.567-.574C466.8,396.965,466.795,396.78,466.673,396.767Z" transform="translate(-427.833 -224.369)" fill="#1a1a1a"/>
        <path id="Trazado_106214" data-name="Trazado 106214" d="M473.07,402.754a24.427,24.427,0,0,0-7.408,1.408c-1.261.364-2.55.6-3.836.861-1.057.212-2.063.836-3.094.99-.251.037-.143.416.1.38.95-.136,1.794-.7,2.748-.9,1.258-.262,2.527-.462,3.769-.792a44.7,44.7,0,0,1,7.715-1.713A.115.115,0,0,0,473.07,402.754Z" transform="translate(-430.897 -227.518)" fill="#1a1a1a"/>
        <path id="Trazado_106215" data-name="Trazado 106215" d="M486.392,405.754a6.308,6.308,0,0,0-1.708.268c-.684.147-1.375.1-2.064.187-1.5.2-2.956.75-4.442,1.046-3.177.635-6.263,1.7-9.459,2.222-.264.044-.152.445.11.4,3.061-.507,5.992-1.572,9.038-2.151,1.379-.262,2.71-.689,4.078-.995.749-.168,1.49-.18,2.246-.283a15.992,15.992,0,0,1,2.2-.466A.115.115,0,0,0,486.392,405.754Z" transform="translate(-436.123 -229.09)" fill="#1a1a1a"/>
        <path id="Trazado_106216" data-name="Trazado 106216" d="M497.868,409.8c-.831.832-2.564.624-3.65.813-1.869.325-3.721.664-5.6.92a47.041,47.041,0,0,0-5.435,1.047c-1.076.278-2.6.158-3.425,1.011a.136.136,0,0,0,.192.192c.623-.62,1.543-.549,2.352-.665.93-.134,1.839-.431,2.759-.621,1.9-.39,3.815-.6,5.728-.871,1.557-.224,3.088-.579,4.646-.787a4.1,4.1,0,0,0,2.591-.884C498.115,409.85,497.969,409.7,497.868,409.8Z" transform="translate(-441.963 -231.193)" fill="#1a1a1a"/>
        <path id="Trazado_106217" data-name="Trazado 106217" d="M505.268,411.82c-1.052.979-2.846.824-4.178.962a26.708,26.708,0,0,0-4.4,1.084c-1.777.5-3.586.853-5.376,1.3a22.582,22.582,0,0,0-4.648,1.305c-.24.12-.029.48.211.36a25.108,25.108,0,0,1,5.408-1.468c1.945-.454,3.875-.906,5.794-1.461a29.77,29.77,0,0,1,4.622-.946,4.4,4.4,0,0,0,2.713-1A.1.1,0,0,0,505.268,411.82Z" transform="translate(-445.547 -232.254)" fill="#1a1a1a"/>
        <path id="Trazado_106218" data-name="Trazado 106218" d="M519.335,415.769c-6.564.925-12.882,3.089-19.493,3.768-.19.02-.194.32,0,.3,6.612-.633,13.079-2.44,19.553-3.85C519.541,415.956,519.475,415.749,519.335,415.769Z" transform="translate(-452.43 -234.337)" fill="#1a1a1a"/>
        <path id="Trazado_106219" data-name="Trazado 106219" d="M531.464,418.729a87.587,87.587,0,0,0-9.01,1.607c-2.649.531-5.368.793-7.75,2.171a.186.186,0,0,0,.188.321c2.413-1.389,5.181-1.611,7.856-2.156,2.914-.593,5.815-1.206,8.75-1.69C531.639,418.958,531.608,418.716,531.464,418.729Z" transform="translate(-460.243 -235.888)" fill="#1a1a1a"/>
        <path id="Trazado_106220" data-name="Trazado 106220" d="M547.527,421.8c-2.177,1.528-5.148.879-7.523,1.815a19.666,19.666,0,0,1-4.6,1.151c-1.805.259-3.625.788-5.441.891a.039.039,0,0,0,0,.078,34.036,34.036,0,0,0,5.478-.694,19.9,19.9,0,0,0,4.713-1.109c2.313-.884,5.527-.212,7.5-1.974C547.732,421.883,547.62,421.734,547.527,421.8Z" transform="translate(-468.262 -237.488)" fill="#1a1a1a"/>
        <path id="Trazado_106221" data-name="Trazado 106221" d="M560.042,425.744c-1.959,1.223-4.4,1.348-6.623,1.706a30.688,30.688,0,0,0-3.388.8,25.772,25.772,0,0,1-4.209,1.243c-.214.021-.218.358,0,.338a21.684,21.684,0,0,0,3.9-1.085,33,33,0,0,1,3.807-.9c2.277-.363,4.706-.5,6.642-1.887C560.3,425.871,560.185,425.655,560.042,425.744Z" transform="translate(-476.506 -239.552)" fill="#1a1a1a"/>
        <path id="Trazado_106222" data-name="Trazado 106222" d="M568.579,433.86a5.993,5.993,0,0,1-3.206.867,12.22,12.22,0,0,1-2.452.544c-.1-.008-.094.14,0,.149a3.649,3.649,0,0,0,1.5-.309,9.289,9.289,0,0,1,1.85-.288,4.07,4.07,0,0,0,2.419-.849C568.77,433.9,568.658,433.8,568.579,433.86Z" transform="translate(-485.511 -243.804)" fill="#1a1a1a"/>
        <path id="Trazado_106223" data-name="Trazado 106223" d="M601.164,429.854c-.842.655-4,1.861-4.171.059a.056.056,0,0,0-.111,0c-.066,2.19,3.539.869,4.4.059C601.363,429.9,601.247,429.79,601.164,429.854Z" transform="translate(-503.337 -241.705)" fill="#1a1a1a"/>
        <path id="Trazado_106224" data-name="Trazado 106224" d="M611.022,420.734a9.913,9.913,0,0,0-3.725.492c-1.514.385-3.067.517-4.6.813-1.637.316-3.233.836-4.865,1.187-1.682.361-3.265.937-4.926,1.357-.085.022-.048.143.035.13,1.523-.248,3-.792,4.52-1.09,1.653-.324,3.263-.8,4.909-1.144,1.491-.31,3.021-.417,4.5-.77a13.9,13.9,0,0,1,4.144-.767C611.158,420.952,611.151,420.751,611.022,420.734Z" transform="translate(-501.231 -236.916)" fill="#1a1a1a"/>
        <path id="Trazado_106225" data-name="Trazado 106225" d="M629.347,420.8a5,5,0,0,0-1.9.425c-.914.224-1.9.127-2.825.292-2.239.4-4.466.992-6.685,1.491-1.978.445-3.978.806-5.941,1.316s-3.8,1.469-5.828,1.669c-.182.018-.187.3,0,.29,1.719.009,3.281-.806,4.9-1.289,2.006-.6,4.084-.935,6.128-1.375,2.133-.459,4.268-.93,6.393-1.431a31.77,31.77,0,0,1,3.152-.509c.886-.119,1.742-.736,2.613-.7C629.464,420.981,629.458,420.811,629.347,420.8Z" transform="translate(-508.128 -236.965)" fill="#1a1a1a"/>
        <path id="Trazado_106226" data-name="Trazado 106226" d="M672.918,420.746c-1.795,1.33-4.03,1.536-6.178,1.827-.214.029-.165.409.051.38,2.123-.282,4.675-.406,6.28-2.009C673.17,420.846,673.037,420.658,672.918,420.746Z" transform="translate(-539.859 -236.933)" fill="#1a1a1a"/>
        <path id="Trazado_106227" data-name="Trazado 106227" d="M678.019,404.8c-.968.866-2.335.872-3.549,1.079-1.451.247-2.882.63-4.336.884-2.72.476-5.764.616-8.266,1.854-.084.041-.024.188.065.153,2.943-1.163,6.342-1.285,9.439-1.852,1.386-.254,2.737-.632,4.127-.86a4.483,4.483,0,0,0,2.681-1.1A.113.113,0,0,0,678.019,404.8Z" transform="translate(-537.357 -228.574)" fill="#1a1a1a"/>
        <path id="Trazado_106228" data-name="Trazado 106228" d="M686.194,409.794a24.718,24.718,0,0,0-7.574,1.109c-1.231.325-2.429.585-3.685.792-1.365.225-2.594.889-3.979,1a.041.041,0,0,0,0,.082,10.572,10.572,0,0,0,3.028-.651c1.283-.316,2.6-.371,3.884-.714a36.817,36.817,0,0,1,8.325-1.446A.088.088,0,0,0,686.194,409.794Z" transform="translate(-542.119 -231.197)" fill="#1a1a1a"/>
        <path id="Trazado_106229" data-name="Trazado 106229" d="M692.707,414.636c-1.821-.228-3.8.417-5.583.74a18.8,18.8,0,0,0-2.792.807,10.484,10.484,0,0,1-3.529.32.186.186,0,0,0,0,.372,13.729,13.729,0,0,0,2.924-.083c.916-.192,1.75-.639,2.669-.833,1.027-.216,2.069-.349,3.1-.548a14.4,14.4,0,0,1,3.213-.478C692.9,414.939,692.891,414.658,692.707,414.636Z" transform="translate(-547.203 -233.719)" fill="#1a1a1a"/>
        <path id="Trazado_106230" data-name="Trazado 106230" d="M723.386,411.709c-1.761,1.259-4.116.963-5.8,2.349-.22.181.095.493.313.313,1.644-1.353,4.134-.878,5.66-2.435C723.673,411.823,723.524,411.61,723.386,411.709Z" transform="translate(-566.527 -232.197)" fill="#1a1a1a"/>
        <path id="Trazado_106231" data-name="Trazado 106231" d="M722.5,401.767c-2.23-.038-4.437.394-6.667.426a.16.16,0,0,0,0,.32c2.23-.03,4.444-.37,6.667-.527A.11.11,0,0,0,722.5,401.767Z" transform="translate(-565.564 -227.002)" fill="#1a1a1a"/>
        <path id="Trazado_106232" data-name="Trazado 106232" d="M742.134,401.779c-.04.09-.075.182-.113.273-.1.019-.2.046-.3.074a.207.207,0,0,0,.109.4,1.641,1.641,0,0,0,.433-.115.2.2,0,0,0,.1-.174c0-.129.021-.257.026-.386S742.192,401.652,742.134,401.779Z" transform="translate(-579.131 -226.974)" fill="#1a1a1a"/>
        <path id="Trazado_106233" data-name="Trazado 106233" d="M470.316,370.659a15.435,15.435,0,0,0-5.4.643c-2.033.732-3.879,1.764-5.985,2.34a.126.126,0,0,0-.091.091l-.056.391c-.018.129.163.188.2.055.131-.46,1.272-.546,1.644-.659.517-.157,1.027-.34,1.528-.543.784-.318,1.531-.714,2.3-1.057a15.36,15.36,0,0,1,5.852-.941A.16.16,0,0,0,470.316,370.659Z" transform="translate(-431 -210.705)" fill="#1a1a1a"/>
        <path id="Trazado_106234" data-name="Trazado 106234" d="M466.342,364.686c-3.951.492-7.666,2.247-11.45,3.4a.08.08,0,0,0,.043.154c3.912-.706,7.428-2.771,11.407-3.261C466.53,364.961,466.532,364.663,466.342,364.686Z" transform="translate(-428.93 -207.579)" fill="#1a1a1a"/>
        <path id="Trazado_106235" data-name="Trazado 106235" d="M461.371,366.754l-.476.019a.1.1,0,0,0,0,.2l.476.019A.117.117,0,0,0,461.371,366.754Z" transform="translate(-432.055 -208.662)" fill="#1a1a1a"/>
        <path id="Trazado_106236" data-name="Trazado 106236" d="M424.821,390.655a58.818,58.818,0,0,0-10.975,2.46.088.088,0,0,0,.047.169c1.25-.194,2.477-.482,3.7-.789-1.324.432-2.845.482-3.808,1.571a.121.121,0,0,0,.171.171c1.345-1.166,3.287-.927,4.774-1.823a.179.179,0,0,0,.077-.226,39.358,39.358,0,0,1,6.016-1.206C425.028,390.963,425.031,390.636,424.821,390.655Z" transform="translate(-407.408 -221.182)" fill="#1a1a1a"/>
        <g id="Grupo_56087" data-name="Grupo 56087" transform="translate(41.796)">
          <path id="Trazado_106237" data-name="Trazado 106237" d="M609.83,94.42c-.17-4.991-.372-9.981-.472-14.972q-.154-7.678-.13-15.36c.016-3.663.182-7.326.291-10.99a6.6,6.6,0,0,1,.147-.9,1.651,1.651,0,0,0-1.63-2.028c-2.818-.2-5.635-.4-8.56-.614.08-1.425.229-2.818.221-4.211-.013-2.2-.078-4.408-.222-6.606-.093-1.415-.848-2.008-2.229-2.121-4.577-.375-9.148-.825-13.729-1.149-3.259-.23-6.53-.293-9.795-.454-.916-.045-1.828-.175-2.742-.266h-2.124c-1.349.182-2.694.419-4.048.534-2.11.18-4.233.223-6.341.425q-4.285.41-8.554.981c-2.669.353-5.334.749-7.984,1.219-1.156.2-1.261.457-1.264,1.634,0,1.017.037,2.034.04,3.051.007,2.425,0,4.849,0,7.374-.57.083-1.038.173-1.511.216-3.123.285-6.25.528-9.369.846-4.831.492-9.658,1.027-14.486,1.553-6.281.685-12.564,1.345-18.838,2.086-2.532.3-5.043.785-7.605,1.193,0,.721-.008,1.369,0,2.018.039,2.963.1,5.925.12,8.888.021,2.9.091,5.794.072,8.689-.076.108-.15.217-.231.32a.061.061,0,0,0,.087.087c.05-.043.094-.089.141-.133-.008.9-.022,1.805-.052,2.707-.236,7.07-.619,14.13-.435,21.213.128,4.9-.159,9.815-.12,14.722.044,5.437.288,10.873.372,16.31.1,6.321.165,12.644.151,18.966,0,.157,0,.313-.006.47a1.521,1.521,0,0,0-.182.621.088.088,0,0,0,.172.023l0-.006c-.029,1.473-.1,2.946-.166,4.418a.105.105,0,0,0,0,.012c-.07,1.556-.131,3.112-.124,4.668.033,6.371-.165,12.732-.425,19.095-.124,3.045-.048,6.1.019,9.149.084,3.8.275,7.6.374,11.4.066,2.52.052,5.041.075,7.562.015,1.68.519,3.019,2.326,3.548,1.226.359,2.415.841,3.64,1.2l.033.01-.008.03a.194.194,0,0,0,.353.149l.039-.067q5.576,1.63,11.168,3.21a135.876,135.876,0,0,0,19.465,3.941c.806.105,1.761.624,2.536-.24.073-.082.335.005.509.015.617.035,1.233.093,1.85.1q9.214.133,18.427.25a21.12,21.12,0,0,0,6.522-.951c3.246-1,6.516-1.916,9.785-2.839,1.1-.312,2.237-.52,3.35-.8,4.156-1.044,8.315-2.073,12.46-3.157s8.317-2.089,12.4-3.376c4.674-1.473,9.26-3.223,13.888-4.844,1.571-.55,1.94-.989,1.706-2.647a13.573,13.573,0,0,1-.189-4.319,1.4,1.4,0,0,0,.006-.265c-.039-2.829-.1-5.659-.114-8.488q-.049-14.45-.057-28.9c0-3.845.038-7.692.164-11.534.166-5.033.5-10.06.643-15.092.133-4.729.1-9.464.164-14.195a17.844,17.844,0,0,1,.2-1.8V95.554A9.014,9.014,0,0,1,609.83,94.42ZM595.388,38.213c2.586-.07,2.526-.065,2.755,2.655a53.264,53.264,0,0,1-.5,9.817c-8.594,1.233-17.244,1.619-25.811,3.272-.071-3.944-.081-7.921-1.16-11.965.758-.131,1.387-.275,2.024-.345,3.557-.392,7.115-.766,10.673-1.147,2.943-.316,5.888-.611,8.827-.966a19.827,19.827,0,0,0,2.708-.605C595.054,38.889,595.138,38.6,595.388,38.213Zm-50.91.268c2.064-.171,4.132-.309,6.192-.52,4.748-.489,9.487-1.086,14.242-1.493a60.771,60.771,0,0,1,6.883-.059c2.916.083,5.831.258,8.743.439,2.153.133,4.3.34,6.451.514-4.417.892-8.9,1.087-13.25,2.208,1.529-.133,3.06-.237,4.584-.4,3.3-.362,6.606-.64,9.873-1.185a17.07,17.07,0,0,1,5.388.193c-3.892.379-7.8.64-11.673,1.171-3.887.533-7.737,1.333-11.508,2V54.236c-2.359.106-4.686-.417-7.151-.551.077-2.108.16-4.154.22-6.2v0a8.922,8.922,0,0,0,1.752-2.332,10.113,10.113,0,0,1,1.287-1.661c.34-.336.711-.516.839-.987.012-.043-.054-.075-.075-.031-.214.453-.9.84-1.248,1.2a11.078,11.078,0,0,0-.9,1.1c-.561.769-1.07,1.555-1.661,2.3-.006-.436-.028-.872-.053-1.308-.03-.522-.3-.759-.848-.8-1.513-.118-3.025-.245-4.537-.37.2-.351.467-.666.662-1.019a10.06,10.06,0,0,1,1.032-1.686c.037-.043-.025-.107-.063-.063a10.222,10.222,0,0,0-1.08,1.684c-.219.376-.527.69-.707,1.071-.9-.075-1.8-.143-2.7-.217.775-.743,1.56-1.473,1.46-2.506-.014-.143-.238-.147-.227,0,.075,1.021-.821,1.734-1.632,2.475q-1.071-.087-2.143-.17c.137-.237.276-.473.429-.7.335-.5.742-.957,1.043-1.482.259-.452.273-.395-.014-.818-.091-.134-.31-.008-.219.128.395.59-.909,1.811-1.2,2.284-.118.19-.23.38-.342.567l-.61-.048a7.614,7.614,0,0,1,.5-.942,9.626,9.626,0,0,0,1.457-2.485c4.323.514,8.643,1.048,12.964,1.572a3.46,3.46,0,0,0,2.615-.416,6.164,6.164,0,0,0-3.1-.947c-3.212-.315-6.43-.561-9.644-.852-.913-.082-1.826-.172-2.739-.257,0-.044,0-.084,0-.129-.01-.144-.23-.148-.227,0,0,.037-.007.07-.008.107q-3.365-.311-6.729-.631c.007-.039.02-.071.025-.11.023-.175-.287-.219-.31-.042-.006.043-.018.082-.026.123l-.548-.051c-.505-.049-1-.185-1.5-.281Zm4.649,10.043c-.223-.966-.421-1.941-.64-2.992q.161-.359.327-.713c.705-.02,1.411-.016,2.117.007-.033.063-.063.128-.1.19a16.238,16.238,0,0,1-1.695,2.156.113.113,0,0,0,.16.16,8.487,8.487,0,0,0,1.678-1.79,6.507,6.507,0,0,0,.386-.7c.172.008.344.01.516.019a6.814,6.814,0,0,1-.823,1.056c-.074.075.027.22.117.152A4.309,4.309,0,0,0,552.2,44.88q.94.057,1.882.145a1.886,1.886,0,0,0-.516,1.617c.021.11.186.079.19-.026a2.5,2.5,0,0,1,.724-1.553c2.614.253,5.245.624,7.92.833a12.255,12.255,0,0,1,.1,1.246c-.038,1.369-.1,2.737-.158,4.1-.03.772-.393,1.59.622,2.215l-.322.228-13.915-1.539A5.319,5.319,0,0,0,549.127,48.523Zm-2.735-7.736a.119.119,0,0,0-.063.23c.506.162-.293,1-.4,1.161a4.861,4.861,0,0,0-.467.875,15.56,15.56,0,0,1-1.914,3.457c-.622.831-1.142,1.711-1.781,2.531a4.625,4.625,0,0,0-.268.379c-.008-.187-.01-.373,0-.558s.015-.37.022-.554c.959-1.691,2.069-3.284,2.992-5a23.731,23.731,0,0,1,1.454-2.423,6.043,6.043,0,0,0,.658-1.124c1.224.2,2.458.355,3.7.5l.367.043a5.819,5.819,0,0,1-1.121,2.673c-.213.338-.41.675-.6,1.016l-.844.013c.583-1.05,1.365-2.7.542-3.5a.108.108,0,0,0-.152.152c.668.684.054,2.1-.694,3.348-.117,0-.231,0-.35,0-.01.2-.019.4-.028.6-.428.659-.839,1.221-1.029,1.525a27.147,27.147,0,0,0-2.886,5.2,16.842,16.842,0,0,0-1.892-.189c-.025-.39-.061-.758-.091-1.116a16.429,16.429,0,0,1,1.729-2.515,20.105,20.105,0,0,0,2.1-3.263,9.683,9.683,0,0,1,.905-2.037,2.739,2.739,0,0,0,.518-.773C546.891,41.052,546.792,40.887,546.392,40.787Zm4.549,3.237c-.561-.041-1.125-.045-1.7-.038.68-1.161,1.609-2.288,1.681-3.655.822.1,1.644.2,2.467.294a14,14,0,0,1-1.659,2.592,7.523,7.523,0,0,0-.43.835Zm-2.6.8c.058,0,.116,0,.174,0-.042.081-.082.164-.123.246Zm-2.584,3.111c.526-.92,1.1-1.808,1.651-2.714-.026.558-.053,1.115-.078,1.668a11.732,11.732,0,0,1-.8.971,1.762,1.762,0,0,0-.563,1.293c0,.105.149.1.16,0,.088-.781.677-1.2,1.177-1.694-.067,1.423-.134,2.844-.2,4.31a23.1,23.1,0,0,1-3.267-.39C544.549,50.3,545.113,49.059,545.755,47.937Zm2.429.1c.56,1.246.563,1.478,0,3.783Zm-6.35-9.281a2.807,2.807,0,0,1,.676.04,27.282,27.282,0,0,0,3.79.918,11.8,11.8,0,0,1-1.007,1.559c-.557.84-1,1.751-1.488,2.63-.72,1.289-1.624,2.48-2.268,3.808.037-.987.074-1.974.117-2.961.366-.487.811-.943,1.079-1.354.4-.614.649-1.316,1.026-1.943a4.93,4.93,0,0,0,.822-1.464.13.13,0,0,0-.251-.069,16.8,16.8,0,0,1-1.408,2.448,10.577,10.577,0,0,1-.964,1.527c-.089.119-.186.244-.283.373.053-1.205.107-2.41.155-3.616C541.854,40.034,541.833,39.419,541.833,38.751ZM496.511,55.728c6.245-.6,12.493-1.175,18.736-1.806,4.044-.409,8.076-.937,12.12-1.345,2.812-.284,5.637-.448,8.455-.68.924-.076,1.847-.183,2.768-.3a3.579,3.579,0,0,1,2.8.35,2,2,0,0,0,.88.265c2.356.333,4.711.67,7.071.97q7.755.986,15.514,1.937c1.667.207,3.332.429,5,.579.762.069,1.56.211,2.167-.6.2-.272.81-.286,1.242-.337,3.38-.393,6.762-.767,10.144-1.146q5.4-.606,10.8-1.212c1.053-.119,2.1-.29,3.159-.362a9.474,9.474,0,0,1,1.629.173l.464-1.491,6.231.752.007.227c-3.114.529-6.22,1.117-9.344,1.573-5.027.733-10.064,1.4-15.1,2.058-8.54,1.123-17.1,2.131-25.617,3.38a80.545,80.545,0,0,1-9.37.413c-4.726.143-9.456.169-14.184.248a5.484,5.484,0,0,1-2.835-.423,5.894,5.894,0,0,0-2.038-.534c-4.564-.547-9.123-1.157-13.7-1.544-2.812-.238-5.657-.074-8.484-.166-3.126-.1-6.248-.289-9.373-.438q-.02-.17-.04-.34A7.454,7.454,0,0,1,496.511,55.728ZM519.5,162.52c.481-1.74,1.767-3.346,2.714-4.861,1.085-1.735,2.131-3.482,3.092-5.289.953-1.791,2.043-3.5,3.018-5.272a12.419,12.419,0,0,0,.554-1.318c.016.986.03,1.971.048,2.957a.108.108,0,0,0-.138.1c-.1,1.717-1.388,3.228-2.2,4.664-.9,1.582-1.708,3.194-2.712,4.713s-1.668,3.183-2.626,4.708c-.459.732-1.071,1.325-1.551,2.034-.168.248-.32.5-.47.759q-.046-6.2-.094-12.4c0-.006.009-.007.01-.014a5.915,5.915,0,0,1,1.112-1.831,8.627,8.627,0,0,0,.788-1.578,36.529,36.529,0,0,1,2.326-4.123c1.691-2.8,2.908-5.862,4.667-8.628.073-.116-.109-.221-.183-.107-1.858,2.869-3.176,6.04-4.98,8.941a31.1,31.1,0,0,0-2.284,4.126c-.389.9-1.115,1.669-1.46,2.584q-.018-2.331-.036-4.66a.134.134,0,0,0,.07-.036,16.887,16.887,0,0,0,2.209-3.49c.87-1.435,1.849-2.785,2.667-4.255.769-1.381,1.635-2.7,2.453-4.05.786-1.3,1.2-2.948,2.166-4.106.093-.111-.067-.272-.16-.16a23.4,23.4,0,0,0-1.832,3.368c-.838,1.423-1.815,2.76-2.644,4.188-.856,1.473-1.755,2.885-2.7,4.3-.816,1.226-1.387,2.574-2.235,3.78q-.016-2.074-.031-4.147c.387-.529.762-1.069,1.147-1.6,1-1.376,1.9-2.812,2.826-4.234.873-1.335,1.806-2.606,2.584-4,.368-.659.807-1.258,1.116-1.949.358-.8.63-1.635.982-2.438.05-.115-.117-.216-.171-.1-.4.857-.7,1.763-1.122,2.6-.336.668-.8,1.257-1.173,1.906-.861,1.5-1.932,2.865-2.868,4.321-.966,1.5-1.985,2.959-3.029,4.41l-.3.415q-.012-1.659-.025-3.319c.052-.111.106-.219.164-.317,1.134-1.912,2.636-3.628,3.873-5.476,1.145-1.711,2.481-3.426,3.467-5.228.61-1.116,1.689-2.248,2.053-3.505q.077,2.811.138,5.623c.067,3.335.053,6.671.081,10.006a36,36,0,0,1-1.9,3.706c-.989,1.521-1.9,3.079-2.839,4.634s-1.782,3.093-2.615,4.688a16.058,16.058,0,0,1-1.134,1.893c-.42.591-.615,1.306-1.047,1.878-.085.113.1.255.2.151a7.888,7.888,0,0,0,.835-1.432c.389-.662.862-1.246,1.223-1.933.871-1.656,1.712-3.3,2.669-4.908.926-1.558,1.81-3.138,2.784-4.667a33.34,33.34,0,0,0,1.835-3.59c0,.372,0,.745.01,1.118.014,1.044.034,2.087.05,3.13a10.634,10.634,0,0,0-.474.962,14.669,14.669,0,0,1-1.265,2.2c-1.036,1.671-1.951,3.407-2.913,5.12s-2.046,3.377-3.086,5.055c-.75,1.209-1.771,2.474-1.886,3.938C519.235,162.634,519.464,162.659,519.5,162.52Zm-2.593,34.927.693-1.132q-.009.931-.017,1.861,0,.214,0,.428c-.068.111-.135.221-.211.328s.093.237.187.144c.007-.006.011-.014.018-.02-.063,2.119-.7,2.67-3.082,2.614,0-2.311-.015-4.517,0-6.724.033-4.2.135-8.4.117-12.6-.023-5.569-.069-11.14-.232-16.706-.1-3.266-.458-6.524-.657-9.787-.075-1.234-.066-2.477-.025-3.713.11-3.314.277-6.626.377-9.94a7.054,7.054,0,0,0-.413-2.526,3.094,3.094,0,0,0-.218.74c-.185,4.639-.423,9.278-.5,13.92-.032,1.98.4,3.964.414,5.948.036,4.289-.078,8.579-.1,12.868-.017,3.668.013,7.335.021,11,0,.433,0,.867,0,1.387l-9.455-1.055v-4.912c.262-.5.528-1,.785-1.5.91-1.778,1.827-3.55,2.779-5.307.375-.692.771-1.365,1.179-2.033.21.031.42.068.63.1a25.782,25.782,0,0,0,2.891.248c.229.007.467-.3.7-.468-.211-.239-.393-.645-.639-.69-.942-.17-1.89-.3-2.839-.428a11.559,11.559,0,0,1,1.324-2.091c.181-.205-.118-.508-.3-.3a15.047,15.047,0,0,0-1.491,2.332l-.885-.113c-.873-.111-1.753-.211-2.674-.316.167-.289.329-.578.508-.865.492-.791.883-1.634,1.362-2.432a7.8,7.8,0,0,0,1.183-2.244.076.076,0,0,0-.147-.04,13.91,13.91,0,0,1-1.687,2.755c-.495.842-.973,1.671-1.523,2.479-.065.1-.126.195-.19.292l-1.069-.122c-.2-3.918-.526-7.814-.534-11.806.087-.17.178-.339.263-.51q.389-.784.783-1.574c1.289.1,2.507.2,3.719.31,1.054.1,2.1.25,3.155.364a1.542,1.542,0,0,0,.781-.02c.226-.11.366-.4.543-.606-.19-.144-.364-.387-.57-.417-1.618-.232-3.239-.445-4.864-.619-.708-.076-1.423-.128-2.173-.18.5-.979,1.027-1.948,1.587-2.884a26.094,26.094,0,0,0,1.32-2.924,5.587,5.587,0,0,0,.724-1.977c.009-.248-.369-.245-.383,0a10.352,10.352,0,0,1-1.218,2.857c-.411.971-.958,1.8-1.446,2.722-.379.719-.751,1.443-1.124,2.169-.335-.023-.678-.047-1.035-.074-.033-1.332-.045-2.665-.049-4,.286-.614.577-1.225.883-1.827.383-.753.617-1.53.942-2.308.307-.734.868-1.261.879-2.079a.181.181,0,0,0-.361,0c-.017.658-.433,1.019-.71,1.547a11.81,11.81,0,0,0-.468,1.18c-.331.843-.771,1.623-1.165,2.433,0-2.958.029-5.934-.028-8.977,1.439-.077,2.835-.225,4.228-.2a24.349,24.349,0,0,1,3.273.387,4.31,4.31,0,0,0,2.492-.148,4.363,4.363,0,0,0-1.106-.481c-1.847-.105-3.7-.2-5.546-.231-2.473-.041-4.94.039-7.331-.84a20.28,20.28,0,0,0-3.129-.63,5.272,5.272,0,0,1,1.412-.526c-.02.012-.035.028-.056.039-.121.068-.035.238.09.214a.979.979,0,0,0,.584-.354,9.358,9.358,0,0,1,1.6-.024c-.042.063-.088.124-.127.19a.15.15,0,0,0,.234.18c.115-.11.231-.226.348-.339.5.04,1.009.093,1.514.127.256.017.513.027.769.041-.083.137.108.262.22.164.052-.045.1-.1.152-.144.318.016.635.035.952.049a1.144,1.144,0,0,0-.018.314.086.086,0,0,0,.168.023c.041-.112.088-.221.138-.327q1.175.045,2.35.081c-.042.056-.088.109-.129.165-.065.09.065.222.155.155.129-.095.25-.2.375-.307.591.019,1.182.043,1.773.069-.022.03-.047.06-.069.09-.056.078.057.194.135.135s.17-.14.253-.211c.2.009.394.015.59.025,2.027.109,4.05.3,6.075.47a6.05,6.05,0,0,1,.777.189l-2.025,1.381c1.3.13,2.323-.863,3.741-.54.029.587.072,1.176.11,1.764a1.762,1.762,0,0,1-.731.881.1.1,0,0,0,.075.177,1.452,1.452,0,0,0,.69-.5c.036.623.063,1.247.056,1.87,0,.3-.009.591-.012.887-.118.152-.238.3-.361.453a1.548,1.548,0,0,0-.51,1,.112.112,0,0,0,.22.03,2.256,2.256,0,0,1,.644-.953c-.106,8.368-.254,16.736-.355,25.1-.011.966-.02,1.931-.03,2.9a1.48,1.48,0,0,1-.128.087c-.171.087-.043.317.122.289h0q-.127,11.39-.225,22.779a11.1,11.1,0,0,0-.853,1.808C516.724,197.474,516.861,197.526,516.909,197.447Zm-6.009,4.031a.108.108,0,0,0-.167-.022l-1.211-.164a3.389,3.389,0,0,0,.069-.712c0-.06-.1-.079-.109-.015a4.566,4.566,0,0,1-.157.7l-5.547-.751V185.9a49.02,49.02,0,0,1,9.487,1.069c-.068,4.854-.135,9.733-.206,14.8ZM500.47,211.787c.968-1.64,2.1-3.193,3.1-4.822a26.793,26.793,0,0,0,2.272-4.916q1.481.209,2.96.43c-.8,1.432-2.1,2.693-2.957,4.01-.671,1.037-1.279,2.113-1.923,3.168a13.985,13.985,0,0,0-1.461,2.612Q501.463,212.032,500.47,211.787Zm6.162-5.818a34.268,34.268,0,0,0,2.445-3.447q.682.1,1.364.21a14.216,14.216,0,0,1-3.176,5.275,12.362,12.362,0,0,0-1.442,2.239,19.13,19.13,0,0,0-1.4,2.488q-.795-.186-1.589-.376C504.19,210.294,505.245,208.021,506.632,205.968Zm-4.907-5.641c0-.022,0-.043,0-.066-.017-.155-.254-.164-.249,0,0,.012,0,.024,0,.036l-7.791-.905c-.077-5.138-.151-10.152-.228-15.261l3.891.641a.145.145,0,0,0,.223.037l2.588.426a12.151,12.151,0,0,0-1.619,4.234c-.025.235.346.274.405.055a20.678,20.678,0,0,1,1.833-4.187l1.532.252v14.805ZM490.09,168.486c.031-2.5-.074-5-.107-7.5a15.894,15.894,0,0,1,1.253-3.195c.066-.152-.159-.285-.225-.131a21.4,21.4,0,0,0-1.037,2.509c0-.142,0-.285,0-.427,0-.56.006-1.12.01-1.68a1.9,1.9,0,0,0,.436-.83c.184-.549.448-1.045.658-1.583a8.331,8.331,0,0,0,.8-3.319c-.009-.147-.237-.149-.231,0a7.78,7.78,0,0,1-.728,2.89c-.164.452-.4.836-.577,1.276-.148.37-.2.769-.356,1.129.014-1.342.036-2.683.058-4.025.114-.309.217-.628.332-.948a18.773,18.773,0,0,1,1.2-2.249c.311-.6.537-1.245.81-1.864-.092,2.215-.183,4.431-.225,6.647q-.1,5.358-.135,10.719a7.012,7.012,0,0,0-.934,2.2c-.275.845-.179,2.647-.979,3.159-.116.074-.044.277.1.231.807-.26.872-1.507.989-2.189a10.729,10.729,0,0,1,.824-2.872q-.009,2.176,0,4.352a11.219,11.219,0,0,1-.889,1.676,10,10,0,0,0-.653,1.146c-.194.456-.228.938-.461,1.387a.133.133,0,0,0,.229.134l.274-.212c.07-.03.015-.121-.047-.112l-.053.007c.168-.383.219-.79.4-1.193.232-.51.576-.985.853-1.473.12-.211.237-.424.346-.64,0,.042,0,.084,0,.126.007.952.019,1.9.029,2.857l-.153.289a15.424,15.424,0,0,1-1.032,1.469,11.011,11.011,0,0,0-1.039,1.975C489.9,174.978,490.05,171.732,490.09,168.486ZM511.5,58.13c.153.007.306.02.459.028a5.912,5.912,0,0,1-.943,1.63c-.558.882-1.312,1.61-1.952,2.429-.685.876-1.3,1.808-1.977,2.688a17.145,17.145,0,0,0-1.25,1.5q-1.029,0-2.059-.011c.19-.249.352-.46.411-.555.531-.85.993-1.763,1.486-2.637.611-1.083,2.115-2.2,2.035-3.57a.08.08,0,0,0-.16,0c0,.961-.755,1.589-1.344,2.226a12.294,12.294,0,0,0-1.3,2,26.236,26.236,0,0,1-1.419,2.338c-.052.068-.106.133-.159.2-.626-.007-1.251-.011-1.877-.009-.161,0-.323,0-.485,0,.2-.294.359-.637.549-.927a15.061,15.061,0,0,1,1.371-1.461,8.086,8.086,0,0,0,.8-1.349c.9-1.569,3.318-2.482,3.048-4.594-.009-.071-.119-.076-.115,0,.093,2.036-2.182,2.8-3.133,4.288a10.956,10.956,0,0,1-.842,1.412c-.339.391-.782.682-1.117,1.077-.423.5-.656,1.073-1.055,1.549a13.916,13.916,0,0,0-2.461.108l-.288.047c1.551-1.564,2.865-3.487,4.261-5.168.715-.862,2.319-2.2,2.548-3.5C506.855,57.96,509.179,58.031,511.5,58.13Zm17.07,66.161a.117.117,0,0,0-.1.1,5.693,5.693,0,0,1-1.414,2.511c-.421.6-.7,1.269-1.1,1.88-.994,1.518-2.07,2.993-3.082,4.5-1.045,1.558-2.191,3.045-3.271,4.578-.2.277-.392.548-.573.828q0-.329-.005-.658c-.007-.9-.235-1.192-1.137-1.3-1.711-.211-3.425-.5-5.143-.538l-.133,0a1.87,1.87,0,0,0,.917-.73c.213-.316.2-.705.387-1.041a9.8,9.8,0,0,1,.73-1.026,9.3,9.3,0,0,0,1.657-.382c.447-.146.865-.354,1.368.014.406.3.774.027.868-.45a8.6,8.6,0,0,0,.166-1.446c0-.1,0-.2.006-.3a.09.09,0,0,0,.109-.016,14.378,14.378,0,0,0,2.277-3.275c.851-1.415,1.741-2.8,2.662-4.17,1.663-2.475,3.052-5.117,4.59-7.669.019.863.043,1.726.065,2.589-.622,1.015-.894,2.313-1.511,3.312-.476.769-1.108,1.429-1.588,2.2-.493.788-.919,1.618-1.409,2.409-1.953,3.148-4.355,6.38-5.59,9.9-.044.127.15.2.214.09,1.829-3.233,3.62-6.461,5.563-9.63.935-1.525,1.841-3.019,2.827-4.509a34.366,34.366,0,0,0,1.5-3.459Q528.492,121.444,528.571,124.291Zm-27.654,11.792a16.9,16.9,0,0,0,1.253-1.437c.61-.8.947-1.759,1.537-2.568q.956.129,1.913.262a8.866,8.866,0,0,1-1.182,1.958c-.494.584-.952,1.194-1.391,1.819Q501.982,136.107,500.917,136.083Zm-2.442.122a21.363,21.363,0,0,1,1.561-2.436,17.167,17.167,0,0,0,1.384-2l1.95.265c-.539.76-.9,1.63-1.478,2.368-.473.6-1.073,1.112-1.6,1.676A14.791,14.791,0,0,0,498.475,136.206Zm-2.285.3c.16-.273.293-.564.449-.855.334-.622.8-1.154,1.088-1.8.367-.824.774-1.61,1.163-2.411.623.079,1.246.154,1.869.24l.345.047a18.767,18.767,0,0,1-1.222,1.7,21.556,21.556,0,0,0-1.4,1.916c-.162.291-.275.618-.427.915C497.435,136.345,496.813,136.44,496.19,136.507Zm1.8,47.256c.615-1.514,1.457-3.014,2.164-4.452.853-1.734,1.576-3.519,2.455-5.237,0,2.23-.041,4.457-.1,6.7-.594,1.1-1.187,2.208-1.754,3.325Zm5.844-12.064q.41-.8.836-1.588,1.721.281,3.4.541c-.31.481-.616.965-.9,1.466-1.1,1.93-2.14,3.891-3.166,5.861-.056.107-.113.213-.169.32Zm0-1.145v-.58l.3.049C504.025,170.2,503.927,170.375,503.829,170.553Zm-1.948,3.784c-.956,1.832-1.762,3.777-2.64,5.65a26.45,26.45,0,0,0-1.728,3.718l-4.051-.486c-.324-5-.191-10.054-.214-15.177l9.288,1.447c.039,1.148.058,2.29.066,3.432C502.364,173.4,502.126,173.869,501.882,174.337Zm.57-5.808-5.406-.689a9.613,9.613,0,0,1,1.374-2.245,21.143,21.143,0,0,0,1.775-2.839c.7-1.479,1.489-2.9,2.258-4.328Zm-.174-11.034c-.549.965-1.144,1.9-1.627,2.9-.5,1.046-.9,2.152-1.494,3.153-.739,1.249-2.165,2.737-2.395,4.254l-3.478-.443c-.1-4.658-.053-9.266.077-13.9l7.06,1.038c-.885,1.739-1.989,3.361-2.793,5.143-.339.752-.579,1.533-.871,2.3a11.3,11.3,0,0,0-1.016,2.444c-.021.171.229.177.281.038.357-.943.972-1.767,1.336-2.721a26.849,26.849,0,0,1,1.259-2.911c.745-1.425,1.56-2.8,2.3-4.223l1.538.226v2.379C502.393,157.283,502.337,157.39,502.278,157.494Zm-.794-4.077c.012-.027.026-.051.039-.078.323-.7.639-1.4.957-2.109v2.29Zm1-3.256q-.734,1.611-1.506,3.2l-7.495-.771V137.937l9,1.98Zm-5.133-20.091c-.006.026-.015.05-.022.076l-1.37-.158a10.1,10.1,0,0,0,.365-1.439c.026-.151-.2-.218-.233-.064a8.6,8.6,0,0,1-.46,1.465l-2.21-.254c-.076-5.114-.151-10.127-.228-15.254l4.011.657a4.149,4.149,0,0,0-.5,1.356c-.021.161.213.164.263.036a12.634,12.634,0,0,1,.638-1.325l2.729.448c-.018.038-.039.075-.056.114a9.881,9.881,0,0,1-1.325,2.527c-.123.146.073.351.213.213a9.9,9.9,0,0,0,1.772-2.754l1.109.181v14.8l-.312-.036a1.622,1.622,0,0,0-.013-.23c-.02-.152-.259-.16-.246,0a1.422,1.422,0,0,1,0,.2l-2.1-.242c.036-.083.075-.163.11-.247.05-.118-.151-.2-.207-.087s-.107.2-.159.3l-1.531-.176c0-.012.007-.024.009-.036C497.63,129.977,497.385,129.906,497.347,130.071Zm-4.374-31.744,9.227,1.466v6.056c-.21.363-.42.726-.634,1.087-1.007,1.7-1.939,3.435-2.926,5.142a17.083,17.083,0,0,0-.949,1.986l-4.494-.544C492.863,108.456,493.019,103.4,492.973,98.327ZM512.8,131.613a.126.126,0,0,0-.216.114.883.883,0,0,1,.011.319l-6.3-.854a3.977,3.977,0,0,0,.123-.435.065.065,0,0,0-.126-.035c-.056.145-.114.294-.175.445l-2.583-.35V116.155c1.657.122,3.19.189,4.711.36s3.051.45,4.748.708C512.935,121.951,512.869,126.684,512.8,131.613Zm-11.856-17.155-2.795-.339c.073-.147.15-.293.216-.442.364-.814.831-1.561,1.271-2.335.864-1.518,1.7-3.049,2.562-4.569v5.151c-.233.525-.449,1.059-.716,1.569C501.313,113.82,501.128,114.138,500.945,114.458Zm.8-.32c.169-.3.316-.6.458-.911v1.382l-.668-.081C501.6,114.4,501.67,114.265,501.742,114.138Zm1.842-9.846c.571-1.04,1.144-2.079,1.8-3.071.132-.2.257-.405.38-.61,1,.178,2,.361,3,.525-.623,1.109-1.471,2.163-2.134,3.181-.951,1.46-1.779,2.958-2.636,4.473-.13.228-.267.452-.406.676Zm.926-2.349c-.318.5-.623,1.01-.926,1.521V100.4a6.249,6.249,0,0,1,1.005.008c.287.048.574.1.86.149C505.132,101.016,504.809,101.471,504.51,101.943ZM498.555,131.4a19.6,19.6,0,0,0-1.037,2,13.829,13.829,0,0,1-1.046,1.741c-.276.458-.5.943-.75,1.417a10.525,10.525,0,0,1-1.612.015c.2-.294.46-.553.685-.86a13.17,13.17,0,0,0,1.182-2.043c.374-.773.9-1.6,1.263-2.437C497.679,131.281,498.117,131.34,498.555,131.4Zm6.457,2.743a5.589,5.589,0,0,0,.522-1.124c.087-.219.184-.433.282-.646l1.1.155a11.13,11.13,0,0,0-.681.889,21.629,21.629,0,0,1-1.271,1.834c-.2.256-.484.558-.727.883-.2,0-.406,0-.609,0C504.136,135.482,504.593,134.765,505.013,134.138Zm.538.834c.377-.5.686-1.05,1.03-1.575.189-.289.422-.555.641-.829q1.333.191,2.662.4c-.543.733-1.1,1.458-1.688,2.154-.3.347-.61.68-.921,1.018q-1.316,0-2.632-.01C504.934,135.74,505.255,135.366,505.55,134.972Zm4.6-1.959c.588.094,1.176.188,1.763.29-.415.5-.913.954-1.183,1.257-.455.511-.894,1.045-1.32,1.589q-.774,0-1.547-.005A28.86,28.86,0,0,0,510.154,133.013Zm1.493.989c.159-.19.36-.413.554-.654a8.059,8.059,0,0,0,2.185.076,4.991,4.991,0,0,0-.864,1.32,1.834,1.834,0,0,1-1.153,1.306.085.085,0,0,0-.043.136q-1.176-.024-2.353-.034C510.554,135.446,511.084,134.675,511.647,134Zm15.228-49.325c-.278,1.5-1.418,2.808-2.286,4.03-.46.648-1.017,1.228-1.464,1.883-.47.688-.763,1.476-1.195,2.187a42.332,42.332,0,0,1-3.029,3.949q0-5.547,0-11.093c1.478-1.639,2.6-3.61,3.906-5.374,1.819-2.451,3.906-4.79,5.253-7.547.072-.147-.147-.278-.221-.13-1.318,2.609-3.328,4.8-5.073,7.129-1.324,1.767-2.526,3.627-3.865,5.381q0-1.386,0-2.773c.663-.966,1.5-1.786,2.125-2.787.8-1.274,1.734-2.381,2.622-3.588,1.648-2.238,3.681-4.137,4.757-6.752.069-.167-.2-.237-.269-.074-1.148,2.72-3.4,4.767-5.15,7.094-.415.551-.915,1.015-1.336,1.557-.463.6-.779,1.288-1.206,1.908-.443.644-1.069,1.22-1.545,1.873,0-.44,0-.879,0-1.319,0-.879-.016-1.758-.024-2.638.342-.527.648-1.084,1-1.595.987-1.449,2.192-2.642,3.306-3.978a9.761,9.761,0,0,0,1.079-1.864,11.894,11.894,0,0,1,1.652-2.142c1.016-1.178,1.812-2.494,2.72-3.751-.253,3.932-.256,7.868-.243,11.809a.127.127,0,0,0-.211-.031c-1.926,2.189-3.17,4.819-4.828,7.2-1.634,2.343-3.407,4.419-4.4,7.156-.048.133.156.213.225.095a39.582,39.582,0,0,1,2.179-3.823c.759-1.024,1.537-1.982,2.261-3.044,1.65-2.422,2.836-5.149,4.759-7.382a.146.146,0,0,0,.015-.026q0,.574,0,1.149c.012,3.492.15,6.982.207,10.474a.06.06,0,0,0-.062.035,25.982,25.982,0,0,1-2.538,3.861q-1.375,2.109-2.874,4.135c-.892,1.2-1.734,2.429-2.576,3.665-.549.806-1.158,1.568-1.755,2.338q0-1.007,0-2.014h.115q0-1.258,0-2.515a28.756,28.756,0,0,0,3.654-4.888,45.089,45.089,0,0,1,2.533-3.908,10.626,10.626,0,0,0,2.028-3.8C527.143,84.587,526.9,84.519,526.875,84.677Zm-8.091,18.008a23.3,23.3,0,0,0,1.9-2.6c.955-1.409,1.884-2.828,2.877-4.211,1.02-1.422,1.975-2.887,2.892-4.377a21.882,21.882,0,0,0,2.135-3.485c.024,1.5.029,2.995,0,4.493a.116.116,0,0,0-.115.042c-1.013,1.185-1.719,2.575-2.758,3.748a24.871,24.871,0,0,0-2.562,3.359c-.854,1.365-1.82,2.676-2.732,4-.524.763-1.14,1.486-1.648,2.267Q518.784,104.3,518.784,102.685Zm9.478,2.6a35.779,35.779,0,0,0-1.828,3.444c-.975,1.59-1.994,3.148-2.934,4.76-.852,1.462-1.715,2.844-2.454,4.365-.413.851-.91,2.43-1.719,2.963a.1.1,0,0,0,.1.17c.8-.37,1.258-1.538,1.631-2.268.7-1.361,1.332-2.7,2.134-4,1.035-1.688,2-3.422,3.025-5.115.749-1.233,1.209-2.825,2.043-4.023-.01,1.691-.011,3.383,0,5.073,0,.243.009.486.011.729a10.269,10.269,0,0,1-1.09,1.945c-1.013,1.55-1.9,3.16-2.821,4.762-.889,1.543-2.031,2.923-2.911,4.49-.37.658-.76,1.3-1.1,1.975A4.393,4.393,0,0,1,519,126.516c-.108.063-.038.249.087.207,1.02-.341,1.4-1.575,1.875-2.432a43.966,43.966,0,0,1,3.028-4.921c1.078-1.457,1.86-3.176,2.789-4.736.47-.79,1.036-1.545,1.458-2.359.018-.034.032-.07.049-.105.014,1.013.027,2.027.048,3.041-1.561,2.531-2.963,5.159-4.625,7.628-.884,1.312-1.763,2.622-2.591,3.971a40.236,40.236,0,0,1-2.409,3.8c.037-1.724.068-3.448.07-5.173q0-4.248,0-8.495c2.452-2.4,3.52-6.052,5.563-8.778,1.1-1.47,1.87-3.125,2.924-4.626.322-.459.692-.913,1.031-1.385Q528.271,103.717,528.262,105.283Zm-1.639-1.341c-.989,1.436-1.8,2.936-2.855,4.329-1.909,2.518-3.219,5.425-4.986,8.047q0-2.573,0-5.145a21.787,21.787,0,0,0,2.046-2.293c.99-1.456,1.817-3.025,2.849-4.452a36.865,36.865,0,0,0,3.043-4.034c.353-.662.618-1.349,1.006-2a3.1,3.1,0,0,0,.585-1.626c0-.06-.09-.06-.093,0a6.55,6.55,0,0,1-1.182,2.461,14.008,14.008,0,0,1-1.179,2.046c-.974,1.31-2.131,2.458-3.031,3.825-.936,1.422-1.764,2.922-2.79,4.283a12.729,12.729,0,0,1-1.253,1.3q0-1.956,0-3.913c1.519-2.264,3.167-4.446,4.617-6.756a33.91,33.91,0,0,1,2.833-3.8c.884-1.056,1.5-2.294,2.361-3.36-.016.8-.04,1.6-.078,2.4-.1,2.16-.164,4.323-.207,6.486C527.782,102.511,527.125,103.213,526.623,103.942Zm2.16-41.824q-.083.921-.144,1.841a.145.145,0,0,0-.178.046c-1.014,1.381-1.9,2.8-3.047,4.082a11.264,11.264,0,0,0-1.285,1.555,15.185,15.185,0,0,1-1.345,2.261c-.947,1.095-1.946,2.088-2.8,3.262-.4.55-.757,1.133-1.12,1.711q-.043-4.286-.106-8.571a1.488,1.488,0,0,0-.192-.879c.77-1.072,1.39-2.3,2.2-3.309,1.091-1.358,2.06-2.753,3.1-4.142.034-.046-.041-.1-.079-.061-1.233,1.372-2.332,2.912-3.513,4.338a30.713,30.713,0,0,0-2.066,2.922,3.138,3.138,0,0,0-.75-.155c-.489-.054-.977-.11-1.465-.167a5.938,5.938,0,0,1,.536-.688,9.82,9.82,0,0,0,.789-.759c.361-.469.511-1.053.885-1.519.284-.353.626-.652.9-1.016a17.4,17.4,0,0,0,1.505-2.159c.337-.619.909-.987,1.081-1.678l.5.054c1.843.194,3.672.536,5.5.829a11.933,11.933,0,0,1,1.217.33C528.868,60.906,528.838,61.513,528.784,62.118Zm-8.148-1.972a8.272,8.272,0,0,0-.433.79,16.783,16.783,0,0,1-1.7,2.174,11.825,11.825,0,0,0-1.277,1.815c-.318.506-.8.8-1.151,1.27a4.389,4.389,0,0,0-.37.623c-.617-.071-1.233-.14-1.85-.2a12.835,12.835,0,0,0,2.373-3.6c.747-1.325,2.25-2.478,2.619-3.99a.1.1,0,0,0-.2-.055c-.4,1.409-1.843,2.45-2.612,3.678a28.848,28.848,0,0,1-2.456,3.878.112.112,0,0,0-.021.06c-.788-.078-1.578-.142-2.369-.186a7.83,7.83,0,0,0,1-1.3c.608-.9,1.381-1.641,2.056-2.49s1.344-1.674,1.988-2.525a2.516,2.516,0,0,0,.659-1.559c1.538.15,3.075.319,4.611.483C521.32,59.586,520.964,59.718,520.636,60.146Zm-5.617,1.01c-.567.678-1.1,1.381-1.7,2.027a27,27,0,0,0-2.457,3.2c-.614-.029-1.229-.043-1.846-.038a15.969,15.969,0,0,1,1.319-1.589c.668-.827,1.249-1.7,1.863-2.564.733-1.033,2.387-2.452,2.5-3.856.693.056,1.386.115,2.078.182C516.632,59.571,515.666,60.381,515.019,61.156Zm-2.138-.316c-.679.787-1.253,1.608-1.888,2.428-.582.753-1.206,1.46-1.819,2.186a3.733,3.733,0,0,0-.622.9c-.157,0-.313,0-.471.01-.608.025-1.216.036-1.824.04.5-.612,1.1-1.161,1.56-1.8.75-1.034,1.465-2.088,2.276-3.077a15.474,15.474,0,0,0,1.494-2.156c.278-.485.631-.717.61-1.2.771.04,1.542.087,2.312.148A6.92,6.92,0,0,1,512.881,60.84ZM498.9,67.027c1.224.186,2.452.315,3.682.406a2.857,2.857,0,0,0-.165.331c-.046.117.07.225.176.23l.28.014a.126.126,0,0,0,.063-.232c-.054-.026-.01-.145.086-.313,2.106.14,4.217.168,6.331.155a32.306,32.306,0,0,1,6.819.637l-2.123,1.373.122.241,3.522-1.029c.076.711.176,1.218.177,1.724q.007,3.9-.017,7.8c-.146.189-.3.375-.458.552-.082.09.027.257.138.178a3.816,3.816,0,0,0,.318-.259c0,.381,0,.762-.006,1.143q-.029,3.256-.066,6.512l-.051.061a.089.089,0,0,0,.048.148q-.039,3.268-.1,6.536c-.031,1.712-.079,3.424-.128,5.136a4.676,4.676,0,0,0-.851,1.54.144.144,0,0,0,.262.11c.177-.305.369-.6.568-.89-.064,2.277-.125,4.553-.143,6.83-.06,7.559-.041,15.118-.067,22.676,0,.874-.085,1.748-.134,2.689l-3.017.864c0-.662-.005-1.092,0-1.522.072-5.526.215-11.052.2-16.578q-.024-9.611-.287-19.221c-.08-2.955-.451-5.9-.64-8.855-.076-1.189-.053-2.388-.012-3.58.113-3.313.279-6.624.379-9.937a22.013,22.013,0,0,0-.191-2.467l-.3-.011a10.382,10.382,0,0,0-.158,1.088c-.18,4.328-.36,8.657-.51,12.987a14.688,14.688,0,0,0,.131,2.379,80.357,80.357,0,0,1,.322,11.259c-.065,5.612-.06,11.224-.09,16.836,0,.426-.049.851-.075,1.27l-9.357-1.044v-4.3c.3-.475.6-.943.874-1.43.919-1.636,1.83-3.242,2.82-4.837.611-.984,1.361-1.971,1.922-3.02.117.018.233.039.35.056a14.2,14.2,0,0,0,2.374.1c.2,0,.581-.307.56-.407a1.341,1.341,0,0,0-.458-.683,1.217,1.217,0,0,0-.622-.184c-.555-.065-1.11-.128-1.666-.192a.211.211,0,0,0-.378-.044l-2.949-.34c.088-.144.176-.288.269-.429a3.1,3.1,0,0,0,.706-1.358c.009-.082-.124-.1-.143-.02a6.335,6.335,0,0,1-1.064,1.779l-2.14-.247a5.788,5.788,0,0,1-.562-.14c-.255-4.367-.634-8.767-.529-13.373.116-.187.227-.378.339-.567,1.608.144,3.121.271,4.628.421,1.1.11,2.19.293,3.289.376.737.055.75-.007.952-1.045l-8.18-.921c.33-.569.66-1.138,1.014-1.7.985-1.555,1.706-3.506,3.095-4.749.184-.165-.087-.433-.271-.271-1.333,1.174-2.06,2.939-3,4.416-.47.74-.919,1.491-1.371,2.24l-.425-.048V80.29l.173-.265a12.981,12.981,0,0,0,1.089-2.129,14.428,14.428,0,0,0,.963-2.35.158.158,0,0,0-.305-.084,18.33,18.33,0,0,1-1.052,2.326,13.016,13.016,0,0,1-.868,1.666V69.868c.562-.021,1.163-.055,1.765-.063,2.07-.029,4.146-.27,6.184.4a2.423,2.423,0,0,0,1.684-.293c-.149-.118-.289-.324-.449-.341-1.225-.13-2.453-.267-3.683-.318-2.383-.1-4.769-.133-7.153-.223a6.554,6.554,0,0,1-1.3-.261c-1.366-.336-2.728-.683-3.993-1A5.57,5.57,0,0,1,498.9,67.027Zm3.289,3.208V80.719c-.649.965-1.259,1.92-1.828,2.924l-7.1-.73V68.243Zm0,11.336v2.26l-1.315-.135C501.288,82.97,501.732,82.27,502.186,81.571Zm-2.427,3.176,0,0c-.88,1.708-1.831,3.376-2.737,5.069-.75,1.4-.973,3.025-1.88,4.347-.084.123.1.254.2.155,1.124-1.084,1.321-2.712,1.991-4.062.915-1.842,1.989-3.609,2.924-5.442l1.939.285v.8c-.194.292-.386.586-.591.872-1.177,1.642-1.807,3.519-2.893,5.2-.851,1.314-1.931,2.526-2.026,4.16a.153.153,0,0,0,.3.04c.346-1.765,1.7-3,2.56-4.515a53.6,53.6,0,0,1,2.638-4.776l.012-.019V98.83L493,97.648c-.053-4.675-.05-9.291.1-13.881Zm-9.464-3.834c.725-.483.92-1.479,1.488-2.112.11-.123.243-.233.366-.35q-.029.653-.056,1.306c-.406.653-.772,1.34-1.2,1.97a8.1,8.1,0,0,0-.6,1.2Q490.293,81.921,490.295,80.914Zm1.872-2.89a1.569,1.569,0,0,1-.248.351,6.235,6.235,0,0,0-.559.584c-.378.527-.7,1.084-1.064,1.618q0-1.206,0-2.412c.37-.642.743-1.281,1.129-1.923.329-.548.589-1.124.877-1.686Q492.245,76.29,492.167,78.024Zm-1.877,5.766c0-.1,0-.2,0-.295.031-.047.065-.093.093-.142a21.24,21.24,0,0,1,1.017-1.881,8.944,8.944,0,0,0,.669-1.179q-.046,1.059-.086,2.118c-.775.833-.922,2.015-1.658,2.888l-.036.042Q490.291,84.565,490.29,83.789Zm-.217,55.4c.027-2.3.213-4.593.281-6.891.049-1.63.084-3.266.017-4.9-.279-6.713-.271-13.425-.165-20.143.066-4.156.083-8.312.087-12.469a4.148,4.148,0,0,1,.606-1.142.108.108,0,0,0-.186-.109c-.134.223-.292.445-.42.676q0-2.4,0-4.8a6.586,6.586,0,0,0,.483-.82,7.616,7.616,0,0,0,.721-2.3c.007-.062-.1-.076-.109-.015a8.964,8.964,0,0,1-1.1,2.677q0-1.555,0-3.11c.173-.228.354-.46.54-.715.512-.708.64-1.605,1.138-2.314-.033.933-.061,1.866-.079,2.8-.1,5.522-.161,11.047-.123,16.57.051,7.468.2,14.937.332,22.4.029,1.632.125,3.267.259,4.894.069.843.189,1.076.774,1.206-.9,1.312-1.469,2.831-2.428,4.114-.084.112.09.223.184.142a6.359,6.359,0,0,0,1.382-2.213,22.238,22.238,0,0,1,1.09-2c.093.015.19.029.3.043.5.064,1,.124,1.5.186-.486.965-1.06,1.9-1.561,2.8-.845,1.515-2.1,2.878-2.581,4.566a.112.112,0,0,0,.2.086c1.278-2.456,3.218-4.79,4.341-7.4l1.317.163c-.225.393-.48.775-.682,1.179-.418.838-.793,1.671-1.292,2.469a16.44,16.44,0,0,0-1.258,1.688c-.074-.01-.148-.017-.222-.03a.693.693,0,0,0-.818.684,13.445,13.445,0,0,0-.08,1.451c0,.584.021,1.168.038,1.752-.216.4-.49.777-.7,1.2-.38.755-.746,1.53-1.11,2.293-.206.431-.447.887-.68,1.356C490.061,143.212,490.049,141.2,490.073,139.192Zm11.33,44.98c.1-.194.209-.389.309-.58.253-.482.509-.963.763-1.444q-.027,1.071-.054,2.147Zm1.8-28.361c0-.321.006-.64.015-.963l.47.038Q503.444,155.35,503.2,155.811ZM490.206,70.926c-.132-4.683-.426-9.362-.645-14.042a2.327,2.327,0,0,1,.113-.436,18.679,18.679,0,0,1,2.412.15,76.464,76.464,0,0,0,9.1,1.072c-.483.58-1.035,1.1-1.468,1.723a20.629,20.629,0,0,1-1.8,2.717,8.547,8.547,0,0,0-1.42,1.613,17.528,17.528,0,0,1-1.343,2.483c-.084.106.023.293.158.2a3.445,3.445,0,0,0,1.193-1.7,7.68,7.68,0,0,1,1.685-2.331,10.084,10.084,0,0,0,1.392-2.155,23.3,23.3,0,0,1,1.79-2.445.085.085,0,0,0,0-.1q1.462.094,2.926.161a5.157,5.157,0,0,1-1.329,1.9c-.759.846-1.513,1.693-2.245,2.562a33.049,33.049,0,0,0-3.506,4.3,14.448,14.448,0,0,1-3.942.2,1.461,1.461,0,0,0-.185-.009c.09-.163.18-.326.284-.482.028-.042-.039-.08-.068-.039-.123.171-.23.351-.336.532-.4.05-.626.324-.659.808-.011.16-.021.321-.03.482a9.174,9.174,0,0,1-.486.84,5.206,5.206,0,0,0-1.053,2.1c-.01.073.1.108.115.031a7.891,7.891,0,0,1,1.209-2.279c.073-.12.135-.244.2-.367-.007.17-.013.34-.012.509.015,1.721.105,3.444.055,5.164,0,.03,0,.06,0,.09-.385.629-.7,1.3-1.1,1.925-.294.456-.619.9-.915,1.351q0-1.639-.024-3.278c.229-.291.466-.57.692-.878a13.584,13.584,0,0,0,.935-1.783,1.858,1.858,0,0,0,.2-1.1.022.022,0,0,0-.045,0,6.067,6.067,0,0,1-1.629,3.178c-.058.062-.107.131-.161.2C490.25,72.842,490.233,71.884,490.206,70.926Zm2.077,74.035a20.561,20.561,0,0,1-2.2,3.752q0-1.445-.008-2.89c.456-1,1-1.988,1.443-2.883.349-.707.638-1.407,1.047-2.081l.01-.018c.02.763.033,1.525.01,2.287-.049,1.651-.118,3.3-.187,4.953a.1.1,0,0,0-.115.055c-.283.584-.5,1.194-.772,1.782-.3.652-.744,1.217-1.067,1.857a8.345,8.345,0,0,0-.39.944c.014-.93.025-1.861.03-2.792,0-.267,0-.535,0-.8a6.149,6.149,0,0,0,.432-.517,24.3,24.3,0,0,0,1.988-3.518C492.577,144.943,492.356,144.813,492.283,144.961Zm-2.465,33.981a15.484,15.484,0,0,1,1.362-2.65,13.133,13.133,0,0,0,.874-1.419c.009.881.016,1.763.027,2.645a5.842,5.842,0,0,0-.995,1.753c-.3.656-.808,1.212-.693,1.97.017.111.195.083.194-.026a5.465,5.465,0,0,1,.819-2.013,5.871,5.871,0,0,1,.681-1.29q.083,6.3.209,12.591a15.533,15.533,0,0,0-1.023,1.983c-.322.7-.56,1.439-.938,2.109-.038.067-.071.121-.1.172-.013-.943-.026-1.887-.045-2.83-.072-3.532-.391-7.062-.4-10.593C489.789,180.543,489.8,179.743,489.818,178.942Zm.683,30.046c-.059-.633-.143-1.154-.15-1.676-.033-2.965-.05-5.931-.077-8.9l.153-.02a.1.1,0,0,0,.089-.068,17.357,17.357,0,0,1,1.672-3.4c.075-.15-.149-.281-.225-.131-.306.606-.679,1.172-1.007,1.766-.114.208-.223.418-.317.636a4.185,4.185,0,0,1-.367.994q-.013-1.342-.029-2.684s0-.007.005-.011c.048-.433.557-.985.734-1.388.25-.569.46-1.154.714-1.722.191-.429.388-.859.61-1.275q.03,1.6.059,3.2c.03,1.678.171,3.354.26,5.031a1.045,1.045,0,0,0,1.071,1.1q3.719.445,7.431.95c-.31.549-.759,1.07-1.057,1.516-.674,1.007-1.346,2.013-1.965,3.055-.882,1.486-1.879,2.938-2.692,4.473C493.782,209.965,492.151,209.468,490.5,208.988Zm8.523-3.728c.616-1.016,1.275-2,1.919-3,.169-.261.352-.533.5-.819l.268.036,1.735.24c-.168.354-.306.723-.469,1.09a16.032,16.032,0,0,1-1.859,2.711c-.643.9-1.157,1.892-1.77,2.814-.5.752-1.142,2.152-1.941,2.617a.108.108,0,0,0-.036.044c-.492-.134-.985-.269-1.476-.41Q497.43,207.9,499.024,205.26Zm-1.262,5.836a2.335,2.335,0,0,0,.966-1.068c.647-1.05,1.378-2.04,2-3.107.6-1.024,1.346-1.917,2-2.9a20.86,20.86,0,0,0,1.04-2.259l1.841.258a37.151,37.151,0,0,1-2.6,5.087,32.3,32.3,0,0,1-1.816,2.778,10.471,10.471,0,0,0-1.147,1.8c-.506-.126-1.012-.25-1.517-.379C498.275,211.237,498.019,211.164,497.762,211.1Zm6.931,1.7c.59-.882,1.117-1.758,1.629-2.7a21.367,21.367,0,0,1,2.144-2.941,11.711,11.711,0,0,0,2.251-4.385c.626.1,1.252.2,1.877.3.044.008.088.011.132.019-.354.666-.723,1.324-1.033,2.009a7.277,7.277,0,0,1-1.009,1.762,8.861,8.861,0,0,0-.881,1.159c-.583,1-1.006,1.99-1.678,2.945a7.4,7.4,0,0,0-1.187,2.343Q505.814,213.06,504.693,212.8ZM608.449,56.145a110.087,110.087,0,0,0-.548,13.512c-.046,4.731.011,9.465.107,14.2.082,4.065.374,8.127.406,12.192.046,5.836-.047,11.675-.1,17.512-.056,5.658-.088,11.318-.229,16.974-.168,6.718-.485,13.432-.657,20.151-.154,6.008-.31,12.015-.129,18.032.156,5.169-.027,10.349-.02,15.523.006,4.6.059,9.2.111,13.794.012,1.049.106,2.1.165,3.18-.576.208-1.026.374-1.479.533-3.954,1.4-7.905,2.8-11.865,4.18-1.584.552-3.169,1.12-4.786,1.556-6.526,1.758-13.066,3.465-19.6,5.2-4.61,1.222-9.2,2.505-13.691,4.132-.456.166-.89.391-1.34.575-.642.263-1.271.632-1.994.192a.923.923,0,0,0-.517-.038c-6.271.589-12.543.008-18.815.025-1.237,0-2.474.1-3.711.138-.472.016-.945,0-1.559,0,.128-1.055.262-2.005.355-2.959.153-1.581.375-3.163.4-4.747.154-8.8.259-17.595.378-26.392.015-1.105,0-2.21.018-3.316.048-3.4.106-6.806.155-10.209a8.51,8.51,0,0,0-.193-2.267c-.142,1.567-.327,3.132-.422,4.7a.143.143,0,0,0-.125.129c-.134,1.356-1.353,2.461-2.1,3.535-.758,1.093-1.435,2.231-2.109,3.377-1.361,2.317-2.784,4.6-4.036,6.982a.147.147,0,0,0,.254.148c1.583-2.532,3.083-5.117,4.573-7.7a39.621,39.621,0,0,1,2.258-3.519,9,9,0,0,0,1.223-1.922c-.308,5.747-.606,11.494-.856,17.243-.15,3.445-.2,6.9-.287,10.343-.088,3.358-.165,6.717-.263,10.075-.021.705-.1,1.41-.175,2.113-.16,1.486-.336,2.97-.52,4.591-1.036-.288-2.078-.611-3.136-.865q-3.154-.757-6.323-1.451c-2.632-.582-5.275-1.114-7.9-1.716l-2.116-.484a25.893,25.893,0,0,1,1.364-2.342c.685-.952,1.035-2.015,1.646-3a18.954,18.954,0,0,0,1.541-2.279c.392-.885.829-1.748,1.243-2.624a8.026,8.026,0,0,0,3.3-.36,2.992,2.992,0,0,1,1.062-.234,22.119,22.119,0,0,1-1.189,2.019c-.579,1.029-1.248,2-1.855,3.013-1.2,2-2.559,3.89-3.645,5.965-.05.1.075.2.155.12a19.676,19.676,0,0,0,1.993-3.11c.717-1.109,1.428-2.208,2.118-3.334.651-1.062,1.257-2.146,1.893-3.216a12.189,12.189,0,0,0,.788-1.405,1.279,1.279,0,0,1,.3.137c.4.25.766-.032.849-.52a7.217,7.217,0,0,0,.117-1.054c.034-1.562.07-3.124.089-4.685a7.164,7.164,0,0,1,.379-.72c.765-1.243,1.653-2.362,2.378-3.646,1.747-3.1,3.6-6.136,5.364-9.22a.177.177,0,0,0-.305-.179c-1.758,3.013-3.594,5.982-5.331,9.007-.71,1.237-1.476,2.351-2.276,3.524-.071.1-.134.213-.2.32,0-.165.006-.33.006-.5q0-.543,0-1.085c.4-.568.824-1.118,1.168-1.724,1.044-1.846,2.037-3.742,3.022-5.621.395-.754.75-1.512,1.083-2.294a30.418,30.418,0,0,1,1.512-2.67c.453-.83.741-1.732,1.166-2.573a12.259,12.259,0,0,0,1.12-2.285.173.173,0,0,0-.334-.092,15.889,15.889,0,0,1-1.248,2.533,27.69,27.69,0,0,1-1.219,2.588c-1.027,1.688-1.8,3.449-2.74,5.191-.988,1.829-1.9,3.793-3.023,5.538-.165.256-.335.511-.507.766q.005-4.538,0-9.076l.1-.1a.116.116,0,0,0-.1-.2v-.078a12,12,0,0,1,1.86-2.88c.986-1.462,2.184-2.8,3.1-4.305,1-1.663,2.29-3.2,3.137-4.949.883-1.819,1.934-3.565,2.839-5.38.085-.171-.17-.321-.257-.15-.976,1.926-2.063,3.785-3.047,5.7a22.8,22.8,0,0,1-1.832,2.643c-.59.838-1.033,1.761-1.624,2.6-.991,1.4-2.062,2.756-3.065,4.154-.289.4-.754.935-1.106,1.5v-3.124a9.972,9.972,0,0,0,1.68-2.45c.58-.876,1.2-1.726,1.78-2.6s1.367-1.622,1.991-2.484c.69-.954,1-2.075,1.729-3.014a12.462,12.462,0,0,0,1.445-2.478c.666-1.439,2.146-2.8,1.946-4.493-.013-.109-.182-.114-.175,0,.108,1.645-1.533,3.271-2.234,4.691a17.255,17.255,0,0,1-1.725,2.63c-.554.75-.76,1.675-1.319,2.439-.517.707-1.15,1.318-1.671,2.021s-.948,1.461-1.459,2.169a17.005,17.005,0,0,0-1.176,1.815,8.865,8.865,0,0,1-.812,1.366q0-3.891,0-7.782c.06-.136.117-.271.171-.4A39.946,39.946,0,0,1,521.264,167a70.671,70.671,0,0,0,4.593-8.606c.057-.141-.188-.246-.248-.1a56.7,56.7,0,0,1-4.265,7.751c-.767,1.234-1.408,2.528-2.064,3.823-.082.162-.157.344-.23.532V169.6h.211q-.012-1.613-.024-3.226c.322-.49.62-.994.986-1.459a20.615,20.615,0,0,0,1.377-1.795c1.065-1.7,1.867-3.551,2.945-5.254s1.9-3.575,2.938-5.309a10.158,10.158,0,0,0,1.457-3.158q.066,3.635.142,7.27a6.8,6.8,0,0,0,.438,2.38,1.967,1.967,0,0,0,.235-.59c.047-.971.062-1.944.081-2.917.084-4.288.246-8.577.228-12.865-.024-5.614-.211-11.227-.287-16.841-.044-3.259-.008-6.52.184-9.783l.607,11.041c.949-3.546.138-17.112-.4-19.3-.141,1.025-.26,1.743-.332,2.465-.07.7-.091,1.411-.172,2.117,0-3.539.022-7.079-.007-10.618-.026-3.138-.123-6.276-.164-9.414-.093-7.294-.215-14.588-.237-21.882-.01-3.3.189-6.61.3-10.07l22.516.31c0,1.858-.022,3.527,0,5.2.141,8.931.182,17.866.48,26.792.209,6.247-.147,12.468-.4,18.695a128.512,128.512,0,0,0,.139,15.9,35.058,35.058,0,0,1-.128,3.707,13.954,13.954,0,0,0,.219,3.2,11.014,11.014,0,0,0,.247-1.364c.345-6,.706-12,.669-18.019-.059-9.774-.017-19.548-.042-29.322q-.018-7.3-.129-14.6c-.044-3.006-.1-6.015-.286-9.014a1.579,1.579,0,0,1,1.637-1.9c4.877-.538,9.758-1.036,14.629-1.618,2.5-.3,4.975-.79,7.472-1.108,3.508-.445,7.039-.72,10.537-1.227,6.6-.959,13.187-2.033,19.78-3.053.6-.092,1.2-.137,1.992-.225C608.728,53.993,608.592,55.069,608.449,56.145Z" transform="translate(-488.206 -34.752)" fill="#1a1a1a"/>
          <path id="Trazado_106238" data-name="Trazado 106238" d="M658.959,98.776a4.348,4.348,0,0,0-.2-.861,1.166,1.166,0,0,0-.317.776c-.085,2.253-.23,4.506-.223,6.759.017,5.616.143,11.231.153,16.847.009,5.216-.025,10.433-.134,15.648-.1,4.861-.422,9.718-.476,14.579-.08,7.114.015,14.23-.009,21.345-.02,5.789-.138,11.579-.149,17.369-.007,3.713.133,7.426.146,11.14.01,2.918-.078,5.836-.117,8.754-.08,5.969-.145,11.939-.253,17.908a7.516,7.516,0,0,1-.436,1.769c-.017.06-.135.093-.262.175l-.68-.222a3.791,3.791,0,0,1-.049-.438q.134-9.413.272-18.825c.089-6.278.345-12.56.2-18.833-.1-4.237-.411-8.47-.275-12.715.058-1.809.1-3.62.134-5.43,0-.04-.094-.081-.157-.132l-.221.965-6.2,1.28v-5.24l6.206-.919.328,1.051a104.47,104.47,0,0,0,.777-10.872c.056-4.37-.114-8.744-.169-13.115-.061-4.773-.1-9.546-.154-14.32q-.064-5.592-.143-11.183l-.166,0c-.069.826-.137,1.652-.211,2.546l-2.962.365a1.96,1.96,0,0,0,.446-.915c.037-.247-.339-.356-.38-.1a2.52,2.52,0,0,1-.587,1.084l-3.57.44c-.076-1.792-.2-3.394-.155-5.024,1.343-.195,2.52-.374,3.7-.533,1.163-.157,2.328-.294,3.514-.442l.2,1.052.214-.005q.111-11.383.222-22.736a4.453,4.453,0,0,0,.9-.409.958.958,0,0,0,.336-.611c.01-.094-.3-.258-.494-.323a1.259,1.259,0,0,0-.521-.006c-1.669.18-3.345.323-5.007.558-3.675.52-7.338,1.128-11.02,1.6a1.257,1.257,0,0,0-1.278,1.189,11,11,0,0,0-.089,5.378,3.728,3.728,0,0,1,.113,1.046c-.006,3.137.01,6.275-.046,9.412-.1,5.611-.316,11.222-.348,16.833-.024,4.287.173,8.575.25,12.863.06,3.36.213,6.725.1,10.081-.236,7.071-.524,14.135-.279,21.215.191,5.522.187,11.051.289,16.576.131,7.117.35,14.233.4,21.35.049,6.587-.076,13.175-.1,19.762,0,.738.116,1.477.194,2.393.753-.05,1.283-.039,1.8-.128,2.61-.45,5.209-.975,7.826-1.38a33.722,33.722,0,0,0,6.8-1.712,2.829,2.829,0,0,0,1.433-1.046,5.214,5.214,0,0,0,.63-2.269c.21-5.387.4-10.776.505-16.167.089-4.641.1-9.284.065-13.925-.053-7.24-.187-14.48-.26-21.719-.043-4.284-.037-8.569-.049-12.854-.018-6.412-.077-12.825-.029-19.237.022-3,.3-6,.375-9.008.071-3.047,0-6.1.037-9.145.076-7.251.312-14.5-.154-21.75C659.024,103.816,659.041,101.293,658.959,98.776Zm-3.773,84.81v4.639l-2.474.593c.193-.305.377-.615.6-.93.151-.209-.192-.4-.344-.2-.311.415-.491.859-.811,1.263l-2.582.62v-3.559q.355-.644.693-1.3Zm-13.508,37.565c-.073-1.145-.172-2.148-.19-3.151-.013-.786.074-1.572.121-2.438l4.465-1.181c-.049.078-.094.157-.144.234a8.958,8.958,0,0,0-1.837,4.285.164.164,0,0,0,.321.043,16.313,16.313,0,0,1,2.351-4.561c.048-.072.09-.147.135-.22l.951-.251v3.468c-.508.805-1.054,1.583-1.553,2.408Zm1.815-13.951a.142.142,0,0,0,.266-.009c.005-.021.015-.04.02-.06l4.4-1.068a27.875,27.875,0,0,1-.08,4.345c-.428.891-.827,1.776-1.277,2.646l-5.182,1.4c-.23-2.246-.167-4.421-.239-6.743Zm4.828-2.3-4.085,1.049c.23-.48.486-.949.7-1.45.378-.869.691-1.765,1.066-2.635.3-.707.584-1.426.868-2.142l1.447-.385Zm-.35,7.847-.351.095q.2-.406.378-.817C647.987,212.262,647.977,212.5,647.972,212.744Zm-.12,5.754v.829l-.667.2C647.405,219.179,647.629,218.839,647.851,218.5Zm1.166,1.485,5.739-1.523v6.6l-6,1.742C648.849,224.4,648.931,222.246,649.017,219.983Zm.073-1v-2.56c.078-.152.156-.3.228-.462.444-.965.932-1.917,1.471-2.837,1.3-.376,2.651-.637,4.073-.943V217.4Zm0-3.9V213.7c.29-.119.585-.225.881-.325C649.657,213.939,649.368,214.511,649.09,215.085Zm-.614-17.608a.881.881,0,0,1-.682.988l-.458.124c.237-.565.481-1.126.76-1.672.127-.25.262-.493.394-.739C648.485,196.611,648.479,197.044,648.476,197.477Zm.99,8.265,1.174-.282c-.436.8-.858,1.61-1.273,2.424C649.4,207.174,649.433,206.464,649.466,205.743Zm-2.143-8.561c-.25.528-.484,1.065-.713,1.6-1.22.332-2.449.668-3.721,1.016a36.129,36.129,0,0,1,1.64-3.875c.7-1.551,1.4-3.1,2.165-4.619l1.66-.45a10.86,10.86,0,0,1,.173,1.311c0,.946-.013,1.891-.025,2.837C648.086,195.72,647.677,196.436,647.323,197.182Zm-6.217,3.108v-7.465l4.913-1.333c-.889,1.776-1.706,3.587-2.53,5.394a15.9,15.9,0,0,0-1.291,3.106Zm6.17-10.109c.1-.183.188-.368.285-.549.222-.412.451-.821.68-1.23v1.5Zm3.842.006a20.646,20.646,0,0,0-1,1.948c-.143.287-.3.567-.455.847v-2.434Zm-1.539-5.121v-.195l.124-.029C649.664,184.918,649.621,184.992,649.58,185.066Zm-1.39-19.621.26-.069v4.409q-.332.533-.642,1.082l-2.811.508c.064-.151.13-.3.2-.449.795-1.687,1.928-3.189,2.719-4.877C648.008,165.849,648.1,165.646,648.19,165.445Zm5.47-59.257c-.134.6-.694.945-.938,1.481a13.061,13.061,0,0,1-.928,2.036c-.811,1.215-1.571,2.472-2.317,3.731l-.538.094v-4.313a32.111,32.111,0,0,0,1.651-2.761Zm.228-.02,1.779-.155v6.342l-5.543.969.038-.065a35.456,35.456,0,0,0,2.532-4.3,8.71,8.71,0,0,1,.639-1.649,2.481,2.481,0,0,0,.568-1.1C653.9,106.189,653.891,106.18,653.888,106.168ZM649.633,157.5v-5.832l5.978-1.288v6.17Zm1.673.646a6.368,6.368,0,0,1-1.047,1.75,7.564,7.564,0,0,0-.545.995V158.4Zm-1.727-7.563v-5.242l6.1-1.147v5.1Zm6.1-7.5c-.955.2-1.932.428-2.916.616s-1.991.343-3.156.541a50.177,50.177,0,0,1-.23-5.3l6.3-.893Zm-.127-6.011-5.533.792c.377-.6.764-1.2,1.183-1.779a18.514,18.514,0,0,0,1.307-2.432c.1-.2.215-.387.333-.573l2.71-.2Zm-5.169-.784c-.369.5-.706,1.02-1.033,1.546v-4.493l2.9-.217A35.414,35.414,0,0,1,650.383,136.283Zm-2.022,1.779-1.732.281c.569-1.35,1.08-2.723,1.684-4.06C648.373,135.545,648.356,136.779,648.361,138.062Zm-.076-5.478-7.322.879v-5.83l7.322-1.16Zm-7.364-11.9v-5.466l4.737-.513a13.746,13.746,0,0,0-.76,1.478c-.594,1.424-.73,2.965-1.691,4.226Zm.015.6,5.007-.444c-.006.015-.01.031-.017.047a6.633,6.633,0,0,0-.58,1.831c-.02.207.3.238.355.048a20.993,20.993,0,0,1,.814-1.977l1.608-.143v4.946l-7.186,1.277Zm7.147-1.459-1.27.153a16.034,16.034,0,0,1,.8-2.013c.156-.309.315-.616.473-.923Zm-1.357-1.283a15.433,15.433,0,0,0-.513,1.508l-2.609.315c.94-1,1.14-2.46,1.62-3.713a15.887,15.887,0,0,1,1.018-2.007l1.841-.2v1.4A29.279,29.279,0,0,0,646.726,118.536Zm-.023-4.784c.459-.968.793-1.991,1.293-2.94.058-.11.121-.219.182-.328v3.086Zm3.387-7.229c-.357.631-.753,1.244-1.15,1.858V106.6l1.162-.1Zm-1.911,3.064c-.276.453-.539.913-.77,1.387-.416.853-.728,1.752-1.143,2.606-.04.082-.085.161-.127.242l-5.295.655V107.6l7.334-.946Zm-.011,23.805c-.06.121-.123.241-.18.364-.723,1.533-1.289,3.135-1.967,4.687l-4.98.809c-.082-1.767-.159-3.42-.245-5.283Zm-2.583,6.019v0c-.36.739-.767,1.453-1.054,2.226-.265.715-.232,1.939-.715,2.535a.177.177,0,0,0,.25.249,2.42,2.42,0,0,0,.614-1.47,11.37,11.37,0,0,1,1.073-2.684c.158-.311.305-.626.449-.943l2.211-.3v.4q-.391.7-.772,1.408a21.727,21.727,0,0,0-1.1,2.164,11.81,11.81,0,0,1-.7,1.931l-4.581.828c-.182-1.953-.141-3.77-.159-5.727Zm2.827,1.195v3.857l-2.013.364a7.482,7.482,0,0,0,.437-1.1,18.51,18.51,0,0,1,1.292-2.609C648.221,140.945,648.317,140.776,648.411,140.6Zm-7.051,12.682,6.954-1.383v5.77l-7.148,1.412C640.963,157.164,641.4,155.315,641.36,153.286Zm.055-.956v-5.766l7.031-1.057c.059,1.837-.02,3.525-.11,5.334Zm8.66,8.934c.477-1.052,1.489-2.02,1.653-3.188l3.9-.619c.1,1.8.2,3.484.311,5.341l-2.786.626a.171.171,0,0,0-.175-.271l-.19.032a.161.161,0,0,0-.086.253c-.027.034-.052.071-.079.105l-2.905.653V162.07C649.834,161.8,649.953,161.532,650.075,161.264Zm1.785,3.382c-.1.155-.2.307-.305.451-.413.58-.783,1.192-1.184,1.782l-.662.975V165.1Zm-3.5,12.276-3.808.881a11.336,11.336,0,0,1,.968-1.8A49.16,49.16,0,0,0,648,171.663l.4-.067A40.143,40.143,0,0,1,648.365,176.922Zm7.982-7.386-6.638,1.04V168.8q.43-.66.869-1.316c.461-.691.882-1.41,1.353-2.093.185-.268.355-.568.527-.868l3.456-.733C656.062,165.766,656.2,167.58,656.346,169.536Zm-.661-37.591-2.219.209c.1-.15.206-.3.3-.452.5-.771,1.307-1.939,1.091-2.907a.185.185,0,0,0-.306-.08l-.262.223c-.148.126.052.391.209.272h0c-.1,1.048-1.109,2.223-1.667,3v0l-3.574.336v-.138c.745-1.331,1.573-2.616,2.256-3.981.4-.8.628-1.7,1.028-2.492l3.56-.426A61.359,61.359,0,0,1,655.685,131.945ZM652.054,126c-.363.787-.628,1.615-1.036,2.386-.545,1.03-1.163,2.019-1.756,3.022v-5.075Zm-3.033-6.415v-4.315c.185-.338.371-.675.561-1.01l6.057-1.066c.168,1.855.324,3.585.489,5.4Zm-.06-21.009,6.993-.814c.236,2.506-.261,4.845-.234,7.313l-4.728.4a7.194,7.194,0,0,1,.521-1.661,4.485,4.485,0,0,0,.833-1.733c.02-.169-.277-.21-.3-.04-.105.784-.684,1.228-1,1.908a13.457,13.457,0,0,0-.533,1.567l-1.53.129C648.658,103.266,649.065,101,648.961,98.573Zm-8.283,1.09,7.895-.987c-.112,2.349-.221,4.617-.334,6.99l-7.56,1.123Zm.354,60.272,7.37-1.353v5.237c-.12.263-.241.524-.363.786l-7.674,2.236C640.594,164.469,640.807,162.264,641.032,159.935Zm-.682,7.564,7.2-1.887c-.121.244-.242.49-.368.728-.774,1.464-1.743,2.818-2.452,4.317-.13.275-.247.553-.361.832l-4.084.738A18.752,18.752,0,0,1,640.35,167.5Zm3.688,4.824a11.529,11.529,0,0,1-1.181,2.374c-.1.145.116.3.237.183a7.1,7.1,0,0,0,1.561-2.66l2.644-.44c-.829,1.534-1.751,2.989-2.618,4.5a9.736,9.736,0,0,0-.759,1.673l-3.46.8c-.226-1.9-.147-3.755-.241-5.793Zm-3.663,7.355,3.263-.725a8.366,8.366,0,0,0-.181,1.216.166.166,0,0,0,.325.044c.105-.468.234-.927.384-1.378l4.088-.908a55.079,55.079,0,0,1,.033,6.189L640.8,186.04C640.655,183.875,640.521,181.863,640.375,179.678Zm.579,7.318,7.288-1.827v2.253c-.567.979-1.131,1.96-1.658,2.962l-5.63,1.644Zm.241,14.232.925-.246a2.512,2.512,0,0,0,.083.5c.038.135.276.159.3,0,.029-.213.068-.421.111-.629l3.53-.938c-.328.809-.647,1.621-.973,2.426a34.16,34.16,0,0,0-1.471,3.745l-2.136.549A13.269,13.269,0,0,1,641.195,201.228Zm6.4,32.009c-.932.166-1.877.312-2.811.508a2.2,2.2,0,0,0-1.344.6c-.433.442-1.355.406-2.238.623.133-1.846.253-3.493.377-5.205l6.016-1.472Zm.08-6.164-6.008,1.647V222l3.976-1.094a9.059,9.059,0,0,0-.484,1.029,9.33,9.33,0,0,1-.729,1.959c-.085.129.091.321.221.221a2.193,2.193,0,0,0,.711-1.088,16.1,16.1,0,0,1,1.119-2.353l1.194-.328Zm.139,7.276c-.017-.085-.035-.17-.052-.255l1.37-.3.043.176Zm1.037-1.829v-4.574l5.807-1.642c.07,1.561.133,2.992.19,4.267Zm3.238.839-1.732.454A1.735,1.735,0,0,1,652.094,233.358Zm.046-.014c.065-.13.1-.33.2-.364.854-.308,1.719-.581,2.582-.865l.1.316Zm2.768-22.384-3.278.838c.19-.277.377-.556.58-.823a5.393,5.393,0,0,0,.882-1.651c.238-.731.7-1.387.862-2.123a.181.181,0,0,0-.348-.1c-.181.658-.665,1.258-.9,1.922a7.915,7.915,0,0,1-1.329,2.167c-.2.263-.38.539-.563.814l-1.656.424c.05-1.1.1-2.157.147-3.2.669-1.312,1.335-2.628,2.018-3.933l3.817-.915C655.059,206.7,654.986,208.758,654.908,210.961Zm.256-7.73-3.045.736c.169-.255.341-.509.51-.773.438-.681.484-1.623.99-2.233.18-.217-.127-.531-.313-.313a4.078,4.078,0,0,0-.655,1.471,10.194,10.194,0,0,1-1.256,2.023l-1.8.436v-5.563l5.573-1.509Zm.04-6.756-5.545,1.449v-3.856c.38-.678.753-1.359,1.092-2.063a13.166,13.166,0,0,1,1.1-2l3.289-.813C655.413,191.651,655.167,194,655.2,196.474Zm.185-13.978-4.516,1.016c.314-.684.586-1.373.853-2.082a23.045,23.045,0,0,0,1.258-2.486.162.162,0,0,0-.312-.086,5.971,5.971,0,0,1-.827,1.343,8.154,8.154,0,0,0-.49,1.128c-.312.789-.653,1.552-1.024,2.306l-.711.16v-6.146l6.3-1.321C655.735,178.486,655.566,180.444,655.389,182.5Z" transform="translate(-567.373 -67.039)" fill="#1a1a1a"/>
          <path id="Trazado_106239" data-name="Trazado 106239" d="M711.414,101.484c-.178-2.821-.153-5.654-.248-8.481a12.325,12.325,0,0,0-.251-1.578l-.341.03c-.068,2.514-.249,5.031-.181,7.541q.3,11.21.059,22.418c-.083,3.626-.014,7.255-.1,10.88-.083,3.314-.379,6.624-.419,9.937-.074,6.058-.013,12.119-.04,18.179-.034,7.961-.12,15.922-.14,23.884-.011,4.775.117,9.55.088,14.325-.048,7.957-.178,15.914-.255,23.871a3.334,3.334,0,0,1-.609,2.069c-.645.037-.975-.161-.91-.83.072-.748.115-1.5.127-2.251.138-8.576.294-17.153.387-25.73.042-3.888.115-7.786-.115-11.662a128.841,128.841,0,0,1-.044-13.253c.049-1.144.008-2.291.008-3.5-.13.565-.246,1.068-.373,1.619-2.1.41-4.115.984-6.186,1.238V165l6.293-.927c.083.5.144.859.24,1.436.08-.353.124-.479.136-.608a123.33,123.33,0,0,0,.589-13.89c-.176-7.425-.192-14.855-.272-22.283-.037-3.495-.061-6.989-.1-10.484a2.735,2.735,0,0,0-.045-.425c-.016-.451-.039-.9-.02-1.354.073-1.69.48-3.242.182-4.952l-.007,0a.157.157,0,0,0-.046-.06V91.58c.493-.56,1.482-.345,1.451-1.445a6.869,6.869,0,0,0-1.161-.1c-1.144.1-2.288.208-3.426.366-4.2.587-8.394,1.22-12.6,1.772a1.157,1.157,0,0,0-1.168,1.01,11.593,11.593,0,0,0-.187,5.254,5.373,5.373,0,0,1,.14,1.313q-.027,10.149-.077,20.3c0,.8-.039,1.591-.068,2.386-.074,1.988-.245,3.978-.213,5.964.083,5.172.321,10.342.366,15.514.028,3.268-.2,6.538-.277,9.809-.2,8.978-.025,17.952.2,26.928.136,5.482-.068,10.976.175,16.451.228,5.129.388,10.253.353,15.384s-.14,10.258-.186,15.388a21.413,21.413,0,0,0,.234,2.32,11.324,11.324,0,0,0,1.518-.01c1.789-.274,3.578-.557,5.357-.889a53.963,53.963,0,0,0,9.544-2.211c.595-.228,1.231-.417,1.45-1.048a9.515,9.515,0,0,0,.624-2.546c.124-2.339.095-4.685.174-7.026.092-2.738.339-5.473.334-8.209-.011-7.559-.132-15.119-.184-22.678q-.108-15.852-.18-31.7c-.044-7.207-.069-14.41.358-21.612.193-3.263.051-6.545.081-9.818C711.508,115.456,711.854,108.471,711.414,101.484Zm-4,88.578-4.793,1.268c.173-.227.347-.454.515-.686a34.15,34.15,0,0,1,2.536-3.52.181.181,0,0,0-.255-.255,19.122,19.122,0,0,0-2.489,3.209c-.356.5-.734.981-1.114,1.461v-5.4c.182-.269.369-.539.566-.814.377-.527.737-1.056,1.1-1.577l3.786-.92C707.645,185.27,707.277,187.588,707.413,190.062Zm-6.262,23.548,5.733-1.542v6.623l-5.96,1.726C701,218.1,701.074,215.934,701.151,213.61Zm.118-1.02v-.965c.475-.622.95-1.246,1.393-1.889a8.875,8.875,0,0,0,1.5-2.683.218.218,0,0,0-.419-.116,9.438,9.438,0,0,1-1.723,2.893c-.247.334-.5.663-.754.992v-3.645l5.68-1.427v5.275Zm-1.337-.012c-.113.152-.221.309-.33.464l-5.847,1.751v-5.6l6.215-1.672v5.008Zm-4.062-11.25a4.122,4.122,0,0,1,.239-.627l3.993-.975a19.061,19.061,0,0,1-.121,6.666l-6.246,1.69c-.035-1.181-.079-2.252-.094-3.324-.016-1.1,0-2.2,0-3.453l1.977-.483a2.67,2.67,0,0,0-.083.46C695.514,201.479,695.819,201.512,695.87,201.327Zm-2.607-7.415v-7.463l7.315-2.01v2.731a13.168,13.168,0,0,0-.78,1.433c-.654,1.415-1.469,2.757-2.232,4.118Zm6.891-4.875c.136-.3.279-.577.424-.853v3.7l-2.275.63C698.945,191.369,699.606,190.228,700.153,189.037Zm-3.29,10.4c.37-.525.773-1.029,1.106-1.494.863-1.206,1.686-2.452,2.5-3.692v4.268Zm4.427,6.622c.117-2.329.223-4.434.336-6.691l5.541-1.354c.173,2.25-.09,4.368-.068,6.56Zm.389-7.872c0-1.76,0-3.337,0-4.915a.779.779,0,0,1,.689-.822c1.609-.42,3.215-.856,4.93-1.315v5.749Zm.133-12.818v-1.214l1.053-.256c-.171.236-.342.473-.512.714C702.171,184.867,701.991,185.117,701.812,185.364Zm5.549-3.546-3,.729c.307-.393.629-.777.98-1.146.15-.158-.087-.4-.24-.24-.478.492-.913,1-1.33,1.529l-2.086.508v-4.707l5.67-1.281Zm-6.84-11.281-2.245.519c.076-.16.145-.311.205-.436a31.537,31.537,0,0,1,1.867-3.471c.056-.087.116-.173.172-.26Zm7.313-70.889v6.329l-5.822,1c.11-.173.221-.347.337-.516a21.83,21.83,0,0,0,1.75-2.647c.369-.751.646-1.523,1.072-2.246.248-.42.95-1.571.054-1.678-.124-.015-.168.179-.063.232.453.233-2.251,4.5-3.8,6.966l-.253.043v-4.6c.4-.8.783-1.606,1.167-2.419Zm-6.12,44.552v-2.334c.774-1.143,1.6-2.253,2.419-3.371l3.726-.7v5.091Zm6.018-.2v6.165l-5.979.946v-5.838Zm-10.544,1.165c.41-.791.8-1.594,1.213-2.383.656-1.25,1.393-2.448,2.109-3.661h.008v3.539c-.506.711-1.031,1.41-1.536,2.12Zm-1.314-32.727a5.75,5.75,0,0,1,1-1.7c.44-.715.731-1.522,1.109-2.271.031-.062.064-.124.1-.186l2.138-.238v.976c-.784,1.574-1.721,3.056-2.6,4.582-.028.049-.063.1-.093.153l-4.48.543V108.84l4.368-.486c-.1.216-.21.43-.308.647a15.516,15.516,0,0,1-1.008,1.979,2.79,2.79,0,0,0-.578,1.415A.18.18,0,0,0,695.875,112.443Zm4.4-5.243-1.75.213q.856-1.664,1.75-3.307Zm-1.26,5.167c.425-.71.814-1.444,1.2-2.179v3.241l-1.958.237C698.511,113.231,698.761,112.8,699.019,112.367Zm8,21.193-.2.027c-.07.009-.115.1-.039.145a39.629,39.629,0,0,1-2.519,3.7c-.829.139-1.68.272-2.557.435v-.827c.507-.918,1.01-1.838,1.553-2.733.339-.558.732-1.09,1.03-1.672.087-.169.163-.34.237-.511l3.269-.46v4.98a21.449,21.449,0,0,1-2.8.663,27.843,27.843,0,0,0,2.155-3.535C707.179,133.688,707.131,133.544,707.015,133.56Zm.654-2.88-2.631.377a2.949,2.949,0,0,1,.323-.432c.164-.18-.1-.448-.268-.269a4.807,4.807,0,0,0-.574.775l-3.053.437v-4.609l6.2-.473Zm-5.971,1.843,2.248-.317a13.861,13.861,0,0,1-.754,1.409c-.528.817-1.013,1.659-1.493,2.505ZM696.584,145.3l-3.029.652v-5.759l6.349-.974A57.444,57.444,0,0,0,696.584,145.3Zm5.13-6.353,1.679-.313c-.639.888-1.242,1.721-1.679,2.33Zm-.29-12.773v-6.23l6.211-.749a19.814,19.814,0,0,0,.088,2.089.043.043,0,0,0,.085,0c.077-.71.138-1.422.2-2.134l.062-.008a9.854,9.854,0,0,0-.158,2.142.2.2,0,0,0,.266.151c-.094,1.365-.246,2.7-.263,4.105Zm6.681-7.976-.015.006c.006-.058.01-.115.015-.173C708.108,118.086,708.105,118.142,708.106,118.2Zm.073-4.181c-.044.763-.227,1.5-.333,2.259-.1.684-.154,1.367-.187,2.051-.12.018-.243.031-.37.041-.749.06-1.494.16-2.24.244l-3.815.435v-5.053l6.973-.914C708.2,113.391,708.2,113.7,708.179,114.016Zm.05-1.808-7.046.976v-4.806c.087-.157.173-.315.262-.47l6.429-1.117c.04.974.047,1.839.118,2.7.06.729.165,1.458.269,2.251C708.249,111.9,708.236,112.053,708.229,112.209Zm-7.95-9.3c-.232.428-.465.856-.7,1.289-.586,1.09-1.185,2.187-1.745,3.3l-4.829.589V101.21l7.272-.952Zm-3.253,11.623a5.717,5.717,0,0,0-1.192,2.623.187.187,0,0,0,.366.05,7.641,7.641,0,0,1,1.278-2.216c.106-.171.2-.347.308-.52l2.471-.206c.023.779.056,1.582.068,2.386.012.787,0,1.574,0,2.532l-7.2,1.3c-.076-1.894-.15-3.72-.227-5.606Zm3.4,5.571v6.112l-7.355.845v-5.816Zm.028,6.91v4.665l-7.279,1.177c-.078-1.814-.15-3.462-.229-5.289Zm.052,5.632v5.435l-7.045,1.283c-.217-1.885-.221-3.7-.261-5.719Zm-6.994,14.263,2.622-.533c-.076.2-.158.391-.228.59-.044.126.14.191.208.088.161-.25.309-.509.458-.767l1.613-.328c-.811,1.3-.987,2.9-1.94,4.122a.126.126,0,0,0,.179.179c1.078-.93,1.328-2.338,1.96-3.548.161-.308.343-.607.535-.9l1.514-.308v5.8l-7.226,1.414C693.314,150.732,693.414,148.862,693.517,146.91Zm6.242-2.293c.253-.34.509-.678.76-1.018v.854Zm2.122,13.163v-5.769l5.825-.937a51.571,51.571,0,0,1,.358,5.37l-4.611,1c.1-.134.2-.267.3-.4.841-1.071,1.172-2.481,2.126-3.454.177-.165-.087-.425-.265-.265-1.092.981-1.523,2.517-2.447,3.653-.167.205-.323.416-.475.629Zm-1.314,6.583-1.709.311c.539-.913,1.127-1.789,1.709-2.674Zm1.346-4.522c.255-.429.51-.857.778-1.278,1.159-.332,2.359-.559,3.607-.789-1.023,1.371-1.856,2.839-2.921,4.187-.507.641-.99,1.307-1.464,1.98Zm6.342,3.355-5.849.9c.355-.51.708-1.022,1.071-1.521.571-.785,1.194-1.5,1.7-2.33.482-.8.915-1.611,1.467-2.364a.135.135,0,0,0,0-.168c.469-.087.943-.174,1.426-.27C708.05,159.441,708.7,161.245,708.256,163.2ZM701.12,92.183l7.03-.8c.114,2.545-.255,4.882-.271,7.3l-5.124.442c.622-1.259,1.344-2.4,1.86-3.728.062-.161-.17-.225-.257-.109l-.451.553a.067.067,0,0,0,.081.1c-.269.525-.5,1.067-.823,1.566-.355.554-.685,1.088-.979,1.664l-1.065.092Zm.584,7.975q-.289.6-.591,1.182v-1.133Zm-8.875-6.887,7.877-.969c-.1,2.367-.194,4.6-.293,6.964l-7.584,1.147Zm.357,60.27,7.347-1.34v5.928l-8.028,2.318C692.741,158.061,692.956,155.88,693.186,153.541Zm-.764,8.111a1.054,1.054,0,0,1,.669-.678c2.415-.668,4.843-1.285,7.476-1.971v2.014c-.028.043-.054.087-.081.13-.794,1.222-1.577,2.415-2.321,3.655l-5.728,1.042A18.045,18.045,0,0,1,692.423,161.651Zm-.106,4.932,5.316-.885c-.712,1.228-1.656,2.372-1.761,3.837-.012.17.248.2.292.04a18.862,18.862,0,0,1,2.171-3.994l2.187-.364v.73l-.019.027a21.469,21.469,0,0,0-2.082,3.529c-.185.417-.386,1.083-.66,1.671l-5.183,1.2C692.488,170.388,692.406,168.556,692.316,166.584Zm.216,6.694,4.335-.949a.13.13,0,0,0,.14.191,1.162,1.162,0,0,0,.559-.344l2.887-.632v6.183l-7.516,1.923C692.8,177.42,692.668,175.407,692.533,173.278Zm.59,12.351v-5.04L700.4,178.8v4.725Zm3.82,8.255c-.167.334-.327.67-.475,1.016a16.693,16.693,0,0,0-.894,1.9.135.135,0,0,0,.245.1,12.314,12.314,0,0,0,1.075-1.621c.248-.54.5-1.068.77-1.593l2.809-.753v.337c-.151.205-.3.408-.448.62-.994,1.464-2.01,2.914-3.012,4.372-.273.4-.6.863-.882,1.354l-2.689.684c-.079-1.919-.149-3.619-.223-5.421Zm2.777,32.967-1.768.35a3.934,3.934,0,0,0-2.323.785c-.461.438-1.39.382-2.28.587.132-1.8.253-3.455.381-5.21l5.99-1.455Zm-5.908-4.517v-6.718l5-1.374c-.86,1.372-1.641,2.792-2.6,4.106-.1.14.12.3.237.182a25.428,25.428,0,0,0,3.115-4.495l.42-.116c-.013.387-.026.763-.039,1.142a.21.21,0,0,0-.335.126,19.96,19.96,0,0,1-1.458,2.877,15.074,15.074,0,0,1-1.3,2.826c-.1.143.11.28.228.176a6.242,6.242,0,0,0,1.422-2.449c.388-.947,1.09-1.8,1.417-2.769-.055,1.624-.109,3.2-.165,4.861Zm7.285-.812,5.791-1.625v4.314l-5.738,1.892A12.184,12.184,0,0,1,701.1,221.521Zm2.849,5.668-2.1.276C702.684,227.112,703.276,226.767,703.945,227.19Zm2.822-1c-.933.343-1.873.665-2.811,1h0c-.077-.479.328-.567.629-.669a13.793,13.793,0,0,1,2.942-.711A6.951,6.951,0,0,1,706.767,226.193Zm.775-50.084-5.8,1.3v-6.141L708,169.945C708.037,172.07,707.635,174.035,707.542,176.109Z" transform="translate(-594.693 -63.707)" fill="#1a1a1a"/>
          <path id="Trazado_106240" data-name="Trazado 106240" d="M619.983,266.93l-.315,0c-.275,3.124-.672,6.243-.787,9.372-.093,2.555.28,5.127.219,7.685-.132,5.48-.4,10.956-.633,16.434-.283,6.76-.647,13.517-.843,20.278-.1,3.4.082,6.8.176,10.2a11.426,11.426,0,0,0,.345,1.837l.289-.023a6.005,6.005,0,0,0,.195-.967q.107-2.716.171-5.434c.133-6.012.19-12.027.4-18.037.252-7.2.71-14.4.926-21.6.117-3.928-.1-7.866-.137-11.8C619.962,272.233,619.983,269.581,619.983,266.93Z" transform="translate(-555.983 -156.372)" fill="#1a1a1a"/>
          <path id="Trazado_106241" data-name="Trazado 106241" d="M577.987,296.653a60.044,60.044,0,0,0-.553-10.555c.207,7.076-.531,14.149.1,21.215A78.846,78.846,0,0,0,577.987,296.653Z" transform="translate(-534.86 -166.413)" fill="#1a1a1a"/>
          <path id="Trazado_106242" data-name="Trazado 106242" d="M623.959,320.708c.058-3.91.012-7.822.012-11.732-.071,7.878-1.378,15.746-.285,23.625C624.139,328.638,623.9,324.67,623.959,320.708Z" transform="translate(-558.946 -178.397)" fill="#1a1a1a"/>
          <path id="Trazado_106243" data-name="Trazado 106243" d="M576.6,113.937c.008-6.1.091-12.193.142-18.289.006-.708,0-1.416,0-2.124a15.719,15.719,0,0,0-.484,3.644c-.1,6.62-.274,13.241.247,19.856.133,1.7.021,3.409.022,5.115a6.257,6.257,0,0,0,.319-1.469C576.792,118.425,576.595,116.181,576.6,113.937Z" transform="translate(-534.272 -65.538)" fill="#1a1a1a"/>
          <path id="Trazado_106244" data-name="Trazado 106244" d="M576.938,153.621v4.709h0q0-2.347,0-4.7l0-.006v0Z" transform="translate(-534.686 -97.016)" fill="#1a1a1a"/>
          <path id="Trazado_106245" data-name="Trazado 106245" d="M623.379,391.416c.619-1.544.7-12.978.107-14.315C622.961,383.612,622.914,389.911,623.379,391.416Z" transform="translate(-558.845 -214.082)" fill="#1a1a1a"/>
          <path id="Trazado_106246" data-name="Trazado 106246" d="M619.961,123.551q.2-7.49.408-14.98c-.9,4.974-.754,9.987-.677,15Z" transform="translate(-557.05 -73.42)" fill="#1a1a1a"/>
          <path id="Trazado_106247" data-name="Trazado 106247" d="M577.809,355.09q.136,2.9.271,5.807l.311-.018-.413-5.759Z" transform="translate(-535.142 -202.553)" fill="#1a1a1a"/>
          <path id="Trazado_106248" data-name="Trazado 106248" d="M619.891,164.9V169.6l.242-.02c0-.782.024-1.566-.007-2.347s-.117-1.56-.178-2.34Z" transform="translate(-557.186 -102.921)" fill="#1a1a1a"/>
          <path id="Trazado_106249" data-name="Trazado 106249" d="M577.069,251.394l-.193.043V255.4l.193,0Z" transform="translate(-534.653 -148.234)" fill="#1a1a1a"/>
          <path id="Trazado_106250" data-name="Trazado 106250" d="M680.181,49.229c-2.591.252-5.19.441-7.77.776a16.248,16.248,0,0,0-4.9,1.2c.268,2.467-.333,4.937.323,7.318a2.537,2.537,0,0,0,.542.1c2.806-.313,5.614-.606,8.414-.96,3.239-.41,6.467-.891,9.705-1.3.751-.1,1.163-.47,1.159-1.174-.012-1.8-.017-3.614-.167-5.409-.09-1.077-.3-1.192-1.382-1.109C684.124,48.814,682.154,49.037,680.181,49.229Zm-11.615,8.339c-.136-2.02-.274-4.072-.421-6.256,2.714-.2,5.495-.852,8.475-.779.111,1.93.218,3.765.325,5.63Zm8.427-6.234q-.048-.378-.1-.756a2.194,2.194,0,0,1,.331-.028c.058.257.09.52.128.781Zm1.322,5.26c-.2-2.094-.4-4.088-.6-6.15.464-.155.7.06.729.55.035.571.052,1.145.049,1.717a9.173,9.173,0,0,0,.256,3.4C678.913,56.535,678.649,56.652,678.316,56.593Zm8.168-6.875a17.183,17.183,0,0,1,.1,4.94l-.418-3.778-.321,0c-.11,1.329-.221,2.658-.339,4.085l-5.991,1.313c-.086-1.109-.12-2.07-.244-3.02s-.34-1.874-.531-2.894C681.281,50.1,683.8,49.442,686.485,49.718Z" transform="translate(-582.128 -42.028)" fill="#1a1a1a"/>
          <path id="Trazado_106251" data-name="Trazado 106251" d="M537.9,122.686a75.87,75.87,0,0,0,.789-10.739A38.593,38.593,0,0,0,537.9,122.686Z" transform="translate(-514.176 -75.189)" fill="#1a1a1a"/>
          <path id="Trazado_106252" data-name="Trazado 106252" d="M538.531,268.8a99.964,99.964,0,0,0,.76-10.744C538.43,261.228,538.017,267,538.531,268.8Z" transform="translate(-514.449 -151.724)" fill="#1a1a1a"/>
          <path id="Trazado_106253" data-name="Trazado 106253" d="M492.865,87.807c.158-.343.139-.689.325-1.043a8.334,8.334,0,0,1,.807-1.05c.954-1.27,1.42-2.822,2.432-4.074.049-.06-.036-.148-.087-.087a25.423,25.423,0,0,0-2.139,3.478c-.346.58-.891,1.022-1.213,1.617-.272.5-.191,1.259-.767,1.555a.069.069,0,0,0,.053.126A.794.794,0,0,0,492.865,87.807Z" transform="translate(-490.293 -59.256)" fill="#1a1a1a"/>
          <path id="Trazado_106254" data-name="Trazado 106254" d="M492.968,92.188c1.458-1.482,2.093-3.548,3.153-5.286.81-1.328,2.22-2.3,2.258-3.98,0-.1-.14-.093-.149,0-.172,1.755-1.788,2.788-2.591,4.247-.906,1.647-1.935,3.258-2.805,4.916A.086.086,0,0,0,492.968,92.188Z" transform="translate(-490.625 -59.947)" fill="#1a1a1a"/>
          <path id="Trazado_106255" data-name="Trazado 106255" d="M496.854,92.753a.092.092,0,0,0,.07.167c1.031-.218,1.643-1.924,2-2.768.826-1.953,2.558-3.284,3.453-5.209.049-.107-.105-.2-.16-.094-.155.3-.277.245-.446.485-.364.518-.524,1.082-.934,1.589-.49.607-1.094,1.119-1.533,1.768C498.494,89.886,498.209,91.987,496.854,92.753Z" transform="translate(-492.712 -60.969)" fill="#1a1a1a"/>
          <path id="Trazado_106256" data-name="Trazado 106256" d="M553.925,96.7c.691-1.1,1.6-2.075,2.38-3.111.638-.842,1.3-1.675,1.918-2.529.489-.677,1.278-1.346,1.439-2.2.038-.2-.266-.288-.309-.085a7.829,7.829,0,0,1-1.735,2.472c-.515.592-.948,1.151-1.409,1.792-.586.815-1.267,1.588-1.882,2.384-.439.569-.96,1.778-1.56,2.158a.146.146,0,0,0,.112.265C553.429,97.755,553.66,97.128,553.925,96.7Z" transform="translate(-521.989 -62.995)" fill="#1a1a1a"/>
          <path id="Trazado_106257" data-name="Trazado 106257" d="M557.16,96.767c-.674.86-1.247,1.79-1.858,2.694a10.716,10.716,0,0,0-1.839,3.1.1.1,0,0,0,.18.076c1.45-1.995,2.666-4.167,4.194-6.113.741-.944,1.489-1.882,2.291-2.776s1.315-1.931,2.1-2.808c.119-.133-.075-.33-.2-.2-.8.862-1.347,1.9-2.138,2.769C558.941,94.562,558.033,95.653,557.16,96.767Z" transform="translate(-522.387 -64.059)" fill="#1a1a1a"/>
          <path id="Trazado_106258" data-name="Trazado 106258" d="M561.642,130.773c-1.68,1.965-3.134,4.1-4.61,6.219s-2.683,4.418-4.3,6.458c-.119.15.073.358.216.216,1.671-1.657,2.647-3.881,3.925-5.828a72.98,72.98,0,0,1,4.943-6.891C561.916,130.826,561.745,130.652,561.642,130.773Z" transform="translate(-521.987 -85.029)" fill="#1a1a1a"/>
          <path id="Trazado_106259" data-name="Trazado 106259" d="M565.109,293.586c-.991,2.53-2.958,4.582-4.064,7.055-.64,1.429-1.143,2.924-1.773,4.359-.292.665-.63,1.3-.96,1.943a14.9,14.9,0,0,1-.852,1.844c-.068.1.084.213.163.126a4.354,4.354,0,0,0,.715-1.288c.346-.765.772-1.489,1.112-2.258.622-1.409,1.148-2.853,1.722-4.281,1.056-2.625,3.147-4.779,4.055-7.468C565.253,293.543,565.137,293.514,565.109,293.586Z" transform="translate(-524.473 -170.314)" fill="#1a1a1a"/>
          <path id="Trazado_106260" data-name="Trazado 106260" d="M502.935,390.271A33.449,33.449,0,0,0,504.5,385.8a.129.129,0,0,0-.214-.124l-.275.213c-.107.083.035.27.147.19a4.658,4.658,0,0,0-.265.718c-.19.475-.419.931-.619,1.4a12.148,12.148,0,0,0-.434,1.2c-.249.807-.494,2.444-1.334,2.841-.11.052-.027.2.078.183C502.376,392.277,502.72,390.9,502.935,390.271Z" transform="translate(-495.144 -218.554)" fill="#1a1a1a"/>
          <path id="Trazado_106261" data-name="Trazado 106261" d="M547.4,384.089a27.192,27.192,0,0,1,2.126-3.828c.131-.161-.1-.394-.231-.231a22.184,22.184,0,0,0-2.008,3.518c-.8,1.435-1.8,2.751-2.606,4.187-.761,1.359-1.63,2.673-2.339,4.06a20.03,20.03,0,0,1-1.146,2.139,2.1,2.1,0,0,0-.5,1.133c-.01.173.237.189.289.039a9.838,9.838,0,0,1,.978-1.548c.358-.618.628-1.282.965-1.91.7-1.314,1.5-2.587,2.224-3.889C545.847,386.5,546.683,385.333,547.4,384.089Z" transform="translate(-515.698 -215.587)" fill="#1a1a1a"/>
          <path id="Trazado_106262" data-name="Trazado 106262" d="M557.951,377.567a.171.171,0,0,0-.3-.173c-1.59,2.733-3.347,5.4-4.707,8.259-.684,1.437-1.463,2.815-2.226,4.21a7.489,7.489,0,0,0-1.279,2.855c-.006.114.141.131.2.053a31.509,31.509,0,0,0,1.786-3.249c.734-1.322,1.419-2.657,2.074-4.019C554.814,382.774,556.458,380.2,557.951,377.567Z" transform="translate(-520.284 -214.192)" fill="#1a1a1a"/>
          <path id="Trazado_106263" data-name="Trazado 106263" d="M561.654,378.17c.138,2.855-2.522,5.279-3.779,7.66-.812,1.539-1.795,3-2.564,4.557-.336.68-.459,1.423-.793,2.1a3.446,3.446,0,0,0-.458,1.236c-.016.148.219.174.256.035a11.911,11.911,0,0,1,.829-1.683,25.694,25.694,0,0,1,1.233-2.647c.849-1.494,1.616-3.043,2.483-4.524,1.235-2.109,3.278-4.109,3.1-6.736C561.949,377.973,561.644,377.97,561.654,378.17Z" transform="translate(-522.701 -214.564)" fill="#1a1a1a"/>
          <path id="Trazado_106264" data-name="Trazado 106264" d="M554.294,369.552a7.863,7.863,0,0,1,1.459-3.038c.563-.918,1.191-1.783,1.82-2.656,1.316-1.829,2.573-3.7,3.72-5.637a.194.194,0,0,0-.334-.2c-1.341,2.256-2.848,4.388-4.383,6.514-.692.959-1.31,1.961-1.908,2.98a3.052,3.052,0,0,0-.673,2.072C554.027,369.773,554.279,369.711,554.294,369.552Z" transform="translate(-522.653 -204.042)" fill="#1a1a1a"/>
          <path id="Trazado_106265" data-name="Trazado 106265" d="M560.935,378.615a.028.028,0,0,0,.056,0L561,378.3a.033.033,0,0,0-.067,0Z" transform="translate(-526.301 -214.692)" fill="#1a1a1a"/>
          <path id="Trazado_106266" data-name="Trazado 106266" d="M561.778,399.231a7.469,7.469,0,0,0-1.734,3.178,8.567,8.567,0,0,0-.789,4.338.163.163,0,0,0,.312,0c.58-2.316.7-5.407,2.556-7.172C562.351,399.359,562.008,399.019,561.778,399.231Z" transform="translate(-525.383 -225.64)" fill="#1a1a1a"/>
          <path id="Trazado_106267" data-name="Trazado 106267" d="M594.99,114.615c.242-1.185,1.7-2.089,2.45-2.947a33.184,33.184,0,0,1,2.621-3.363c.08-.071-.036-.182-.116-.116-1.341,1.118-2.046,2.733-3.295,3.935-.68.656-1.677,1.462-1.8,2.472C594.846,114.673,594.975,114.69,594.99,114.615Z" transform="translate(-544.071 -73.21)" fill="#1a1a1a"/>
          <path id="Trazado_106268" data-name="Trazado 106268" d="M599.5,114.83a5.807,5.807,0,0,1-1.467,2.07,18.252,18.252,0,0,0-1.538,1.864c-1.167,1.373-2.505,2.587-3.62,4.006-.053.068.034.162.1.1a55.644,55.644,0,0,0,3.981-4.242,18.561,18.561,0,0,1,1.653-1.9,5.008,5.008,0,0,0,1.073-1.79C599.738,114.814,599.562,114.707,599.5,114.83Z" transform="translate(-543.028 -76.67)" fill="#1a1a1a"/>
          <path id="Trazado_106269" data-name="Trazado 106269" d="M594.96,132.025a26.044,26.044,0,0,0,2.366-3.115,3.167,3.167,0,0,0,.85-2.058c-.017-.121-.228-.094-.216.029.078.809-.65,1.617-1.085,2.245-.659.952-1.363,1.864-2.059,2.788C594.755,132,594.891,132.1,594.96,132.025Z" transform="translate(-544.043 -82.955)" fill="#1a1a1a"/>
          <path id="Trazado_106270" data-name="Trazado 106270" d="M590.246,145.37c.544-.123.745-.684.955-1.14.42-.916.95-1.775,1.4-2.676.107-.213-.213-.4-.321-.188-.376.747-.78,1.477-1.134,2.235-.258.553-.406,1.271-.98,1.579C590.058,145.237,590.134,145.4,590.246,145.37Z" transform="translate(-541.588 -90.55)" fill="#1a1a1a"/>
          <path id="Trazado_106271" data-name="Trazado 106271" d="M589.968,190.395a17.044,17.044,0,0,1,2.245-2.612,2.571,2.571,0,0,0,1.057-1.552c.013-.1-.169-.13-.187-.025-.155.922-1.176,1.421-1.782,2.029a22.059,22.059,0,0,0-1.862,2.355c-.737.979-1.393,2.012-2.216,2.924a25.8,25.8,0,0,0-1.751,2.509c-.065.091.076.193.152.117.836-.834,1.483-1.928,2.235-2.846S589.248,191.349,589.968,190.395Z" transform="translate(-539.148 -114.052)" fill="#1a1a1a"/>
          <path id="Trazado_106272" data-name="Trazado 106272" d="M595.094,196.123c-.613.533-1.032,1.238-1.612,1.809-.7.688-1.341,1.426-2.039,2.113a31.606,31.606,0,0,0-3.968,4.367c-.053.077.055.191.132.132a12.277,12.277,0,0,0,1.676-1.875c.741-.848,1.579-1.614,2.371-2.413.644-.65,1.231-1.353,1.879-2,.616-.615,1.088-1.4,1.729-1.966C595.377,196.189,595.208,196.023,595.094,196.123Z" transform="translate(-540.198 -119.266)" fill="#1a1a1a"/>
          <path id="Trazado_106273" data-name="Trazado 106273" d="M586.9,214.559a2.677,2.677,0,0,0,1.232-1.039c.582-.717,1.137-1.458,1.716-2.178,1.36-1.693,2.723-3.388,4.093-5.065.1-.124-.072-.3-.179-.179-1.252,1.473-2.537,2.945-3.746,4.457-.576.72-1.177,1.42-1.741,2.149a5.247,5.247,0,0,1-1.469,1.632A.122.122,0,0,0,586.9,214.559Z" transform="translate(-539.824 -124.485)" fill="#1a1a1a"/>
          <path id="Trazado_106274" data-name="Trazado 106274" d="M593.7,217.539c-.01-.154-.251-.156-.242,0,.075,1.281-1.38,2.288-2.21,3.083a49.851,49.851,0,0,0-3.78,3.82.114.114,0,0,0,.16.16c1.542-1.294,2.861-2.865,4.317-4.256C592.7,219.625,593.775,218.69,593.7,217.539Z" transform="translate(-540.184 -130.439)" fill="#1a1a1a"/>
          <path id="Trazado_106275" data-name="Trazado 106275" d="M592.827,229.418c-.592.7-1.283,1.283-1.912,1.943a4.008,4.008,0,0,0-.588,1.015c-.359.628-.973.971-1.421,1.519-.387.473-.534,1.072-.879,1.571-.1.142.132.324.243.187.445-.55.624-1.221,1.114-1.744a9.4,9.4,0,0,0,1.076-1.079,10.364,10.364,0,0,1,.9-1.375c.556-.615,1.133-1.2,1.656-1.849C593.124,229.475,592.939,229.285,592.827,229.418Z" transform="translate(-540.482 -136.699)" fill="#1a1a1a"/>
          <path id="Trazado_106276" data-name="Trazado 106276" d="M586.935,251.634c-.061.017-.034.1.026.093l.262-.043a.06.06,0,0,0,.043-.043c.186-1.336,1.422-2.236,2.017-3.387.077-.149-.148-.28-.225-.131a20.277,20.277,0,0,1-1.238,1.857,5.081,5.081,0,0,0-.519.938C587.212,251.141,587.229,251.554,586.935,251.634Z" transform="translate(-539.904 -146.486)" fill="#1a1a1a"/>
          <path id="Trazado_106277" data-name="Trazado 106277" d="M588.934,279.257a29.293,29.293,0,0,0,3.044-3.826,19.837,19.837,0,0,1,1.617-2.064,2.1,2.1,0,0,0,.778-1.159c.035-.19-.248-.274-.294-.081-.165.685-1.028,1.232-1.458,1.765-.39.483-.755.987-1.132,1.479q-1.41,1.839-2.788,3.705C588.6,279.217,588.816,279.369,588.934,279.257Z" transform="translate(-540.833 -159.037)" fill="#1a1a1a"/>
          <path id="Trazado_106278" data-name="Trazado 106278" d="M594.415,277.53a7.874,7.874,0,0,1-.9.964c-.441.491-.839,1.019-1.29,1.506-.64.692-1.249,1.418-1.817,2.169-1.1,1.46-2.04,3.458-3.6,4.5-.111.075-.045.266.094.225,1.359-.4,2.487-2.6,3.207-3.669a28.812,28.812,0,0,1,2.464-3.183c.33-.369.632-.726.927-1.118a9.044,9.044,0,0,0,1.062-1.311A.086.086,0,0,0,594.415,277.53Z" transform="translate(-539.827 -161.903)" fill="#1a1a1a"/>
          <path id="Trazado_106279" data-name="Trazado 106279" d="M593.954,292.734a11.672,11.672,0,0,0-2.522,3.214c-.547,1.284-1.642,2.464-1.868,3.859-.01.062.082.091.1.027.28-1.255,1.328-2.109,1.843-3.255a7.54,7.54,0,0,1,1.2-2.084c.463-.539.976-1.036,1.46-1.555C594.287,292.8,594.082,292.6,593.954,292.734Z" transform="translate(-541.299 -169.866)" fill="#1a1a1a"/>
          <path id="Trazado_106280" data-name="Trazado 106280" d="M588.621,312.885a32.252,32.252,0,0,0-.044,5.079.152.152,0,0,0,.3,0,32.26,32.26,0,0,0-.044-5.079A.108.108,0,0,0,588.621,312.885Z" transform="translate(-540.734 -180.39)" fill="#1a1a1a"/>
          <path id="Trazado_106281" data-name="Trazado 106281" d="M652.259,54.462a22.986,22.986,0,0,1-2.77,3.959c-.075.079.028.23.122.158a11.158,11.158,0,0,0,2.638-3.546.626.626,0,0,0,.261-.465A.139.139,0,0,0,652.259,54.462Z" transform="translate(-572.676 -45.04)" fill="#1a1a1a"/>
          <path id="Trazado_106282" data-name="Trazado 106282" d="M495.646,347.5c.014-.424.012-.846.01-1.27a.093.093,0,0,0-.186,0c0,.424,0,.846.01,1.27A.084.084,0,0,0,495.646,347.5Z" transform="translate(-492.01 -197.867)" fill="#1a1a1a"/>
          <path id="Trazado_106283" data-name="Trazado 106283" d="M493.371,380.167a2.791,2.791,0,0,1-.559,1.858c-.066.086.073.184.146.112a2.587,2.587,0,0,0,.725-1.97A.156.156,0,0,0,493.371,380.167Z" transform="translate(-490.61 -215.609)" fill="#1a1a1a"/>
          <path id="Trazado_106284" data-name="Trazado 106284" d="M631.348,115.582a.138.138,0,0,0,.168.1c1.182-.4.948-2.554.969-3.506.035-1.632.646-3.938-.7-5.217-.081-.078-.19.037-.121.121.889,1.093.679,2.7.607,4.01-.055.983.038,1.977-.091,2.955a1.958,1.958,0,0,1-.213.875c-.333.433-.271.227-.551-.051-.737-.729-.5-2.269-.363-3.141a16.109,16.109,0,0,0,.322-5.016.036.036,0,0,0,.068,0l.032-.2a.069.069,0,1,0-.136-.019c-.116,1.882-.4,3.706-.67,5.568a5.4,5.4,0,0,0-.065,1.583A14.278,14.278,0,0,0,631.348,115.582Z" transform="translate(-562.779 -72.294)" fill="#1a1a1a"/>
          <path id="Trazado_106285" data-name="Trazado 106285" d="M631.292,152.076c-.283-.387-.7-.181-1.078-.13a.132.132,0,0,0,0,.264c.19.015.539-.011.691.119.235.2.042.64-.061.865s-.233.518-.482.59a1.249,1.249,0,0,1-.744-.187c-.09-.039-.169.087-.079.135a1.355,1.355,0,0,0,.909.265c.349-.089.594-.482.753-.777A1.059,1.059,0,0,0,631.292,152.076Z" transform="translate(-562.219 -96.089)" fill="#1a1a1a"/>
          <path id="Trazado_106286" data-name="Trazado 106286" d="M631.416,150.976a.236.236,0,0,0,0-.472A.236.236,0,0,0,631.416,150.976Z" transform="translate(-563.103 -95.386)" fill="#1a1a1a"/>
          <path id="Trazado_106287" data-name="Trazado 106287" d="M589.471,77.225c.154-.025.1-.238-.034-.252a6.5,6.5,0,0,0-1.9.144c-.627.11-.927.329-1.2-.289-.262-.589.051-.757.563-1.067a8.869,8.869,0,0,1,3.8-1.46.058.058,0,0,0,0-.115,6.017,6.017,0,0,0-3.108.9,3.259,3.259,0,0,0-1.863,1.329C584.793,78.467,588.794,77.335,589.471,77.225Z" transform="translate(-539.219 -55.396)" fill="#1a1a1a"/>
          <path id="Trazado_106288" data-name="Trazado 106288" d="M629.468,254.147c-.038-.768-.137-1.53-.13-2.3.014-1.549.252-3.1.174-4.646a.037.037,0,0,0-.074,0,50.675,50.675,0,0,0-.444,5.6c.021.615.057,1.23.067,1.846,0,.327.152,1.524-.115,1.751-.767.651-1.156-3.015-1.083-3.532.144-1.018.313-2.053.4-3.075.086-.988.26-1.933.371-2.912.016-.143-.206-.14-.223,0a18.953,18.953,0,0,0-.36,2.039,21.692,21.692,0,0,1-.3,2.57,11.518,11.518,0,0,0-.254,2.6c.059.68.255,2.931,1.339,2.865C629.824,256.9,629.5,254.717,629.468,254.147Z" transform="translate(-561.162 -145.815)" fill="#1a1a1a"/>
          <path id="Trazado_106289" data-name="Trazado 106289" d="M633.967,223.469c-.065.327-.118.641-.211.965-.06.207-.112.416-.155.627a2.72,2.72,0,0,1-.019-.918.108.108,0,0,0-.216,0c-.016.423-.251,1.176.266,1.4a.182.182,0,0,0,.262-.107c.161-.566.665-1.417.341-2A.148.148,0,0,0,633.967,223.469Z" transform="translate(-564.209 -133.551)" fill="#1a1a1a"/>
          <path id="Trazado_106290" data-name="Trazado 106290" d="M630.449,297.707c-.219.05-.28.273-.348.461-.04.112-.077.23-.12.346-.01-.15,0-.3-.026-.447a.991.991,0,0,0-.334-.606c-.109-.1-.269.058-.163.163.383.38.2.975.271,1.466.022.163.246.188.346.091a1.844,1.844,0,0,0,.41-.682c.092-.229.247-.475.143-.719A.159.159,0,0,0,630.449,297.707Z" transform="translate(-562.178 -172.348)" fill="#1a1a1a"/>
        </g>
      </g>
    </g>
  </g>
</svg>
