<svg xmlns="http://www.w3.org/2000/svg" width="505" height="520" viewBox="0 0 505 520">
  <g id="_77" data-name="77" transform="translate(-285 -12957)">
    <rect id="_77-2" data-name="77" width="505" height="520" transform="translate(285 12957)" fill="#6edde6"/>
    <g id="Grupo_124070" data-name="Grupo 124070" transform="translate(-1377.617 12759.853)">
      <g id="Grupo_124042" data-name="Grupo 124042" transform="translate(1732.683 239.276)">
        <path id="Trazado_115789" data-name="Trazado 115789" d="M2069.638,583.549a.511.511,0,0,1-.456-.277L1889.737,237.754l-181.254,345.52a.513.513,0,1,1-.91-.476l181.71-346.39a.518.518,0,0,1,.456-.275h0a.513.513,0,0,1,.451.277l179.9,346.39a.512.512,0,0,1-.454.749Z" transform="translate(-1707.514 -236.132)" fill="#0090df"/>
      </g>
      <path id="Trazado_115790" data-name="Trazado 115790" d="M1684.118,381.4l50.327-52.9H1804.1l-30.845,52.9Z" transform="translate(0.527 100.427)" fill="#fffbde" opacity="0.3"/>
      <path id="Trazado_115791" data-name="Trazado 115791" d="M1825.241,381.4l-11.594-52.9H1958.58l50.727,52.9Z" transform="translate(136.95 100.427)" fill="#fffbde" opacity="0.3"/>
      <path id="Trazado_115792" data-name="Trazado 115792" d="M1758.375,328.5l-1.134,76.815-29.711,74.641V381.4Z" transform="translate(46.249 100.427)" fill="#fffbde" opacity="0.3"/>
      <path id="Trazado_115793" data-name="Trazado 115793" d="M1813.647,328.5v75.728l11.594,75.728V381.4Z" transform="translate(136.95 100.427)" fill="#fffbde" opacity="0.3"/>
      <g id="Grupo_124043" data-name="Grupo 124043" transform="translate(1772.751 503.627)" opacity="0.3">
        <path id="Trazado_115794" data-name="Trazado 115794" d="M1757.241,366.469l147.107-1.087,11.594,75.728H1727.53Z" transform="translate(-1726.502 -364.355)" fill="#fffbde"/>
        <path id="Trazado_115795" data-name="Trazado 115795" d="M1916.469,442.664H1728.055a1.028,1.028,0,0,1-.955-1.406l29.713-74.641a1.025,1.025,0,0,1,.946-.647l147.109-1.088a1.036,1.036,0,0,1,1.022.873l11.592,75.727a1.018,1.018,0,0,1-.236.826A1.033,1.033,0,0,1,1916.469,442.664Zm-186.9-2.053h185.7L1904,366.944l-145.53,1.074Z" transform="translate(-1727.029 -364.882)" fill="#ffe800"/>
      </g>
      <g id="Grupo_124051" data-name="Grupo 124051" transform="translate(1683.617 585.153)">
        <g id="Grupo_124044" data-name="Grupo 124044" transform="translate(0 86.247)">
          <path id="Trazado_115796" data-name="Trazado 115796" d="M1684.643,452.259a1.029,1.029,0,0,1-.9-1.517l1.953-3.612a1.027,1.027,0,0,1,1.8.979l-1.953,3.612A1.025,1.025,0,0,1,1684.643,452.259Z" transform="translate(-1683.617 -446.594)" fill="#ffe800"/>
        </g>
        <g id="Grupo_124045" data-name="Grupo 124045" transform="translate(6.011 11.124)">
          <path id="Trazado_115797" data-name="Trazado 115797" d="M1687.572,479.67a1.012,1.012,0,0,1-.487-.125,1.025,1.025,0,0,1-.417-1.39l4.059-7.513a1.026,1.026,0,1,1,1.8.975l-4.059,7.513A1.017,1.017,0,0,1,1687.572,479.67Zm8.118-15.025a1.008,1.008,0,0,1-.487-.123,1.024,1.024,0,0,1-.415-1.39l4.057-7.513a1.025,1.025,0,0,1,1.8.973l-4.059,7.513A1.017,1.017,0,0,1,1695.69,464.645Zm8.116-15.023a1.011,1.011,0,0,1-.487-.125,1.022,1.022,0,0,1-.415-1.388l4.06-7.515a1.026,1.026,0,1,1,1.8.975l-4.059,7.513A1.023,1.023,0,0,1,1703.807,449.621Zm8.118-15.026a1.01,1.01,0,0,1-.487-.123,1.024,1.024,0,0,1-.415-1.39l4.057-7.513a1.026,1.026,0,0,1,1.8.975l-4.057,7.513A1.02,1.02,0,0,1,1711.925,434.6Zm8.116-15.023a.988.988,0,0,1-.487-.125,1.021,1.021,0,0,1-.414-1.388l4.059-7.513a1.025,1.025,0,1,1,1.8.973l-4.06,7.513A1.021,1.021,0,0,1,1720.041,419.572Z" transform="translate(-1686.545 -410.006)" fill="#ffe800"/>
        </g>
        <g id="Grupo_124046" data-name="Grupo 124046" transform="translate(46.6)">
          <path id="Trazado_115798" data-name="Trazado 115798" d="M1707.339,410.255a1.01,1.01,0,0,1-.487-.125,1.024,1.024,0,0,1-.415-1.39l1.953-3.612a1.021,1.021,0,0,1,.9-.54h4.106a1.027,1.027,0,0,1,0,2.053h-3.495l-1.663,3.074A1.022,1.022,0,0,1,1707.339,410.255Z" transform="translate(-1706.314 -404.588)" fill="#ffe800"/>
        </g>
        <g id="Grupo_124047" data-name="Grupo 124047" transform="translate(60.879)">
          <path id="Trazado_115799" data-name="Trazado 115799" d="M2051.253,406.641h-8.219a1.027,1.027,0,0,1,0-2.053h8.219a1.027,1.027,0,0,1,0,2.053Zm-16.438,0H2026.6a1.027,1.027,0,0,1,0-2.053h8.219a1.027,1.027,0,0,1,0,2.053Zm-16.436,0h-8.219a1.027,1.027,0,0,1,0-2.053h8.219a1.027,1.027,0,0,1,0,2.053Zm-16.438,0h-8.219a1.027,1.027,0,0,1,0-2.053h8.219a1.027,1.027,0,0,1,0,2.053Zm-16.438,0h-8.217a1.027,1.027,0,0,1,0-2.053h8.217a1.027,1.027,0,1,1,0,2.053Zm-16.434,0h-8.219a1.027,1.027,0,1,1,0-2.053h8.219a1.027,1.027,0,0,1,0,2.053Zm-16.438,0h-8.219a1.027,1.027,0,1,1,0-2.053h8.219a1.027,1.027,0,1,1,0,2.053Zm-16.436,0h-8.219a1.027,1.027,0,0,1,0-2.053h8.219a1.027,1.027,0,0,1,0,2.053Zm-16.438,0h-8.219a1.027,1.027,0,1,1,0-2.053h8.219a1.027,1.027,0,1,1,0,2.053Zm-16.438,0H1895.1a1.027,1.027,0,0,1,0-2.053h8.217a1.027,1.027,0,0,1,0,2.053Zm-16.436,0h-8.219a1.027,1.027,0,1,1,0-2.053h8.219a1.027,1.027,0,0,1,0,2.053Zm-16.438,0h-8.219a1.027,1.027,0,0,1,0-2.053h8.219a1.027,1.027,0,1,1,0,2.053Zm-16.436,0h-8.217a1.027,1.027,0,1,1,0-2.053h8.217a1.027,1.027,0,0,1,0,2.053Zm-16.436,0h-8.219a1.027,1.027,0,0,1,0-2.053h8.219a1.027,1.027,0,0,1,0,2.053Zm-16.438,0h-8.217a1.027,1.027,0,1,1,0-2.053h8.217a1.027,1.027,0,0,1,0,2.053Zm-16.436,0h-8.219a1.027,1.027,0,1,1,0-2.053h8.219a1.027,1.027,0,1,1,0,2.053Zm-16.438,0h-8.219a1.027,1.027,0,0,1,0-2.053h8.219a1.027,1.027,0,0,1,0,2.053Zm-16.436,0H1763.6a1.027,1.027,0,1,1,0-2.053h8.219a1.027,1.027,0,1,1,0,2.053Zm-16.438,0h-8.219a1.027,1.027,0,0,1,0-2.053h8.219a1.027,1.027,0,0,1,0,2.053Zm-16.438,0h-8.217a1.027,1.027,0,1,1,0-2.053h8.217a1.027,1.027,0,0,1,0,2.053Zm-16.434,0h-8.219a1.027,1.027,0,0,1,0-2.053h8.219a1.027,1.027,0,0,1,0,2.053Z" transform="translate(-1713.268 -404.588)" fill="#ffe800"/>
        </g>
        <g id="Grupo_124048" data-name="Grupo 124048" transform="translate(406.056)">
          <path id="Trazado_115800" data-name="Trazado 115800" d="M1888.555,410.206a1.023,1.023,0,0,1-.891-.517l-1.743-3.047h-3.511a1.027,1.027,0,1,1,0-2.053h4.106a1.018,1.018,0,0,1,.889.517l2.041,3.564a1.026,1.026,0,0,1-.382,1.4A1.011,1.011,0,0,1,1888.555,410.206Z" transform="translate(-1881.383 -404.588)" fill="#ffe800"/>
        </g>
        <g id="Grupo_124049" data-name="Grupo 124049" transform="translate(416.507 11.086)">
          <path id="Trazado_115801" data-name="Trazado 115801" d="M1926.258,479.73a1.023,1.023,0,0,1-.891-.517l-4.306-7.521a1.026,1.026,0,0,1,1.782-1.018l4.3,7.521a1.024,1.024,0,0,1-.38,1.4A1.012,1.012,0,0,1,1926.258,479.73Zm-8.613-15.042a1.018,1.018,0,0,1-.889-.517l-4.308-7.521a1.025,1.025,0,1,1,1.78-1.018l4.308,7.521a1.022,1.022,0,0,1-.382,1.4A1.035,1.035,0,0,1,1917.645,464.689Zm-8.614-15.042a1.022,1.022,0,0,1-.891-.517l-4.3-7.521a1.025,1.025,0,1,1,1.78-1.018l4.306,7.521a1.029,1.029,0,0,1-.891,1.536ZM1900.42,434.6a1.023,1.023,0,0,1-.891-.517l-4.308-7.521a1.027,1.027,0,0,1,1.782-1.02l4.305,7.523a1.028,1.028,0,0,1-.889,1.536Zm-8.613-15.044a1.014,1.014,0,0,1-.889-.517l-4.307-7.521a1.025,1.025,0,0,1,1.78-1.018l4.308,7.521a1.027,1.027,0,0,1-.891,1.536Z" transform="translate(-1886.473 -409.987)" fill="#ffe800"/>
        </g>
        <g id="Grupo_124050" data-name="Grupo 124050" transform="translate(459.572 86.296)">
          <path id="Trazado_115802" data-name="Trazado 115802" d="M1910.514,452.234a1.024,1.024,0,0,1-.889-.515l-2.041-3.564a1.026,1.026,0,0,1,1.78-1.023l2.041,3.564a1.029,1.029,0,0,1-.891,1.538Z" transform="translate(-1907.447 -446.617)" fill="#ffe800"/>
        </g>
      </g>
      <g id="Grupo_124055" data-name="Grupo 124055" transform="translate(2093.78 427.901)">
        <g id="Grupo_124052" data-name="Grupo 124052" transform="translate(0.704)">
          <path id="Trazado_115803" data-name="Trazado 115803" d="M1884.752,334.16h0a1.026,1.026,0,0,1-1.022-1.031l.018-4.106a1.026,1.026,0,0,1,1.027-1.023h0a1.025,1.025,0,0,1,1.022,1.031l-.018,4.106A1.026,1.026,0,0,1,1884.752,334.16Z" transform="translate(-1883.726 -328)" fill="#ffe800"/>
        </g>
        <g id="Grupo_124053" data-name="Grupo 124053" transform="translate(0.053 11.95)">
          <path id="Trazado_115804" data-name="Trazado 115804" d="M1884.436,469.226h0a1.028,1.028,0,0,1-1.022-1.031l.037-7.845a1.025,1.025,0,0,1,1.027-1.023h0a1.029,1.029,0,0,1,1.022,1.033l-.037,7.843A1.026,1.026,0,0,1,1884.436,469.226Zm.072-15.689h0a1.029,1.029,0,0,1-1.023-1.031l.037-7.845a1.025,1.025,0,0,1,1.026-1.02h0a1.027,1.027,0,0,1,1.023,1.031l-.037,7.843A1.025,1.025,0,0,1,1884.507,453.537Zm.072-15.689h0a1.031,1.031,0,0,1-1.025-1.033l.037-7.843a1.026,1.026,0,0,1,1.026-1.021h0a1.027,1.027,0,0,1,1.022,1.031l-.037,7.843A1.023,1.023,0,0,1,1884.579,437.848Zm.074-15.689h0a1.025,1.025,0,0,1-1.022-1.031l.035-7.845a1.026,1.026,0,0,1,1.026-1.02h0a1.026,1.026,0,0,1,1.022,1.031l-.035,7.845A1.026,1.026,0,0,1,1884.653,422.16Zm.072-15.689h0a1.025,1.025,0,0,1-1.022-1.031l.035-7.845a1.026,1.026,0,0,1,1.027-1.02h0a1.025,1.025,0,0,1,1.022,1.031l-.035,7.845A1.026,1.026,0,0,1,1884.725,406.471Zm.072-15.689h0a1.027,1.027,0,0,1-1.022-1.031l.037-7.843a1.025,1.025,0,0,1,1.027-1.022h0a1.029,1.029,0,0,1,1.025,1.033l-.037,7.843A1.026,1.026,0,0,1,1884.8,390.782Zm.072-15.689h0a1.027,1.027,0,0,1-1.022-1.031l.037-7.843a1.025,1.025,0,0,1,1.026-1.023h0a1.028,1.028,0,0,1,1.023,1.031l-.037,7.845A1.024,1.024,0,0,1,1884.869,375.094Zm.072-15.687h0a1.029,1.029,0,0,1-1.022-1.033l.037-7.843a1.026,1.026,0,0,1,1.026-1.023h0a1.03,1.03,0,0,1,1.022,1.033l-.037,7.843A1.025,1.025,0,0,1,1884.941,359.407Zm.072-15.689h0a1.029,1.029,0,0,1-1.023-1.033l.037-7.843a1.026,1.026,0,0,1,1.027-1.022h0a1.029,1.029,0,0,1,1.023,1.033l-.037,7.843A1.026,1.026,0,0,1,1885.012,343.719Z" transform="translate(-1883.409 -333.82)" fill="#ffe800"/>
        </g>
        <g id="Grupo_124054" data-name="Grupo 124054" transform="translate(0 153.146)">
          <path id="Trazado_115805" data-name="Trazado 115805" d="M1884.41,408.748h0a1.025,1.025,0,0,1-1.022-1.031l.018-4.106a1.026,1.026,0,0,1,1.027-1.022h0a1.025,1.025,0,0,1,1.022,1.031l-.018,4.106A1.028,1.028,0,0,1,1884.41,408.748Z" transform="translate(-1883.383 -402.588)" fill="#ffe800"/>
        </g>
      </g>
      <g id="Grupo_124059" data-name="Grupo 124059" transform="translate(1732.171 427.899)">
        <g id="Grupo_124056" data-name="Grupo 124056" transform="translate(1.727)">
          <path id="Trazado_115806" data-name="Trazado 115806" d="M1709.133,334.161h-.01a1.029,1.029,0,0,1-1.016-1.037l.047-4.106a1.014,1.014,0,0,1,1.039-1.016,1.025,1.025,0,0,1,1.014,1.037l-.047,4.106A1.025,1.025,0,0,1,1709.133,334.161Z" transform="translate(-1708.106 -327.999)" fill="#ffe800"/>
        </g>
        <g id="Grupo_124057" data-name="Grupo 124057" transform="translate(0.133 11.927)">
          <path id="Trazado_115807" data-name="Trazado 115807" d="M1708.356,468.78h-.012a1.027,1.027,0,0,1-1.014-1.039l.089-7.819a1.028,1.028,0,0,1,1.027-1.014h.012a1.027,1.027,0,0,1,1.014,1.039l-.088,7.819A1.026,1.026,0,0,1,1708.356,468.78Zm.177-15.637h-.012a1.025,1.025,0,0,1-1.014-1.039l.09-7.819a1.014,1.014,0,0,1,1.039-1.014,1.029,1.029,0,0,1,1.015,1.039l-.091,7.819A1.027,1.027,0,0,1,1708.533,453.143Zm.179-15.637h-.013a1.027,1.027,0,0,1-1.014-1.039l.088-7.819a1.025,1.025,0,0,1,1.026-1.014h.012a1.026,1.026,0,0,1,1.015,1.039l-.088,7.819A1.028,1.028,0,0,1,1708.712,437.506Zm.177-15.637h-.012a1.027,1.027,0,0,1-1.014-1.039l.088-7.819a1.026,1.026,0,0,1,1.026-1.014h.012a1.026,1.026,0,0,1,1.015,1.039l-.088,7.819A1.027,1.027,0,0,1,1708.888,421.868Zm.177-15.637h-.013a1.028,1.028,0,0,1-1.014-1.039l.09-7.819a1.027,1.027,0,1,1,2.053.023l-.091,7.819A1.029,1.029,0,0,1,1709.065,406.231Zm.178-15.639h-.012a1.024,1.024,0,0,1-1.014-1.039l.088-7.819a1.026,1.026,0,0,1,1.027-1.014h.012a1.027,1.027,0,0,1,1.014,1.039l-.088,7.819A1.027,1.027,0,0,1,1709.243,390.592Zm.177-15.635h-.012a1.026,1.026,0,0,1-1.014-1.039l.088-7.819a1.026,1.026,0,0,1,1.027-1.014h.01a1.024,1.024,0,0,1,1.016,1.037l-.088,7.819A1.029,1.029,0,0,1,1709.42,374.957Zm.177-15.639h-.012a1.025,1.025,0,0,1-1.015-1.037l.091-7.821a1.027,1.027,0,0,1,2.053.025l-.091,7.819A1.027,1.027,0,0,1,1709.6,359.317Zm.179-15.637h-.012a1.025,1.025,0,0,1-1.015-1.039l.086-7.819a1.027,1.027,0,0,1,1.027-1.014h.012a1.026,1.026,0,0,1,1.014,1.039l-.086,7.819A1.027,1.027,0,0,1,1709.775,343.68Z" transform="translate(-1707.33 -333.808)" fill="#ffe800"/>
        </g>
        <g id="Grupo_124058" data-name="Grupo 124058" transform="translate(0 152.665)">
          <path id="Trazado_115808" data-name="Trazado 115808" d="M1708.292,408.512h-.012a1.027,1.027,0,0,1-1.014-1.039l.045-4.1a1.036,1.036,0,0,1,1.039-1.014,1.024,1.024,0,0,1,1.014,1.037l-.045,4.1A1.028,1.028,0,0,1,1708.292,408.512Z" transform="translate(-1707.265 -402.353)" fill="#ffe800"/>
        </g>
      </g>
      <g id="Grupo_124060" data-name="Grupo 124060" transform="translate(1711.881 238.762)">
        <path id="Trazado_115809" data-name="Trazado 115809" d="M2103.5,237.935H1698.41a1.027,1.027,0,1,1,0-2.053H2103.5a1.027,1.027,0,0,1,0,2.053Z" transform="translate(-1697.383 -235.882)" fill="#0090df"/>
      </g>
      <g id="Grupo_124061" data-name="Grupo 124061" transform="translate(1684.131 239.276)">
        <path id="Trazado_115810" data-name="Trazado 115810" d="M2145.993,479.2a.514.514,0,0,1-.37-.158l-230.979-241.65L1684.751,479.038a.513.513,0,1,1-.741-.708l230.262-242.038a.516.516,0,0,1,.372-.16h0a.513.513,0,0,1,.369.158l231.351,242.04a.514.514,0,0,1-.372.869Z" transform="translate(-1683.867 -236.132)" fill="#0090df"/>
      </g>
      <g id="Grupo_124062" data-name="Grupo 124062" transform="translate(1773.265 239.278)">
        <path id="Trazado_115811" data-name="Trazado 115811" d="M1916.206,479.2a.514.514,0,0,1-.5-.415l-47.025-240.7L1728.235,478.943a.513.513,0,0,1-.887-.517l141.13-242.04a.513.513,0,0,1,.947.16l47.283,242.04a.513.513,0,0,1-.4.6A.541.541,0,0,1,1916.206,479.2Z" transform="translate(-1727.279 -236.133)" fill="#0090df"/>
      </g>
      <g id="Grupo_124063" data-name="Grupo 124063" transform="translate(1802.977 239.274)">
        <path id="Trazado_115812" data-name="Trazado 115812" d="M1742.263,503.113a.536.536,0,0,1-.2-.041.511.511,0,0,1-.273-.671l111.416-265.951a.494.494,0,0,1,.542-.312.519.519,0,0,1,.441.441l35.691,264.865a.515.515,0,0,1-1.02.138l-35.437-262.993L1742.735,502.8A.511.511,0,0,1,1742.263,503.113Z" transform="translate(-1741.75 -236.131)" fill="#0090df"/>
      </g>
      <circle id="Elipse_4308" data-name="Elipse 4308" cx="6.643" cy="6.643" r="6.643" transform="translate(1908.264 233.147)" fill="#ffe800"/>
      <path id="Trazado_115813" data-name="Trazado 115813" d="M1684.118,354.265h89.134v98.554h188.413V354.265h184.065v194.21H1684.118Z" transform="translate(0.527 127.563)" fill="#fffbde" opacity="0.3"/>
      <g id="Grupo_124064" data-name="Grupo 124064" transform="translate(1684.13 428.414)">
        <path id="Trazado_115814" data-name="Trazado 115814" d="M1773.514,382.178H1684.38a.514.514,0,0,1-.37-.869l50.326-52.9a.512.512,0,0,1,.372-.16h69.653a.516.516,0,0,1,.446.257.524.524,0,0,1,0,.515l-30.848,52.9A.517.517,0,0,1,1773.514,382.178Zm-87.937-1.027h87.644l30.246-51.875h-68.538Z" transform="translate(-1683.867 -328.25)" fill="#161615"/>
      </g>
      <g id="Grupo_124065" data-name="Grupo 124065" transform="translate(1950.084 428.414)">
        <path id="Trazado_115815" data-name="Trazado 115815" d="M2009.57,382.178H1825.5a.514.514,0,0,1-.5-.4l-11.595-52.9a.514.514,0,0,1,.1-.433.508.508,0,0,1,.4-.191h144.933a.518.518,0,0,1,.372.158l50.727,52.9a.514.514,0,0,1-.372.869Zm-183.652-1.027h182.449l-49.741-51.875H1814.549Z" transform="translate(-1813.397 -328.25)" fill="#161615"/>
      </g>
      <g id="Grupo_124066" data-name="Grupo 124066" transform="translate(1773.264 428.414)">
        <path id="Trazado_115816" data-name="Trazado 115816" d="M1727.792,480.732a.393.393,0,0,1-.1-.01.512.512,0,0,1-.417-.5V381.665a.514.514,0,0,1,.07-.259l30.848-52.9a.513.513,0,0,1,.957.267l-1.135,76.815a.5.5,0,0,1-.037.181l-29.71,74.641A.517.517,0,0,1,1727.792,480.732Zm.513-98.93v95.74l28.688-72.066,1.1-74.764Z" transform="translate(-1727.279 -328.25)" fill="#161615"/>
      </g>
      <g id="Grupo_124067" data-name="Grupo 124067" transform="translate(1950.083 428.413)">
        <path id="Trazado_115817" data-name="Trazado 115817" d="M1825.5,480.733a.51.51,0,0,1-.507-.435L1813.4,404.569l-.006-75.8a.516.516,0,0,1,.458-.511.494.494,0,0,1,.559.4l11.592,52.9.012,98.665a.513.513,0,0,1-.474.511ZM1814.423,333.5v70.992l10.568,68.986V381.665Z" transform="translate(-1813.397 -328.249)" fill="#161615"/>
      </g>
      <g id="Grupo_124068" data-name="Grupo 124068" transform="translate(1773.265 504.14)">
        <path id="Trazado_115818" data-name="Trazado 115818" d="M1916.206,441.888H1727.792a.514.514,0,0,1-.477-.7l29.712-74.641a.514.514,0,0,1,.472-.322l147.109-1.088a.516.516,0,0,1,.511.437l11.592,75.727a.515.515,0,0,1-.507.591Zm-187.658-1.027h187.061l-11.437-74.7-146.319,1.08Z" transform="translate(-1727.279 -365.131)" fill="#161615"/>
      </g>
      <g id="Grupo_124069" data-name="Grupo 124069" transform="translate(1684.13 481.315)">
        <path id="Trazado_115819" data-name="Trazado 115819" d="M2145.994,549.252H1684.381a.515.515,0,0,1-.514-.513V354.528a.512.512,0,0,1,.514-.513h89.134a.512.512,0,0,1,.513.513V452.57h187.387V354.528a.512.512,0,0,1,.513-.513h184.065a.512.512,0,0,1,.513.513v194.21A.515.515,0,0,1,2145.994,549.252Zm-461.1-1.027H2145.48V355.042H1962.442v98.041a.515.515,0,0,1-.513.513H1773.515a.516.516,0,0,1-.513-.513V355.042h-88.108Z" transform="translate(-1683.867 -354.015)" fill="#161615"/>
      </g>
    </g>
  </g>
</svg>
