<svg xmlns="http://www.w3.org/2000/svg" width="430.666" height="259.356" viewBox="0 0 430.666 259.356">
  <g id="Grupo_82502" data-name="Grupo 82502" transform="translate(-94.113 -65.328)">
    <g id="Character_2" data-name="Character 2" transform="translate(278.759 122.27)">
      <g id="Grupo_82396" data-name="Grupo 82396" transform="translate(0)">
        <g id="Grupo_82332" data-name="Grupo 82332" transform="translate(47.314 89.22)">
          <path id="Trazado_116272" data-name="Trazado 116272" d="M616.042,263,574.8,366.114H459.038L495.812,261.6a1.893,1.893,0,0,1,1.787-1.264l116.688.076A1.892,1.892,0,0,1,616.042,263Z" transform="translate(-417.473 -260.331)" fill="#263238"/>
          <path id="Trazado_116273" data-name="Trazado 116273" d="M611.448,267.378,573.576,359.76a1.081,1.081,0,0,1-1,.663H467.116a1.058,1.058,0,0,1-1.019-1.406l33.555-92.383a1.079,1.079,0,0,1,1.019-.7H610.446A1.057,1.057,0,0,1,611.448,267.378Z" transform="translate(-419.225 -261.734)" fill="#455a64"/>
          <path id="Trazado_116274" data-name="Trazado 116274" d="M560.908,399.251H403.584V392h153.05Z" transform="translate(-403.584 -293.309)" fill="#263238"/>
        </g>
        <g id="Grupo_82359" data-name="Grupo 82359" transform="translate(0 56.141)">
          <g id="Grupo_82341" data-name="Grupo 82341" transform="translate(0 39.746)">
            <g id="Grupo_82334" data-name="Grupo 82334">
              <g id="Grupo_82333" data-name="Grupo 82333">
                <path id="Trazado_116275" data-name="Trazado 116275" d="M425.645,269.226s-3.167,37.688-10,39.523c-18.588,4.993-39.852,1.3-47.319-.167-.839-.72-1.8-1.593-2.9-2.674a11.681,11.681,0,0,1-2.282-3.218,18.223,18.223,0,0,1-1.7-4.645,1.494,1.494,0,0,0-2.726-.812c-.663,1.212-.948,5.816,1.561,10.008a1.985,1.985,0,0,1-1.367,2.689c-3.159,1.165-14.282,4.619-16.074,5.472-1.6.759-3.144,2.115-1.465,2.386s10.867-1.046,10.867-1.046-12.074,1.488-11.777,3.236c.205,1.207,3.458,1.784,11.345.005,0,0-9.938,1.3-10.976,2.343-2.347,2.353,9.626.905,9.626.905-8.379,1.088-8.293.649-8.381,1.8-.067.86,1.827,1.207,6.429,1.263,3.733.046,7.591.839,13.271,1.217h0s71.838,20.325,81.722-11.292c5.328-17.044,5.361-23.529,7.2-34.7" transform="translate(-340.46 -269.226)" fill="#ffbe9d"/>
              </g>
            </g>
            <g id="Grupo_82336" data-name="Grupo 82336" transform="translate(3.557 53.357)">
              <g id="Grupo_82335" data-name="Grupo 82335">
                <path id="Trazado_116276" data-name="Trazado 116276" d="M356.708,340.523c.032.21-2.525.651-5.711.983s-5.779.431-5.792.219,2.545-.652,5.712-.983S356.676,340.313,356.708,340.523Z" transform="translate(-345.205 -340.413)" fill="#a36957"/>
              </g>
            </g>
            <g id="Grupo_82338" data-name="Grupo 82338" transform="translate(2.803 50.136)">
              <g id="Grupo_82337" data-name="Grupo 82337">
                <path id="Trazado_116277" data-name="Trazado 116277" d="M356.378,336.185c.034.209-2.664.831-6.026,1.39s-6.117.842-6.151.632,2.662-.831,6.026-1.39S356.342,335.975,356.378,336.185Z" transform="translate(-344.2 -336.116)" fill="#a36957"/>
              </g>
            </g>
            <g id="Grupo_82340" data-name="Grupo 82340" transform="translate(3.384 46.751)">
              <g id="Grupo_82339" data-name="Grupo 82339">
                <path id="Trazado_116278" data-name="Trazado 116278" d="M356.471,331.667c.038.209-2.506.84-5.68,1.411s-5.778.863-5.816.654,2.506-.84,5.681-1.411S356.434,331.458,356.471,331.667Z" transform="translate(-344.974 -331.6)" fill="#a36957"/>
              </g>
            </g>
          </g>
          <g id="Grupo_82350" data-name="Grupo 82350" transform="translate(82.618)">
            <path id="Trazado_116279" data-name="Trazado 116279" d="M555.719,355.053l4.67,27.2H487.542l2.789-21.134Z" transform="translate(-459.917 -250.977)" fill="#263238"/>
            <path id="Trazado_116280" data-name="Trazado 116280" d="M460.628,230.407s-10.589,31.8-9.911,33.075l23.307,5.4Z" transform="translate(-450.685 -219.758)" fill="#26ccda"/>
            <path id="Trazado_116281" data-name="Trazado 116281" d="M460.628,230.407s-10.589,31.8-9.911,33.075l23.307,5.4Z" transform="translate(-450.685 -219.758)" opacity="0.2"/>
            <path id="Trazado_116282" data-name="Trazado 116282" d="M483.918,286.587l-2.286,45.522,70.375-7.968-11.015-44s-7.571-51.009-21.367-56.662a131.39,131.39,0,0,0-14.641-4.72,67.376,67.376,0,0,0-27.055-2l-1.417.183a15.109,15.109,0,0,0-12.561,9.908s-.247,15.668,4.568,26.04Z" transform="translate(-454.007 -216.199)" fill="#26ccda"/>
            <g id="Grupo_82342" data-name="Grupo 82342" transform="translate(46.172 113.873)">
              <path id="Trazado_116283" data-name="Trazado 116283" d="M512.689,384.665c-.108,0-.265-3.7-.349-8.267s-.067-8.272.041-8.274.264,3.7.349,8.267S512.8,384.662,512.689,384.665Z" transform="translate(-512.287 -368.124)" fill="#455a64"/>
            </g>
            <g id="Grupo_82343" data-name="Grupo 82343" transform="translate(49.211 115.564)">
              <path id="Trazado_116284" data-name="Trazado 116284" d="M517.578,370.776c-.012-.017.077-.121.3-.2a1.4,1.4,0,0,1,1.767,1.376,1.641,1.641,0,0,1-1.094,1.469,1.751,1.751,0,0,1-1.762-.493,1.687,1.687,0,0,1-.431-1.427c.155-.87.693-1.16.7-1.118a2.967,2.967,0,0,0-.424,1.148,1.449,1.449,0,0,0,.414,1.147,1.428,1.428,0,0,0,1.386.372,1.312,1.312,0,0,0,.854-1.118,1.07,1.07,0,0,0-.544-1.017A1.618,1.618,0,0,0,517.578,370.776Z" transform="translate(-516.341 -370.38)" fill="#455a64"/>
            </g>
            <g id="Grupo_82344" data-name="Grupo 82344" transform="translate(68.146 111.121)">
              <path id="Trazado_116285" data-name="Trazado 116285" d="M570.417,373.742c.008.011-.088.087-.277.222s-.465.343-.849.561a17.673,17.673,0,0,1-3.393,1.583,19.145,19.145,0,0,1-22-7.1,17.647,17.647,0,0,1-1.83-3.266c-.184-.4-.28-.734-.361-.951a1.236,1.236,0,0,1-.1-.342,12.613,12.613,0,0,1,.6,1.23,20.1,20.1,0,0,0,1.915,3.168,19.9,19.9,0,0,0,3.811,3.921,18.729,18.729,0,0,0,12.5,4.03,20.21,20.21,0,0,0,8.789-2.409A13.067,13.067,0,0,1,570.417,373.742Z" transform="translate(-541.604 -364.452)" fill="#455a64"/>
            </g>
            <g id="Grupo_82345" data-name="Grupo 82345" transform="translate(13.112 30.86)">
              <path id="Trazado_116286" data-name="Trazado 116286" d="M495.209,257.391a6.351,6.351,0,0,1-.839.817,22.927,22.927,0,0,1-2.515,1.974,10.043,10.043,0,0,1-4.422,1.742,11.349,11.349,0,0,1-5.7-1.147c-1.894-.829-3.594-1.8-5.252-2.393a9.415,9.415,0,0,0-4.553-.645,6.035,6.035,0,0,0-2.886,1.112c-.589.45-.834.8-.865.771-.01-.008.046-.1.164-.258a3.9,3.9,0,0,1,.606-.631,5.88,5.88,0,0,1,2.941-1.266,9.457,9.457,0,0,1,4.714.58c1.7.592,3.42,1.558,5.284,2.373a11.228,11.228,0,0,0,5.508,1.147,10.035,10.035,0,0,0,4.309-1.616,29.906,29.906,0,0,0,2.566-1.858A7.164,7.164,0,0,1,495.209,257.391Z" transform="translate(-468.178 -257.371)" fill="#fafafa"/>
            </g>
            <g id="Grupo_82346" data-name="Grupo 82346" transform="translate(10.267 13.075)">
              <path id="Trazado_116287" data-name="Trazado 116287" d="M475.8,233.647a5.062,5.062,0,0,1-1.348,1.193,11.464,11.464,0,0,1-8.341,1.822,5.079,5.079,0,0,1-1.722-.521c.02-.064.678.124,1.761.248a12.917,12.917,0,0,0,8.153-1.782C475.231,234.042,475.751,233.6,475.8,233.647Z" transform="translate(-464.384 -233.643)" fill="#fafafa"/>
            </g>
            <g id="Grupo_82347" data-name="Grupo 82347" transform="translate(24.758 55.488)">
              <path id="Trazado_116288" data-name="Trazado 116288" d="M544.267,290.7a3.823,3.823,0,0,1-.488.417,8.162,8.162,0,0,1-1.611.895,13.2,13.2,0,0,1-6.694.613,43.238,43.238,0,0,1-4.571-.95,36.746,36.746,0,0,0-5.215-1.01,18.756,18.756,0,0,0-5.805.417,37.644,37.644,0,0,0-5.975,1.994c-3.994,1.661-7.773,3.467-11.5,4.241a21.849,21.849,0,0,1-9.978-.255A51.076,51.076,0,0,1,486,294.994l-1.7-.679a3.931,3.931,0,0,1-.583-.265,4.047,4.047,0,0,1,.611.191l1.728.61a57.856,57.856,0,0,0,6.436,1.94,21.843,21.843,0,0,0,9.84.172c3.667-.78,7.416-2.58,11.428-4.25a37.373,37.373,0,0,1,6.04-2.005,18.957,18.957,0,0,1,5.924-.4,36.292,36.292,0,0,1,5.259,1.053,44.382,44.382,0,0,0,4.53.992,13.394,13.394,0,0,0,6.6-.48A10.624,10.624,0,0,0,544.267,290.7Z" transform="translate(-483.716 -290.229)" fill="#fafafa"/>
            </g>
            <g id="Grupo_82348" data-name="Grupo 82348" transform="translate(29.532 78.719)">
              <path id="Trazado_116289" data-name="Trazado 116289" d="M490.086,326.333a.585.585,0,0,1,.1-.146l.321-.406a8.123,8.123,0,0,1,1.5-1.309,10.245,10.245,0,0,1,2.853-1.335,13.567,13.567,0,0,1,4.141-.509c3.134.051,6.668,1.347,10.371,3a59.387,59.387,0,0,0,5.91,2.34,17.93,17.93,0,0,0,6.67.93,15.8,15.8,0,0,0,6.377-2.11c1.935-1.05,3.707-2.249,5.5-3.23a18.386,18.386,0,0,1,5.406-2.111,13.981,13.981,0,0,1,11.595,3.183,10.068,10.068,0,0,1,1.8,1.976c-.005,0-.049-.037-.128-.121l-.346-.382a7.912,7.912,0,0,0-.582-.6,10.35,10.35,0,0,0-.845-.76,14.189,14.189,0,0,0-6.489-3,13.749,13.749,0,0,0-4.946.02A18.2,18.2,0,0,0,534,323.866c-1.771.98-3.538,2.186-5.492,3.252a16.08,16.08,0,0,1-6.53,2.163,18.213,18.213,0,0,1-6.815-.954,58.369,58.369,0,0,1-5.94-2.376c-3.691-1.665-7.166-2.964-10.235-3.048a13.549,13.549,0,0,0-4.073.444,10.384,10.384,0,0,0-2.829,1.25A10.518,10.518,0,0,0,490.086,326.333Z" transform="translate(-490.085 -321.222)" fill="#fafafa"/>
            </g>
            <g id="Grupo_82349" data-name="Grupo 82349" transform="translate(28.226 100.228)">
              <path id="Trazado_116290" data-name="Trazado 116290" d="M553.211,357.533a12.721,12.721,0,0,0-1.327-2.422,12.037,12.037,0,0,0-6.1-4.179,14.539,14.539,0,0,0-5.112-.682,22.853,22.853,0,0,0-5.855,1.052,48.651,48.651,0,0,0-6.142,2.447c-2.084.97-4.214,2.05-6.459,3.033a34.932,34.932,0,0,1-6.786,2.287,25.523,25.523,0,0,1-6.659.436,38.934,38.934,0,0,1-10.963-2.552c-3-1.136-5.354-2.237-6.974-3-.81-.384-1.434-.69-1.855-.9l-.477-.245a.606.606,0,0,1-.157-.1.643.643,0,0,1,.174.06l.494.21,1.885.836c1.638.72,4,1.781,7.005,2.879a39.438,39.438,0,0,0,10.891,2.452,25.375,25.375,0,0,0,6.558-.451,34.961,34.961,0,0,0,6.708-2.27c2.231-.977,4.36-2.053,6.454-3.022a48.342,48.342,0,0,1,6.2-2.444,22.944,22.944,0,0,1,5.95-1.031,14.712,14.712,0,0,1,5.209.744,12,12,0,0,1,6.138,4.353,9.15,9.15,0,0,1,.98,1.824l.176.509A.606.606,0,0,1,553.211,357.533Z" transform="translate(-488.344 -349.919)" fill="#fafafa"/>
            </g>
          </g>
          <g id="Grupo_82358" data-name="Grupo 82358" transform="translate(63.795 6.127)">
            <g id="Grupo_82355" data-name="Grupo 82355">
              <g id="Grupo_82351" data-name="Grupo 82351" transform="translate(52.774 45.86)" opacity="0.2">
                <path id="Trazado_116291" data-name="Trazado 116291" d="M501.487,347.974a32.717,32.717,0,0,0,19.758-7.278c7.481-6.314,11.179-16.221,12-25.977s-.92-19.525-2.653-29.16a132.264,132.264,0,0,0-16.168,30.358c-2.652,7.074-4.985,14.8-10.863,19.551-2.1,1.693-4.6,2.956-6.239,5.1s-2,5.656.183,7.244l1.938.633" transform="translate(-495.982 -285.559)"/>
              </g>
              <g id="Grupo_82354" data-name="Grupo 82354">
                <g id="Grupo_82352" data-name="Grupo 82352" transform="translate(0 26.432)">
                  <path id="Trazado_116292" data-name="Trazado 116292" d="M432.239,341.856a16.958,16.958,0,0,0,4.468,1.447,11.084,11.084,0,0,0,3.763.166q.877-.115,1.656-.24a13.1,13.1,0,0,0,6.519-3.056c8.117-7.048,30.089-29.341,34.015-34.386,4.719-6.065,6.043-46.149,6.043-46.149l26.362,4.317s-.471,28.89-6.957,51.364c-4.125,14.294-53.983,43.7-54.027,43.729a137.765,137.765,0,0,1-10.4,10.571c-5.314,4.454-5.72,3.984-6.133,3.277-1.109-1.9,9.051-8.19,6.083-8.1s-11.532,9.138-12.611,7.1c-1.405-2.65,9.353-9.04,10.223-9.648.845-.591.022-1.887-.735-1.3-1.088.849-12.73,9.491-14.135,6.9-.779-1.435,1.929-2.595,1.929-2.595s11.488-7.283,10.784-8.483c-.715-1.219-7.6,2.83-9.831,4.36-2.2,1.511-3.814,1.079-3.673-.451.1-1.043,6.8-5.889,9.041-7.35s8.444-5.359,3.82-5.927-7.963-2.746-8.456-3.964S431.008,341.1,432.239,341.856Z" transform="translate(-425.573 -259.638)" fill="#ffbe9d"/>
                </g>
                <g id="Grupo_82353" data-name="Grupo 82353" transform="translate(58.52)">
                  <path id="Trazado_116293" data-name="Trazado 116293" d="M518.207,224.688a15.079,15.079,0,0,1,13.855,4.266c3.072,3.2,6.16,8.554,5.9,17.049-.511,16.571-1.82,22.223-1.82,22.223L503.648,267.1l1.273-27.842S507.432,226.955,518.207,224.688Z" transform="translate(-503.648 -224.374)" fill="#26ccda"/>
                  <path id="Trazado_116294" data-name="Trazado 116294" d="M518.207,224.688a15.079,15.079,0,0,1,13.855,4.266c3.072,3.2,6.208,8.976,5.946,17.47-.511,16.571-1.868,21.8-1.868,21.8L503.648,267.1l1.321-27.42S507.432,226.955,518.207,224.688Z" transform="translate(-503.648 -224.374)" opacity="0.2"/>
                </g>
              </g>
            </g>
            <g id="Grupo_82356" data-name="Grupo 82356" transform="translate(58.965 31.103)">
              <path id="Trazado_116295" data-name="Trazado 116295" d="M537.517,268.961c-.031.031-.369-.335-1.1-.846a10.723,10.723,0,0,0-3.408-1.517,13.253,13.253,0,0,0-5.505-.191,31.23,31.23,0,0,0-6.427,2.29,38.463,38.463,0,0,1-6.465,2.436,15.586,15.586,0,0,1-5.642.272,10.228,10.228,0,0,1-3.613-1.2,6.47,6.47,0,0,1-.853-.591c-.184-.15-.275-.233-.267-.244.027-.035.407.289,1.193.7a10.813,10.813,0,0,0,3.578,1.062,15.822,15.822,0,0,0,5.522-.349,40.243,40.243,0,0,0,6.39-2.443,30.265,30.265,0,0,1,6.522-2.287,13.181,13.181,0,0,1,5.64.28,10.133,10.133,0,0,1,3.427,1.661,6.705,6.705,0,0,1,.771.693C537.447,268.858,537.527,268.951,537.517,268.961Z" transform="translate(-504.241 -265.87)" fill="#fafafa"/>
            </g>
            <g id="Grupo_82357" data-name="Grupo 82357" transform="translate(62.248 9.412)">
              <path id="Trazado_116296" data-name="Trazado 116296" d="M537.289,238.255a6.626,6.626,0,0,1-1.068.458,13.092,13.092,0,0,1-1.291.44c-.507.163-1.088.337-1.742.483a36.548,36.548,0,0,1-4.633.817,44.8,44.8,0,0,1-5.758.21,41.783,41.783,0,0,1-5.73-.626,30.433,30.433,0,0,1-4.544-1.233,15.643,15.643,0,0,1-1.678-.674,10.784,10.784,0,0,1-1.226-.6,6.464,6.464,0,0,1-1-.6,6.687,6.687,0,0,1,1.064.462,12.931,12.931,0,0,0,1.244.534,17.294,17.294,0,0,0,1.683.614,33.444,33.444,0,0,0,4.518,1.14,45.131,45.131,0,0,0,5.679.59,48.74,48.74,0,0,0,5.707-.178,41.193,41.193,0,0,0,4.608-.728c.653-.128,1.234-.282,1.743-.423s.951-.253,1.3-.375A6.631,6.631,0,0,1,537.289,238.255Z" transform="translate(-508.621 -236.931)" fill="#fafafa"/>
            </g>
          </g>
        </g>
        <g id="Grupo_82395" data-name="Grupo 82395" transform="translate(77.772)">
          <g id="Grupo_82368" data-name="Grupo 82368">
            <path id="Trazado_116297" data-name="Trazado 116297" d="M486.176,167.819a2.217,2.217,0,0,0,3.491,2.106c1.329-.958,1.2-2.979.666-4.529s-1.342-3.165-.905-4.745c.334-1.208,1.33-2.1,2.055-3.12a7.074,7.074,0,0,0,1.011-6.232,5.945,5.945,0,0,0-4.763-3.986c-2.214-.261-4.727.8-6.546-.487-1.319-.934-1.676-2.746-2.77-3.937-1.7-1.847-4.657-1.718-7.06-1s-4.78,1.9-7.279,1.68c-2.087-.185-3.956-1.33-5.973-1.9a10.982,10.982,0,0,0-11.792,17.11,7.015,7.015,0,0,0,3.888,2.8" transform="translate(-444.221 -141.298)" fill="#263238"/>
            <g id="Grupo_82364" data-name="Grupo 82364" transform="translate(6.709 9.368)">
              <g id="Grupo_82361" data-name="Grupo 82361">
                <g id="Grupo_82360" data-name="Grupo 82360">
                  <path id="Trazado_116298" data-name="Trazado 116298" d="M484.746,217.977h0a12.476,12.476,0,0,1-14.507-9.983c-.723-3.865-1.322-7.122-1.322-7.122s-10.038.147-11.825-9.61-3.795-31.2-3.795-31.2l-.124-1.3c10.488-6.794,24.007-6.306,35.05-.456l.329,2.016,6.344,43.984A12.473,12.473,0,0,1,484.746,217.977Z" transform="translate(-453.172 -153.797)" fill="#ffbe9d"/>
                  <path id="Trazado_116299" data-name="Trazado 116299" d="M478.585,193.879l-6.277,3.044a3.775,3.775,0,0,0,4.643.733C479.7,196.086,478.585,193.879,478.585,193.879Z" transform="translate(-457.965 -163.836)" fill="#fff"/>
                  <path id="Trazado_116300" data-name="Trazado 116300" d="M474.124,214.481a23.067,23.067,0,0,0,12.129-5.8s-1.813,7.55-11.72,8.333Z" transform="translate(-458.42 -167.545)" fill="#eb996e"/>
                </g>
              </g>
              <g id="Grupo_82363" data-name="Grupo 82363" transform="translate(34.911 12.91)">
                <path id="Trazado_116301" data-name="Trazado 116301" d="M500.716,171.225c.2-.1,7.194-1.788,7.426,6.654s-8.372,5.884-8.393,5.643S500.716,171.225,500.716,171.225Z" transform="translate(-499.749 -171.02)" fill="#ffbe9d"/>
                <g id="Grupo_82362" data-name="Grupo 82362" transform="translate(2.499 2.744)">
                  <path id="Trazado_116302" data-name="Trazado 116302" d="M503.09,181.4c.036-.028.15.1.4.206a1.473,1.473,0,0,0,1.1-.007c.883-.352,1.6-1.789,1.594-3.311a4.857,4.857,0,0,0-.469-2.095,1.7,1.7,0,0,0-1.137-1.1.749.749,0,0,0-.857.427c-.107.239-.049.406-.093.422-.023.022-.185-.136-.127-.487a.945.945,0,0,1,.318-.538,1.112,1.112,0,0,1,.808-.237,2.069,2.069,0,0,1,1.573,1.267,5,5,0,0,1,.574,2.339c-.007,1.7-.835,3.318-2.045,3.7a1.578,1.578,0,0,1-1.351-.187C503.11,181.608,503.06,181.421,503.09,181.4Z" transform="translate(-503.082 -174.681)" fill="#eb996e"/>
                </g>
              </g>
            </g>
            <g id="Grupo_82367" data-name="Grupo 82367" transform="translate(4.014 0.955)">
              <path id="Trazado_116303" data-name="Trazado 116303" d="M450.706,163.617s6.319,2.057,13.505-2.848c4.715-3.219,10.445-5.261,11.885-4.421s2.429,6.017,7.651,6.853c0,0,1.018,10,4.936,9.1s-.67-15.969-.67-15.969l-9.976-5.3-10.865-.551-11.505,2.9-6.091,4.935Z" transform="translate(-449.576 -144.553)" fill="#263238"/>
              <g id="Grupo_82365" data-name="Grupo 82365" transform="translate(34.133 3.263)">
                <path id="Trazado_116304" data-name="Trazado 116304" d="M498.989,147.015a6.786,6.786,0,0,0-3.861,2.172,3.6,3.6,0,0,1,3.861-2.172Z" transform="translate(-495.115 -146.926)" fill="#263238"/>
              </g>
              <g id="Grupo_82366" data-name="Grupo 82366" transform="translate(33.215)">
                <path id="Trazado_116305" data-name="Trazado 116305" d="M494.063,142.573a6.523,6.523,0,0,1,.676,3.085,6.2,6.2,0,0,1-.375,2.227c-.211.542-.419.836-.461.815a15.771,15.771,0,0,0,.445-3.039C494.321,143.969,493.933,142.6,494.063,142.573Z" transform="translate(-493.89 -142.572)" fill="#263238"/>
              </g>
            </g>
          </g>
          <g id="Grupo_82376" data-name="Grupo 82376" transform="translate(9.768 27.092)">
            <g id="Grupo_82371" data-name="Grupo 82371" transform="translate(0.068 1.388)">
              <g id="Grupo_82370" data-name="Grupo 82370">
                <g id="Grupo_82369" data-name="Grupo 82369">
                  <path id="Trazado_116306" data-name="Trazado 116306" d="M457.344,180.663a1.435,1.435,0,0,0,1.455,1.377,1.373,1.373,0,0,0,1.413-1.366,1.436,1.436,0,0,0-1.453-1.378A1.374,1.374,0,0,0,457.344,180.663Z" transform="translate(-457.344 -179.295)" fill="#263238"/>
                </g>
              </g>
            </g>
            <g id="Grupo_82375" data-name="Grupo 82375">
              <g id="Grupo_82374" data-name="Grupo 82374">
                <g id="Grupo_82373" data-name="Grupo 82373">
                  <g id="Grupo_82372" data-name="Grupo 82372">
                    <path id="Trazado_116307" data-name="Trazado 116307" d="M457.279,179.1c.187.178,1.233-.681,2.776-.754,1.54-.1,2.712.642,2.87.444.078-.088-.12-.416-.631-.75a3.938,3.938,0,0,0-2.309-.587,3.786,3.786,0,0,0-2.2.833C457.332,178.67,457.188,179.016,457.279,179.1Z" transform="translate(-457.253 -177.443)" fill="#263238"/>
                  </g>
                </g>
              </g>
            </g>
          </g>
          <g id="Grupo_82384" data-name="Grupo 82384" transform="translate(24.563 26.142)">
            <g id="Grupo_82379" data-name="Grupo 82379" transform="translate(0.451 1.476)">
              <g id="Grupo_82378" data-name="Grupo 82378">
                <g id="Grupo_82377" data-name="Grupo 82377">
                  <path id="Trazado_116308" data-name="Trazado 116308" d="M477.6,179.58a1.434,1.434,0,0,0,1.518,1.306,1.372,1.372,0,0,0,1.347-1.431,1.437,1.437,0,0,0-1.517-1.309A1.374,1.374,0,0,0,477.6,179.58Z" transform="translate(-477.594 -178.145)" fill="#263238"/>
                </g>
              </g>
            </g>
            <g id="Grupo_82383" data-name="Grupo 82383">
              <g id="Grupo_82382" data-name="Grupo 82382">
                <g id="Grupo_82381" data-name="Grupo 82381">
                  <g id="Grupo_82380" data-name="Grupo 82380">
                    <path id="Trazado_116309" data-name="Trazado 116309" d="M477.021,177.968c.2.169,1.2-.738,2.737-.883,1.534-.167,2.739.513,2.887.309.074-.091-.137-.41-.666-.72a3.936,3.936,0,0,0-2.333-.478,3.784,3.784,0,0,0-2.156.936C477.055,177.541,476.926,177.893,477.021,177.968Z" transform="translate(-476.991 -176.176)" fill="#263238"/>
                  </g>
                </g>
              </g>
            </g>
          </g>
          <g id="Grupo_82388" data-name="Grupo 82388" transform="translate(16.092 27.002)">
            <g id="Grupo_82387" data-name="Grupo 82387">
              <g id="Grupo_82386" data-name="Grupo 82386">
                <g id="Grupo_82385" data-name="Grupo 82385">
                  <path id="Trazado_116310" data-name="Trazado 116310" d="M469.723,190.2a10.191,10.191,0,0,0-2.54-.208c-.4,0-.776-.044-.868-.305a2.013,2.013,0,0,1,.148-1.19l.869-3.1c1.2-4.413,2.024-8.026,1.845-8.073s-1.293,3.492-2.491,7.905q-.428,1.63-.818,3.115a2.28,2.28,0,0,0-.054,1.56.991.991,0,0,0,.7.511,2.657,2.657,0,0,0,.675.028A10.082,10.082,0,0,0,469.723,190.2Z" transform="translate(-465.69 -177.322)" fill="#263238"/>
                </g>
              </g>
            </g>
          </g>
          <g id="Grupo_82391" data-name="Grupo 82391" transform="translate(23.625 21.874)">
            <g id="Grupo_82390" data-name="Grupo 82390">
              <g id="Grupo_82389" data-name="Grupo 82389">
                <path id="Trazado_116311" data-name="Trazado 116311" d="M475.753,171.953c.193.4,1.708.055,3.533.1,1.826.005,3.332.391,3.534-.007.089-.19-.2-.558-.83-.905a6.142,6.142,0,0,0-5.384-.069C475.971,171.4,475.669,171.761,475.753,171.953Z" transform="translate(-475.74 -170.481)" fill="#263238"/>
              </g>
            </g>
          </g>
          <g id="Grupo_82394" data-name="Grupo 82394" transform="translate(9.532 22.745)">
            <g id="Grupo_82393" data-name="Grupo 82393">
              <g id="Grupo_82392" data-name="Grupo 82392">
                <path id="Trazado_116312" data-name="Trazado 116312" d="M456.992,173.515c.305.323,1.328-.142,2.6-.284,1.267-.186,2.375.006,2.587-.384.091-.188-.112-.521-.616-.806a3.788,3.788,0,0,0-4.179.538C456.969,172.982,456.856,173.356,456.992,173.515Z" transform="translate(-456.937 -171.643)" fill="#263238"/>
              </g>
            </g>
          </g>
        </g>
      </g>
    </g>
    <g id="Character_1" data-name="Character 1" transform="translate(94.113 130.742)">
      <g id="Grupo_82485" data-name="Grupo 82485">
        <g id="Grupo_82397" data-name="Grupo 82397" transform="translate(0 83.667)">
          <path id="Trazado_116313" data-name="Trazado 116313" d="M94.246,266.826l40.168,100.423H247.155L211.34,265.456a1.842,1.842,0,0,0-1.74-1.232L95.956,264.3A1.843,1.843,0,0,0,94.246,266.826Z" transform="translate(-94.113 -264.225)" fill="#263238"/>
          <path id="Trazado_116314" data-name="Trazado 116314" d="M102.51,270.881,139.4,360.853a1.052,1.052,0,0,0,.977.645H243.079a1.03,1.03,0,0,0,.992-1.369l-32.679-89.973a1.051,1.051,0,0,0-.992-.684H103.488A1.029,1.029,0,0,0,102.51,270.881Z" transform="translate(-96.197 -265.539)" fill="#455a64"/>
          <path id="Trazado_116315" data-name="Trazado 116315" d="M147.882,399.314H301.1V392.25H152.045Z" transform="translate(-107.58 -296.291)" fill="#263238"/>
        </g>
        <g id="Grupo_82483" data-name="Grupo 82483" transform="translate(50.111)">
          <g id="Grupo_82402" data-name="Grupo 82402" transform="translate(88.104 56.49)">
            <path id="Trazado_116316" data-name="Trazado 116316" d="M356.807,260.354a8.135,8.135,0,0,0,.911-7.857c-1.9-4.212-7-9.016-7-9.016-1.483-.382.48-8.853,1.342-11.658.852-2.771-.11-4.336-1.641-3.726-1.043.416-3.883,8.937-4.671,11.732a30.117,30.117,0,0,1-2.206,6.16c-.809,1.357-1.737,1.779-2.673-.348-2.064-4.691-5.376-7.542-6.787-7.693s-2.09,1.785-.914,2.85a19.123,19.123,0,0,1,2.919,4.261,12.489,12.489,0,0,1,1.375,3.907c.2,1.186.346,2.239.456,3.189a30.168,30.168,0,0,1-.057,7.085l-28.242,33.355-6.162-22.581-.572-1.737-24.316,9.033c-.726.193,5.228,17.878,9,28.868a19.943,19.943,0,0,0,11.308,11.978h0a19.949,19.949,0,0,0,23.7-6.741l30.23-43.885-.652-.444.612.279Z" transform="translate(-278.514 -227.967)" fill="#b78876"/>
            <g id="Grupo_82398" data-name="Grupo 82398" transform="translate(68.697 15.531)">
              <path id="Trazado_116317" data-name="Trazado 116317" d="M375.992,250.88a3.61,3.61,0,0,1-.242.825l-.8,2.2-1.226,3.239a6.532,6.532,0,0,1-.922,1.887,1.746,1.746,0,0,1-1.039.589,1.284,1.284,0,0,1-1.163-.463,1.881,1.881,0,0,1-.434-1.139,3.98,3.98,0,0,1,.127-1.126c.169-.7.349-1.357.532-1.986.366-1.256.752-2.37,1.1-3.295s.668-1.659.9-2.161a3.425,3.425,0,0,1,.4-.76,3.964,3.964,0,0,1-.262.818c-.188.518-.464,1.265-.781,2.2s-.671,2.047-1.016,3.3c-.172.625-.344,1.289-.5,1.972a2.141,2.141,0,0,0,.23,1.926.892.892,0,0,0,.814.333,1.377,1.377,0,0,0,.8-.458,6.465,6.465,0,0,0,.873-1.765l1.3-3.209.911-2.151A3.652,3.652,0,0,1,375.992,250.88Z" transform="translate(-370.167 -248.688)" fill="#aa6550"/>
            </g>
            <g id="Grupo_82399" data-name="Grupo 82399" transform="translate(71.602 18.736)">
              <path id="Trazado_116318" data-name="Trazado 116318" d="M379.829,255.248a2.835,2.835,0,0,1-.211.724c-.16.457-.4,1.114-.711,1.922s-.675,1.765-1.109,2.834a3.168,3.168,0,0,1-1.125,1.5,1.782,1.782,0,0,1-1.007.3,1.511,1.511,0,0,1-1-.45,2.384,2.384,0,0,1-.612-1.932,10.581,10.581,0,0,1,.363-1.791,23,23,0,0,1,1.007-2.885c.339-.8.651-1.43.877-1.859a2.67,2.67,0,0,1,.394-.645c.056.027-.4,1-1.014,2.606a27.557,27.557,0,0,0-.916,2.874,10.984,10.984,0,0,0-.33,1.725,2.017,2.017,0,0,0,.5,1.627,1.176,1.176,0,0,0,1.526.109,2.854,2.854,0,0,0,1-1.322c.435-1.026.833-1.966,1.182-2.793.341-.8.624-1.435.827-1.875A2.818,2.818,0,0,1,379.829,255.248Z" transform="translate(-374.043 -252.963)" fill="#aa6550"/>
            </g>
            <g id="Grupo_82400" data-name="Grupo 82400" transform="translate(74.855 22.318)">
              <path id="Trazado_116319" data-name="Trazado 116319" d="M382.49,259.776a12.378,12.378,0,0,1-.568,2.135c-.2.654-.433,1.419-.728,2.288a1.966,1.966,0,0,1-.957,1.177,1.118,1.118,0,0,1-.873.037,1.416,1.416,0,0,1-.673-.564,2.663,2.663,0,0,1-.3-1.582,8.964,8.964,0,0,1,.181-1.428,9.226,9.226,0,0,1,.8-2.291,8.09,8.09,0,0,1,.877-1.375c.24-.3.4-.443.417-.429.055.041-.491.7-1.045,1.922a10.038,10.038,0,0,0-.7,2.241,9.257,9.257,0,0,0-.151,1.375,2.346,2.346,0,0,0,.247,1.354.838.838,0,0,0,1.061.391,1.625,1.625,0,0,0,.778-.959l.8-2.245A12.427,12.427,0,0,1,382.49,259.776Z" transform="translate(-378.382 -257.743)" fill="#aa6550"/>
            </g>
            <g id="Grupo_82401" data-name="Grupo 82401" transform="translate(64.875 22.766)">
              <path id="Trazado_116320" data-name="Trazado 116320" d="M369.512,267.158c-.067-.009,0-.594-.072-1.525a9.453,9.453,0,0,0-3.189-6.325c-.7-.613-1.215-.9-1.183-.964a3.691,3.691,0,0,1,1.357.75,8.484,8.484,0,0,1,3.291,6.525A3.717,3.717,0,0,1,369.512,267.158Z" transform="translate(-365.067 -258.341)" fill="#aa6550"/>
            </g>
          </g>
          <g id="Grupo_82406" data-name="Grupo 82406" transform="translate(0 140.954)">
            <path id="Trazado_116321" data-name="Trazado 116321" d="M160.969,378.654l73.293.37.9-12.923-57.173-25.444a44.322,44.322,0,0,0-9.5,20.866l-7.522,17.131" transform="translate(-160.969 -340.656)" fill="#263238"/>
            <g id="Grupo_82403" data-name="Grupo 82403" transform="translate(11.273 13.11)">
              <path id="Trazado_116322" data-name="Trazado 116322" d="M199.365,358.149a4.838,4.838,0,0,1-.663.749,9.058,9.058,0,0,1-.849.81,15,15,0,0,1-1.2.989,16.7,16.7,0,0,1-1.552,1.074c-.564.382-1.211.711-1.884,1.072a23.139,23.139,0,0,1-9.56,2.452c-.765.007-1.491.03-2.168-.033a16.577,16.577,0,0,1-1.878-.195,14.8,14.8,0,0,1-1.528-.289,9.034,9.034,0,0,1-1.134-.3,4.913,4.913,0,0,1-.941-.337c.022-.081,1.376.375,3.64.654a18,18,0,0,0,1.857.145c.669.049,1.384.013,2.136,0a24.174,24.174,0,0,0,9.417-2.415c.666-.348,1.311-.66,1.873-1.025a18.019,18.019,0,0,0,1.558-1.021C198.339,359.141,199.306,358.09,199.365,358.149Z" transform="translate(-176.009 -358.147)" fill="#455a64"/>
            </g>
            <g id="Grupo_82404" data-name="Grupo 82404" transform="translate(54.552 20.107)">
              <path id="Trazado_116323" data-name="Trazado 116323" d="M233.754,384.286a21.458,21.458,0,0,1,.888-2.488l2.27-5.953c.883-2.269,1.682-4.32,2.313-5.939a18.108,18.108,0,0,1,1.053-2.424,17.266,17.266,0,0,1-.8,2.521c-.54,1.54-1.315,3.656-2.207,5.981s-1.734,4.416-2.379,5.917c-.321.75-.594,1.352-.794,1.764A2.521,2.521,0,0,1,233.754,384.286Z" transform="translate(-233.75 -367.482)" fill="#455a64"/>
            </g>
            <g id="Grupo_82405" data-name="Grupo 82405" transform="translate(53.524 19.414)">
              <path id="Trazado_116324" data-name="Trazado 116324" d="M233.823,366.646a2.193,2.193,0,0,0-.975.936,1.377,1.377,0,0,0,.066,1.345,1.423,1.423,0,0,0,2.627-.409,1.375,1.375,0,0,0-.346-1.3,2.193,2.193,0,0,0-1.213-.6c0-.022.135-.078.4-.061a1.686,1.686,0,0,1,1.009.462,1.64,1.64,0,0,1,.5,1.582,1.766,1.766,0,0,1-3.283.511,1.64,1.64,0,0,1,0-1.659,1.682,1.682,0,0,1,.821-.747C233.67,366.613,233.82,366.624,233.823,366.646Z" transform="translate(-232.379 -366.557)" fill="#455a64"/>
            </g>
          </g>
          <g id="Grupo_82410" data-name="Grupo 82410" transform="translate(17.018 57.628)">
            <g id="Grupo_82407" data-name="Grupo 82407" transform="translate(75.935 11.917)">
              <path id="Trazado_116325" data-name="Trazado 116325" d="M296.569,245.385s10.716,31.528,10.113,32.815l-21.7,5.948Z" transform="translate(-284.983 -245.385)" fill="#f57c00"/>
              <path id="Trazado_116326" data-name="Trazado 116326" d="M296.569,245.385s10.716,31.528,10.113,32.815l-21.7,5.948Z" transform="translate(-284.983 -245.385)" opacity="0.2"/>
            </g>
            <path id="Trazado_116327" data-name="Trazado 116327" d="M253.607,293.643l-6.839,29.027-4.443,16.245-58.651-26.1,18.612-29.942s10.2-41.693,24.583-49.4a33.581,33.581,0,0,1,20.665-3.655l12.492,1.725c.275.038.549.084.818.137A13.773,13.773,0,0,1,271.685,246c-.273,5.423-1.181,14.607-4.168,21.471C263.518,276.655,253.607,293.643,253.607,293.643Z" transform="translate(-183.674 -229.486)" fill="#f57c00"/>
            <g id="Grupo_82408" data-name="Grupo 82408" transform="translate(8.551 64.645)">
              <path id="Trazado_116328" data-name="Trazado 116328" d="M247.37,354s-.148-.059-.429-.193a11.055,11.055,0,0,1-1.213-.657,14.59,14.59,0,0,1-6.761-11.385,10.45,10.45,0,0,1,.992-5.137,7.584,7.584,0,0,1,1.711-2.325,5.477,5.477,0,0,1,2.728-1.345,6.4,6.4,0,0,1,7.022,5.753,7.071,7.071,0,0,1-.645,3.544,8.656,8.656,0,0,1-5.65,4.763,11.864,11.864,0,0,1-7.87-.772,18.3,18.3,0,0,1-6.5-5.249,27.715,27.715,0,0,1-2.476-3.561,15.238,15.238,0,0,1-1.7-4.1,9.738,9.738,0,0,1-.049-4.521,7.243,7.243,0,0,1,2.343-3.948,6.018,6.018,0,0,1,4.457-1.308,4.938,4.938,0,0,1,2.249.845,4.694,4.694,0,0,1,1.522,1.881,6.335,6.335,0,0,1,.086,4.71,8.424,8.424,0,0,1-2.872,3.673,18.121,18.121,0,0,1-17.086,1.942,15.264,15.264,0,0,1-6.471-5.266,13.684,13.684,0,0,1-2.543-7.513,10.265,10.265,0,0,1,.615-3.8,7.009,7.009,0,0,1,2.15-3.048,5.932,5.932,0,0,1,3.379-1.25,4.51,4.51,0,0,1,3.271,1.13,4.775,4.775,0,0,1,1.442,3,6.338,6.338,0,0,1-.463,3.159,7.6,7.6,0,0,1-4.326,3.884,14.59,14.59,0,0,1-5.158.951,19.79,19.79,0,0,1-8.185-1.668,19.114,19.114,0,0,1-4.508-2.773,13.441,13.441,0,0,1-1.023-.924c-.222-.217-.329-.335-.329-.335s.126.1.356.307.573.516,1.046.891a19.765,19.765,0,0,0,12.639,4.285,14.387,14.387,0,0,0,5.069-.964,8.887,8.887,0,0,0,2.411-1.429,6.176,6.176,0,0,0,1.754-2.331,6.067,6.067,0,0,0,.43-3.018,4.481,4.481,0,0,0-1.359-2.812,4.2,4.2,0,0,0-3.054-1.04,5.624,5.624,0,0,0-3.192,1.192,6.686,6.686,0,0,0-2.037,2.911,9.943,9.943,0,0,0-.584,3.673,13.34,13.34,0,0,0,2.494,7.313,14.9,14.9,0,0,0,6.322,5.129,17.755,17.755,0,0,0,16.7-1.908,8.053,8.053,0,0,0,2.742-3.5,5.951,5.951,0,0,0-.076-4.414,4.3,4.3,0,0,0-1.393-1.724,4.551,4.551,0,0,0-2.068-.777,5.636,5.636,0,0,0-4.164,1.221,6.86,6.86,0,0,0-2.214,3.736,9.359,9.359,0,0,0,.045,4.344,19.925,19.925,0,0,0,4.089,7.512,17.955,17.955,0,0,0,6.361,5.158,11.525,11.525,0,0,0,7.633.768,8.326,8.326,0,0,0,5.445-4.565,6.761,6.761,0,0,0,.629-3.384,6.113,6.113,0,0,0-6.664-5.507,5.213,5.213,0,0,0-2.6,1.27,7.342,7.342,0,0,0-1.662,2.237,10.247,10.247,0,0,0-1,5.017,14.239,14.239,0,0,0,2.783,7.717,14.518,14.518,0,0,0,3.8,3.611,12.824,12.824,0,0,0,1.189.688C247.233,353.917,247.37,354,247.37,354Z" transform="translate(-195.082 -315.733)" fill="#fafafa"/>
            </g>
            <g id="Grupo_82409" data-name="Grupo 82409" transform="translate(63.909 28)">
              <path id="Trazado_116329" data-name="Trazado 116329" d="M283.467,285.757a.886.886,0,0,1-.145-.16l-.4-.5a12.766,12.766,0,0,1-1.251-2.1,14.1,14.1,0,0,1-.942-8.829,11.939,11.939,0,0,1,2.761-5.553,3.832,3.832,0,0,1,1.483-.947,2.338,2.338,0,0,1,1.827.175,3.05,3.05,0,0,1,1.27,1.389,4.635,4.635,0,0,1,.4,1.87,11.82,11.82,0,0,1-2.654,7.365,11.635,11.635,0,0,1-3.172,2.752,8.606,8.606,0,0,1-4.15,1.233,6.1,6.1,0,0,1-4.053-1.492,8.122,8.122,0,0,1-2.368-3.476,11.857,11.857,0,0,1-.638-4,13.69,13.69,0,0,1,.48-3.856,5.35,5.35,0,0,1,.857-1.7,2.689,2.689,0,0,1,1.576-1.031,2.532,2.532,0,0,1,1.8.322,4,4,0,0,1,1.258,1.226,5.131,5.131,0,0,1,.681,1.539,6.254,6.254,0,0,1,.237,1.6,8.18,8.18,0,0,1-.5,2.965,10.654,10.654,0,0,1-2.878,4.23,19.4,19.4,0,0,1-3.114,2.3c-.909.547-1.637.931-2.132,1.188l-.567.285a.109.109,0,1,1-.019-.035l.548-.319c.482-.279,1.2-.684,2.089-1.249a20.007,20.007,0,0,0,3.045-2.326,10.493,10.493,0,0,0,2.767-4.163,7.933,7.933,0,0,0,.456-2.863,6.02,6.02,0,0,0-.237-1.52,4.852,4.852,0,0,0-.649-1.443,3.681,3.681,0,0,0-1.157-1.118,2.193,2.193,0,0,0-1.566-.274,3.318,3.318,0,0,0-2.159,2.506,13.433,13.433,0,0,0-.45,3.747,11.481,11.481,0,0,0,.626,3.874,7.754,7.754,0,0,0,2.258,3.309,5.709,5.709,0,0,0,3.8,1.4,8.231,8.231,0,0,0,3.958-1.178,11.274,11.274,0,0,0,3.07-2.656,11.486,11.486,0,0,0,2.592-7.116,4.3,4.3,0,0,0-.356-1.73,2.716,2.716,0,0,0-1.116-1.237,2,2,0,0,0-1.564-.157,3.514,3.514,0,0,0-1.354.86A11.743,11.743,0,0,0,281,274.231a13.775,13.775,0,0,0-.214,5.029,14.094,14.094,0,0,0,1.025,3.678,14.352,14.352,0,0,0,1.177,2.117l.364.517A.873.873,0,0,1,283.467,285.757Z" transform="translate(-268.939 -266.842)" fill="#fafafa"/>
            </g>
          </g>
          <g id="Grupo_82422" data-name="Grupo 82422" transform="translate(47.391 69.58)">
            <g id="Grupo_82419" data-name="Grupo 82419" transform="translate(4.338 24.494)">
              <g id="Grupo_82412" data-name="Grupo 82412">
                <g id="Grupo_82411" data-name="Grupo 82411">
                  <path id="Trazado_116330" data-name="Trazado 116330" d="M255.759,279.76s0,26.651,6.671,29.176c18.148,6.869,39.851,5.289,47.488,4.566.914-.638,1.97-1.417,3.173-2.392l2.524-2.1s11.967,2.283,11.81,2.913-4.67,2.084-9.3,1.042a2,2,0,0,0,1.1,2.835c3.052,1.485,13.865,6.063,15.578,7.1,1.526.921,2.942,2.437,1.23,2.54s-10.8-2.137-10.8-2.137,11.964,2.7,11.49,4.425c-.327,1.19-3.648,1.444-11.382-1.13,0,0,9.84,2.3,10.778,3.448,2.118,2.6-9.748-.055-9.748-.055,8.3,1.929,8.255,1.481,8.228,2.643-.019.869-1.954,1.028-6.576.624-3.75-.328-7.7.082-13.435-.107h0s-74.1,13.2-80.853-19.505c-3.64-17.631-3.024-24.141-3.754-35.532" transform="translate(-229.983 -278.11)" fill="#b78876"/>
                </g>
              </g>
              <g id="Grupo_82414" data-name="Grupo 82414" transform="translate(91.368 50.772)">
                <g id="Grupo_82413" data-name="Grupo 82413">
                  <path id="Trazado_116331" data-name="Trazado 116331" d="M351.884,345.907c-.053.207,2.468.9,5.63,1.558s5.755,1.01,5.789.8-2.488-.909-5.632-1.558S351.936,345.7,351.884,345.907Z" transform="translate(-351.883 -345.848)" fill="#aa6550"/>
                </g>
              </g>
              <g id="Grupo_82416" data-name="Grupo 82416" transform="translate(91.774 47.523)">
                <g id="Grupo_82415" data-name="Grupo 82415">
                  <path id="Trazado_116332" data-name="Trazado 116332" d="M352.425,341.557c-.056.206,2.589,1.1,5.906,2s6.053,1.456,6.109,1.25-2.588-1.1-5.906-2S352.48,341.35,352.425,341.557Z" transform="translate(-352.424 -341.514)" fill="#aa6550"/>
                </g>
              </g>
              <g id="Grupo_82418" data-name="Grupo 82418" transform="translate(92.212 44.136)">
                <g id="Grupo_82417" data-name="Grupo 82417">
                  <path id="Trazado_116333" data-name="Trazado 116333" d="M353.01,337.038c-.059.205,2.43,1.094,5.557,1.984s5.711,1.444,5.77,1.238-2.429-1.094-5.558-1.984S353.068,336.831,353.01,337.038Z" transform="translate(-353.009 -336.995)" fill="#aa6550"/>
                </g>
              </g>
            </g>
            <path id="Trazado_116334" data-name="Trazado 116334" d="M240.64,245.5a13.765,13.765,0,0,0-12.451,5.8c-2.523,3.524-4.834,9.189-3.694,17.6,2.224,16.4,4.038,21.865,4.038,21.865l30.137-4.774-4.123-27.507S250.912,246.535,240.64,245.5Z" transform="translate(-224.196 -245.431)" fill="#f57c00"/>
            <path id="Trazado_116335" data-name="Trazado 116335" d="M240.64,245.5a13.765,13.765,0,0,0-12.451,5.8c-2.523,3.524-4.834,9.189-3.694,17.6,2.224,16.4,4.038,21.865,4.038,21.865l30.137-4.774-4.123-27.507S250.912,246.535,240.64,245.5Z" transform="translate(-224.196 -245.431)" opacity="0.2"/>
            <g id="Grupo_82420" data-name="Grupo 82420" transform="translate(44.019 55.306)">
              <path id="Trazado_116336" data-name="Trazado 116336" d="M331.284,319.779a3.578,3.578,0,0,1-.649-.082c-.419-.063-1.046-.19-1.83-.308a2.17,2.17,0,0,0-1.169.467,11.346,11.346,0,0,0-1.24.971,33,33,0,0,0-2.707,2.733l-.029.032-.04.013a27.079,27.079,0,0,1-7.177,1.092,80.191,80.191,0,0,1-8.572-.352c-6.915-.489-13.195-.872-17.706-1.5-2.256-.3-4.072-.611-5.317-.876-.625-.12-1.1-.247-1.429-.322a2.55,2.55,0,0,1-.492-.142,2.452,2.452,0,0,1,.507.064l1.441.25c1.251.219,3.069.488,5.323.752,4.508.555,10.777.893,17.7,1.384a84.579,84.579,0,0,0,8.532.374,27.448,27.448,0,0,0,7.1-1.016l-.07.045a31.353,31.353,0,0,1,2.776-2.716,11.124,11.124,0,0,1,1.287-.963,2.277,2.277,0,0,1,1.3-.46c.8.147,1.408.3,1.827.39A3.743,3.743,0,0,1,331.284,319.779Z" transform="translate(-282.925 -319.218)" fill="#aa6550"/>
            </g>
            <g id="Grupo_82421" data-name="Grupo 82421" transform="translate(1.686 12.998)">
              <path id="Trazado_116337" data-name="Trazado 116337" d="M257.165,274.974a1.087,1.087,0,0,1-.232.064l-.695.149c-.308.045-.694.08-1.15.115a11.431,11.431,0,0,1-1.577-.064,11.876,11.876,0,0,1-6.368-2.781,10.779,10.779,0,0,1-2.032-2.259,9.545,9.545,0,0,1-1.4-3.043,5.625,5.625,0,0,1-.136-1.8,3.094,3.094,0,0,1,.7-1.763,2.487,2.487,0,0,1,1.794-.816,4.087,4.087,0,0,1,1.961.483,6.834,6.834,0,0,1,2.851,2.982,8.276,8.276,0,0,1,.859,4.25,7.643,7.643,0,0,1-1.584,4.229,9.522,9.522,0,0,1-8.48,3.575,11.428,11.428,0,0,1-7.93-4.853,8.869,8.869,0,0,1-1.672-4.2,5.229,5.229,0,0,1,.259-2.218,4.677,4.677,0,0,1,1.21-1.821,3.68,3.68,0,0,1,1.914-.959,3.344,3.344,0,0,1,2.058.341,4.6,4.6,0,0,1,2.337,3.084,8.046,8.046,0,0,1-.026,3.636,9.921,9.921,0,0,1-1.283,3.093,9.623,9.623,0,0,1-4.3,3.727,9.722,9.722,0,0,1-4.239.786,9.276,9.276,0,0,1-2.684-.486,5.1,5.1,0,0,1-.877-.369c.009-.022.306.119.9.294a9.926,9.926,0,0,0,6.811-.425,9.439,9.439,0,0,0,4.152-3.674,9.684,9.684,0,0,0,1.223-3.012,7.784,7.784,0,0,0,.007-3.491,4.278,4.278,0,0,0-2.177-2.856,3,3,0,0,0-1.849-.3,3.328,3.328,0,0,0-1.725.876,4.323,4.323,0,0,0-1.11,1.681,4.867,4.867,0,0,0-.232,2.061,8.509,8.509,0,0,0,1.613,4.017,11.064,11.064,0,0,0,7.66,4.684,9.151,9.151,0,0,0,8.133-3.418,7.683,7.683,0,0,0,.708-8.085,7.344,7.344,0,0,0-1.145-1.652,6.258,6.258,0,0,0-1.542-1.187,3.769,3.769,0,0,0-1.794-.454,2.157,2.157,0,0,0-1.564.7,2.785,2.785,0,0,0-.634,1.58,5.323,5.323,0,0,0,.118,1.7,9.3,9.3,0,0,0,1.339,2.957,10.552,10.552,0,0,0,1.965,2.225,11.642,11.642,0,0,0,2.183,1.512,11.524,11.524,0,0,0,7.677,1.193Z" transform="translate(-226.445 -262.773)" fill="#fafafa"/>
            </g>
          </g>
          <g id="Grupo_82482" data-name="Grupo 82482" transform="translate(33.827)">
            <g id="Grupo_82428" data-name="Grupo 82428" transform="translate(0 5.786)">
              <g id="Grupo_82423" data-name="Grupo 82423">
                <path id="Trazado_116338" data-name="Trazado 116338" d="M236.219,166.169a8.784,8.784,0,0,0-15.612-1.91A27.021,27.021,0,0,0,218.258,170c-.715,1.944-1.775,3.913-3.6,4.9-2.132,1.154-4.931.757-6.869,2.213-2.153,1.617-2.21,5.172-.4,7.168a6.83,6.83,0,0,0,7.455,1.429,15.286,15.286,0,0,0-1.023,4.939,5.175,5.175,0,0,0,2.159,4.353,5.025,5.025,0,0,0,4.9-.09,11.922,11.922,0,0,0,3.7-3.485,12.518,12.518,0,0,0,1.239,3.407,4.226,4.226,0,0,0,2.827,2.1,4.1,4.1,0,0,0,3.8-1.872,9.278,9.278,0,0,0,1.37-4.2,30.318,30.318,0,0,0-.706-10.956c-.558-2.29-1.353-4.634-.914-6.95s2.724-4.493,4.975-3.8" transform="translate(-206.1 -160.319)" fill="#263238"/>
              </g>
              <g id="Grupo_82425" data-name="Grupo 82425" transform="translate(0.57 3.387)">
                <g id="Grupo_82424" data-name="Grupo 82424">
                  <path id="Trazado_116339" data-name="Trazado 116339" d="M206.86,183.1c-.007.02.124.082.382.182a8.926,8.926,0,0,0,1.162.335,11.459,11.459,0,0,0,10.3-2.955,11.794,11.794,0,0,0,2.359-3.154,16.013,16.013,0,0,0,1.315-4,22.4,22.4,0,0,1,1.1-3.932,6.67,6.67,0,0,1,2.238-2.889,7.3,7.3,0,0,1,6.006-1.16,8.816,8.816,0,0,1,3.76,2.031c.766.687,1.1,1.168,1.14,1.133.017-.013-.052-.139-.2-.372a7.066,7.066,0,0,0-.771-.934,8.528,8.528,0,0,0-3.817-2.279,7.666,7.666,0,0,0-6.445,1.121,7.176,7.176,0,0,0-2.46,3.11,22.146,22.146,0,0,0-1.145,4.035,15.741,15.741,0,0,1-1.252,3.858,11.436,11.436,0,0,1-2.216,3.021,11.294,11.294,0,0,1-5.552,2.99,12.307,12.307,0,0,1-4.318.136C207.427,183.23,206.876,183.055,206.86,183.1Z" transform="translate(-206.86 -164.838)" fill="#455a64"/>
                </g>
              </g>
              <g id="Grupo_82427" data-name="Grupo 82427" transform="translate(19.546 7.764)">
                <g id="Grupo_82426" data-name="Grupo 82426">
                  <path id="Trazado_116340" data-name="Trazado 116340" d="M232.966,198.411c.013.016.116-.051.3-.2a4.212,4.212,0,0,0,.721-.741,6.9,6.9,0,0,0,1.33-3.542,13.9,13.9,0,0,0-.633-5.572,47.722,47.722,0,0,1-1.782-6.5,9.532,9.532,0,0,1,1.224-6.347,9.226,9.226,0,0,1,3.916-3.608,10.147,10.147,0,0,1,3.52-.986c.87-.076,1.36-.042,1.365-.093a3.8,3.8,0,0,0-1.378-.145,9.513,9.513,0,0,0-7.907,4.54,9.936,9.936,0,0,0-1.348,6.723,43.546,43.546,0,0,0,1.848,6.579,14.089,14.089,0,0,1,.743,5.368,7.128,7.128,0,0,1-1.092,3.445C233.311,198.053,232.924,198.366,232.966,198.411Z" transform="translate(-232.177 -170.678)" fill="#455a64"/>
                </g>
              </g>
            </g>
            <g id="Grupo_82429" data-name="Grupo 82429" transform="translate(27.876)">
              <path id="Trazado_116341" data-name="Trazado 116341" d="M285.8,179.682c5.876-13.588-2.183-21.864-7.429-24.835-3.126-1.77-6.837-2.14-10.428-2.226a38.238,38.238,0,0,0-10.556.968,18.942,18.942,0,0,0-9.141,5.153c-4.295,4.6-5.277,11.413-4.876,17.694a49.33,49.33,0,0,0,6.259,21.139,5.221,5.221,0,0,0,1.838,2.138,1.934,1.934,0,0,0,2.542-.462" transform="translate(-243.29 -152.6)" fill="#263238"/>
            </g>
            <g id="Grupo_82432" data-name="Grupo 82432" transform="translate(35.263 9.148)">
              <g id="Grupo_82431" data-name="Grupo 82431">
                <g id="Grupo_82430" data-name="Grupo 82430">
                  <path id="Trazado_116342" data-name="Trazado 116342" d="M278.19,216.629l-.214-7.15s8.357-1.387,10.089-12.292c.861-5.423.589-14.314.131-21.582a11.515,11.515,0,0,0-12.7-10.735l-18.918,2a3.836,3.836,0,0,0-3.431,3.89h0l2.515,46.809a11.275,11.275,0,0,0,11.259,10.67h0A11.275,11.275,0,0,0,278.19,216.629Z" transform="translate(-253.146 -164.805)" fill="#b78876"/>
                </g>
              </g>
            </g>
            <g id="Grupo_82440" data-name="Grupo 82440" transform="translate(62.857 23.103)">
              <g id="Grupo_82435" data-name="Grupo 82435" transform="translate(2.775 1.778)">
                <g id="Grupo_82434" data-name="Grupo 82434">
                  <g id="Grupo_82433" data-name="Grupo 82433">
                    <path id="Trazado_116343" data-name="Trazado 116343" d="M296.454,187.061a1.4,1.4,0,0,1-1.348,1.411,1.338,1.338,0,0,1-1.442-1.261,1.4,1.4,0,0,1,1.347-1.412A1.34,1.34,0,0,1,296.454,187.061Z" transform="translate(-293.663 -185.796)" fill="#263238"/>
                  </g>
                </g>
              </g>
              <g id="Grupo_82439" data-name="Grupo 82439">
                <g id="Grupo_82438" data-name="Grupo 82438">
                  <g id="Grupo_82437" data-name="Grupo 82437">
                    <g id="Grupo_82436" data-name="Grupo 82436">
                      <path id="Trazado_116344" data-name="Trazado 116344" d="M295.488,184.894c-.173.182-1.232-.6-2.737-.6-1.5-.018-2.608.756-2.771.572-.08-.082.1-.411.577-.761a3.841,3.841,0,0,1,2.219-.684,3.688,3.688,0,0,1,2.179.7C295.417,184.482,295.574,184.812,295.488,184.894Z" transform="translate(-289.961 -183.424)" fill="#263238"/>
                    </g>
                  </g>
                </g>
              </g>
            </g>
            <g id="Grupo_82448" data-name="Grupo 82448" transform="translate(48.065 23.384)">
              <g id="Grupo_82443" data-name="Grupo 82443" transform="translate(2.486 1.896)">
                <g id="Grupo_82442" data-name="Grupo 82442">
                  <g id="Grupo_82441" data-name="Grupo 82441">
                    <path id="Trazado_116345" data-name="Trazado 116345" d="M276.333,187.592A1.4,1.4,0,0,1,274.985,189a1.337,1.337,0,0,1-1.441-1.261,1.4,1.4,0,0,1,1.348-1.411A1.337,1.337,0,0,1,276.333,187.592Z" transform="translate(-273.543 -186.328)" fill="#263238"/>
                  </g>
                </g>
              </g>
              <g id="Grupo_82447" data-name="Grupo 82447">
                <g id="Grupo_82446" data-name="Grupo 82446">
                  <g id="Grupo_82445" data-name="Grupo 82445">
                    <g id="Grupo_82444" data-name="Grupo 82444">
                      <path id="Trazado_116346" data-name="Trazado 116346" d="M275.754,185.269c-.174.182-1.234-.6-2.738-.6-1.5-.018-2.608.756-2.771.572-.08-.082.094-.411.577-.761a3.841,3.841,0,0,1,2.218-.684,3.689,3.689,0,0,1,2.18.7C275.68,184.857,275.839,185.187,275.754,185.269Z" transform="translate(-270.226 -183.799)" fill="#263238"/>
                    </g>
                  </g>
                </g>
              </g>
            </g>
            <g id="Grupo_82452" data-name="Grupo 82452" transform="translate(58.349 23.475)">
              <g id="Grupo_82451" data-name="Grupo 82451">
                <g id="Grupo_82450" data-name="Grupo 82450">
                  <g id="Grupo_82449" data-name="Grupo 82449">
                    <path id="Trazado_116347" data-name="Trazado 116347" d="M284.652,196.459a9.946,9.946,0,0,1,2.444-.441c.384-.04.748-.116.813-.379a1.959,1.959,0,0,0-.256-1.139l-1.136-2.925c-1.578-4.166-2.721-7.592-2.552-7.654s1.584,3.264,3.162,7.431q.57,1.54,1.089,2.943a2.222,2.222,0,0,1,.2,1.508.967.967,0,0,1-.632.562,2.647,2.647,0,0,1-.653.091A9.8,9.8,0,0,1,284.652,196.459Z" transform="translate(-283.947 -183.92)" fill="#263238"/>
                  </g>
                </g>
              </g>
            </g>
            <g id="Grupo_82455" data-name="Grupo 82455" transform="translate(45.489 49.926)">
              <g id="Grupo_82454" data-name="Grupo 82454">
                <g id="Grupo_82453" data-name="Grupo 82453">
                  <path id="Trazado_116348" data-name="Trazado 116348" d="M281.394,223.105a27.744,27.744,0,0,1-14.6-3.9s3.543,7.491,14.457,6.47Z" transform="translate(-266.79 -219.21)" fill="#aa6550"/>
                </g>
              </g>
            </g>
            <g id="Grupo_82458" data-name="Grupo 82458" transform="translate(53.928 38.618)">
              <g id="Grupo_82457" data-name="Grupo 82457">
                <g id="Grupo_82456" data-name="Grupo 82456">
                  <path id="Trazado_116349" data-name="Trazado 116349" d="M282.538,205.146a2.711,2.711,0,0,0-2.431-1.007,2.476,2.476,0,0,0-1.71.917,1.569,1.569,0,0,0-.119,1.794,1.821,1.821,0,0,0,1.973.5,5.687,5.687,0,0,0,1.923-1.148,1.658,1.658,0,0,0,.429-.444.5.5,0,0,0,0-.56" transform="translate(-278.049 -204.123)" fill="#aa6550"/>
                </g>
              </g>
            </g>
            <g id="Grupo_82462" data-name="Grupo 82462" transform="translate(54.381 37.055)">
              <g id="Grupo_82461" data-name="Grupo 82461">
                <g id="Grupo_82460" data-name="Grupo 82460">
                  <g id="Grupo_82459" data-name="Grupo 82459">
                    <path id="Trazado_116350" data-name="Trazado 116350" d="M278.9,202.038c.245-.014.248,1.619,1.646,2.779s3.137.98,3.15,1.208c.023.1-.388.317-1.122.337a4.065,4.065,0,0,1-2.629-.917,3.543,3.543,0,0,1-1.276-2.33C278.6,202.433,278.785,202.028,278.9,202.038Z" transform="translate(-278.652 -202.038)" fill="#263238"/>
                  </g>
                </g>
              </g>
            </g>
            <g id="Grupo_82465" data-name="Grupo 82465" transform="translate(47.402 21.091)">
              <g id="Grupo_82464" data-name="Grupo 82464">
                <g id="Grupo_82463" data-name="Grupo 82463">
                  <path id="Trazado_116351" data-name="Trazado 116351" d="M276.209,181.868c-.148.408-1.651.215-3.416.428-1.77.177-3.194.694-3.428.327-.1-.175.143-.56.719-.956a5.984,5.984,0,0,1,5.215-.576C275.947,181.352,276.273,181.673,276.209,181.868Z" transform="translate(-269.342 -180.74)" fill="#263238"/>
                </g>
              </g>
            </g>
            <g id="Grupo_82468" data-name="Grupo 82468" transform="translate(62.707 18.659)">
              <g id="Grupo_82467" data-name="Grupo 82467">
                <g id="Grupo_82466" data-name="Grupo 82466">
                  <path id="Trazado_116352" data-name="Trazado 116352" d="M294.885,179.054c-.265.342-1.3-.013-2.548-.03-1.246-.061-2.3.229-2.545-.128-.106-.173.06-.516.521-.839a3.689,3.689,0,0,1,4.1.127C294.857,178.535,295,178.887,294.885,179.054Z" transform="translate(-289.761 -177.495)" fill="#263238"/>
                </g>
              </g>
            </g>
            <g id="Grupo_82469" data-name="Grupo 82469" transform="translate(31.473 4.695)">
              <path id="Trazado_116353" data-name="Trazado 116353" d="M286.93,174.117c-1.907-9.3-4.5-5.618-7.426-10.057-4.242,4.3-14.012,9.248-19.971,10.22a3.907,3.907,0,0,0-1.744.558c-.919.681-.991,2.005-.987,3.149a41.18,41.18,0,0,1-.794,9.632,15.706,15.706,0,0,1-4.658,8.316c-3.6-7.579-3.955-16.4-2.346-24.631.657-3.362,1.771-6.887,4.45-9.023a15.059,15.059,0,0,1,6.808-2.587c5.96-1.093,12.264-1.357,17.937.771s10.078,4.745,10.838,10.757" transform="translate(-248.09 -158.865)" fill="#263238"/>
            </g>
            <g id="Grupo_82471" data-name="Grupo 82471" transform="translate(29.103 7.81)">
              <g id="Grupo_82470" data-name="Grupo 82470">
                <path id="Trazado_116354" data-name="Trazado 116354" d="M244.929,168.627a5.958,5.958,0,0,0,1.22.666,10.446,10.446,0,0,0,1.514.608l.965.337,1.11.279a28.061,28.061,0,0,0,5.575.765,36.2,36.2,0,0,0,6.877-.447,35.285,35.285,0,0,0,6.651-1.814,28.9,28.9,0,0,0,2.739-1.256l1.205-.642,1.058-.687a14.7,14.7,0,0,0,1.742-1.283l.688-.56.526-.53a5.983,5.983,0,0,0,.923-1.037c-.094-.1-1.424,1.385-4.113,3.045l-1.058.642-1.2.6c-.814.446-1.753.775-2.712,1.182a37.6,37.6,0,0,1-6.549,1.737,38.585,38.585,0,0,1-6.759.486,30.543,30.543,0,0,1-5.5-.623A50.487,50.487,0,0,1,244.929,168.627Z" transform="translate(-244.928 -163.02)" fill="#455a64"/>
              </g>
            </g>
            <g id="Grupo_82473" data-name="Grupo 82473" transform="translate(32.191 6.062)">
              <g id="Grupo_82472" data-name="Grupo 82472">
                <path id="Trazado_116355" data-name="Trazado 116355" d="M249.049,160.7a4.578,4.578,0,0,0,.941.769,7.949,7.949,0,0,0,1.212.751l.783.43.921.391a28.551,28.551,0,0,0,10.712,1.91,48.146,48.146,0,0,0,10.821-1.207c1.36-.3,2.446-.615,3.186-.86a4.615,4.615,0,0,0,1.13-.44c-.028-.1-1.683.366-4.4.875a57.16,57.16,0,0,1-10.728,1.019,31.07,31.07,0,0,1-10.558-1.7A41.631,41.631,0,0,1,249.049,160.7Z" transform="translate(-249.047 -160.688)" fill="#455a64"/>
              </g>
            </g>
            <g id="Grupo_82475" data-name="Grupo 82475" transform="translate(61.906 3.621)">
              <g id="Grupo_82474" data-name="Grupo 82474">
                <path id="Trazado_116356" data-name="Trazado 116356" d="M292.491,157.515c0-.073-.377-.146-.963,0a3.957,3.957,0,0,0-2.831,3.42c-.035.6.106.956.179.946a5.37,5.37,0,0,1,3.615-4.368Z" transform="translate(-288.692 -157.431)" fill="#455a64"/>
              </g>
            </g>
            <g id="Grupo_82477" data-name="Grupo 82477" transform="translate(4.085 3.526)">
              <g id="Grupo_82476" data-name="Grupo 82476">
                <path id="Trazado_116357" data-name="Trazado 116357" d="M216.833,169.229a1.071,1.071,0,0,0-.323-.4,2.448,2.448,0,0,0-1.346-.587,3.4,3.4,0,0,0-2.273.512,2.907,2.907,0,0,0-1.324,2.759,4,4,0,0,0,2.092,3.1,4.147,4.147,0,0,0,4.243-.445,4.78,4.78,0,0,0,1.561-1.806,6.346,6.346,0,0,0,.579-2.4,43.445,43.445,0,0,1,.127-4.93,9.169,9.169,0,0,1,5.825-6.73,8.393,8.393,0,0,1,7.3.9,9.445,9.445,0,0,1,3.453,3.79c.54,1.11.653,1.8.717,1.788a1.562,1.562,0,0,0-.061-.5,6.388,6.388,0,0,0-.438-1.385,9.284,9.284,0,0,0-3.436-4.055,9.414,9.414,0,0,0-3.451-1.4,8.4,8.4,0,0,0-4.27.329,9.666,9.666,0,0,0-6.239,7.152,40.329,40.329,0,0,0-.124,5,5.809,5.809,0,0,1-.506,2.179,4.228,4.228,0,0,1-1.36,1.6,3.635,3.635,0,0,1-3.686.454A3.569,3.569,0,0,1,212,171.475a2.54,2.54,0,0,1,1.083-2.431,3.2,3.2,0,0,1,2.057-.559A2.978,2.978,0,0,1,216.833,169.229Z" transform="translate(-211.55 -157.304)" fill="#263238"/>
              </g>
            </g>
            <g id="Grupo_82479" data-name="Grupo 82479" transform="translate(38.006 8.786)">
              <g id="Grupo_82478" data-name="Grupo 82478">
                <path id="Trazado_116358" data-name="Trazado 116358" d="M256.806,175.9a4.034,4.034,0,0,0,1.136.091c.732.016,1.789.018,3.1-.029a33.345,33.345,0,0,0,10.089-1.743,17.426,17.426,0,0,0,8.237-6.029,11.509,11.509,0,0,0,1.465-2.76,3.435,3.435,0,0,0,.283-1.109,22.394,22.394,0,0,1-2.1,3.611,18.112,18.112,0,0,1-8.1,5.711,37.771,37.771,0,0,1-9.9,1.886A37.581,37.581,0,0,0,256.806,175.9Z" transform="translate(-256.806 -164.323)" fill="#263238"/>
              </g>
            </g>
            <g id="Grupo_82481" data-name="Grupo 82481" transform="translate(22.526 41.005)">
              <g id="Grupo_82480" data-name="Grupo 82480">
                <path id="Trazado_116359" data-name="Trazado 116359" d="M236.158,213.308a1.838,1.838,0,0,0,.516,1.033,3.988,3.988,0,0,0,2.825,1.378,6.154,6.154,0,0,0,4.369-1.645,3.926,3.926,0,0,0,1.335-2.529,2.778,2.778,0,0,0-1.419-2.74,2.2,2.2,0,0,0-2.891,1.024,1.873,1.873,0,0,0,.113,1.585,2.355,2.355,0,0,0,1.07,1.029,3.456,3.456,0,0,0,2.593.042,4.72,4.72,0,0,0,1.872-1.2,4.956,4.956,0,0,0,1.385-2.825,2.267,2.267,0,0,0-.067-1.151c-.055,0-.021.412-.169,1.11a5.039,5.039,0,0,1-1.455,2.557A4.377,4.377,0,0,1,244.512,212a2.974,2.974,0,0,1-2.188-.067,1.573,1.573,0,0,1-.875-1.877,1.613,1.613,0,0,1,2.075-.7A2.2,2.2,0,0,1,244.6,211.5a3.394,3.394,0,0,1-1.123,2.159,5.846,5.846,0,0,1-3.963,1.624,3.912,3.912,0,0,1-2.668-1.106C236.351,213.676,236.209,213.283,236.158,213.308Z" transform="translate(-236.153 -207.308)" fill="#263238"/>
              </g>
            </g>
          </g>
        </g>
        <g id="Grupo_82484" data-name="Grupo 82484" transform="translate(47.465 179.431)">
          <path id="Trazado_116360" data-name="Trazado 116360" d="M278.979,392.185c0,.108-27.21.2-60.767.2s-60.773-.088-60.773-.2,27.2-.195,60.773-.195S278.979,392.078,278.979,392.185Z" transform="translate(-157.439 -391.99)" fill="#455a64"/>
        </g>
      </g>
    </g>
    <g id="Light_bulb" data-name="Light bulb" transform="translate(250.796 65.328)">
      <g id="Grupo_82501" data-name="Grupo 82501">
        <path id="Trazado_116361" data-name="Trazado 116361" d="M338.571,72.605a33.272,33.272,0,0,0-32.652,46.677c3.862,8.715,11.346,15.531,14.665,24.467,2.276,6.128,2.444,12.886,4.76,19,4.76,12.559,19.29,20.552,32.446,17.847,7.9-1.624,15.005-6.562,23.056-7.064,8.64-.537,18.474,3.853,25.314-1.453,4.781-3.708,5.595-10.828,3.862-16.625s-5.466-10.742-8.53-15.958-5.56-11.247-4.424-17.19c1.03-5.386,4.846-9.751,7.248-14.682A29.418,29.418,0,0,0,375.784,65.4c-6.868.488-13.306,3.348-19.913,5.285s-9.9,2.153-17.3,1.923" transform="translate(-303.154 -65.328)" fill="#f5f5f5"/>
        <g id="Grupo_82500" data-name="Grupo 82500" transform="translate(21.849 15.926)">
          <g id="Grupo_82492" data-name="Grupo 82492" transform="translate(11.221 13.326)">
            <path id="Trazado_116362" data-name="Trazado 116362" d="M366.1,104.378s-12.707-.122-17.081,10.913.638,16.371,2.6,19.617,7.209,10.308,7.253,16.96l17.073-.106a45.4,45.4,0,0,1,5.981-16.661c5.1-8.5,4.495-14.7,3.1-18.4S379.086,103.833,366.1,104.378Z" transform="translate(-347.273 -104.355)" fill="#f57c00"/>
            <g id="Grupo_82486" data-name="Grupo 82486" transform="translate(8.442 15.966)">
              <path id="Trazado_116363" data-name="Trazado 116363" d="M372.791,156.62s-.021-.089-.05-.265-.068-.447-.12-.783c-.1-.7-.245-1.715-.431-3.016-.352-2.622-.878-6.418-1.211-11.142-.077-1.181-.148-2.42-.182-3.712s-.073-2.637.015-4.034a11.283,11.283,0,0,1,.992-4.211,6.4,6.4,0,0,1,3.249-3.191,4.309,4.309,0,0,1,4.585.919,3.208,3.208,0,0,1,.962,2.319,4.11,4.11,0,0,1-.886,2.408,5.5,5.5,0,0,1-2.046,1.62,10.756,10.756,0,0,1-2.515.808,30.235,30.235,0,0,1-5.331.569,31.062,31.062,0,0,1-5.355-.311,10.1,10.1,0,0,1-2.533-.759,6.546,6.546,0,0,1-2.111-1.533,4.929,4.929,0,0,1-1.2-2.268,3.82,3.82,0,0,1,.325-2.5,3.4,3.4,0,0,1,1.782-1.7,3.049,3.049,0,0,1,2.4.135,4.54,4.54,0,0,1,1.777,1.541,6.216,6.216,0,0,1,.875,2.111,25.358,25.358,0,0,1,.385,4.308c.118,2.779.228,5.367.328,7.731.192,4.719.348,8.541.456,11.2.047,1.314.085,2.337.111,3.045q.014.509.022.792c0,.178,0,.271,0,.271s-.013-.091-.025-.269-.027-.451-.048-.791c-.037-.707-.091-1.73-.16-3.042-.128-2.653-.313-6.474-.54-11.191-.11-2.363-.23-4.951-.36-7.729a25.356,25.356,0,0,0-.393-4.266,5.989,5.989,0,0,0-.846-2.028,4.3,4.3,0,0,0-1.684-1.456,2.8,2.8,0,0,0-2.21-.124,3.157,3.157,0,0,0-1.645,1.582,3.564,3.564,0,0,0-.3,2.333,4.666,4.666,0,0,0,1.144,2.148,7.615,7.615,0,0,0,4.5,2.207,30.987,30.987,0,0,0,5.306.306,30.07,30.07,0,0,0,5.284-.562,10.5,10.5,0,0,0,2.454-.786,5.25,5.25,0,0,0,1.955-1.543,3.855,3.855,0,0,0,.836-2.256,2.954,2.954,0,0,0-.885-2.139,4.066,4.066,0,0,0-4.319-.87,6.169,6.169,0,0,0-3.131,3.067,11.082,11.082,0,0,0-.981,4.125c-.092,1.381-.055,2.725-.03,4.013s.094,2.526.165,3.7c.307,4.718.8,8.516,1.127,11.141.165,1.3.294,2.321.382,3.023l.094.786C372.787,156.529,372.791,156.62,372.791,156.62Z" transform="translate(-358.536 -125.656)" fill="#263238"/>
            </g>
            <path id="Trazado_116364" data-name="Trazado 116364" d="M362.729,167.328l17.131-.267.183,10.818-4.972,5.939-6.571.282-5.563-6.646Z" transform="translate(-351.144 -120.061)" fill="#e0e0e0"/>
            <path id="Trazado_116365" data-name="Trazado 116365" d="M376.962,188.952a4.623,4.623,0,0,0-3.434-1.39,4.521,4.521,0,0,0-3.249,1.689Z" transform="translate(-353.035 -125.194)" fill="#455a64"/>
            <g id="Grupo_82487" data-name="Grupo 82487" transform="translate(12.047 54.748)">
              <path id="Trazado_116366" data-name="Trazado 116366" d="M379.74,179.584a3.9,3.9,0,0,1-.621-.269c-.393-.184-.968-.433-1.7-.691a16.608,16.608,0,0,0-11.8.245c-.717.288-1.282.562-1.667.762a3.8,3.8,0,0,1-.609.295,2.947,2.947,0,0,1,.558-.384,13.733,13.733,0,0,1,1.646-.843,15.764,15.764,0,0,1,11.935-.248,13.709,13.709,0,0,1,1.679.774A2.957,2.957,0,0,1,379.74,179.584Z" transform="translate(-363.347 -177.397)" fill="#263238"/>
            </g>
            <g id="Grupo_82488" data-name="Grupo 82488" transform="translate(12.071 52.12)">
              <path id="Trazado_116367" data-name="Trazado 116367" d="M379.77,176.078a3.826,3.826,0,0,1-.62-.269c-.393-.183-.968-.433-1.7-.691a16.6,16.6,0,0,0-11.8.246c-.718.288-1.282.561-1.668.761a3.809,3.809,0,0,1-.608.295,2.991,2.991,0,0,1,.558-.384,13.846,13.846,0,0,1,1.646-.843,15.762,15.762,0,0,1,11.934-.248,13.842,13.842,0,0,1,1.68.773A3.02,3.02,0,0,1,379.77,176.078Z" transform="translate(-363.378 -173.891)" fill="#263238"/>
            </g>
            <g id="Grupo_82489" data-name="Grupo 82489" transform="translate(11.94 49.621)">
              <path id="Trazado_116368" data-name="Trazado 116368" d="M379.6,172.744a3.867,3.867,0,0,1-.621-.27c-.393-.183-.968-.433-1.7-.69a16.61,16.61,0,0,0-11.8.245c-.717.288-1.282.561-1.667.761a3.855,3.855,0,0,1-.609.3,2.977,2.977,0,0,1,.559-.385,13.674,13.674,0,0,1,1.645-.842,15.769,15.769,0,0,1,11.935-.249,13.718,13.718,0,0,1,1.68.774A2.931,2.931,0,0,1,379.6,172.744Z" transform="translate(-363.203 -170.557)" fill="#263238"/>
            </g>
            <g id="Grupo_82490" data-name="Grupo 82490" transform="translate(1.709 3.12)" opacity="0.2">
              <path id="Trazado_116369" data-name="Trazado 116369" d="M357.369,135.976c-.235.265-.827.214-1.678-.227a9.7,9.7,0,0,1-2.979-2.647,14.908,14.908,0,0,1-2.626-5.389,15.83,15.83,0,0,1,3.117-14.231,14.894,14.894,0,0,1,4.639-3.8,9.7,9.7,0,0,1,3.812-1.159c.958-.044,1.516.157,1.619.5.22.732-1.378,1.755-3.284,3.688a20.218,20.218,0,0,0-2.883,3.626,15.417,15.417,0,0,0-2.282,10.419,20.23,20.23,0,0,0,1.1,4.5C356.85,133.805,357.875,135.4,357.369,135.976Z" transform="translate(-349.553 -108.518)" fill="#fff"/>
            </g>
            <g id="Grupo_82491" data-name="Grupo 82491" transform="translate(10.231 33.979)" opacity="0.2">
              <path id="Trazado_116370" data-name="Trazado 116370" d="M365.7,152.343a2.4,2.4,0,1,1-2.354-2.654A2.514,2.514,0,0,1,365.7,152.343Z" transform="translate(-360.924 -149.689)" fill="#fff"/>
            </g>
          </g>
          <g id="Grupo_82493" data-name="Grupo 82493" transform="translate(0 10.126)">
            <path id="Trazado_116371" data-name="Trazado 116371" d="M341.856,107.311c-.043.058-2.217-1.513-4.855-3.507s-4.741-3.66-4.7-3.718,2.217,1.513,4.855,3.508S341.9,107.254,341.856,107.311Z" transform="translate(-332.303 -100.085)" fill="#263238"/>
          </g>
          <g id="Grupo_82494" data-name="Grupo 82494" transform="translate(9.278 7.794)">
            <path id="Trazado_116372" data-name="Trazado 116372" d="M348.548,101.773a18.156,18.156,0,0,1-2.034-2.316,18.077,18.077,0,0,1-1.83-2.482,18.266,18.266,0,0,1,2.034,2.317A18.2,18.2,0,0,1,348.548,101.773Z" transform="translate(-344.681 -96.974)" fill="#263238"/>
          </g>
          <g id="Grupo_82495" data-name="Grupo 82495" transform="translate(17.323 0.635)">
            <path id="Trazado_116373" data-name="Trazado 116373" d="M359.052,98.286c-.068.022-.937-2.39-1.94-5.39s-1.761-5.451-1.692-5.473.938,2.39,1.941,5.39S359.121,98.263,359.052,98.286Z" transform="translate(-355.415 -87.423)" fill="#263238"/>
          </g>
          <g id="Grupo_82496" data-name="Grupo 82496" transform="translate(29.782 3.929)">
            <path id="Trazado_116374" data-name="Trazado 116374" d="M372.821,97.314a14.711,14.711,0,0,1-.511-2.73,14.869,14.869,0,0,1-.252-2.767,14.765,14.765,0,0,1,.511,2.731A14.855,14.855,0,0,1,372.821,97.314Z" transform="translate(-372.036 -91.818)" fill="#263238"/>
          </g>
          <g id="Grupo_82497" data-name="Grupo 82497" transform="translate(39.978)">
            <path id="Trazado_116375" data-name="Trazado 116375" d="M385.644,99.253c-.07-.019.657-2.873,1.625-6.373s1.809-6.323,1.878-6.3-.658,2.872-1.626,6.374S385.714,99.272,385.644,99.253Z" transform="translate(-385.64 -86.576)" fill="#263238"/>
          </g>
          <g id="Grupo_82498" data-name="Grupo 82498" transform="translate(47.92 11.409)">
            <path id="Trazado_116376" data-name="Trazado 116376" d="M396.24,106.987a18.509,18.509,0,0,1,1.594-2.667,18.529,18.529,0,0,1,1.813-2.523,18.425,18.425,0,0,1-1.594,2.667A18.455,18.455,0,0,1,396.24,106.987Z" transform="translate(-396.236 -101.797)" fill="#263238"/>
          </g>
          <g id="Grupo_82499" data-name="Grupo 82499" transform="translate(50.487 14.957)">
            <path id="Trazado_116377" data-name="Trazado 116377" d="M409.672,106.532c.043.059-2.164,1.723-4.928,3.717s-5.039,3.563-5.082,3.5,2.164-1.723,4.929-3.718S409.63,106.474,409.672,106.532Z" transform="translate(-399.661 -106.531)" fill="#263238"/>
          </g>
        </g>
      </g>
    </g>
  </g>
</svg>
