<svg xmlns="http://www.w3.org/2000/svg" width="440" height="394.849" viewBox="0 0 440 394.849">
  <g id="Grupo_53852" data-name="Grupo 53852" transform="translate(0 0)">
    <g id="Grupo_53849" data-name="Grupo 53849" transform="translate(23.16 0)">
      <path id="Trazado_101423" data-name="Trazado 101423" d="M936,726.679h56.218a171.825,171.825,0,0,0-9.844-28.754c-37.219-4.111-93.89-10.356-94.736-10.356h89.716A173.24,173.24,0,0,0,696.27,651.25h97.977l-105.51,8.792a173.2,173.2,0,0,0-23.045,37.841h72.794l-76.572,9.2a171.989,171.989,0,0,0-9.291,36.047c25,.042,53.062.173,53.062.173l-54.1,8.495q-.762,8.1-.771,16.411a172.468,172.468,0,0,0,18.71,78.378H978.518a173.891,173.891,0,0,0,15.309-112.689C971.733,731.171,936,726.679,936,726.679Z" transform="translate(-627.183 -595)" fill="#f4e398"/>
      <path id="Trazado_101424" data-name="Trazado 101424" d="M990.935,711.442s7.7-.288,6.334-7.006-4.537-8.325-4.537-8.325,2.771-1.2,4.216-.339c0,0-.728-2.392-4.13-2.484s-5.328-.124-3.178-1.669,4.3-2.875,6.757-1.351c0,0-1.653-3.451-4.885-2.874a13.427,13.427,0,0,0-4.183-6.1c-3.146-2.5-3.017,1.576-3.017,1.576s-2.76-2.442-5.393-1.978-.674,3.369-.674,3.369-8.281-1.587-7.982.6,2.825,2.391,2.825,2.391-4.365-1.154-5.05,1.937,1.541,2.6.257,4.862,6.291,3.75,9.03-1.071c0,0-14,11.2-16.213,33-2.323,22.871-16.649,18.855-20.969,6.979-4.674-12.849-29.1-20.62-38.149-3.189,0,0,6.6-3.164,9.551-1.8,0,0-21.57,7.294-20.029,36.966,0,0,8.346-21.14,19.772-21.635,0,0-9.116,9.519-6.291,18.05,0,0,6.676-12.858,13.353-7.665,0,0-5.778,3.008-5.007,9.108,0,0,10.027-8.17,16.576,5.367,5.547,11.469,21.047,14.152,25.653,14.7A3.542,3.542,0,0,1,957.779,784c.925,1.024,2.412,2.63,3.711,3.853a6.7,6.7,0,0,1,2.093,4.495l.6,10.663h0a4.074,4.074,0,0,0,4.071-4.234l-.2-5.22a4.4,4.4,0,0,1,3.2-4.4c3.172-.91,7.585-2.766,8.471-6.174l.77,2.782s6.072-6.648,5.472-12.367a4.431,4.431,0,0,1,1.844-4.016,36.931,36.931,0,0,0,11.815-15.411C1005.186,741.113,1002.1,722.321,990.935,711.442Z" transform="translate(-763.398 -643.392)" fill="#2d2504"/>
      <path id="Trazado_101425" data-name="Trazado 101425" d="M990.027,1163.145c-51.643-12.027-120.817-19.381-196.84-19.381s-145.2,7.354-196.84,19.381Z" transform="translate(-596.347 -905.655)" fill="#2d2504"/>
      <g id="Grupo_53848" data-name="Grupo 53848" transform="translate(88.662 134.656)">
        <path id="Trazado_101426" data-name="Trazado 101426" d="M1187.861,1131.792h32.381v-18.4l-32.381,4.53Z" transform="translate(-1019.865 -1023.119)" fill="#2d2504"/>
        <path id="Trazado_101427" data-name="Trazado 101427" d="M837.511,1131.792h32.381v-18.4l-32.381,4.53Z" transform="translate(-821.532 -1023.119)" fill="#2d2504"/>
        <path id="Trazado_101428" data-name="Trazado 101428" d="M968.68,940.1h46.631a1.729,1.729,0,0,0,1.729-1.729v-9.538a1.729,1.729,0,0,0-1.729-1.729h-14.25V921.85a16.446,16.446,0,0,0-16.506-16.508A16.191,16.191,0,0,0,968.68,921.53v5.578H849.044V921.53a16.19,16.19,0,0,0-16.19-16.191h0a16.191,16.191,0,0,0-16.191,16.191v5.578h-14.25a1.73,1.73,0,0,0-1.729,1.729v9.538a1.729,1.729,0,0,0,1.729,1.729H968.68Z" transform="translate(-800.684 -905.339)" fill="#2d2504"/>
        <path id="Trazado_101429" data-name="Trazado 101429" d="M968.68,989.99v10.229H849.044V985.46l-32.381,4.529v10.229h-14.25a1.73,1.73,0,0,0-1.729,1.73v9.537a1.729,1.729,0,0,0,1.729,1.729h212.9a1.729,1.729,0,0,0,1.729-1.729v-9.537a1.73,1.73,0,0,0-1.729-1.73h-14.25V985.46Z" transform="translate(-800.684 -950.696)" fill="#2d2504"/>
        <path id="Trazado_101430" data-name="Trazado 101430" d="M968.68,1064.187H849.044v-14.76l-32.381,4.531v10.229h-14.25a1.729,1.729,0,0,0-1.729,1.729v9.537a1.73,1.73,0,0,0,1.729,1.729h212.9a1.729,1.729,0,0,0,1.729-1.729v-9.537a1.729,1.729,0,0,0-1.729-1.729h-14.25v-14.76l-32.381,4.531Z" transform="translate(-800.684 -986.907)" fill="#2d2504"/>
      </g>
    </g>
    <g id="Grupo_53850" data-name="Grupo 53850" transform="translate(0 291.99)">
      <path id="Trazado_101431" data-name="Trazado 101431" d="M542.971,1270.228h10.9v59.435H571.8v9.905H542.971Z" transform="translate(-542.971 -1269.237)" fill="#2d2504"/>
      <path id="Trazado_101432" data-name="Trazado 101432" d="M658.028,1270.228h10.9v69.341h-10.9Z" transform="translate(-608.105 -1269.237)" fill="#2d2504"/>
      <path id="Trazado_101433" data-name="Trazado 101433" d="M731.762,1270.228h11l7.133,53.789h.2l7.133-53.789h10l-10.5,69.341H742.262Z" transform="translate(-649.846 -1269.237)" fill="#2d2504"/>
      <path id="Trazado_101434" data-name="Trazado 101434" d="M862.115,1270.228h29.717v9.906H873.011v18.325h14.958v9.906H873.011v21.3h18.821v9.905H862.115Z" transform="translate(-723.639 -1269.237)" fill="#2d2504"/>
      <path id="Trazado_101435" data-name="Trazado 101435" d="M981.233,1334.76q-4.063-4.506-4.062-12.927v-3.962h10.3v4.755q0,6.738,5.647,6.736a5.31,5.31,0,0,0,4.21-1.635q1.434-1.633,1.436-5.3a14.692,14.692,0,0,0-1.981-7.677,36.687,36.687,0,0,0-7.33-7.975q-6.738-5.943-9.41-10.748a21.914,21.914,0,0,1-2.674-10.847q0-8.221,4.16-12.729t12.085-4.507q7.824,0,11.837,4.507t4.011,12.927v2.873h-10.3v-3.566q0-3.567-1.387-5.2a5.031,5.031,0,0,0-4.061-1.634q-5.449,0-5.449,6.637a13.092,13.092,0,0,0,2.031,7.033,38.783,38.783,0,0,0,7.38,7.924q6.835,5.943,9.41,10.8a23.976,23.976,0,0,1,2.575,11.392q0,8.521-4.21,13.076t-12.234,4.556Q985.292,1339.266,981.233,1334.76Z" transform="translate(-788.772 -1267.945)" fill="#2d2504"/>
      <path id="Trazado_101436" data-name="Trazado 101436" d="M1107.73,1280.134h-11.392v-9.906h33.68v9.906h-11.392v59.434h-10.9Z" transform="translate(-856.232 -1269.237)" fill="#2d2504"/>
      <path id="Trazado_101437" data-name="Trazado 101437" d="M1225.017,1334.71q-4.26-4.555-4.26-12.878V1285.38q0-8.321,4.26-12.877t12.283-4.557q8.023,0,12.283,4.557t4.26,12.877v36.453q0,8.322-4.26,12.878t-12.283,4.556Q1229.276,1339.266,1225.017,1334.71Zm17.929-12.184v-37.839q0-6.835-5.646-6.835t-5.647,6.835v37.839q0,6.835,5.647,6.836T1242.946,1322.526Z" transform="translate(-926.666 -1267.945)" fill="#2d2504"/>
      <path id="Trazado_101438" data-name="Trazado 101438" d="M1352.939,1334.81q-4.112-4.459-4.111-12.581v-37.245q0-8.121,4.111-12.581t11.936-4.458q7.824,0,11.936,4.458t4.112,12.581v7.33h-10.3v-8.024q0-6.438-5.447-6.438t-5.448,6.438v38.732q0,6.341,5.448,6.34t5.447-6.34v-10.6h10.3v9.807q0,8.124-4.112,12.581t-11.936,4.457Q1357.049,1339.266,1352.939,1334.81Z" transform="translate(-999.167 -1267.945)" fill="#2d2504"/>
      <path id="Trazado_101439" data-name="Trazado 101439" d="M1474.386,1270.228h10.9v29.223l13.868-29.223h10.9l-12.977,25.459,13.174,43.882h-11.392l-9.212-30.906-4.358,8.816v22.09h-10.9Z" transform="translate(-1070.245 -1269.237)" fill="#2d2504"/>
    </g>
    <g id="Grupo_53851" data-name="Grupo 53851" transform="translate(46.597 379.942)">
      <path id="Trazado_101440" data-name="Trazado 101440" d="M661.843,1471.572h4.311v.2h-.181a1.766,1.766,0,0,0-.927.282,2.144,2.144,0,0,0-.766.846l-4.774,10.535a10.888,10.888,0,0,0-.987,2.639h-.182l-6.1-13.154a2.229,2.229,0,0,0-.765-.856,1.76,1.76,0,0,0-.947-.292h-.161v-.2h6.406v.2h-.162a.776.776,0,0,0-.654.272.851.851,0,0,0-.212.514,1.512,1.512,0,0,0,.081.483l3.424,8.32,3.545-8.32a1.377,1.377,0,0,0,.1-.494.845.845,0,0,0-.212-.5.778.778,0,0,0-.655-.272h-.182Z" transform="translate(-650.361 -1471.17)"/>
      <path id="Trazado_101441" data-name="Trazado 101441" d="M710.792,1485.472a1.221,1.221,0,0,0,.9-.372,1.3,1.3,0,0,0,.393-.9v-11.18a1.262,1.262,0,0,0-.393-.887,1.239,1.239,0,0,0-.9-.362h-.262v-.2h6.124l-.02.2h-.242a1.271,1.271,0,0,0-.906.362,1.173,1.173,0,0,0-.383.887v11.18a1.205,1.205,0,0,0,.383.9,1.253,1.253,0,0,0,.906.372h.242l.02.2H710.53v-.2Z" transform="translate(-684.423 -1471.17)"/>
      <path id="Trazado_101442" data-name="Trazado 101442" d="M766.96,1471.38a1.17,1.17,0,0,0-1.068.6,1.28,1.28,0,0,0-.181.605v10.395a12.107,12.107,0,0,0,.181,2.276l.06.3h-.181l-10.173-9.69v8a1.149,1.149,0,0,0,.362.856,1.2,1.2,0,0,0,.867.352h.383v.2h-6.1v-.2h.363a1.224,1.224,0,0,0,.886-.352,1.172,1.172,0,0,0,.363-.876v-10.455a11.291,11.291,0,0,0-.182-2.216l-.04-.3h.181l10.173,9.69v-7.958a1.246,1.246,0,0,0-.383-.876,1.2,1.2,0,0,0-.866-.352h-.363v-.2h6.1v.2Z" transform="translate(-707.393 -1470.775)"/>
      <path id="Trazado_101443" data-name="Trazado 101443" d="M821.693,1471.9v11.826a1.263,1.263,0,0,0,.393.886,1.242,1.242,0,0,0,.9.362h.242l.02.2H817.12v-.2h.262a1.218,1.218,0,0,0,.876-.362,1.325,1.325,0,0,0,.413-.867V1471.9h-2.72a1.935,1.935,0,0,0-2.014,2.055v.242h-.2v-3.505a6.674,6.674,0,0,0,2.377.363h8.118a8.446,8.446,0,0,0,1.36-.121,5.032,5.032,0,0,0,1.017-.242v3.505h-.2v-.242a1.861,1.861,0,0,0-.947-1.772,2.212,2.212,0,0,0-1.068-.283Z" transform="translate(-742.848 -1470.671)"/>
      <path id="Trazado_101444" data-name="Trazado 101444" d="M881.376,1484.947h.181v.2h-6.426v-.2h.181a.778.778,0,0,0,.655-.272.854.854,0,0,0,.211-.514,1.264,1.264,0,0,0-.1-.483l-.987-2.477h-4.714l-1.047,2.477a1.378,1.378,0,0,0-.1.494.822.822,0,0,0,.222.5.805.805,0,0,0,.665.272h.161v.2h-4.311v-.2h.181a1.769,1.769,0,0,0,.926-.281,2.15,2.15,0,0,0,.766-.847l4.653-10.535a10.653,10.653,0,0,0,1.007-2.639h.181l5.983,13.134a2.192,2.192,0,0,0,.766.876A1.754,1.754,0,0,0,881.376,1484.947Zm-10.656-4.593h4.028l-1.954-4.956Z" transform="translate(-772.415 -1470.645)"/>
      <path id="Trazado_101445" data-name="Trazado 101445" d="M933.376,1485.588a7.69,7.69,0,0,1-5.53-1.984,7.915,7.915,0,0,1,0-10.707,7.883,7.883,0,0,1,5.651-1.974,15.34,15.34,0,0,1,3.122.313,10.132,10.132,0,0,1,2.438.775l.04,3.465h-.181a4.782,4.782,0,0,0-1.792-2.831,5.188,5.188,0,0,0-3.022-.876,4.4,4.4,0,0,0-3.746,1.743,7.779,7.779,0,0,0-1.31,4.774,8.168,8.168,0,0,0,1.2,4.744,3.9,3.9,0,0,0,3.395,1.713,3.968,3.968,0,0,0,2.659-.907,2.78,2.78,0,0,0,.765-1.087v-3.082a.837.837,0,0,0-.272-.675,1.161,1.161,0,0,0-.775-.231h-.322v-.2h5.661v.2h-.3a1.086,1.086,0,0,0-.745.231.853.853,0,0,0-.262.675v3.324a6.408,6.408,0,0,1-2.6,1.813A10.137,10.137,0,0,1,933.376,1485.588Z" transform="translate(-806.265 -1470.802)"/>
      <path id="Trazado_101446" data-name="Trazado 101446" d="M987.911,1485a1.22,1.22,0,0,0,.9-.373,1.294,1.294,0,0,0,.393-.9v-11.22a1.121,1.121,0,0,0-.3-.766,1.463,1.463,0,0,0-.987-.443h-.262v-.2h7.716a7.331,7.331,0,0,0,1.631-.151,7.148,7.148,0,0,0,.786-.21v3.524l-.2-.02v-.221a1.87,1.87,0,0,0-.927-1.773,2.178,2.178,0,0,0-1.048-.282h-3.384v5.862h2.659a1.717,1.717,0,0,0,1.229-.514,1.673,1.673,0,0,0,.483-1.218v-.182h.2v4.654h-.2v-.161a1.669,1.669,0,0,0-1.672-1.732h-2.7v5.66h2.639a3.684,3.684,0,0,0,2.468-.845,5,5,0,0,0,1.48-2.4h.2l-.927,4.109H987.649v-.2Z" transform="translate(-841.3 -1470.698)"/>
      <path id="Trazado_101447" data-name="Trazado 101447" d="M1075.234,1475.6a4.316,4.316,0,0,1-.363,1.752,3.851,3.851,0,0,1-2.538,2.175,3.207,3.207,0,0,1-1.007.182,4.536,4.536,0,0,1-2.559-.745v-.2a3.01,3.01,0,0,0,2.438-.988,3.847,3.847,0,0,0,.111-4.562,2.372,2.372,0,0,0-1.883-.8h-1.35V1484.2a1.2,1.2,0,0,0,.383.9,1.252,1.252,0,0,0,.906.372h.262v.2h-6.124v-.2h.262a1.221,1.221,0,0,0,.9-.372,1.3,1.3,0,0,0,.393-.9v-11.261a1.061,1.061,0,0,0-.382-.836,1.338,1.338,0,0,0-.907-.332h-.262v-.2h6.728a5.652,5.652,0,0,1,3.707,1.048A3.732,3.732,0,0,1,1075.234,1475.6Z" transform="translate(-884.245 -1471.17)"/>
      <path id="Trazado_101448" data-name="Trazado 101448" d="M1122.632,1472.459h-.927V1484.2a1.3,1.3,0,0,0,.393.9,1.22,1.22,0,0,0,.9.372h.262v.2h-6.124v-.2h.262a1.222,1.222,0,0,0,1.108-.624,1.413,1.413,0,0,0,.182-.624v-11.18a1.3,1.3,0,0,0-.393-.9,1.223,1.223,0,0,0-.9-.373h-.262v-.2h6.91a6.1,6.1,0,0,1,3.3.847,3.032,3.032,0,0,1,1.088,1.178,4.2,4.2,0,0,1,.4,1.974,3.857,3.857,0,0,1-.846,2.347,3.324,3.324,0,0,1-2.458,1.29,3.984,3.984,0,0,1,2.055,1.772q2.176,3.485,3.223,4.15a2.585,2.585,0,0,0,1.309.342v.2h-1.974a7.89,7.89,0,0,1-2.91-.464,3.6,3.6,0,0,1-1.823-1.631q-.383-.665-1.672-3.445-.564-1.228-1.37-1.349v-.2h.624a2.525,2.525,0,0,0,1.6-.543,2.85,2.85,0,0,0,.936-1.773,3.719,3.719,0,0,0,.081-.664,3.505,3.505,0,0,0-.665-2.387,2.266,2.266,0,0,0-1.712-.756Z" transform="translate(-914.6 -1471.17)"/>
      <path id="Trazado_101449" data-name="Trazado 101449" d="M1177.358,1472.9a9.453,9.453,0,0,1,11.563,0,7.763,7.763,0,0,1,0,10.717,9.453,9.453,0,0,1-11.563,0,7.765,7.765,0,0,1,0-10.717Zm2.4,10.1a4.147,4.147,0,0,0,6.758,0,9.63,9.63,0,0,0,0-9.488,4.147,4.147,0,0,0-6.758,0,9.7,9.7,0,0,0,0,9.488Z" transform="translate(-947.48 -1470.802)"/>
      <path id="Trazado_101450" data-name="Trazado 101450" d="M1251.817,1473.466a7.447,7.447,0,0,1,0,10.314,8.053,8.053,0,0,1-5.641,1.894h-7.312v-.2h.262a1.219,1.219,0,0,0,.9-.372,1.3,1.3,0,0,0,.394-.9v-11.281a1.028,1.028,0,0,0-.394-.816,1.346,1.346,0,0,0-.9-.332h-.262v-.2h7.312A8.056,8.056,0,0,1,1251.817,1473.466Zm-5.9,11.341a4.244,4.244,0,0,0,2.508-.745,4.674,4.674,0,0,0,1.622-2.146,8.1,8.1,0,0,0,.564-3.052,10.288,10.288,0,0,0-.332-2.81,5.994,5.994,0,0,0-.937-1.964,4.04,4.04,0,0,0-3.424-1.672h-2.478v12.388Z" transform="translate(-983.512 -1471.17)"/>
      <path id="Trazado_101451" data-name="Trazado 101451" d="M1315.481,1471.774h-.342a1.047,1.047,0,0,0-.726.272.941.941,0,0,0-.323.675v7.857a5.119,5.119,0,0,1-1.551,3.928,5.979,5.979,0,0,1-4.25,1.45,7.388,7.388,0,0,1-4.875-1.42,4.86,4.86,0,0,1-1.693-3.938v-7.815a.981.981,0,0,0-.544-.887,1.155,1.155,0,0,0-.523-.12h-.322v-.2h5.8v.2h-.322a1.077,1.077,0,0,0-.746.272.957.957,0,0,0-.322.7v7.7a5.1,5.1,0,0,0,1.047,3.385,3.559,3.559,0,0,0,2.881,1.249,3.72,3.72,0,0,0,2.9-1.179,4.65,4.65,0,0,0,1.088-3.193v-7.957a.97.97,0,0,0-.544-.847,1.16,1.16,0,0,0-.523-.12h-.323v-.2h4.21Z" transform="translate(-1018.31 -1471.17)"/>
      <path id="Trazado_101452" data-name="Trazado 101452" d="M1370.307,1485.578a8.949,8.949,0,0,1-6.1-1.965,7.624,7.624,0,0,1-.02-10.727,8.709,8.709,0,0,1,6.023-1.964,10.766,10.766,0,0,1,5.016,1.088l.041,3.465h-.162a4.5,4.5,0,0,0-4.693-3.707,4.557,4.557,0,0,0-3.757,1.722,7.321,7.321,0,0,0-1.38,4.7,7.693,7.693,0,0,0,1.32,4.735,4.4,4.4,0,0,0,3.576,1.813,4.981,4.981,0,0,0,3.565-1.169,7.386,7.386,0,0,0,1.733-4.149h.161l.2,3.465Q1374.2,1485.588,1370.307,1485.578Z" transform="translate(-1053.212 -1470.802)"/>
      <path id="Trazado_101453" data-name="Trazado 101453" d="M1427.929,1471.9v11.826a1.261,1.261,0,0,0,.393.886,1.241,1.241,0,0,0,.9.362h.242l.02.2h-6.124v-.2h.261a1.217,1.217,0,0,0,.876-.362,1.327,1.327,0,0,0,.413-.867V1471.9h-2.719a1.936,1.936,0,0,0-2.015,2.055v.242h-.2v-3.505a6.68,6.68,0,0,0,2.378.363h8.117a8.447,8.447,0,0,0,1.36-.121,5.035,5.035,0,0,0,1.017-.242v3.505h-.2v-.242a1.86,1.86,0,0,0-.947-1.772,2.206,2.206,0,0,0-1.067-.283Z" transform="translate(-1086.038 -1470.671)"/>
    </g>
  </g>
</svg>
