<svg xmlns="http://www.w3.org/2000/svg" width="295" height="175.616" viewBox="0 0 295 175.616">
  <g id="_116" data-name="116" transform="translate(-4311 5356)">
    <rect id="Rectángulo_36957" data-name="Rectángulo 36957" width="295" height="91" transform="translate(4311 -5318)" fill="#fff"/>
    <g id="diseno-grafico" transform="translate(4374.333 -5356)">
      <path id="Trazado_103535" data-name="Trazado 103535" d="M244.688,21.531h-11.43V5.715a5.715,5.715,0,1,1,11.43,0Z" transform="translate(-149.806)" fill="#aa9ea9"/>
      <path id="Trazado_103536" data-name="Trazado 103536" d="M173.164,168.269H160.91v-2.523a71.754,71.754,0,0,0-43.07-65.775v33.444A43.14,43.14,0,0,1,132.4,165.746v2.523H45.931v-2.523A43.19,43.19,0,0,1,63,131.354V98.928a71.819,71.819,0,0,0-45.574,66.818v2.523H5.169A3.072,3.072,0,0,0,2.1,171.338v22.369a3.072,3.072,0,0,0,3.072,3.069H173.164a3.072,3.072,0,0,0,3.072-3.069V171.338A3.072,3.072,0,0,0,173.164,168.269Z" transform="translate(0 -64.111)" fill="#fee45a"/>
      <g id="Grupo_54356" data-name="Grupo 54356" transform="translate(117.667 35.784)">
        <path id="Trazado_103537" data-name="Trazado 103537" d="M330.478,101.677l0,0Z" transform="translate(-330.478 -101.677)" fill="#99e6fc"/>
        <path id="Trazado_103538" data-name="Trazado 103538" d="M330.49,101.682l.168.074v0Z" transform="translate(-330.486 -101.68)" fill="#99e6fc"/>
      </g>
      <g id="XMLID_947_" transform="translate(66.094 12.731)">
        <g id="Grupo_54357" data-name="Grupo 54357" transform="translate(0)">
          <path id="Trazado_103539" data-name="Trazado 103539" d="M238.745,148.179l-5.73-11.61L225.97,53.335l-1.2-14.218a3.214,3.214,0,0,0-3.2-2.942h-6.46l-3.69,3.163-6.46,81.971-7.873,27.466,2.064,6.14,3.516,3.226H231.59l7.366-9.366A2.584,2.584,0,0,0,238.745,148.179Z" transform="translate(-192.458 -36.174)" fill="#c9bfc8"/>
          <path id="Trazado_103540" data-name="Trazado 103540" d="M192.221,149.049a2.6,2.6,0,0,1,.211-.595l5.73-11.61,7.046-83.234,1.2-14.218a3.214,3.214,0,0,1,3.2-2.942h4.729a3.19,3.19,0,0,0-1.294-.276h-11.72a3.214,3.214,0,0,0-3.2,2.942l-1.2,14.218-7.046,83.234-5.73,11.611a2.609,2.609,0,0,0-.211.595l10.209,9.366h7.983Z" transform="translate(-183.937 -36.173)" fill="#baafb9"/>
        </g>
      </g>
      <path id="Trazado_103541" data-name="Trazado 103541" d="M241.459,280.208h-4.805a3.051,3.051,0,0,1-3.051-3.051V259.262a3.051,3.051,0,0,1,3.051-3.051h4.805a3.051,3.051,0,0,1,3.051,3.051v17.9A3.051,3.051,0,0,1,241.459,280.208Z" transform="translate(-150.03 -166.04)" fill="#baafb9"/>
      <path id="Trazado_103542" data-name="Trazado 103542" d="M175.141,89.859v32.426a43.143,43.143,0,0,1,54.841,2.062V90.9a71.937,71.937,0,0,0-54.841-1.04Z" transform="translate(-112.143 -55.042)" fill="#fee45a"/>
      <path id="Trazado_103543" data-name="Trazado 103543" d="M50.851,187.707H5.169A3.072,3.072,0,0,1,2.1,184.639V162.269A3.072,3.072,0,0,1,5.169,159.2H17.424v-2.523a71.766,71.766,0,0,1,83.589-70.762A70.686,70.686,0,0,0,50.851,187.707Z" transform="translate(0 -55.042)" fill="#fed402"/>
      <path id="Trazado_103544" data-name="Trazado 103544" d="M238.386,356.114h-42.18l.933,1.854L209.01,388l2.02,2.812h12.36a3.954,3.954,0,0,0,3.709-2.594l11.192-30.552A2.722,2.722,0,0,0,238.386,356.114Z" transform="translate(-125.794 -230.783)" fill="#baafb9"/>
      <path id="Trazado_103545" data-name="Trazado 103545" d="M203.377,388.494l-11.192-30.552a2.721,2.721,0,0,1-.125-1.364h0l.029-.16c0-.009,0-.018,0-.027h0l.049-.276h-8.334a2.72,2.72,0,0,0,.1,1.552l11.192,30.552a3.954,3.954,0,0,0,3.709,2.594h6.839A3.957,3.957,0,0,1,203.377,388.494Z" transform="translate(-117.712 -230.783)" fill="#aa9ea9"/>
      <g id="Grupo_54359" data-name="Grupo 54359" transform="translate(19.608 121.704)">
        <path id="Trazado_103546" data-name="Trazado 103546" d="M244.742,423.7h-11.3v20.848a5.651,5.651,0,1,0,11.3,0Z" transform="translate(-169.532 -396.286)" fill="#aa9ea9"/>
        <path id="Trazado_103547" data-name="Trazado 103547" d="M120.053,356.77v-8.322a2.64,2.64,0,0,0-5.279,0v8.322Z" transform="translate(-92.63 -345.809)" fill="#baafb9"/>
        <path id="Trazado_103548" data-name="Trazado 103548" d="M57.132,356.77v-8.322a2.64,2.64,0,0,0-5.279,0v8.322Z" transform="translate(-51.853 -345.809)" fill="#baafb9"/>
        <g id="Grupo_54358" data-name="Grupo 54358" transform="translate(112.046)">
          <path id="Trazado_103549" data-name="Trazado 103549" d="M375.5,348.449a2.64,2.64,0,1,0-5.279,0v8.322H375.5Z" transform="translate(-370.221 -345.809)" fill="#c9bfc8"/>
          <path id="Trazado_103550" data-name="Trazado 103550" d="M438.421,356.77v-8.322a2.64,2.64,0,0,0-5.279,0v8.322Z" transform="translate(-410.998 -345.809)" fill="#c9bfc8"/>
        </g>
      </g>
    </g>
  </g>
</svg>
