<svg xmlns="http://www.w3.org/2000/svg" width="295" height="179.637" viewBox="0 0 295 179.637">
  <g id="_118" data-name="118" transform="translate(-4311 4622.021)">
    <rect id="Rectángulo_36966" data-name="Rectángulo 36966" width="295" height="91" transform="translate(4311 -4580)" fill="#fff"/>
    <g id="_3d" data-name="3d" transform="translate(4368.878 -4622.021)">
      <g id="Grupo_54360" data-name="Grupo 54360" transform="translate(117.282 118.147)">
        <path id="Trazado_103551" data-name="Trazado 103551" d="M378.017,361.534a2.7,2.7,0,0,1-1.369-.37L324.39,330.709a2.721,2.721,0,1,1,2.74-4.7l52.259,30.455a2.721,2.721,0,0,1-1.371,5.073Z" transform="translate(-323.038 -325.636)" fill="#efedef"/>
      </g>
      <g id="Grupo_54361" data-name="Grupo 54361" transform="translate(4.821 122.167)">
        <path id="Trazado_103552" data-name="Trazado 103552" d="M15.8,368.662a2.721,2.721,0,0,1-1.377-5.071l45.341-26.5a2.721,2.721,0,0,1,2.747,4.7l-45.342,26.5a2.708,2.708,0,0,1-1.369.372Z" transform="translate(-13.073 -336.714)" fill="#efedef"/>
      </g>
      <g id="Grupo_54362" data-name="Grupo 54362" transform="translate(24.518 24.162)">
        <path id="Trazado_103553" data-name="Trazado 103553" d="M78.057,370.264a2.708,2.708,0,0,1-1.4-.39l-7.77-4.679a2.722,2.722,0,0,1-1.317-2.328l-.01-9.07A2.721,2.721,0,0,1,73,353.79l.008,7.535,6.455,3.887a2.721,2.721,0,0,1-1.4,5.052Z" transform="translate(-67.485 -247.858)" fill="#99e6fc"/>
        <path id="Trazado_103554" data-name="Trazado 103554" d="M70.188,271.893a2.721,2.721,0,0,1-2.724-2.718l-.02-18.753a2.721,2.721,0,0,1,5.442-.006l.02,18.753A2.721,2.721,0,0,1,70.188,271.893Z" transform="translate(-67.414 -181.99)" fill="#99e6fc"/>
        <path id="Trazado_103555" data-name="Trazado 103555" d="M70.095,177.276a2.721,2.721,0,0,1-2.724-2.718l-.01-9.071a2.722,2.722,0,0,1,1.312-2.331l7.76-4.7a2.721,2.721,0,1,1,2.818,4.656l-6.446,3.9.008,7.535A2.721,2.721,0,0,1,70.095,177.276Z" transform="translate(-67.361 -124.879)" fill="#99e6fc"/>
        <path id="Trazado_103556" data-name="Trazado 103556" d="M134.736,120.653a2.721,2.721,0,0,1-1.414-5.05l15.7-9.5a2.721,2.721,0,1,1,2.818,4.656l-15.7,9.5A2.709,2.709,0,0,1,134.736,120.653Z" transform="translate(-108.553 -91.52)" fill="#99e6fc"/>
        <path id="Trazado_103557" data-name="Trazado 103557" d="M236.763,76.743a2.71,2.71,0,0,1-1.412-.4l-6.345-3.85-6.349,3.842a2.721,2.721,0,0,1-2.818-4.656l7.76-4.7a2.721,2.721,0,0,1,2.82,0l7.755,4.705a2.722,2.722,0,0,1-1.411,5.048Z" transform="translate(-163.681 -66.595)" fill="#99e6fc"/>
        <path id="Trazado_103558" data-name="Trazado 103558" d="M322.552,120.531a2.709,2.709,0,0,1-1.412-.4l-15.585-9.457a2.721,2.721,0,0,1,2.823-4.652l15.585,9.457a2.721,2.721,0,0,1-1.411,5.048Z" transform="translate(-218.299 -91.468)" fill="#99e6fc"/>
        <path id="Trazado_103559" data-name="Trazado 103559" d="M400.645,176.98a2.721,2.721,0,0,1-2.724-2.718l-.008-7.541-6.447-3.912a2.721,2.721,0,0,1,2.823-4.652l7.755,4.705a2.72,2.72,0,0,1,1.309,2.324l.01,9.07A2.721,2.721,0,0,1,400.645,176.98Z" transform="translate(-273.04 -124.685)" fill="#99e6fc"/>
        <path id="Trazado_103560" data-name="Trazado 103560" d="M414.357,271.53a2.721,2.721,0,0,1-2.724-2.718l-.02-18.73a2.721,2.721,0,1,1,5.442-.006l.02,18.73A2.721,2.721,0,0,1,414.357,271.53Z" transform="translate(-286.712 -181.773)" fill="#99e6fc"/>
        <path id="Trazado_103561" data-name="Trazado 103561" d="M393.133,369.841a2.722,2.722,0,0,1-1.422-5.045l6.438-3.926-.008-7.541a2.721,2.721,0,0,1,5.442-.006l.01,9.07a2.722,2.722,0,0,1-1.3,2.326l-7.744,4.722a2.71,2.71,0,0,1-1.411.4Z" transform="translate(-273.199 -247.561)" fill="#99e6fc"/>
        <path id="Trazado_103562" data-name="Trazado 103562" d="M307.334,429.712a2.722,2.722,0,0,1-1.422-5.045l15.565-9.491a2.721,2.721,0,1,1,2.833,4.647l-15.565,9.491A2.71,2.71,0,0,1,307.334,429.712Z" transform="translate(-218.529 -288.45)" fill="#99e6fc"/>
        <path id="Trazado_103563" data-name="Trazado 103563" d="M229.441,477.262a2.718,2.718,0,0,1-1.407-.39l-7.771-4.679a2.721,2.721,0,0,1,2.807-4.662l6.358,3.828,6.337-3.864a2.721,2.721,0,0,1,2.833,4.647l-7.744,4.722a2.725,2.725,0,0,1-1.414.4Z" transform="translate(-163.948 -321.787)" fill="#99e6fc"/>
        <path id="Trazado_103564" data-name="Trazado 103564" d="M150.752,429.956a2.709,2.709,0,0,1-1.4-.39L133.632,420.1a2.721,2.721,0,0,1,2.807-4.662l15.716,9.463a2.721,2.721,0,0,1-1.4,5.053Z" transform="translate(-108.748 -288.623)" fill="#99e6fc"/>
      </g>
      <g id="XMLID_424_" transform="translate(42.519 45.154)">
        <g id="Grupo_54363" data-name="Grupo 54363">
          <path id="Trazado_103565" data-name="Trazado 103565" d="M294.229,201.514l-9-.6L249.9,215.556l-2.347,14.363v56.745a2.644,2.644,0,0,0,1.386-.388L293.286,259.3a2.673,2.673,0,0,0,1.284-2.286V202.824A2.721,2.721,0,0,0,294.229,201.514Z" transform="translate(-200.179 -173.174)" fill="#f47c7c"/>
          <path id="Trazado_103566" data-name="Trazado 103566" d="M162.121,217.144l-39.306-20.1-5.643,2.309a2.7,2.7,0,0,0-.2,1.009v54.18a2.677,2.677,0,0,0,1.292,2.289l44.7,26.979a2.649,2.649,0,0,0,1.386.385V227.454Z" transform="translate(-116.976 -170.71)" fill="#ee6161"/>
          <path id="Trazado_103567" data-name="Trazado 103567" d="M211.37,152.793l-.4.258L164.7,181.2l-46.513-28.075-.668-.022a2.669,2.669,0,0,1,1.1-1.281l44.7-26.983a2.671,2.671,0,0,1,2.772.007l44.344,26.972A2.7,2.7,0,0,1,211.37,152.793Z" transform="translate(-117.32 -124.453)" fill="#f79595"/>
        </g>
      </g>
      <g id="Grupo_54364" data-name="Grupo 54364" transform="translate(87.175 91.151)">
        <path id="Trazado_103568" data-name="Trazado 103568" d="M242.777,263.644a2.721,2.721,0,0,1-2.721-2.721v-6.972a2.721,2.721,0,1,1,5.442,0v6.972A2.721,2.721,0,0,1,242.777,263.644Z" transform="translate(-240.056 -251.23)" fill="#efedef"/>
      </g>
      <g id="Grupo_54365" data-name="Grupo 54365" transform="translate(87.175 61.252)">
        <path id="Trazado_103569" data-name="Trazado 103569" d="M242.777,176.354a2.721,2.721,0,0,1-2.721-2.721v-2.09a2.721,2.721,0,1,1,5.442,0v2.09A2.721,2.721,0,0,1,242.777,176.354Z" transform="translate(-240.056 -168.822)" fill="#efedef"/>
      </g>
      <g id="Grupo_54366" data-name="Grupo 54366" transform="translate(87.175 76.856)">
        <path id="Trazado_103570" data-name="Trazado 103570" d="M242.777,219.362a2.721,2.721,0,0,1-2.721-2.721v-2.09a2.721,2.721,0,1,1,5.442,0v2.09A2.721,2.721,0,0,1,242.777,219.362Z" transform="translate(-240.056 -211.83)" fill="#efedef"/>
      </g>
      <g id="Grupo_54367" data-name="Grupo 54367" transform="translate(87.175 4.235)">
        <path id="Trazado_103571" data-name="Trazado 103571" d="M242.777,62.544a2.721,2.721,0,0,1-2.721-2.721V14.393a2.721,2.721,0,1,1,5.442,0v45.43A2.721,2.721,0,0,1,242.777,62.544Z" transform="translate(-240.056 -11.672)" fill="#efedef"/>
      </g>
      <g id="Grupo_54368" data-name="Grupo 54368" transform="translate(0.122 0)">
        <circle id="Elipse_4095" data-name="Elipse 4095" cx="8.666" cy="8.666" r="8.666" transform="translate(162.216 142.606)" fill="#01c0fa"/>
        <circle id="Elipse_4096" data-name="Elipse 4096" cx="8.666" cy="8.666" r="8.666" transform="translate(0 142.606)" fill="#01c0fa"/>
        <circle id="Elipse_4097" data-name="Elipse 4097" cx="8.666" cy="8.666" r="8.666" transform="translate(81.108)" fill="#01c0fa"/>
      </g>
    </g>
  </g>
</svg>
