<svg xmlns="http://www.w3.org/2000/svg" width="295" height="170.361" viewBox="0 0 295 170.361">
  <g id="_119" data-name="119" transform="translate(-4311 4253.021)">
    <rect id="Rectángulo_36970" data-name="Rectángulo 36970" width="295" height="91" transform="translate(4311 -4211)" fill="#fff"/>
    <g id="carpeta" transform="translate(4336.625 -4253.021)">
      <path id="Trazado_103502" data-name="Trazado 103502" d="M276.838,23.388h-56.53v96.556H209.795v31.51h72.593V28.834Z" transform="translate(-101.399 -15.358)" fill="#f9f7f8"/>
      <path id="Trazado_103503" data-name="Trazado 103503" d="M225.314,85.1V28.834l8.746-5.446H218.541l-8.746,5.446v122.62h72.592V99.185c-.187-.01-25.177,0-42.966.015A14.1,14.1,0,0,1,225.314,85.1Z" transform="translate(-101.399 -15.358)" fill="#efedef"/>
      <path id="Trazado_103504" data-name="Trazado 103504" d="M161.018,86.936a2.575,2.575,0,0,0-2.575-2.575H83.454a2.574,2.574,0,0,0-.364,5.122v68.25a2.575,2.575,0,1,0,5.15,0V89.511h66.445V165.2a2.575,2.575,0,0,0,5.15,0V89.1A2.571,2.571,0,0,0,161.018,86.936Z" transform="translate(-16.747 -55.395)" fill="#c8effe"/>
      <g id="XMLID_936_" transform="translate(55.375 79.683)">
        <g id="Grupo_54344" data-name="Grupo 54344" transform="translate(0)">
          <path id="Trazado_103505" data-name="Trazado 103505" d="M187.708,252.369v62.786a7.593,7.593,0,0,1-7.6,7.592H62.97a7.593,7.593,0,0,1-7.6-7.592V239.665a7.6,7.6,0,0,1,7.6-7.6h39.143a7.589,7.589,0,0,1,4.567,1.528l12.835,9.652a7.6,7.6,0,0,0,4.563,1.525h56.036A7.6,7.6,0,0,1,187.708,252.369Z" transform="translate(-55.375 -232.07)" fill="#fdd79b"/>
        </g>
      </g>
      <path id="Trazado_103506" data-name="Trazado 103506" d="M78.234,287.124V232.07H62.97a7.6,7.6,0,0,0-7.6,7.6v75.491a7.593,7.593,0,0,0,7.6,7.592H180.113a7.593,7.593,0,0,0,7.6-7.592V312h-84.6A24.872,24.872,0,0,1,78.234,287.124Z" transform="translate(0 -152.387)" fill="#fccd7f"/>
      <path id="Trazado_103507" data-name="Trazado 103507" d="M303.568,0h-53.13V13.477h58.638V5.507A5.507,5.507,0,0,0,303.568,0Z" transform="translate(-128.087)" fill="#ee6161"/>
      <path id="Trazado_103508" data-name="Trazado 103508" d="M230.821,0H215.3A5.507,5.507,0,0,0,209.8,5.507v7.969h15.519V5.507A5.507,5.507,0,0,1,230.821,0Z" transform="translate(-101.399)" fill="#e94444"/>
      <path id="Trazado_103509" data-name="Trazado 103509" d="M87.291,86.047H77.976a1.716,1.716,0,0,1-1.715-1.715V75.017A1.716,1.716,0,0,1,77.976,73.3H87.29a1.716,1.716,0,0,1,1.715,1.715v9.314A1.715,1.715,0,0,1,87.291,86.047Z" transform="translate(-13.715 -48.133)" fill="#01c0fa"/>
      <path id="Trazado_103510" data-name="Trazado 103510" d="M224.378,339.678l7.991-14.433a1.657,1.657,0,0,0-.19-1.879L216.352,304.84a.685.685,0,0,0-1.041,0l-15.827,18.526a1.657,1.657,0,0,0-.19,1.879l7.991,14.433,4.132,8.015h9.368Z" transform="translate(-94.367 -200.014)" fill="#f9f7f8"/>
      <path id="Trazado_103511" data-name="Trazado 103511" d="M230.724,406.76H210.167a3.864,3.864,0,0,0-3.864,3.864v7.022a3.864,3.864,0,0,0,3.864,3.864h20.557a3.864,3.864,0,0,0,3.864-3.864v-7.022A3.864,3.864,0,0,0,230.724,406.76Z" transform="translate(-99.106 -267.096)" fill="#d7d0d6"/>
      <path id="Trazado_103512" data-name="Trazado 103512" d="M243.211,304.841a.685.685,0,0,0-1.041,0l-2.18,2.551v18.5a2.575,2.575,0,1,0,5.15,0V307.1Z" transform="translate(-121.227 -200.014)" fill="#efedef"/>
      <g id="Grupo_54346" data-name="Grupo 54346" transform="translate(153.214 38.63)">
        <g id="Grupo_54345" data-name="Grupo 54345" transform="translate(0)">
          <path id="Trazado_103513" data-name="Trazado 103513" d="M354.784,117.657H342.9a2.575,2.575,0,0,1,0-5.15h11.885a2.575,2.575,0,0,1,0,5.15Z" transform="translate(-340.324 -112.507)" fill="#efedef"/>
        </g>
      </g>
      <g id="Grupo_54348" data-name="Grupo 54348" transform="translate(153.214 49.878)">
        <g id="Grupo_54347" data-name="Grupo 54347" transform="translate(0)">
          <path id="Trazado_103514" data-name="Trazado 103514" d="M354.784,150.414H342.9a2.575,2.575,0,0,1,0-5.15h11.885a2.575,2.575,0,0,1,0,5.15Z" transform="translate(-340.324 -145.264)" fill="#efedef"/>
        </g>
      </g>
      <g id="Grupo_54350" data-name="Grupo 54350" transform="translate(153.214 61.125)">
        <g id="Grupo_54349" data-name="Grupo 54349" transform="translate(0)">
          <path id="Trazado_103515" data-name="Trazado 103515" d="M354.784,183.172H342.9a2.575,2.575,0,0,1,0-5.15h11.885a2.575,2.575,0,0,1,0,5.15Z" transform="translate(-340.324 -178.022)" fill="#efedef"/>
        </g>
      </g>
      <g id="Grupo_54352" data-name="Grupo 54352" transform="translate(153.214 72.373)">
        <g id="Grupo_54351" data-name="Grupo 54351" transform="translate(0)">
          <path id="Trazado_103516" data-name="Trazado 103516" d="M354.784,215.93H342.9a2.575,2.575,0,0,1,0-5.15h11.885a2.575,2.575,0,0,1,0,5.15Z" transform="translate(-340.324 -210.78)" fill="#efedef"/>
        </g>
      </g>
      <path id="Trazado_103517" data-name="Trazado 103517" d="M295.806,86.047h-9.314a1.715,1.715,0,0,1-1.715-1.715V75.017a1.715,1.715,0,0,1,1.715-1.715h9.314a1.716,1.716,0,0,1,1.715,1.715v9.314A1.716,1.716,0,0,1,295.806,86.047Z" transform="translate(-150.635 -48.133)" fill="#01c0fa"/>
    </g>
  </g>
</svg>
