<svg xmlns="http://www.w3.org/2000/svg" width="238" height="174" viewBox="0 0 238 174">
  <g id="_131" data-name="131" transform="translate(-813 -10182)">
    <rect id="Rectángulo_5393" data-name="Rectángulo 5393" width="238" height="79" transform="translate(813 10277)" fill="#feec9a"/>
    <g id="pasos" transform="translate(857 10182)">
      <path id="Trazado_101023" data-name="Trazado 101023" d="M208.97,10.23h-97.9a22,22,0,0,1,0,38.031h97.9a19.015,19.015,0,1,0,0-38.031Z" transform="translate(-78.889 -7.239)" fill="#fee55a"/>
      <path id="Trazado_101024" data-name="Trazado 101024" d="M140.151,29.245A21.991,21.991,0,0,0,129.217,10.23h-18.15a22,22,0,0,1,0,38.031h18.15a21.991,21.991,0,0,0,10.935-19.015Z" transform="translate(-78.889 -7.239)" fill="#ffd301"/>
      <path id="Trazado_101025" data-name="Trazado 101025" d="M20.013,190.955h97.9a22,22,0,0,0,0,38.031h-97.9a19.015,19.015,0,1,1,0-38.031Z" transform="translate(-0.998 -135.131)" fill="#ff9838"/>
      <path id="Trazado_101026" data-name="Trazado 101026" d="M19.148,209.97a19.016,19.016,0,0,1,19.015-19.016H20.013a19.015,19.015,0,0,0,0,38.031h18.15A19.015,19.015,0,0,1,19.148,209.97Z" transform="translate(-0.998 -135.13)" fill="#ff8706"/>
      <path id="Trazado_101027" data-name="Trazado 101027" d="M208.969,371.679h-97.9a22,22,0,0,1,0,38.031h97.9a19.015,19.015,0,0,0,0-38.031Z" transform="translate(-78.888 -263.021)" fill="#ff656f"/>
      <path id="Trazado_101028" data-name="Trazado 101028" d="M140.151,390.7a21.992,21.992,0,0,0-10.934-19.015h-18.15a22,22,0,0,1,0,38.031h18.15A21.992,21.992,0,0,0,140.151,390.7Z" transform="translate(-78.889 -263.022)" fill="#ff4756"/>
      <g id="Grupo_53769" data-name="Grupo 53769" transform="translate(0 0)">
        <circle id="Elipse_4005" data-name="Elipse 4005" cx="22.006" cy="22.006" r="22.006" transform="translate(0 0)" fill="#dfebfa"/>
        <circle id="Elipse_4006" data-name="Elipse 4006" cx="22.006" cy="22.006" r="22.006" transform="translate(105.084 52.833)" fill="#dfebfa"/>
        <circle id="Elipse_4007" data-name="Elipse 4007" cx="22.006" cy="22.006" r="22.006" transform="translate(0 105.667)" fill="#dfebfa"/>
      </g>
      <path id="Trazado_101029" data-name="Trazado 101029" d="M12.6,22.006A22.012,22.012,0,0,1,28.8.778a22.006,22.006,0,1,0,0,42.457A22.012,22.012,0,0,1,12.6,22.006Z" transform="translate(-0.998 0)" fill="#b1dbfc"/>
      <path id="Trazado_101030" data-name="Trazado 101030" d="M372.051,202.731A22.012,22.012,0,0,1,388.257,181.5a22.006,22.006,0,1,0,0,42.457A22.013,22.013,0,0,1,372.051,202.731Z" transform="translate(-255.367 -127.891)" fill="#b1dbfc"/>
      <path id="Trazado_101031" data-name="Trazado 101031" d="M12.6,383.455A22.011,22.011,0,0,1,28.8,362.227a22.006,22.006,0,1,0,0,42.457A22.012,22.012,0,0,1,12.6,383.455Z" transform="translate(-0.997 -255.782)" fill="#b1dbfc"/>
      <g id="Grupo_53770" data-name="Grupo 53770" transform="translate(54.345 116.708)">
        <path id="Trazado_101032" data-name="Trazado 101032" d="M216.584,403.714H189.142a2.25,2.25,0,0,1,0-4.5h27.442a2.25,2.25,0,1,1,0,4.5Z" transform="translate(-186.892 -399.214)" fill="#fc2d39"/>
      </g>
      <g id="Grupo_53771" data-name="Grupo 53771" transform="translate(54.345 125.539)">
        <path id="Trazado_101033" data-name="Trazado 101033" d="M248.565,433.924H189.142a2.25,2.25,0,0,1,0-4.5h59.424a2.25,2.25,0,1,1,0,4.5Z" transform="translate(-186.892 -429.424)" fill="#fc2d39"/>
      </g>
      <g id="Grupo_53772" data-name="Grupo 53772" transform="translate(54.345 134.371)">
        <path id="Trazado_101034" data-name="Trazado 101034" d="M248.565,464.134H189.142a2.25,2.25,0,1,1,0-4.5h59.424a2.25,2.25,0,1,1,0,4.5Z" transform="translate(-186.892 -459.634)" fill="#fc2d39"/>
      </g>
      <g id="Grupo_53773" data-name="Grupo 53773" transform="translate(54.345 10.809)">
        <path id="Trazado_101035" data-name="Trazado 101035" d="M216.584,41.475H189.142a2.25,2.25,0,0,1,0-4.5h27.442a2.25,2.25,0,1,1,0,4.5Z" transform="translate(-186.892 -36.975)" fill="#ffc20c"/>
      </g>
      <g id="Grupo_53774" data-name="Grupo 53774" transform="translate(54.345 19.641)">
        <path id="Trazado_101036" data-name="Trazado 101036" d="M248.565,71.685H189.142a2.25,2.25,0,0,1,0-4.5h59.424a2.25,2.25,0,1,1,0,4.5Z" transform="translate(-186.892 -67.185)" fill="#ffc20c"/>
      </g>
      <g id="Grupo_53775" data-name="Grupo 53775" transform="translate(54.345 28.472)">
        <path id="Trazado_101037" data-name="Trazado 101037" d="M248.565,101.894H189.142a2.25,2.25,0,0,1,0-4.5h59.424a2.25,2.25,0,1,1,0,4.5Z" transform="translate(-186.892 -97.394)" fill="#ffc20c"/>
      </g>
      <g id="Grupo_53776" data-name="Grupo 53776" transform="translate(26.048 63.759)">
        <path id="Trazado_101038" data-name="Trazado 101038" d="M119.789,222.595H92.347a2.25,2.25,0,1,1,0-4.5h27.442a2.25,2.25,0,0,1,0,4.5Z" transform="translate(-90.097 -218.095)" fill="#f70"/>
      </g>
      <g id="Grupo_53777" data-name="Grupo 53777" transform="translate(26.048 72.59)">
        <path id="Trazado_101039" data-name="Trazado 101039" d="M151.77,252.8H92.347a2.25,2.25,0,0,1,0-4.5h59.424a2.25,2.25,0,1,1,0,4.5Z" transform="translate(-90.097 -248.304)" fill="#f70"/>
      </g>
      <g id="Grupo_53778" data-name="Grupo 53778" transform="translate(26.048 81.422)">
        <path id="Trazado_101040" data-name="Trazado 101040" d="M151.77,283.014H92.347a2.25,2.25,0,0,1,0-4.5h59.424a2.25,2.25,0,1,1,0,4.5Z" transform="translate(-90.097 -278.514)" fill="#f70"/>
      </g>
      <g id="Grupo_53779" data-name="Grupo 53779" transform="translate(17.107 11.114)">
        <path id="Trazado_101041" data-name="Trazado 101041" d="M64.658,59.8a2.25,2.25,0,0,1-2.25-2.25V43.825a2.25,2.25,0,0,1-1.626-4.181l2.9-1.4a2.25,2.25,0,0,1,3.23,2.025V57.551A2.251,2.251,0,0,1,64.658,59.8Z" transform="translate(-59.512 -38.018)" fill="#ffd301"/>
      </g>
      <g id="Grupo_53780" data-name="Grupo 53780" transform="translate(119.563 63.872)">
        <path id="Trazado_101042" data-name="Trazado 101042" d="M422.782,240.417H412.228a2.25,2.25,0,0,1-1.634-3.8L418.746,228a3.547,3.547,0,0,0,1-2.615,2.7,2.7,0,0,0-1.044-1.918,2.37,2.37,0,0,0-2-.422,3.746,3.746,0,0,0-2.486,1.863,2.25,2.25,0,1,1-3.968-2.124,8.243,8.243,0,0,1,5.55-4.147,6.8,6.8,0,0,1,5.717,1.319,7.192,7.192,0,0,1,2.716,5.065,8,8,0,0,1-2.154,6.01l-.038.041-4.583,4.846h5.329a2.25,2.25,0,0,1,0,4.5Z" transform="translate(-409.977 -218.484)" fill="#ff9838"/>
      </g>
      <path id="Trazado_101043" data-name="Trazado 101043" d="M72.232,405.822a6.616,6.616,0,0,0-6.608-6.608h-4.5a2.25,2.25,0,0,0,0,4.5h4.5a2.108,2.108,0,1,1,0,4.216h-4.5a2.25,2.25,0,0,0,0,4.5h4.5a2.108,2.108,0,0,1,0,4.216h-4.5a2.25,2.25,0,1,0,0,4.5h4.5a6.6,6.6,0,0,0,4.963-10.966,6.581,6.581,0,0,0,1.645-4.358Z" transform="translate(-41.953 -282.506)" fill="#ff656f"/>
    </g>
  </g>
</svg>
