<svg xmlns="http://www.w3.org/2000/svg" width="112.18" height="180.184" viewBox="0 0 112.18 180.184">
  <g id="_32" data-name="32" transform="translate(-227.658 -58.573)">
    <path id="Trazado_106196" data-name="Trazado 106196" d="M341.271,303.849c-3.667-4.441-10.414-4.673-15.695-4.25a41.474,41.474,0,0,0-10.453,2.071,23.785,23.785,0,0,0,1.732-5.853c.449-3.429-1.068-7.3-4.28-8.851a8.644,8.644,0,0,0-5.446-.661,9.247,9.247,0,0,0-10.09-11.436c-3.367.28-6.315,2.179-9.2,3.77l-.275.152c.042-.222.08-.445.112-.671.122-.864-.527-1.847-1.524-1.524a16.724,16.724,0,0,0-4.932,2.626c-.037-.036-.075-.071-.111-.108A29.93,29.93,0,0,0,283.7,273.9c.406-1.095-.914-1.757-1.768-1.36a18.188,18.188,0,0,0-3.644,2.289c-.3-.608-.571-1.221-.838-1.823.386-.652.761-1.312,1.114-1.986.51-.972-.586-2.349-1.619-1.62-.294.208-.584.421-.871.637-.154-.31-.309-.619-.469-.925.288-.5.567-1.009.823-1.531.4-.821-.268-2.057-1.3-1.686q-.551.2-1.072.432-.65-1.118-1.326-2.22a1.056,1.056,0,0,0-.619-1q-.481-.776-.965-1.55a17.91,17.91,0,0,0,.755-1.776,1.53,1.53,0,0,0-1.869-1.868c-.319.1-.633.2-.944.315q-.472-.781-.934-1.569a11.953,11.953,0,0,0,.58-2.068c.216-1.182-.807-2.741-2.192-2.192-.19.075-.373.16-.558.241-.173-.353-.346-.706-.511-1.064-.14-.3-.687-.164-.644.174.057.45.129.894.212,1.332-.428.215-.848.443-1.256.685a1.513,1.513,0,0,0-.337-.63,17.86,17.86,0,0,0,4.476-7.758,1.753,1.753,0,0,0-1.793-2.194c.286-.565.554-1.142.8-1.735a1.733,1.733,0,0,0-1.719-2.259,25.811,25.811,0,0,0,.952-2.47,1.857,1.857,0,0,0-2.267-2.267c-.072.022-.142.049-.214.072.148-.263.3-.526.439-.793a1.784,1.784,0,0,0-1.024-2.608c.336-.661.646-1.341.923-2.043a1.812,1.812,0,0,0-2.217-2.218c-.076.028-.15.059-.226.088a18.053,18.053,0,0,0,1.063-3.675,1.755,1.755,0,0,0-2.549-1.959q-.6.291-1.167.626a1.763,1.763,0,0,0-.575-1.408c.1-.4.184-.812.249-1.23.171-1.1-.716-2.5-2.012-2.012-.239.09-.474.188-.706.289a1.645,1.645,0,0,0-1.393-1.555c2.281-.251,4.476-1.12,6.614.156,1.633.974,2.835,2.137,4.863,1.919.93-.1,1.627-1.513.541-2-1.838-.822-3.361-2.234-5.206-2.983a6.129,6.129,0,0,0-1.454-.39,48.285,48.285,0,0,0,8.457-6.251,1.32,1.32,0,0,0-.362-2.216,12.248,12.248,0,0,0,3.828-2.47,1.15,1.15,0,0,0-.807-1.949,9.082,9.082,0,0,0-1.888.351,11.169,11.169,0,0,0,1.4-.792.607.607,0,0,0-.465-1.1l-.116.029a.275.275,0,0,0-.373-.185c-.434.2-.873.393-1.315.577a30.782,30.782,0,0,1-6.978.709c-1.133-.022-2.26-.115-3.384-.242,4.388-.487,8.871-.306,12.915-2.567.12-.067.037-.276-.095-.225-5.965,2.286-12.56.227-18.634,2.085-.841.257-.993,1.689,0,1.854,2.494.415,5.283.946,8.068,1.14a40.87,40.87,0,0,0-6.81,2.736,1.146,1.146,0,0,0,.575,2.122c1.009-.091,2.064-.155,3.141-.219-1.484.64-2.967,1.282-4.416,2.008a1.493,1.493,0,0,0,.354,2.71,14.382,14.382,0,0,0,4.836-.153c-1.414.853-2.844,1.683-4.261,2.537a3.871,3.871,0,0,0-4.752.431c-2.079,1.644-3.267,4.26-4.25,6.653-2.812,6.842-2.908,14.438-2.271,21.718a106.277,106.277,0,0,0,6.776,27.7c1.626,4.357,3.4,8.668,5.258,12.93,1.874,4.3,3.763,8.862,6.482,12.705a1.462,1.462,0,0,0,2.659-1.121,54.242,54.242,0,0,0-3.482-10.969c-1.533-3.887-3.109-7.758-4.583-11.669q-1.14-3.028-2.193-6.09a1.752,1.752,0,0,0,2.2-.157c2.684-2.185,5.1-4.932,7.893-7.062-2.4,3.512-6.181,6.422-8.317,9.912a1.8,1.8,0,0,0,2.822,2.178c2.934-2.83,5.962-5.848,9.526-7.908-2.653,4.2-7.013,7.524-10.008,11.367l0,0h0c-.078.1-.157.2-.233.3-1.043,1.383,1.177,2.974,2.343,1.808a93.8,93.8,0,0,1,8.725-8.119c-2.3,3.158-5.426,5.759-7.348,9.226a1.455,1.455,0,0,0,2.275,1.756c3.066-2.5,5.58-6.016,8.764-8.481-3.194,4.037-7.194,7.461-9.829,11.924-.75,1.271.836,3.128,2.148,2.148a52,52,0,0,0,5.115-4.46,39.281,39.281,0,0,0-4.349,6.8,1.557,1.557,0,0,0,2.115,2.115c3.907-2.148,6.511-5.859,9.478-9.1q.261.437.544.853c-2.834,3.813-6.071,7.384-8.186,11.655a1.547,1.547,0,0,0,2.419,1.867c3.338-2.826,5.868-7.008,8.961-10.38a7.313,7.313,0,0,0,1.862.776l.023.005c-.314.434-.63.858-.937,1.274a54.6,54.6,0,0,0-5.318,7.719,3.047,3.047,0,0,1-.99,3.461c.261,6.788,8.052,11.5,14.194,12.273a8.651,8.651,0,0,0,4.625-.583,4.491,4.491,0,0,0,.528.141c.1.134.207.261.32.384a9.527,9.527,0,0,0,.395,4.285,6.349,6.349,0,0,0,1.707,2.635,8.16,8.16,0,0,0-3.01,1.481,13.532,13.532,0,0,0-5.207-.122A8.13,8.13,0,0,0,285,319.035a7.508,7.508,0,0,0-.772.01c-1.86.126-4.032.682-5.12,2.32a8.275,8.275,0,0,0-1.114,5.551,7.54,7.54,0,0,0-2.4,1.124,11.178,11.178,0,0,0-3.673-.949c-2.709-.2-10.432,2.271-8.1,6.232,1.2,2.036,3.519,1.863,5.293.761,3.231,7.873,14.416,5.909,19.886,1.219,2.422-2.076.9-5.108-.869-7.428a4.324,4.324,0,0,0-.178-1.287,3.823,3.823,0,0,0,.575-.3,5.876,5.876,0,0,1,5.922,1.92c3.241,3.693,7.873,3.7,12.427,2.794,3.547-.707,9.754-3.778,7.579-8.338a5.238,5.238,0,0,0-3.082-2.474c.125-.231.243-.473.355-.72a27.723,27.723,0,0,1,6.693-1.1c1.684-.153,3.377-.266,5.064-.384,3.335-.232,6.661.192,9.987-.306C339.818,316.731,346.4,310.062,341.271,303.849ZM298.51,320.4a6.094,6.094,0,0,0,.232.694c0,.117,0,.234,0,.352,0,.059.011.116.015.175a4.079,4.079,0,0,0-.465-1.224C298.364,320.393,298.437,320.394,298.51,320.4Zm11.042,3.8c.039-.059.061-.062,0,0Zm-9.7-16.8c-.1-.018-.193-.039-.289-.062.083-.156.173-.311.271-.462a15.2,15.2,0,0,0,1.852-1.836,4.31,4.31,0,0,1,1.305-.553,1.338,1.338,0,0,1,1.2.534,8.387,8.387,0,0,0-3.149,2.5A7.812,7.812,0,0,1,299.853,307.4Zm-5.559-26.669c-.214.149-.422.3-.629.458a1.205,1.205,0,0,0,.023-.556c.177-.084.355-.166.534-.244A2.743,2.743,0,0,0,294.293,280.731Zm4.955,30.658a8.4,8.4,0,0,0-.143,1.042,2.665,2.665,0,0,1-.367-1.122C298.907,311.339,299.076,311.366,299.248,311.389Zm-27.9-43.555q-.373.249-.735.512.282-.44.547-.892ZM266.98,259.1l-.031.014.022-.036Zm-8.726-15.376q-.411.361-.815.732l.015-.018c.663-.83,1.364-1.719,2.121-2.571Q258.946,242.814,258.253,243.725Zm-8.6,8.972-.162.183-.041-.174A1.949,1.949,0,0,0,249.649,252.7Zm-1.036-8.755c-.224.281-.446.564-.661.849-.033-.227-.061-.458-.092-.687A1.424,1.424,0,0,0,248.613,243.942Zm-.165,3.915a1.928,1.928,0,0,0,.824.173c-.213.283-.426.567-.636.853C248.571,248.542,248.51,248.2,248.448,247.857Zm4.193-14.6c.84-1.087,1.668-2.181,2.442-3.305a28.325,28.325,0,0,1,2.457-2.631,26.966,26.966,0,0,1-2.02,3.235A31.651,31.651,0,0,0,252.641,233.254Zm1-16.986c-.449.337-.872.7-1.279,1.068.033-.273.059-.55.075-.832a.768.768,0,0,0-.037-.284,1,1,0,0,1,.608-.082,1.394,1.394,0,0,0,.756-.062c.035,0,.068.006.1,0,.057,0,.115-.009.172-.013A1.229,1.229,0,0,0,253.641,216.268Zm9.609-13.113c-1.04.186-2.1.314-3.164.412,1.81-.721,3.632-1.42,5.365-2.268a14.878,14.878,0,0,0,1.847-.42C265.916,201.529,264.616,202.383,263.251,203.155ZM252.52,263.576c-.722-2.2-1.4-4.418-2.007-6.651a1.988,1.988,0,0,0,.718-.449l.07-.067c-.816,1.7,1.246,3.688,2.78,2.129.15-.153.3-.309.447-.465a1.52,1.52,0,0,0,.726,1.868c-.8.969-1.591,1.942-2.363,2.931A2.163,2.163,0,0,0,252.52,263.576Zm19.769,17.134c.906-1.3,1.824-2.591,2.717-3.9q.156.361.321.719C274.3,278.571,273.3,279.654,272.288,280.71Zm7.137-3.784c.067-.055.133-.11.2-.164-.049.083-.1.167-.147.249Zm4.963,3.25c.112-.069.227-.134.341-.2-.016.044-.035.088-.051.132C284.581,280.132,284.484,280.156,284.388,280.175Zm-5.75,16.814a1.829,1.829,0,0,0-.518-1.251,2.008,2.008,0,0,0,.322-.214,36.916,36.916,0,0,0,3.385-3.2A16.041,16.041,0,0,0,280.143,295c-.763,1.561.867,3.637,2.545,2.545.435-.284.851-.587,1.253-.9-.373.552-.739,1.107-1.087,1.672-1.188,1.925,1.347,3.972,3.012,2.718A2.077,2.077,0,0,0,288.3,303.7a5.881,5.881,0,0,0,.3.979,16.836,16.836,0,0,1-5.58-2.721C281.717,301.048,278.707,298.8,278.638,296.989Zm-12.114,35.066L266.3,332c.557-.931,2.253-1.475,3.169-1.762a6.8,6.8,0,0,1,3.529-.1c.073.017.148.036.223.056a12.525,12.525,0,0,0-1.021,1.375c-.061-.084-.121-.169-.18-.258a1.871,1.871,0,0,0-3.406.637,7.394,7.394,0,0,1-1.06.2A2.674,2.674,0,0,1,266.523,332.055Zm31.677-7.2a4.444,4.444,0,0,0,.548-1.387,4.723,4.723,0,0,0,1.116,2.58A3.835,3.835,0,0,1,298.2,324.852Z" transform="translate(-10.422 -100.651)" fill="#a3195b"/>
    <g id="Grupo_56085" data-name="Grupo 56085" transform="translate(227.658 58.573)">
      <path id="Trazado_106197" data-name="Trazado 106197" d="M269.138,141.169c1.19-.67,2.851-.309,4.08,0a12.492,12.492,0,0,1,4.558,1.9c.019.016.047-.011.028-.028-2.159-1.943-6.179-4.36-9.2-2.774-3.145,1.653-2.338,5.867-1.184,8.529.2.455.915.126.786-.331C267.566,146.172,266.541,142.629,269.138,141.169Z" transform="translate(-255.954 -117.859)" fill="#1d1d1b"/>
      <path id="Trazado_106198" data-name="Trazado 106198" d="M352.5,217.327a.009.009,0,0,0,0-.018A.009.009,0,0,0,352.5,217.327Z" transform="translate(-318.831 -174.504)" fill="#1d1d1b"/>
      <path id="Trazado_106199" data-name="Trazado 106199" d="M339.577,270.763c-.887-2.293-3.474-2.241-5.539-2.06-3.034.268-5.984,1.092-9.016,1.393a12.914,12.914,0,0,1-5.105-.212c-1.8-.549-3.171-1.978-4.921-2.647-3.817-1.46-7.9-.455-11.847-1.114.605-2.774,4.081-4.176,4.639-6.928s-2.887-3.02-4.961-3.335a38.035,38.035,0,0,1,2.653-4.64c.548-.947,1.642-2.811.625-3.825-1.287-1.281-3.815-.346-5.262.048-3.056.833-5.96,4.539-9.268,2.582-2.317-1.37-3.925-4.639-5.593-6.733-2.361-2.964-4.4-6.191-6.446-9.373-1.419-2.2-2.871-4.508-4.447-6.735,1.558-.615,3.094-1.289,4.647-1.912,1.125-.451.683-2.268-.512-1.857-1.832.63-3.643,1.315-5.478,1.935a32.919,32.919,0,0,0-7.4-7.356c-.04-.028-.082.032-.05.065,1.473,1.563,2.854,3.195,4.174,4.873-2.105-1.412-3.736-2.57-4.482-5.03,1.814-2.651,3.933-5.2,4.081-8.552a.857.857,0,0,0-1.075-.819,24.245,24.245,0,0,0-5.378,2.261c-.028-.06-.047-.184-.139-.427-.227-.6-.423-1.212-.632-1.819a4.94,4.94,0,0,0-.965-1.82,2,2,0,0,0-1.194-.6c3.868-4.036,7.824-8,8.91-13.629a.945.945,0,0,0-.654-1.152c-4.37-.671-8,2.016-11.979,3.363.155-.717.179-1.493.256-2.158a40.246,40.246,0,0,0,.313-5.1c0-.311-.018-.625-.04-.938a24.717,24.717,0,0,0,4.893-3.908c.019.044.037.088.058.132.776,1.607,2.768,1.267,4.071.723.673-.281.682-1.459-.189-1.393-.8.061-1.923.195-2.222-.745a1.96,1.96,0,0,1-.074-.337c.483-.475.97-.945,1.469-1.4,2.641-2.419,6.36-3.709,8.529-6.619,1.755-2.355.308-5.285-.914-7.483a33.6,33.6,0,0,1-2.786-6.2c-1.048-3.276-5.436-19.5-11.3-13.517-.248.253.124.616.386.386,5.139-4.517,8.964,11.325,9.872,14.293a22.7,22.7,0,0,0,1.758,4.146c1.61,2.993,3.9,6.121.618,8.907-2.3,1.947-4.994,3.268-7.277,5.247l.047-.157a1.049,1.049,0,0,0-1.74-1.013c-.292.261-.57.534-.84.814.187-.448.361-.9.513-1.368a1.086,1.086,0,0,0-1.8-1.05c-.442.457-.867.929-1.284,1.409a14.608,14.608,0,0,0,.579-3.276.9.9,0,0,0-1.534-.635c-1.169,1.384-2.216,2.869-3.356,4.274,1.189-3.535,3.393-6.747,3.789-10.477a.262.262,0,0,0-.116-.248q.365-.858.679-1.734a4.317,4.317,0,0,0,2.824-4.58c-.017-.3-.054-.592-.1-.883a3.646,3.646,0,0,0,1.026-1.645.446.446,0,0,0-.428-.562,8.461,8.461,0,0,0-1.095.223c-.726-2.158-1.9-4.172-2.405-6.4a.19.19,0,0,0-.372.05,33.719,33.719,0,0,0,1.7,6.674,13.567,13.567,0,0,1-2.55.646,30.185,30.185,0,0,1-6.585.027c-3.81-.38-7.978-1.851-11.849-1.592.86-2.143,2.23-4.075,3.044-6.241.062-.165-.182-.246-.271-.114-1.811,2.709-4.191,5.5-4.643,8.834-.442,3.256,2.18,5.866,4.992,7.036a50.488,50.488,0,0,1-4.051,5.1c-1.89,2.1-4.038,3.924-5.782,6.161a24.38,24.38,0,0,0-4.68,11.858c-1.249,9.3.321,18.972,2.583,28.007a.385.385,0,0,0,.178.253,65.143,65.143,0,0,0,4.022,12.176c2.091,5.086,4.486,9.983,7.007,14.865a54.106,54.106,0,0,1,3.213,7.217c.711,2.074,1.39,4.526.109,6.495-.988,1.518-2.937,2.445-4.366,3.485a12.794,12.794,0,0,0-2.707,2.6,1.285,1.285,0,0,0-.972,1.249c-.006.161-.005.322,0,.483v.866a1.3,1.3,0,0,0,.22.753,9.578,9.578,0,0,0,.715,1.979,5.185,5.185,0,0,0,.072,1.976,5.061,5.061,0,0,0,3.031,3.279,10.841,10.841,0,0,0,3.853.841,8.891,8.891,0,0,0,1.189.293,1.443,1.443,0,0,0,1.258-.332q.371-.027.741-.064a.225.225,0,0,0,.13.374c8.521,1.562,17.248.711,25.8,1.9.13.06.261.117.392.175-3.728,1.154-7.775,2.109-10.654,4.776a3.014,3.014,0,0,0-.614,4.087,4.971,4.971,0,0,0,1.382,1.146c-6.981-.646-14.205-1.966-20.675.855-3.17,1.382-11.265,7.2-4.75,9.941a22.755,22.755,0,0,0,8.035,1.336,28.817,28.817,0,0,0,8.521-.769c5.985-1.628,11.337-4.959,17.732-3.689,3.99.793,7.114,1.954,10.941-.022a3.868,3.868,0,0,0,2.3-2.767,1.49,1.49,0,0,0-.044-.6,23.1,23.1,0,0,0,10.68-.3,6.212,6.212,0,0,0,4.18-3.505c.693-1.8-.261-4.133-.793-6a19.916,19.916,0,0,1,3.18-.38.719.719,0,0,0,.216.039c8.553.173,17.707.876,25.769-2.563C333.123,278.978,341.405,275.485,339.577,270.763Zm-69.169-46.745c.333.139.562-.132.58-.424q.813,1.057,1.6,2.136c-.209.067-.418.133-.628.2-2.181.665-5.429,1.8-7.6.569-2.292-1.3-.591-4.959.671-7.093a11,11,0,0,0,.474.992C266.511,222.241,268.557,223.245,270.409,224.018Zm-4.911-8.5a20.992,20.992,0,0,1,.1-3.252c0-.012,0-.024,0-.037.9-.515,1.79-1.016,2.681-1.474a12.676,12.676,0,0,1-2.733,5.038C265.529,215.7,265.513,215.607,265.5,215.516Zm-4.987-7.992c.722.1.929,1.142,1.122,1.7a16.47,16.47,0,0,0,.733,2.251c-2.726,1.5-5.436,3.036-8.485,3.467a24.3,24.3,0,0,1,3.025-4.622c.66.928,1.346,1.833,2.079,2.69.266.311.7-.085.537-.415a27.548,27.548,0,0,0-1.88-3.156c.547-.637,1.114-1.262,1.692-1.88A3.983,3.983,0,0,1,260.51,207.524Zm7.02-14.451c-1.278,4.419-4.7,7.865-7.812,11.122q-.63.659-1.262,1.321a11.81,11.81,0,0,0,1.144-3.086c.292-1.726-.912-3.216-1.926-4.462-.315-.387-.645-.755-.982-1.115C260.349,195.923,263.694,192.957,267.53,193.072Zm-10.351-10.02q-.13.27-.255.542c-.063-.179-.132-.354-.206-.526A.916.916,0,0,0,257.179,183.052Zm-2.376-2.5a32.384,32.384,0,0,0,2.428-2.837c-.465,1.294-1.016,2.57-1.374,3.882A5.664,5.664,0,0,0,254.8,180.55Zm-15.74-22.05c3.861,1.817,8.647,2.538,12.811,2.982,2.228.238,6.469.48,9.1-.9a4.4,4.4,0,0,1-.289,2.085,2.387,2.387,0,0,1-.835,1.015c.006-.022.014-.043.02-.066.034-.124-.154-.21-.211-.089s-.123.253-.185.379a10.19,10.19,0,0,1-3.4.717.541.541,0,0,0,0,1.082,7.787,7.787,0,0,0,2.6-.207c-.538,1.052-1.1,2.11-1.659,3.174a1.033,1.033,0,0,0-.156-.016.993.993,0,0,0-.7,1.661,40.67,40.67,0,0,0-4.026,10.295.261.261,0,0,0,.308.318,41.773,41.773,0,0,0,.526,6.027,39.7,39.7,0,0,1-.034,6.4,27.275,27.275,0,0,1-5.734-6.145c-.048-.077-.188-.026-.152.064,1.22,3.1,3.41,5.234,5.753,7.373-.011.09-.02.18-.032.27a6.14,6.14,0,0,0-.322,1.076.77.77,0,0,0,.53.934,7.117,7.117,0,0,0,2.459.151c1.381,1.326,2.9,3.006,2.973,4.821.072,1.7-1.651,3.824-2.207,5.424-.005.015-.008.029-.011.044-.43-.6-.86-1.193-1.277-1.789-1.894-2.714-3.731-5.466-5.421-8.312-3.345-5.633-6.176-12.014-5.981-18.693,0-.085-.12-.081-.129,0a20.07,20.07,0,0,0-.03,4.311c-.795-3.994-1.438-8.024-2.469-11.958a.068.068,0,0,0-.075-.047,17.2,17.2,0,0,0,2.348-3.93c.442.072.61-.537.314-.833q.156-.463.28-.947a.042.042,0,0,0-.076-.032c-.159.256-.322.508-.487.76C240.445,163.863,238.1,162.123,239.062,158.5Zm.979,109.319.042-.124c1,1.665,2.2,3.2,3.3,4.8A8.7,8.7,0,0,1,240.041,267.819Zm3.471-3.362a1.456,1.456,0,0,0-2.334.7,1.244,1.244,0,0,0-.462.015c0-.021.005-.041.007-.061a.6.6,0,0,0-.178-.467c1.293-1.157,2.812-2.06,4.16-3.168a1.243,1.243,0,0,0,.061.516,47.135,47.135,0,0,0,4.157,8.495C247.066,268.535,245.453,266.284,243.513,264.458Zm4.363,10.587a1.774,1.774,0,0,0-.107-.336c-.055-.126-.115-.25-.173-.374a1.561,1.561,0,0,0,.591-.8,17.617,17.617,0,0,0,1.717,1.434C249.228,274.99,248.552,275.022,247.875,275.044Zm1,1.182c.839-.1,1.666-.221,2.46-.345.258.142.522.277.793.4a1.36,1.36,0,0,0,1.845-1.845c-.183-.433-.38-.859-.583-1.282,1.175,1.171,2.379,2.317,3.589,3.455a1.66,1.66,0,0,0,.329.242A80.752,80.752,0,0,1,248.873,276.226ZM254.1,265.5c-.2,0-.4-.009-.593-.018q-.178-.255-.352-.512a13.437,13.437,0,0,1,1.1-.905q.362.707.721,1.413A7.213,7.213,0,0,1,254.1,265.5Zm1.478,1.185c.507,1.038.986,2.084,1.4,3.151a37.5,37.5,0,0,1-2.507-3.012A6.458,6.458,0,0,0,255.577,266.681Zm2.876,10.2a1.432,1.432,0,0,0,.718-1.6,1.338,1.338,0,0,0,1.677-1.608,26.186,26.186,0,0,0-2.533-7.441,49.444,49.444,0,0,0,13.557,11.179C267.42,276.975,262.933,276.995,258.453,276.885Zm2.029-12.23c1.676-.823,3.334-1.687,5.025-2.483.674-.317,4.545-2.411,5.24-1.444.843,1.172-1.986,4.742-2.589,5.639-.77,1.145-1.746,2.276-2.456,3.5A54.706,54.706,0,0,1,260.482,264.655Zm7.545,7.1c4.106-.808,7.641-4.878,11.82-3.807-.285,3.08-2.3,5.872-3.88,8.479A38.243,38.243,0,0,1,268.027,271.758Zm70.269,1.351a8.114,8.114,0,0,1-2.8,2.868,29.875,29.875,0,0,1-6.529,3.422c-7.858,3.107-16.527,2.014-24.763,2.134a.8.8,0,0,0-.1.012,17.688,17.688,0,0,0-4.28.551.672.672,0,0,0-.463.815c.41,1.777,1.317,3.726,1.044,5.576-.321,2.182-3.317,2.986-5.132,3.3a24.117,24.117,0,0,1-11.664-1.029c-.827-.294-1.169,1.006-.36,1.3.371.137.754.261,1.142.38.636.262,1.234.654,1.152,1.266-.1.754-1.106,1.286-1.683,1.617a7.994,7.994,0,0,1-5,1c-2.266-.365-4.449-1.117-6.724-1.449a16.3,16.3,0,0,0-7.031.676c-4.332,1.26-8.467,3.469-13.009,3.862a41,41,0,0,1-8.069-.117c-1.619-.181-5.266-.513-5.916-2.4-.336-.977.783-2.078,1.373-2.68a16.429,16.429,0,0,1,5.5-3.637c4.124-1.663,8.863-1.473,13.215-1.21,4.293.26,8.556.794,12.863.759.74-.006.69-1.024,0-1.114-2.073-.27-5.812-.3-7.028-2.351-1.02-1.716,1.613-3.26,2.772-3.927a48.063,48.063,0,0,1,8.964-3.483c.837.34,1.691.655,2.566.939,1.659.538,2.364-2.066.717-2.6-.568-.184-1.126-.386-1.677-.6a44.172,44.172,0,0,1,3.912-4.389c.641,3.095-1.712,7.023,1.328,9.289,2.663,1.984,6.611,1.822,9.633.832a.542.542,0,0,0-.288-1.044c-2.734.631-6.591.831-8.838-1.14-1.331-1.167-.761-3.561-.6-5.09a8.593,8.593,0,0,0-.313-4.206.665.665,0,0,0-1.092-.288c-.4.34-.794.695-1.174,1.057a12.557,12.557,0,0,0,1.234-4.54.661.661,0,0,0-.477-.627c-5.223-2-9,3.839-13.9,3.732.675-1.25,1.722-2.423,2.483-3.555a18.306,18.306,0,0,0,2.717-5.137c1-3.621-3.362-2.471-5.163-1.752-2.457.981-4.788,2.374-7.191,3.552q-.868-1.026-1.7-2.087a17.17,17.17,0,0,1,7.325-2.152c.706-.025.93-1.164.174-1.284-7.251-1.151-12.1-9.214-15.867-14.778A197.222,197.222,0,0,1,235.4,219.022c-.068-.141-.27-.018-.207.121A183.637,183.637,0,0,0,249.5,245.187c3.136,4.761,7.169,10.973,12.744,13.385a23.184,23.184,0,0,0-5.085,2.013c-1.305-1.72-2.545-3.495-3.733-5.293a1.354,1.354,0,0,0-2.464,1.039,34.987,34.987,0,0,0,2.629,6.43,12.63,12.63,0,0,0-1.219,1.017c-.976-1.535-1.876-3.118-2.721-4.711a1.354,1.354,0,0,0-2.464,1.039c.167.615.362,1.215.572,1.808q-.275-.474-.535-.959a1.214,1.214,0,0,0-1.286-.638c.2-.215.39-.436.569-.674,2.487-3.294-.187-8.624-1.628-11.783-2.388-5.235-5.255-10.223-7.607-15.486-1.311-2.935-2.569-5.888-3.708-8.894-1-2.643-1.668-5.356-2.426-8.061-1.278-8.273-2.659-16.623-1.676-25a23.984,23.984,0,0,1,5.476-12.994c1.869-2.193,4.04-4.2,5.8-6.462,1.217,11,3.536,22.648,8.824,32.449.135.25.493.031.375-.219a84.98,84.98,0,0,1-5.108-13.906,52.55,52.55,0,0,0,3.339,7.3c1.671,3.1,3.594,6.064,5.548,8.992.654.98,1.3,1.98,1.966,2.971a25.929,25.929,0,0,0-4.65,7.339,1.133,1.133,0,0,0,1.086,1.426c4.315.093,8.243-2.071,12.049-4.269-.012.282-.073.616-.107.97a10.462,10.462,0,0,0,.28,3.284,19.307,19.307,0,0,0-2.108,3.074c-1.192,2.353-1.66,6.138.773,7.906,2.256,1.639,5.494.921,7.973.281,1-.259,1.983-.584,2.952-.94,5.053,7.22,9.429,14.957,14.972,21.835,1.337,1.66,3.346,3.053,5.59,2.562,3.005-.659,5.34-2.86,8.382-3.557.492-.113,2.286-.616,2.081.335a8.165,8.165,0,0,1-1.123,2.277,23.768,23.768,0,0,0-2.72,5.16.748.748,0,0,0,.52.915c1.131.272,2.3.285,3.434.527,2.423.516.727,2.394-.136,3.392-1.411,1.634-3.118,3.355-3.279,5.621a.7.7,0,0,0,.517.68c3.59.779,7.229-.09,10.8.624,3.022.6,5.113,3.231,8.249,3.527a27.629,27.629,0,0,0,7.675-.6c2.623-.506,5.744-1.49,8.395-.732C338.551,270.551,338.752,272.091,338.3,273.109Z" transform="translate(-227.658 -121.296)" fill="#1d1d1b"/>
      <path id="Trazado_106200" data-name="Trazado 106200" d="M265.428,75.692c.387-.611.788-1.212,1.214-1.792a10.14,10.14,0,0,0-1.507,5.919c0,.547.779.523.832,0,.242-2.338.82-4.647,2.533-6.036,1.9-.05,3.729.152,5.68.29a6.993,6.993,0,0,0,2.52-.258,10.99,10.99,0,0,0,1.541-.122,7.414,7.414,0,0,0-.164,1.871,30.985,30.985,0,0,0-.65,11.155.233.233,0,0,0,.446,0,35.02,35.02,0,0,0,.167-5.242c.024-1.488.073-3,.189-4.506a5.619,5.619,0,0,0,2.238,3.875,1.5,1.5,0,0,0,1.668.458.465.465,0,0,0,.289-.071,3.391,3.391,0,0,0,1.324-.654c.076-.013.151-.022.229-.04,2.115-.486,3.525-2.439,4.641-4.159,1.2-1.854,2.57-4.305,2.741-6.557a.246.246,0,0,0-.071-.194,19.615,19.615,0,0,0,2.264-.08,29.9,29.9,0,0,0-2.047,3.491.411.411,0,0,0,.144.549,4.749,4.749,0,0,0,2.833.545.365.365,0,0,0,0-.731c-1.441-.114-2.383-.034-1.586-1.68a18.551,18.551,0,0,1,1.6-2.528c.167-.237-.107-.536-.359-.468a12.646,12.646,0,0,1-2.855.162c.478-1.691,1.754-2.883,2.4-4.521a.256.256,0,0,0-.179-.315,15.2,15.2,0,0,0-2.752-.378.278.278,0,0,0-.039-.072c-.042-.052-.084-.1-.126-.15a5.033,5.033,0,0,1,.8-.644c.093-.061.035-.224-.078-.186a3.712,3.712,0,0,0-1.013.515c-3.708-3.649-10.63.753-12.522,5.052a14.683,14.683,0,0,0-1.859-.119,7.845,7.845,0,0,1-.026-1.511,8.116,8.116,0,0,1,2.587-4.007c2.3-2,5.44-2.7,8.449-3.046,1.723.366,3.466,1,4.183,2.751a.236.236,0,0,0,.455-.125c-.444-2.4-3.095-3.255-5.225-3.44a.345.345,0,0,0-.326.46,13.9,13.9,0,0,0-8.12,2.817c-.188.147-.365.3-.535.461a8.006,8.006,0,0,1,5.352-3.458c.226-.036.174-.42-.054-.4a8.306,8.306,0,0,0-7.238,6.651,9.567,9.567,0,0,0-.707,2.907c-4.3.422-7.422,3.081-9.554,7.4A.162.162,0,0,0,265.428,75.692Zm1.233-1.819c.036-.05.072-.1.109-.149l0,.011C266.736,73.782,266.7,73.826,266.661,73.873Zm8.861-4.9a7.4,7.4,0,0,0,.832,1.891q-.384.017-.766.046A14.922,14.922,0,0,1,275.522,68.974Zm16.708-3.148a8.951,8.951,0,0,0-1.79,3.373c-.047.211.106.508.361.474h.01l0,0c-1.667,3.181-2.636,6.691-5.439,9.152-3.274,2.875-5.365-1.889-6.029-5.311.253-.044.5-.088.743-.128,1.634-.271,3.676-.781,4.8-2.1,3.258-.542,5.858-2.125,6.733-6.644a.306.306,0,0,0-.589-.162c-.791,2.359-1.806,4.455-4.132,5.588a6.914,6.914,0,0,1-1.215.45c2.483-1.551,2.814-4.586,4.49-6.622l.16.021.032.025a.228.228,0,0,0,.3.019c.724.11,1.437.268,2.151.444C293.373,64.544,292.378,65.622,292.23,65.826Zm-14.692,2.958a5.424,5.424,0,0,0-.2.766c-.01.058.075.084.089.025a6.3,6.3,0,0,1,.249-.78l.232.016c.336.027.416-.544.08-.59l-.059-.007c1.982-4.031,8.02-7.28,11.888-4.681a7.753,7.753,0,0,0-1.364,2.005c-.968,1.866-1.719,3.392-3.632,4.465a8.965,8.965,0,0,1-2.387.9c-.688.007-1.369-.012-2.023-.027-.416-.009-.833-.019-1.25-.026a.6.6,0,0,0-.8-.119c-.06.035-.117.071-.175.107-.464,0-.929,0-1.391.016a7.436,7.436,0,0,1-.788-2.11C276.523,68.733,277.034,68.751,277.538,68.783Zm-7.026,1.339a9.52,9.52,0,0,1,4.152-1.311,11.6,11.6,0,0,0,.155,2.172c-.52.06-1.035.141-1.542.25a10.421,10.421,0,0,0-5.084,1.246,5.2,5.2,0,0,0-1.169.956l-.045.013A13.656,13.656,0,0,1,270.512,70.122Z" transform="translate(-255.024 -58.573)" fill="#1d1d1b"/>
    </g>
  </g>
</svg>
