<svg xmlns="http://www.w3.org/2000/svg" width="128.5" height="128.5" viewBox="0 0 128.5 128.5">
  <g id="_74" data-name="74" transform="translate(-524 -12210)">
    <circle id="Elipse_4314" data-name="Elipse 4314" cx="64.25" cy="64.25" r="64.25" transform="translate(524 12210)" fill="#fff"/>
    <g id="funambulista" transform="translate(546 12220.967)">
      <g id="Grupo_54065" data-name="Grupo 54065" transform="translate(0 13.033)">
        <path id="Trazado_100778" data-name="Trazado 100778" d="M84.9,83.993a1.739,1.739,0,0,0-2.408-.839A122.719,122.719,0,0,1,66.7,87.7a4.864,4.864,0,0,0-3.33-3.684l-6.16-1.856-.258-26.9a10.809,10.809,0,0,0-1.887-6.01L47.478,38.138a7.57,7.57,0,0,1-1.3-4.576l.167-3.76c3.391-5.989,3.759-14.671,3.773-15.046a1.66,1.66,0,0,0-1.659-1.723H25.987a1.66,1.66,0,0,0-1.659,1.587c-.159,3.585.467,11.223.554,12.266L24.536,34.7a10.853,10.853,0,0,0,2.288,7.158L30.841,47l-2.689,9.363a1.66,1.66,0,0,0,3.192.916l2.023-7.045,6.339,8.113a7.507,7.507,0,0,1,.831,1.336L31.346,81.767l-6.359-2.35,2.321-8.085a1.66,1.66,0,0,0-3.192-.916l-2.73,9.507-1.814,4.91a5.5,5.5,0,0,0-.212,3.1A125.09,125.09,0,0,1,2.706,83.222c-.985-.366-2.135-.384-2.59.771a1.661,1.661,0,0,0,.936,2.154C23.812,95.115,49.185,95.881,72.7,89.7a100.292,100.292,0,0,0,11.27-3.551,1.679,1.679,0,0,0,.936-2.154ZM44.574,90.508q-1.946.044-3.892,0a6.021,6.021,0,0,0-2.645-4.722l-3.719-2.527,7.417-17.821,3.285,23.97a4.562,4.562,0,0,0,.239,1.075Zm18.8-2.412a1.528,1.528,0,0,1,.075.283c-3.961.772-13.509,1.86-13.8,1.881a1.3,1.3,0,0,1-1.317-1.172l-.242-2.461,2.218-.455,5.182-1.062L62.41,87.2a1.5,1.5,0,0,1,.963.9ZM46.665,16.354A34.083,34.083,0,0,1,43.8,27.523l-15.7-2.136c-.16-2.078-.446-6.163-.47-9.033h19.04ZM27.853,34.846l.271-6.1,14.851,2.02-.118,2.652a10.912,10.912,0,0,0,1.877,6.6L52.32,51.122a7.5,7.5,0,0,1,1.309,4.169l.257,26.758-6.21,1.272-3.166-21.9A10.908,10.908,0,0,0,42.323,56.3L29.441,39.812a7.529,7.529,0,0,1-1.588-4.966ZM22.845,87.837a2.183,2.183,0,0,1-.157-1.854l1.26-3.41L31.5,85.364l4.671,3.174a2.713,2.713,0,0,1,1.172,1.849q-1.318-.072-2.633-.177c-3.674-.3-7.213-.774-10.518-1.347a2.193,2.193,0,0,1-1.349-1.026Z" transform="translate(0 -13.033)"/>
        <path id="Trazado_100779" data-name="Trazado 100779" d="M355.47,223.261a1.66,1.66,0,0,0,1.586,1.732l.074,0a1.66,1.66,0,0,0,1.658-1.588,17.177,17.177,0,0,0-1.855-8.6,1.66,1.66,0,0,0-2.888,1.64A14.051,14.051,0,0,1,355.47,223.261Z" transform="translate(-295.079 -180.602)"/>
        <path id="Trazado_100780" data-name="Trazado 100780" d="M113.077,143.9a1.661,1.661,0,0,0,1.325-2.66c-2.508-3.326-1.945-7.784-1.937-7.848a1.66,1.66,0,0,0-3.289-.461c-.034.237-.785,5.854,2.574,10.309A1.657,1.657,0,0,0,113.077,143.9Z" transform="translate(-90.969 -111.833)"/>
        <path id="Trazado_100781" data-name="Trazado 100781" d="M157.632,309.675a1.66,1.66,0,1,0,.9-2.169A1.675,1.675,0,0,0,157.632,309.675Z" transform="translate(-131.354 -258.507)"/>
      </g>
    </g>
  </g>
</svg>
