<svg xmlns="http://www.w3.org/2000/svg" width="128.5" height="128.5" viewBox="0 0 128.5 128.5">
  <g id="_75" data-name="75" transform="translate(-839 -12210)">
    <circle id="Elipse_4315" data-name="Elipse 4315" cx="64.25" cy="64.25" r="64.25" transform="translate(839 12210)" fill="#fff"/>
    <g id="diseno-grafico" transform="translate(862 12197.603)">
      <path id="Trazado_100783" data-name="Trazado 100783" d="M111.967,174.7l8.2,8.2L127,176.07l9.567,9.567V162.4H102.4v20.5Z" transform="translate(-86 -100.786)" fill="#fff"/>
      <path id="Trazado_100790" data-name="Trazado 100790" d="M80.634,53.417H75.056a9.567,9.567,0,1,0-18.912,0H10.933V46.583a1.367,1.367,0,0,0-1.367-1.367h-4.1A5.467,5.467,0,0,0,0,50.683V105.35a5.467,5.467,0,0,0,5.467,5.467H80.633A1.367,1.367,0,0,0,82,109.45V54.783A1.367,1.367,0,0,0,80.634,53.417ZM65.6,45.217a6.825,6.825,0,0,1,4.555,11.916A1.365,1.365,0,0,0,69.7,58.15v2.1H66.967V56.716l3.7-3.7-1.932-1.932L65.6,54.218l-3.134-3.134-1.932,1.932,3.7,3.7V60.25H61.5v-2.1a1.369,1.369,0,0,0-.454-1.017A6.825,6.825,0,0,1,65.6,45.217ZM2.733,50.683A2.733,2.733,0,0,1,5.467,47.95H8.2V99.883H5.467a5.424,5.424,0,0,0-2.733.734V50.683Zm76.533,57.4H5.467a2.733,2.733,0,1,1,0-5.467h4.1a1.367,1.367,0,0,0,1.367-1.367V56.15H56.976a9.525,9.525,0,0,0,1.79,2.582V60.25H56.033v2.733H75.167V60.25H72.433V58.732a9.587,9.587,0,0,0,1.792-2.582h5.042v51.933Z"/>
      <path id="Trazado_100791" data-name="Trazado 100791" d="M129.4,153.869H95.234a1.367,1.367,0,0,0-1.367,1.367v28.7a1.367,1.367,0,0,0,1.367,1.367H129.4a1.367,1.367,0,0,0,1.367-1.367v-28.7A1.367,1.367,0,0,0,129.4,153.869Zm-1.367,2.733V175.17l-7.234-7.234a1.368,1.368,0,0,0-1.932,0L113,173.8l-7.234-7.234a1.366,1.366,0,0,0-1.856-.071l-7.31,6.266V156.6ZM96.6,182.569v-6.2l8.129-6.97,10.038,10.038L116.7,177.5l-1.767-1.764,4.9-4.9,8.2,8.2v3.534H96.6Z" transform="translate(-78.834 -93.619)"/>
      <rect id="Rectángulo_5474" data-name="Rectángulo 5474" width="2.733" height="2.733" transform="translate(61.5 67.082)"/>
      <rect id="Rectángulo_5475" data-name="Rectángulo 5475" width="8.2" height="2.733" transform="translate(66.967 67.082)"/>
      <rect id="Rectángulo_5476" data-name="Rectángulo 5476" width="19.133" height="2.733" transform="translate(56.033 72.549)"/>
      <rect id="Rectángulo_5477" data-name="Rectángulo 5477" width="19.133" height="2.733" transform="translate(56.033 78.015)"/>
      <rect id="Rectángulo_5478" data-name="Rectángulo 5478" width="19.133" height="2.733" transform="translate(56.033 83.482)"/>
      <rect id="Rectángulo_5479" data-name="Rectángulo 5479" width="13.667" height="2.733" transform="translate(56.033 88.949)"/>
      <rect id="Rectángulo_5480" data-name="Rectángulo 5480" width="30.067" height="2.733" transform="translate(21.867 95.782)"/>
      <rect id="Rectángulo_5481" data-name="Rectángulo 5481" width="36.9" height="2.733" transform="translate(15.033 101.249)"/>
      <path id="Trazado_100792" data-name="Trazado 100792" d="M191.833,196.2a4.1,4.1,0,1,0-4.1-4.1A4.1,4.1,0,0,0,191.833,196.2Zm0-5.467a1.367,1.367,0,1,1-1.367,1.367A1.367,1.367,0,0,1,191.833,190.736Z" transform="translate(-157.666 -122.286)"/>
      <rect id="Rectángulo_5482" data-name="Rectángulo 5482" width="2.733" height="2.733" transform="translate(21.867 65.715)"/>
      <rect id="Rectángulo_5483" data-name="Rectángulo 5483" width="2.733" height="2.733" transform="translate(42.367 68.449)"/>
      <rect id="Rectángulo_5484" data-name="Rectángulo 5484" width="2.733" height="2.733" transform="translate(15.033 95.782)"/>
      <path id="Trazado_100793" data-name="Trazado 100793" d="M367.634,375.736h-16.4a1.367,1.367,0,0,0-1.367,1.367v5.467a1.367,1.367,0,0,0,1.367,1.367h16.4A1.367,1.367,0,0,0,369,382.569V377.1A1.367,1.367,0,0,0,367.634,375.736Zm-1.367,5.467H352.6v-2.733h13.667Z" transform="translate(-293.833 -279.952)"/>
    </g>
  </g>
</svg>
