<svg xmlns="http://www.w3.org/2000/svg" width="505" height="520" viewBox="0 0 505 520">
  <g id="_78" data-name="78" transform="translate(-810 -12957)">
    <g id="Grupo_124670" data-name="Grupo 124670">
      <rect id="Rectángulo_36899" data-name="Rectángulo 36899" width="505" height="520" transform="translate(810 12957)" fill="#feec9a"/>
    </g>
    <g id="Grupo_124084" data-name="Grupo 124084" transform="translate(-198.058 12483.273)">
      <path id="Trazado_115820" data-name="Trazado 115820" d="M1120.24,630.062l-36,41.57V776.587l92.14,56.611V653.2Z" transform="translate(87.4 9.05)" fill="#84c8c8"/>
      <path id="Trazado_115821" data-name="Trazado 115821" d="M1267.035,666.591v58.284l-144.852,94.711V639.592Z" transform="translate(141.599 22.663)" fill="#72b6c8"/>
      <path id="Trazado_115822" data-name="Trazado 115822" d="M1099.065,630.062l67,41.713,137,9.928-26.142-13.071Z" transform="translate(108.576 9.05)" fill="#7b83be"/>
      <path id="Trazado_115823" data-name="Trazado 115823" d="M1096.183,644.6l18.856-3.411v33.2h-18.856Z" transform="translate(104.458 24.939)" fill="#fff"/>
      <path id="Trazado_115824" data-name="Trazado 115824" d="M1087.242,662.349l26.783,3.252-.5,54.979-26.287-11.648Z" transform="translate(91.686 55.171)" fill="#fff"/>
      <path id="Trazado_115825" data-name="Trazado 115825" d="M1102.417,664.191l30.287,3.678v67.577l-30.287-12.858Z" transform="translate(113.364 57.803)" fill="#fff"/>
      <path id="Trazado_115826" data-name="Trazado 115826" d="M1122.487,623.965v23.874l-10.04-2.02V627.46Z" transform="translate(127.691 0.341)" fill="#55519a"/>
      <path id="Trazado_115827" data-name="Trazado 115827" d="M1131.222,651.172v-22.63l-14.64-4.576v23.874Z" transform="translate(133.597 0.341)" fill="#3e428f"/>
      <path id="Trazado_115828" data-name="Trazado 115828" d="M1169.487,663.206v53.221l-36.716,16.843V668.042Z" transform="translate(156.724 56.395)" fill="#fff"/>
      <g id="Grupo_124071" data-name="Grupo 124071" transform="translate(1308.388 721.181)">
        <rect id="Rectángulo_36902" data-name="Rectángulo 36902" width="1.214" height="59.389" fill="#72b6c8"/>
      </g>
      <g id="Grupo_124072" data-name="Grupo 124072" transform="translate(1289.315 747.167)">
        <rect id="Rectángulo_36903" data-name="Rectángulo 36903" width="38.494" height="1.214" transform="translate(0 11.585) rotate(-17.514)" fill="#72b6c8"/>
      </g>
      <path id="Trazado_115829" data-name="Trazado 115829" d="M1188.659,660.047V711.47l-28.543,18.663V663.807Z" transform="translate(195.785 51.884)" fill="#3e428f"/>
      <g id="Grupo_124073" data-name="Grupo 124073" transform="translate(1249.997 623.727)">
        <path id="Trazado_115830" data-name="Trazado 115830" d="M1353.531,698.974l-237.024-74.09.36-1.157,237.024,74.09Z" transform="translate(-1116.507 -623.727)" fill="#d9000d"/>
      </g>
      <g id="Grupo_124074" data-name="Grupo 124074" transform="translate(1263.674 657.514)">
        <path id="Trazado_115831" data-name="Trazado 115831" d="M1345.559,679.118l-223.421-40.284.213-1.2,223.421,40.283Z" transform="translate(-1122.139 -637.64)" fill="#d9000d"/>
      </g>
      <g id="Grupo_124075" data-name="Grupo 124075" transform="translate(1263.509 697.885)">
        <rect id="Rectángulo_36904" data-name="Rectángulo 36904" width="246.078" height="1.212" transform="translate(0 103.06) rotate(-24.759)" fill="#d9000d"/>
      </g>
      <g id="Grupo_124076" data-name="Grupo 124076" transform="translate(1263.451 697.885)">
        <path id="Trazado_115832" data-name="Trazado 115832" d="M1122.706,799.136l-.659-1.02,223.421-143.852.659,1.02Z" transform="translate(-1122.047 -654.264)" fill="#d9000d"/>
      </g>
      <g id="Grupo_124077" data-name="Grupo 124077" transform="translate(1263.703 697.793)">
        <path id="Trazado_115833" data-name="Trazado 115833" d="M1122.307,684.859l-.156-1.2,223.421-29.429.156,1.2Z" transform="translate(-1122.151 -654.226)" fill="#d9000d"/>
      </g>
      <g id="Grupo_124078" data-name="Grupo 124078" transform="translate(1032.987 623.826)">
        <rect id="Rectángulo_36905" data-name="Rectángulo 36905" width="229.726" height="1.215" transform="translate(0 75.331) rotate(-19.142)" fill="#d9000d"/>
      </g>
      <g id="Grupo_124079" data-name="Grupo 124079" transform="translate(1032.975 699.271)">
        <rect id="Rectángulo_36906" data-name="Rectángulo 36906" width="1.213" height="251.999" transform="matrix(0.404, -0.915, 0.915, 0.404, 0, 1.109)" fill="#d9000d"/>
      </g>
      <g id="Grupo_124080" data-name="Grupo 124080" transform="translate(1032.899 699.308)">
        <path id="Trazado_115834" data-name="Trazado 115834" d="M1257.672,798.306,1027.11,655.884l.64-1.034,230.562,142.422Z" transform="translate(-1027.11 -654.85)" fill="#d9000d"/>
      </g>
      <g id="Grupo_124081" data-name="Grupo 124081" transform="translate(1033.11 657.514)">
        <path id="Trazado_115835" data-name="Trazado 115835" d="M1027.415,680.549l-.218-1.2,230.562-41.714.218,1.2Z" transform="translate(-1027.197 -637.64)" fill="#d9000d"/>
      </g>
      <g id="Grupo_124082" data-name="Grupo 124082" transform="translate(1033.146 699.223)">
        <rect id="Rectángulo_36907" data-name="Rectángulo 36907" width="1.214" height="232.255" transform="translate(0 1.205) rotate(-83.076)" fill="#d9000d"/>
      </g>
      <g id="Grupo_124083" data-name="Grupo 124083" transform="translate(1023.058 698.717)">
        <path id="Trazado_115836" data-name="Trazado 115836" d="M1499.058,655.82l-.017-1.214h.017Zm-4.874,0h-4.857v-1.214h4.857Zm-9.714,0h-4.857v-1.214h4.857Zm-9.714,0H1469.9v-1.214h4.857Zm-9.714,0h-4.857v-1.214h4.857Zm-9.714,0h-4.857v-1.214h4.857Zm-9.714,0h-4.857v-1.214h4.857Zm-9.714,0h-4.857v-1.214h4.857Zm-9.714,0h-4.857v-1.214h4.857Zm-9.714,0h-4.857v-1.214h4.857Zm-9.714,0H1401.9v-1.214h4.857Zm-9.714,0h-4.857v-1.214h4.857Zm-9.714,0h-4.857v-1.214h4.857Zm-9.714,0h-4.857v-1.214h4.857Zm-9.714,0h-4.857v-1.214h4.857Zm-9.714,0h-4.857v-1.214h4.857Zm-9.714,0h-4.857v-1.214h4.857Zm-9.714,0H1333.9v-1.214h4.857Zm-9.714,0h-4.857v-1.214h4.857Zm-9.714,0h-4.857v-1.214h4.857Zm-9.714,0h-4.857v-1.214h4.857Zm-9.714,0h-4.857v-1.214h4.857Zm-9.714,0h-4.857v-1.214h4.857Zm-9.714,0h-4.857v-1.214h4.857Zm-9.714,0h-4.857v-1.214h4.857Zm-9.714,0h-4.857v-1.214h4.857Zm-9.714,0h-4.857v-1.214h4.857Zm-9.714,0h-4.857v-1.214h4.857Zm-9.714,0h-4.857v-1.214h4.857Zm-9.714,0h-4.857v-1.214h4.857Zm-9.714,0h-4.857v-1.214h4.857Zm-9.714,0h-4.857v-1.214h4.857Zm-9.714,0H1188.2v-1.214h4.857Zm-9.714,0h-4.857v-1.214h4.857Zm-9.714,0h-4.857v-1.214h4.857Zm-9.714,0h-4.857v-1.214h4.857Zm-9.714,0h-4.857v-1.214h4.857Zm-9.714,0h-4.857v-1.214h4.857Zm-9.714,0h-4.857v-1.214h4.857Zm-9.714,0H1120.2v-1.214h4.857Zm-9.714,0h-4.857v-1.214h4.857Zm-9.714,0h-4.857v-1.214h4.857Zm-9.714,0h-4.857v-1.214h4.857Zm-9.714,0h-4.857v-1.214h4.857Zm-9.714,0h-4.857v-1.214h4.857Zm-9.714,0h-4.857v-1.214h4.857Zm-9.714,0H1052.2v-1.214h4.857Zm-9.714,0h-4.857v-1.214h4.857Zm-9.714,0h-4.857v-1.214h4.857Zm-9.714,0h-4.857v-1.214h4.857Z" transform="translate(-1023.058 -654.606)" fill="#040405"/>
      </g>
      <circle id="Elipse_4309" data-name="Elipse 4309" cx="4.808" cy="4.808" r="4.808" transform="translate(1031.075 694.825)" fill="#fca01f"/>
      <circle id="Elipse_4310" data-name="Elipse 4310" cx="4.808" cy="4.808" r="4.808" transform="translate(1480.473 694.825)" fill="#fca01f"/>
    </g>
  </g>
</svg>
